<?xml version="1.0" encoding="utf-8"?>
<!-- Generator: Adobe Illustrator 24.0.0, SVG Export Plug-In . SVG Version: 6.00 Build 0)  -->
<svg version="1.1" id="Layer_1" xmlns="http://www.w3.org/2000/svg" xmlns:xlink="http://www.w3.org/1999/xlink" x="0px" y="0px"
	 viewBox="0 0 75 15" style="enable-background:new 0 0 75 15;" xml:space="preserve">
<style type="text/css">
	.st0{fill:#FFFFFF;}
	.st1{clip-path:url(#SVGID_2_);fill:#B7B7B7;}
	.st2{clip-path:url(#SVGID_2_);fill:#404040;}
	.st3{clip-path:url(#SVGID_2_);}
	.st4{clip-path:url(#SVGID_4_);}
	.st5{opacity:0.9;}
	.st6{clip-path:url(#SVGID_6_);fill:#B7B7B7;}
	.st7{clip-path:url(#SVGID_6_);fill:#404040;}
	.st8{clip-path:url(#SVGID_6_);}
	.st9{clip-path:url(#SVGID_8_);}
	.st10{clip-path:url(#SVGID_10_);fill:#B7B7B7;}
	.st11{clip-path:url(#SVGID_10_);fill:#404040;}
	.st12{clip-path:url(#SVGID_10_);}
	.st13{clip-path:url(#SVGID_12_);}
</style>
<rect x="25" class="st0" width="25" height="15"/>
<g>
	<g>
		<defs>
			<rect id="SVGID_1_" width="25" height="15"/>
		</defs>
		<clipPath id="SVGID_2_">
			<use xlink:href="#SVGID_1_"  style="overflow:visible;"/>
		</clipPath>
		<rect class="st1" width="25" height="15"/>
		<path class="st2" d="M1,1h23v13H1V1z M0,15h25V0H0V15z"/>
		<g class="st3">
			<defs>
				<rect id="SVGID_3_" width="25" height="15"/>
			</defs>
			<clipPath id="SVGID_4_">
				<use xlink:href="#SVGID_3_"  style="overflow:visible;"/>
			</clipPath>
			<path class="st4" d="M15.3,12.1c-2.4,0-3.3-3.3-3.5-4.4c-0.4-1.5-1.1-3.2-2.1-3.2c-0.9,0-1.8,1.4-1.8,4.1c0,0.4-0.3,0.8-0.8,0.8
				c-0.4,0-0.8-0.3-0.8-0.8c0-3.3,1.3-5.6,3.3-5.6c2.4,0,3.3,3.3,3.5,4.4c0.4,1.5,1.1,3.2,2.1,3.2c0.9,0,1.8-1.4,1.8-4.1
				c0-0.4,0.3-0.8,0.8-0.8c0.4,0,0.8,0.3,0.8,0.8C18.6,9.8,17.3,12.1,15.3,12.1"/>
		</g>
	</g>
</g>
<g class="st5">
	<g>
		<defs>
			<rect id="SVGID_5_" x="25" width="25" height="15"/>
		</defs>
		<clipPath id="SVGID_6_">
			<use xlink:href="#SVGID_5_"  style="overflow:visible;"/>
		</clipPath>
		<rect x="25" class="st6" width="25" height="15"/>
		<path class="st7" d="M26,1h23v13H26V1z M25,15h25V0H25V15z"/>
		<g class="st8">
			<defs>
				<rect id="SVGID_7_" x="25" width="25" height="15"/>
			</defs>
			<clipPath id="SVGID_8_">
				<use xlink:href="#SVGID_7_"  style="overflow:visible;"/>
			</clipPath>
			<path class="st9" d="M40.3,12.1c-2.4,0-3.3-3.3-3.5-4.4c-0.4-1.5-1.1-3.2-2.1-3.2c-0.9,0-1.8,1.4-1.8,4.1c0,0.4-0.3,0.8-0.8,0.8
				c-0.4,0-0.8-0.3-0.8-0.8c0-3.3,1.3-5.6,3.3-5.6c2.4,0,3.3,3.3,3.5,4.4c0.4,1.5,1.1,3.2,2.1,3.2c0.9,0,1.8-1.4,1.8-4.1
				c0-0.4,0.3-0.8,0.8-0.8c0.4,0,0.8,0.3,0.8,0.8C43.6,9.8,42.3,12.1,40.3,12.1"/>
		</g>
	</g>
</g>
<g>
	<g>
		<defs>
			<rect id="SVGID_9_" x="50" width="25" height="15"/>
		</defs>
		<clipPath id="SVGID_10_">
			<use xlink:href="#SVGID_9_"  style="overflow:visible;"/>
		</clipPath>
		<rect x="50" class="st10" width="25" height="15"/>
		<path class="st11" d="M51,1h23v13H51V1z M50,15h25V0H50V15z"/>
		<g class="st12">
			<defs>
				<rect id="SVGID_11_" x="50" width="25" height="15"/>
			</defs>
			<clipPath id="SVGID_12_">
				<use xlink:href="#SVGID_11_"  style="overflow:visible;"/>
			</clipPath>
			<path class="st13" d="M65.3,12.1c-2.4,0-3.3-3.3-3.5-4.4c-0.4-1.5-1.1-3.2-2.1-3.2c-0.9,0-1.8,1.4-1.8,4.1c0,0.4-0.3,0.8-0.8,0.8
				c-0.4,0-0.8-0.3-0.8-0.8c0-3.3,1.3-5.6,3.3-5.6c2.4,0,3.3,3.3,3.5,4.4c0.4,1.5,1.1,3.2,2.1,3.2c0.9,0,1.8-1.4,1.8-4.1
				c0-0.4,0.3-0.8,0.8-0.8c0.4,0,0.8,0.3,0.8,0.8C68.6,9.8,67.3,12.1,65.3,12.1"/>
		</g>
	</g>
</g>
</svg>
