<?xml version="1.0" encoding="utf-8"?>
<!-- Generator: Adobe Illustrator 24.0.0, SVG Export Plug-In . SVG Version: 6.00 Build 0)  -->
<svg version="1.1" id="Layer_1" xmlns="http://www.w3.org/2000/svg" xmlns:xlink="http://www.w3.org/1999/xlink" x="0px" y="0px"
	 viewBox="0 0 60 20" style="enable-background:new 0 0 60 20;" xml:space="preserve">
<style type="text/css">
	.st0{clip-path:url(#SVGID_2_);fill:#B7B7B7;}
	.st1{clip-path:url(#SVGID_2_);fill:#404040;}
	.st2{clip-path:url(#SVGID_2_);}
	.st3{opacity:0.9;}
	.st4{clip-path:url(#SVGID_4_);fill:#B7B7B7;}
	.st5{clip-path:url(#SVGID_4_);fill:#404040;}
	.st6{clip-path:url(#SVGID_4_);}
	.st7{clip-path:url(#SVGID_6_);fill:#B7B7B7;}
	.st8{clip-path:url(#SVGID_6_);fill:#404040;}
	.st9{clip-path:url(#SVGID_6_);}
</style>
<g>
	<g>
		<defs>
			<rect id="SVGID_1_" width="20" height="19"/>
		</defs>
		<clipPath id="SVGID_2_">
			<use xlink:href="#SVGID_1_"  style="overflow:visible;"/>
		</clipPath>
		<rect class="st0" width="20" height="19"/>
		<path class="st1" d="M1,1h18v17H1V1z M0,19h20V0H0V19z"/>
		<polygon class="st2" points="8.9,7.8 4.3,5.6 4.3,13.4 8.9,11.2 		"/>
		<polygon class="st2" points="11.1,7.8 11.1,11.2 15.7,13.4 15.7,5.6 		"/>
	</g>
</g>
<g class="st3">
	<g>
		<defs>
			<rect id="SVGID_3_" x="20" width="20" height="19"/>
		</defs>
		<clipPath id="SVGID_4_">
			<use xlink:href="#SVGID_3_"  style="overflow:visible;"/>
		</clipPath>
		<rect x="20" class="st4" width="20" height="19"/>
		<path class="st5" d="M21,1h18v17H21V1z M20,19h20V0H20V19z"/>
		<polygon class="st6" points="28.9,7.8 24.3,5.6 24.3,13.4 28.9,11.2 		"/>
		<polygon class="st6" points="31.1,7.8 31.1,11.2 35.7,13.4 35.7,5.6 		"/>
	</g>
</g>
<g>
	<g>
		<defs>
			<rect id="SVGID_5_" x="40" width="20" height="19"/>
		</defs>
		<clipPath id="SVGID_6_">
			<use xlink:href="#SVGID_5_"  style="overflow:visible;"/>
		</clipPath>
		<rect x="40" class="st7" width="20" height="19"/>
		<path class="st8" d="M41,1h18v17H41V1z M40,19h20V0H40V19z"/>
		<polygon class="st9" points="48.9,7.8 44.3,5.6 44.3,13.4 48.9,11.2 		"/>
		<polygon class="st9" points="51.1,7.8 51.1,11.2 55.7,13.4 55.7,5.6 		"/>
	</g>
</g>
</svg>
