<?xml version="1.0" encoding="utf-8"?>
<!-- Generator: Adobe Illustrator 24.0.0, SVG Export Plug-In . SVG Version: 6.00 Build 0)  -->
<svg version="1.1" id="Layer_1" xmlns="http://www.w3.org/2000/svg" xmlns:xlink="http://www.w3.org/1999/xlink" x="0px" y="0px"
	 viewBox="0 0 60 20" style="enable-background:new 0 0 60 20;" xml:space="preserve">
<style type="text/css">
	.st0{clip-path:url(#SVGID_2_);fill:#B7B7B7;}
	.st1{clip-path:url(#SVGID_2_);}
	.st2{clip-path:url(#SVGID_4_);}
	.st3{opacity:0.9;}
	.st4{clip-path:url(#SVGID_6_);fill:#B7B7B7;}
	.st5{clip-path:url(#SVGID_6_);}
	.st6{clip-path:url(#SVGID_8_);}
	.st7{clip-path:url(#SVGID_10_);fill:#B7B7B7;}
	.st8{clip-path:url(#SVGID_10_);}
	.st9{clip-path:url(#SVGID_12_);}
</style>
<g>
	<g>
		<defs>
			<rect id="SVGID_1_" width="20" height="20"/>
		</defs>
		<clipPath id="SVGID_2_">
			<use xlink:href="#SVGID_1_"  style="overflow:visible;"/>
		</clipPath>
		<rect class="st0" width="20" height="20"/>
		<g class="st1">
			<defs>
				<rect id="SVGID_3_" width="20" height="20"/>
			</defs>
			<clipPath id="SVGID_4_">
				<use xlink:href="#SVGID_3_"  style="overflow:visible;"/>
			</clipPath>
			<path class="st2" d="M13.3,12.2c-0.1,0-0.1-0.1-0.2-0.1c-0.1,0-0.1,0-0.2,0.1c-0.3,0.5-0.8,0.8-1.3,1.1c-0.5,0.2-1,0.4-1.6,0.4
				c-0.5,0-1-0.1-1.4-0.3c-0.5-0.2-0.8-0.5-1.2-0.8c-0.3-0.3-0.6-0.7-0.8-1.2C6.4,11,6.3,10.5,6.3,10c0-0.5,0.1-1,0.3-1.4
				c0.2-0.5,0.5-0.8,0.8-1.2c0.3-0.3,0.7-0.6,1.2-0.8C9,6.4,9.5,6.3,10,6.3c0.9,0,1.7,0.3,2.4,0.9l-1.6,1.7l5.4,0.6l-0.9-5.4
				l-1.6,1.7c-0.5-0.4-1-0.8-1.6-1c-0.7-0.3-1.3-0.4-2-0.4c-0.7,0-1.5,0.1-2.1,0.4C7.2,5.2,6.6,5.6,6.1,6.1C5.6,6.6,5.2,7.2,4.9,7.9
				C4.6,8.5,4.5,9.3,4.5,10c0,0.7,0.1,1.5,0.4,2.1c0.3,0.7,0.7,1.3,1.2,1.8c0.5,0.5,1.1,0.9,1.8,1.2c0.7,0.3,1.4,0.4,2.1,0.4
				c0.8,0,1.6-0.2,2.4-0.5c0.7-0.3,1.4-0.8,1.9-1.5c0,0,0.1-0.1,0.1-0.2c0-0.1,0-0.1-0.1-0.1L13.3,12.2z"/>
		</g>
	</g>
</g>
<g class="st3">
	<g>
		<defs>
			<rect id="SVGID_5_" x="20" width="20" height="20"/>
		</defs>
		<clipPath id="SVGID_6_">
			<use xlink:href="#SVGID_5_"  style="overflow:visible;"/>
		</clipPath>
		<rect x="20" class="st4" width="20" height="20"/>
		<g class="st5">
			<defs>
				<rect id="SVGID_7_" x="20" width="20" height="20"/>
			</defs>
			<clipPath id="SVGID_8_">
				<use xlink:href="#SVGID_7_"  style="overflow:visible;"/>
			</clipPath>
			<path class="st6" d="M33.3,12.2c-0.1,0-0.1-0.1-0.2-0.1c-0.1,0-0.1,0-0.2,0.1c-0.3,0.5-0.8,0.8-1.3,1.1c-0.5,0.2-1,0.4-1.6,0.4
				c-0.5,0-1-0.1-1.4-0.3c-0.5-0.2-0.8-0.5-1.2-0.8c-0.3-0.3-0.6-0.7-0.8-1.2c-0.2-0.5-0.3-0.9-0.3-1.4c0-0.5,0.1-1,0.3-1.4
				c0.2-0.5,0.5-0.8,0.8-1.2c0.3-0.3,0.7-0.6,1.2-0.8C29,6.4,29.5,6.3,30,6.3c0.9,0,1.7,0.3,2.4,0.9l-1.6,1.7l5.4,0.6l-0.9-5.4
				l-1.6,1.7c-0.5-0.4-1-0.8-1.6-1c-0.7-0.3-1.3-0.4-2-0.4c-0.7,0-1.5,0.1-2.1,0.4c-0.7,0.3-1.3,0.7-1.8,1.2
				c-0.5,0.5-0.9,1.1-1.2,1.8c-0.3,0.7-0.4,1.4-0.4,2.1c0,0.7,0.1,1.5,0.4,2.1c0.3,0.7,0.7,1.3,1.2,1.8c0.5,0.5,1.1,0.9,1.8,1.2
				c0.7,0.3,1.4,0.4,2.1,0.4c0.8,0,1.6-0.2,2.4-0.5c0.7-0.3,1.4-0.8,1.9-1.5c0,0,0.1-0.1,0.1-0.2c0-0.1,0-0.1-0.1-0.1L33.3,12.2z"/>
		</g>
	</g>
</g>
<g>
	<g>
		<defs>
			<rect id="SVGID_9_" x="40" width="20" height="20"/>
		</defs>
		<clipPath id="SVGID_10_">
			<use xlink:href="#SVGID_9_"  style="overflow:visible;"/>
		</clipPath>
		<rect x="40" class="st7" width="20" height="20"/>
		<g class="st8">
			<defs>
				<rect id="SVGID_11_" x="40" width="20" height="20"/>
			</defs>
			<clipPath id="SVGID_12_">
				<use xlink:href="#SVGID_11_"  style="overflow:visible;"/>
			</clipPath>
			<path class="st9" d="M53.3,12.2c-0.1,0-0.1-0.1-0.2-0.1c-0.1,0-0.1,0-0.2,0.1c-0.3,0.5-0.8,0.8-1.3,1.1c-0.5,0.2-1,0.4-1.6,0.4
				c-0.5,0-1-0.1-1.4-0.3c-0.5-0.2-0.8-0.5-1.2-0.8c-0.3-0.3-0.6-0.7-0.8-1.2c-0.2-0.5-0.3-0.9-0.3-1.4c0-0.5,0.1-1,0.3-1.4
				s0.5-0.8,0.8-1.2c0.3-0.3,0.7-0.6,1.2-0.8C49,6.4,49.5,6.3,50,6.3c0.9,0,1.7,0.3,2.4,0.9l-1.6,1.7l5.4,0.6l-0.9-5.4l-1.6,1.7
				c-0.5-0.4-1-0.8-1.6-1c-0.7-0.3-1.3-0.4-2-0.4c-0.7,0-1.5,0.1-2.1,0.4c-0.7,0.3-1.3,0.7-1.8,1.2c-0.5,0.5-0.9,1.1-1.2,1.8
				c-0.3,0.7-0.4,1.4-0.4,2.1c0,0.7,0.1,1.5,0.4,2.1c0.3,0.7,0.7,1.3,1.2,1.8c0.5,0.5,1.1,0.9,1.8,1.2c0.7,0.3,1.4,0.4,2.1,0.4
				c0.8,0,1.6-0.2,2.4-0.5c0.7-0.3,1.4-0.8,1.9-1.5c0,0,0.1-0.1,0.1-0.2c0-0.1,0-0.1-0.1-0.1L53.3,12.2z"/>
		</g>
	</g>
</g>
</svg>
