<?xml version="1.0" encoding="utf-8"?>
<!-- Generator: Adobe Illustrator 24.0.0, SVG Export Plug-In . SVG Version: 6.00 Build 0)  -->
<svg version="1.1" id="Layer_1" xmlns="http://www.w3.org/2000/svg" xmlns:xlink="http://www.w3.org/1999/xlink" x="0px" y="0px"
	 viewBox="0 0 60 20" style="enable-background:new 0 0 60 20;" xml:space="preserve">
<style type="text/css">
	.st0{clip-path:url(#SVGID_2_);fill:#B7B7B7;}
	.st1{clip-path:url(#SVGID_2_);fill:#404040;}
	.st2{clip-path:url(#SVGID_2_);}
	.st3{font-family:'AbletonSansBold-Regular';}
	.st4{font-size:9.8106px;}
	.st5{clip-path:url(#SVGID_2_);fill:none;stroke:#000000;stroke-miterlimit:10;}
	.st6{opacity:0.9;}
	.st7{clip-path:url(#SVGID_4_);fill:#B7B7B7;}
	.st8{clip-path:url(#SVGID_4_);fill:#404040;}
	.st9{clip-path:url(#SVGID_4_);}
	.st10{clip-path:url(#SVGID_4_);fill:none;stroke:#000000;stroke-miterlimit:10;}
	.st11{clip-path:url(#SVGID_6_);fill:#B7B7B7;}
	.st12{clip-path:url(#SVGID_6_);fill:#404040;}
	.st13{clip-path:url(#SVGID_6_);}
	.st14{clip-path:url(#SVGID_6_);fill:none;stroke:#000000;stroke-miterlimit:10;}
</style>
<g>
	<g>
		<defs>
			<rect id="SVGID_1_" width="20" height="19"/>
		</defs>
		<clipPath id="SVGID_2_">
			<use xlink:href="#SVGID_1_"  style="overflow:visible;"/>
		</clipPath>
		<rect class="st0" width="20" height="19"/>
		<path class="st1" d="M1,1h18v17H1V1z M0,19h20V0H0V19z"/>
		<g class="st2">
			<text transform="matrix(1.0917 0 0 1 5.4268 13.0283)" class="st3 st4">M</text>
		</g>
		<polygon class="st5" points="10,11 8,6.1 6.3,6.1 6.3,13 7.5,13 7.5,8 9.6,13 10.4,13 12.5,8 12.5,13 13.7,13 13.7,6.1 12,6.1 		
			"/>
	</g>
</g>
<g class="st6">
	<g>
		<defs>
			<rect id="SVGID_3_" x="20" width="20" height="19"/>
		</defs>
		<clipPath id="SVGID_4_">
			<use xlink:href="#SVGID_3_"  style="overflow:visible;"/>
		</clipPath>
		<rect x="20" class="st7" width="20" height="19"/>
		<path class="st8" d="M21,1h18v17H21V1z M20,19h20V0H20V19z"/>
		<g class="st9">
			<text transform="matrix(1.0917 0 0 1 25.4268 13.0283)" class="st3 st4">M</text>
		</g>
		<polygon class="st10" points="30,11 28,6.1 26.3,6.1 26.3,13 27.5,13 27.5,8 29.6,13 30.4,13 32.5,8 32.5,13 33.7,13 33.7,6.1 
			32,6.1 		"/>
	</g>
</g>
<g>
	<g>
		<defs>
			<rect id="SVGID_5_" x="40" width="20" height="19"/>
		</defs>
		<clipPath id="SVGID_6_">
			<use xlink:href="#SVGID_5_"  style="overflow:visible;"/>
		</clipPath>
		<rect x="40" class="st11" width="20" height="19"/>
		<path class="st12" d="M41,1h18v17H41V1z M40,19h20V0H40V19z"/>
		<g class="st13">
			<text transform="matrix(1.0917 0 0 1 45.4268 13.0283)" class="st3 st4">M</text>
		</g>
		<polygon class="st14" points="50,11 48,6.1 46.3,6.1 46.3,13 47.5,13 47.5,8 49.6,13 50.4,13 52.5,8 52.5,13 53.7,13 53.7,6.1 
			52,6.1 		"/>
	</g>
</g>
</svg>
