<?xml version="1.0" encoding="utf-8"?>
<!-- Generator: Adobe Illustrator 24.0.0, SVG Export Plug-In . SVG Version: 6.00 Build 0)  -->
<svg version="1.1" id="Layer_1" xmlns="http://www.w3.org/2000/svg" xmlns:xlink="http://www.w3.org/1999/xlink" x="0px" y="0px"
	 viewBox="0 0 72 24" style="enable-background:new 0 0 72 24;" xml:space="preserve">
<style type="text/css">
	.st0{clip-path:url(#SVGID_2_);}
	.st1{clip-path:url(#SVGID_4_);}
	.st2{clip-path:url(#SVGID_4_);fill:none;stroke:#000000;stroke-miterlimit:10;}
	.st3{clip-path:url(#SVGID_6_);}
	.st4{clip-path:url(#SVGID_8_);}
	.st5{clip-path:url(#SVGID_8_);fill:none;stroke:#000000;stroke-miterlimit:10;}
	.st6{clip-path:url(#SVGID_10_);}
	.st7{clip-path:url(#SVGID_12_);}
	.st8{clip-path:url(#SVGID_12_);fill:none;stroke:#000000;stroke-miterlimit:10;}
</style>
<g>
	<g>
		<defs>
			<rect id="SVGID_1_" width="24" height="21"/>
		</defs>
		<clipPath id="SVGID_2_">
			<use xlink:href="#SVGID_1_"  style="overflow:visible;"/>
		</clipPath>
		<g class="st0">
			<defs>
				<rect id="SVGID_3_" width="24" height="21"/>
			</defs>
			<clipPath id="SVGID_4_">
				<use xlink:href="#SVGID_3_"  style="overflow:visible;"/>
			</clipPath>
			<path class="st1" d="M12,4.1c-3.5,0-6.4,2.9-6.4,6.4V14c0,0.7,0.3,1.4,0.8,1.9l0.7,0.7l1.1,0.3h0c0.9,0,1.6-0.7,1.6-1.6v-3.1
				c0-0.9-0.7-1.6-1.6-1.6h0l-1.1,0.3l-0.4,0.4v-0.8c0-2.9,2.4-5.3,5.3-5.3s5.3,2.4,5.3,5.3v0.8l-0.4-0.4l-1.1-0.3h0
				c-0.9,0-1.6,0.7-1.6,1.6v3.1c0,0.9,0.7,1.6,1.6,1.6h0l1.1-0.3l0.7-0.7c0.5-0.5,0.8-1.2,0.8-1.9v-3.5C18.4,7,15.5,4.1,12,4.1"/>
			<path class="st2" d="M12,4.1c-3.5,0-6.4,2.9-6.4,6.4V14c0,0.7,0.3,1.4,0.8,1.9l0.7,0.7l1.1,0.3h0c0.9,0,1.6-0.7,1.6-1.6v-3.1
				c0-0.9-0.7-1.6-1.6-1.6h0l-1.1,0.3l-0.4,0.4v-0.8c0-2.9,2.4-5.3,5.3-5.3s5.3,2.4,5.3,5.3v0.8l-0.4-0.4l-1.1-0.3h0
				c-0.9,0-1.6,0.7-1.6,1.6v3.1c0,0.9,0.7,1.6,1.6,1.6h0l1.1-0.3l0.7-0.7c0.5-0.5,0.8-1.2,0.8-1.9v-3.5C18.4,7,15.5,4.1,12,4.1z"/>
		</g>
	</g>
</g>
<g>
	<g>
		<defs>
			<rect id="SVGID_5_" x="24" width="24" height="21"/>
		</defs>
		<clipPath id="SVGID_6_">
			<use xlink:href="#SVGID_5_"  style="overflow:visible;"/>
		</clipPath>
		<g class="st3">
			<defs>
				<rect id="SVGID_7_" x="24" width="24" height="21"/>
			</defs>
			<clipPath id="SVGID_8_">
				<use xlink:href="#SVGID_7_"  style="overflow:visible;"/>
			</clipPath>
			<path class="st4" d="M36,4.1c-3.5,0-6.4,2.9-6.4,6.4V14c0,0.7,0.3,1.4,0.8,1.9l0.7,0.7l1.1,0.3h0c0.9,0,1.6-0.7,1.6-1.6v-3.1
				c0-0.9-0.7-1.6-1.6-1.6h0l-1.1,0.3l-0.4,0.4v-0.8c0-2.9,2.4-5.3,5.3-5.3c2.9,0,5.3,2.4,5.3,5.3v0.8l-0.4-0.4l-1.1-0.3h0
				c-0.9,0-1.6,0.7-1.6,1.6v3.1c0,0.9,0.7,1.6,1.6,1.6h0l1.1-0.3l0.7-0.7c0.5-0.5,0.8-1.2,0.8-1.9v-3.5C42.4,7,39.5,4.1,36,4.1"/>
			<path class="st5" d="M36,4.1c-3.5,0-6.4,2.9-6.4,6.4V14c0,0.7,0.3,1.4,0.8,1.9l0.7,0.7l1.1,0.3h0c0.9,0,1.6-0.7,1.6-1.6v-3.1
				c0-0.9-0.7-1.6-1.6-1.6h0l-1.1,0.3l-0.4,0.4v-0.8c0-2.9,2.4-5.3,5.3-5.3c2.9,0,5.3,2.4,5.3,5.3v0.8l-0.4-0.4l-1.1-0.3h0
				c-0.9,0-1.6,0.7-1.6,1.6v3.1c0,0.9,0.7,1.6,1.6,1.6h0l1.1-0.3l0.7-0.7c0.5-0.5,0.8-1.2,0.8-1.9v-3.5C42.4,7,39.5,4.1,36,4.1z"/>
		</g>
	</g>
</g>
<g>
	<g>
		<defs>
			<rect id="SVGID_9_" x="48" width="24" height="21"/>
		</defs>
		<clipPath id="SVGID_10_">
			<use xlink:href="#SVGID_9_"  style="overflow:visible;"/>
		</clipPath>
		<g class="st6">
			<defs>
				<rect id="SVGID_11_" x="48" width="24" height="21"/>
			</defs>
			<clipPath id="SVGID_12_">
				<use xlink:href="#SVGID_11_"  style="overflow:visible;"/>
			</clipPath>
			<path class="st7" d="M60,4.1c-3.5,0-6.4,2.9-6.4,6.4V14c0,0.7,0.3,1.4,0.8,1.9l0.7,0.7l1.1,0.3h0c0.9,0,1.6-0.7,1.6-1.6v-3.1
				c0-0.9-0.7-1.6-1.6-1.6h0l-1.1,0.3l-0.4,0.4v-0.8c0-2.9,2.4-5.3,5.3-5.3c2.9,0,5.3,2.4,5.3,5.3v0.8l-0.4-0.4l-1.1-0.3h0
				c-0.9,0-1.6,0.7-1.6,1.6v3.1c0,0.9,0.7,1.6,1.6,1.6h0l1.1-0.3l0.7-0.7c0.5-0.5,0.8-1.2,0.8-1.9v-3.5C66.4,7,63.5,4.1,60,4.1"/>
			<path class="st8" d="M60,4.1c-3.5,0-6.4,2.9-6.4,6.4V14c0,0.7,0.3,1.4,0.8,1.9l0.7,0.7l1.1,0.3h0c0.9,0,1.6-0.7,1.6-1.6v-3.1
				c0-0.9-0.7-1.6-1.6-1.6h0l-1.1,0.3l-0.4,0.4v-0.8c0-2.9,2.4-5.3,5.3-5.3c2.9,0,5.3,2.4,5.3,5.3v0.8l-0.4-0.4l-1.1-0.3h0
				c-0.9,0-1.6,0.7-1.6,1.6v3.1c0,0.9,0.7,1.6,1.6,1.6h0l1.1-0.3l0.7-0.7c0.5-0.5,0.8-1.2,0.8-1.9v-3.5C66.4,7,63.5,4.1,60,4.1z"/>
		</g>
	</g>
</g>
</svg>
