<?xml version="1.0" encoding="utf-8"?>
<!-- Generator: Adobe Illustrator 24.0.0, SVG Export Plug-In . SVG Version: 6.00 Build 0)  -->
<svg version="1.1" id="Layer_1" xmlns="http://www.w3.org/2000/svg" xmlns:xlink="http://www.w3.org/1999/xlink" x="0px" y="0px"
	 viewBox="0 0 222 24" style="enable-background:new 0 0 222 24;" xml:space="preserve">
<style type="text/css">
	.st0{clip-path:url(#SVGID_2_);fill:#B7B7B7;}
	.st1{clip-path:url(#SVGID_2_);fill:#404040;}
	.st2{clip-path:url(#SVGID_2_);fill:none;stroke:#404040;stroke-miterlimit:10;}
	.st3{clip-path:url(#SVGID_2_);fill:#3E3E3E;}
	.st4{opacity:0.9;}
	.st5{clip-path:url(#SVGID_4_);fill:#B7B7B7;}
	.st6{clip-path:url(#SVGID_4_);fill:#404040;}
	.st7{clip-path:url(#SVGID_4_);fill:none;stroke:#404040;stroke-miterlimit:10;}
	.st8{clip-path:url(#SVGID_4_);fill:#3E3E3E;}
	.st9{clip-path:url(#SVGID_6_);fill:#B7B7B7;}
	.st10{clip-path:url(#SVGID_6_);fill:#404040;}
	.st11{clip-path:url(#SVGID_6_);fill:none;stroke:#404040;stroke-miterlimit:10;}
	.st12{clip-path:url(#SVGID_6_);fill:#3E3E3E;}
</style>
<g>
	<g>
		<defs>
			<rect id="SVGID_1_" width="74" height="24"/>
		</defs>
		<clipPath id="SVGID_2_">
			<use xlink:href="#SVGID_1_"  style="overflow:visible;"/>
		</clipPath>
		<rect class="st0" width="74" height="24"/>
		<rect x="24.1" class="st1" width="0.9" height="24"/>
		<rect x="6" y="15" class="st2" width="3" height="3"/>
		<rect x="13" y="7" class="st2" width="3" height="3"/>
		<rect x="7.4" y="11.9" transform="matrix(0.6159 -0.7878 0.7878 0.6159 -5.4909 13.4487)" class="st3" width="7.3" height="1"/>
	</g>
</g>
<g class="st4">
	<g>
		<defs>
			<rect id="SVGID_3_" x="74" width="74" height="24"/>
		</defs>
		<clipPath id="SVGID_4_">
			<use xlink:href="#SVGID_3_"  style="overflow:visible;"/>
		</clipPath>
		<rect x="74" class="st5" width="74" height="24"/>
		<rect x="98.1" class="st6" width="0.9" height="24"/>
		<rect x="80" y="15" class="st7" width="3" height="3"/>
		<rect x="87" y="7" class="st7" width="3" height="3"/>
		<rect x="81.4" y="11.9" transform="matrix(0.6159 -0.7878 0.7878 0.6159 22.9343 71.749)" class="st8" width="7.3" height="1"/>
	</g>
</g>
<g>
	<g>
		<defs>
			<rect id="SVGID_5_" x="148" width="74" height="24"/>
		</defs>
		<clipPath id="SVGID_6_">
			<use xlink:href="#SVGID_5_"  style="overflow:visible;"/>
		</clipPath>
		<rect x="148" class="st9" width="74" height="24"/>
		<rect x="172.1" class="st10" width="0.9" height="24"/>
		<rect x="154" y="15" class="st11" width="3" height="3"/>
		<rect x="161" y="7" class="st11" width="3" height="3"/>
		
			<rect x="155.4" y="11.9" transform="matrix(0.6159 -0.7878 0.7878 0.6159 51.3594 130.0494)" class="st12" width="7.3" height="1"/>
	</g>
</g>
</svg>
