<?xml version="1.0" encoding="utf-8"?>
<!-- Generator: Adobe Illustrator 24.0.0, SVG Export Plug-In . SVG Version: 6.00 Build 0)  -->
<svg version="1.1" id="Layer_1" xmlns="http://www.w3.org/2000/svg" xmlns:xlink="http://www.w3.org/1999/xlink" x="0px" y="0px"
	 viewBox="0 0 222 24" style="enable-background:new 0 0 222 24;" xml:space="preserve">
<style type="text/css">
	.st0{clip-path:url(#SVGID_2_);fill:#B7B7B7;}
	.st1{clip-path:url(#SVGID_2_);fill:#404040;}
	.st2{clip-path:url(#SVGID_2_);fill:#F53030;}
	.st3{opacity:0.9;}
	.st4{clip-path:url(#SVGID_4_);fill:#B7B7B7;}
	.st5{clip-path:url(#SVGID_4_);fill:#404040;}
	.st6{clip-path:url(#SVGID_4_);fill:#F53030;}
	.st7{clip-path:url(#SVGID_6_);fill:#B7B7B7;}
	.st8{clip-path:url(#SVGID_6_);fill:#404040;}
	.st9{clip-path:url(#SVGID_6_);fill:#F53030;}
</style>
<g>
	<g>
		<defs>
			<rect id="SVGID_1_" width="74" height="24"/>
		</defs>
		<clipPath id="SVGID_2_">
			<use xlink:href="#SVGID_1_"  style="overflow:visible;"/>
		</clipPath>
		<rect class="st0" width="74" height="24"/>
		<rect x="24.1" class="st1" width="0.9" height="24"/>
		<rect x="6" y="15" class="st2" width="3" height="3"/>
		<rect x="13" y="7" class="st2" width="3" height="3"/>
		<rect x="6.4" y="12" transform="matrix(0.6162 -0.7876 0.7876 0.6162 -5.6902 13.3998)" class="st2" width="9" height="1.1"/>
		<path class="st2" d="M30,8.9h3.2c1.8,0,2.4,0.9,2.4,1.8c0,0.8-0.4,1.3-0.9,1.5c0.5,0.2,1.1,0.7,1.1,1.6c0,1.2-1,2.1-2.5,2.1H30
			V8.9z M33,11.6c0.7,0,1.1-0.3,1.1-0.8c0-0.5-0.4-0.8-1-0.8h-1.5v1.6H33z M31.5,14.7H33c0.8,0,1.2-0.3,1.2-1c0-0.6-0.4-0.9-1.2-0.9
			h-1.4V14.7z M38.6,15.8v-2.4c0-0.1,0-0.1-0.1-0.2l-2.5-4.2h1.8c0.6,1,1.3,2.4,1.7,3.2c0.3-0.7,1.1-2.2,1.7-3.2h1.6l-2.5,4.2
			c0,0-0.1,0.1-0.1,0.2v2.5H38.6z M43.4,8.9h3c1.5,0,2.6,0.8,2.6,2.1c0,1.5-1.2,2.2-2.6,2.2h-1.4v2.6h-1.6V8.9z M44.9,12.1h1.2
			c0.7,0,1.2-0.3,1.2-1c0-0.7-0.5-1-1.2-1h-1.2V12.1z M50.9,14.2l-0.6,1.6h-1.5l2.5-6.9h2l2.6,6.9h-1.6l-0.6-1.6H50.9z M53.2,13
			c-0.5-1.5-0.8-2.4-1-3h0c-0.2,0.7-0.5,1.8-1,3H53.2z M57.9,13.8c0.2,0.7,0.7,1,1.5,1c0.8,0,1.2-0.3,1.2-0.8c0-0.6-0.3-0.8-1.6-1.1
			c-2-0.4-2.5-1.1-2.5-2.1c0-1.2,0.9-2,2.7-2c1.9,0,2.7,1,2.8,2h-1.6c-0.1-0.4-0.3-0.9-1.3-0.9c-0.6,0-1,0.2-1,0.7
			c0,0.5,0.3,0.7,1.5,0.9c2.1,0.5,2.6,1.2,2.6,2.2c0,1.3-1,2.1-2.9,2.1c-1.8,0-2.8-0.9-3-2.1H57.9z M64.7,13.8c0.2,0.7,0.7,1,1.5,1
			c0.8,0,1.2-0.3,1.2-0.8c0-0.6-0.3-0.8-1.6-1.1c-2-0.4-2.5-1.1-2.5-2.1c0-1.2,0.9-2,2.7-2c1.9,0,2.7,1,2.8,2h-1.6
			c-0.1-0.4-0.3-0.9-1.3-0.9c-0.6,0-1,0.2-1,0.7c0,0.5,0.3,0.7,1.5,0.9c2.1,0.5,2.6,1.2,2.6,2.2c0,1.3-1,2.1-2.9,2.1
			c-1.8,0-2.8-0.9-3-2.1H64.7z"/>
	</g>
</g>
<g class="st3">
	<g>
		<defs>
			<rect id="SVGID_3_" x="74" width="74" height="24"/>
		</defs>
		<clipPath id="SVGID_4_">
			<use xlink:href="#SVGID_3_"  style="overflow:visible;"/>
		</clipPath>
		<rect x="74" class="st4" width="74" height="24"/>
		<rect x="98.1" class="st5" width="0.9" height="24"/>
		<rect x="80" y="15" class="st6" width="3" height="3"/>
		<rect x="87" y="7" class="st6" width="3" height="3"/>
		<rect x="80.4" y="12" transform="matrix(0.6162 -0.7876 0.7876 0.6162 22.7118 71.682)" class="st6" width="9" height="1.1"/>
		<path class="st6" d="M104,8.9h3.2c1.8,0,2.4,0.9,2.4,1.8c0,0.8-0.4,1.3-0.9,1.5c0.5,0.2,1.1,0.7,1.1,1.6c0,1.2-1,2.1-2.5,2.1H104
			V8.9z M107,11.6c0.7,0,1.1-0.3,1.1-0.8c0-0.5-0.4-0.8-1-0.8h-1.5v1.6H107z M105.5,14.7h1.4c0.8,0,1.2-0.3,1.2-1
			c0-0.6-0.4-0.9-1.2-0.9h-1.4V14.7z M112.6,15.8v-2.4c0-0.1,0-0.1-0.1-0.2l-2.5-4.2h1.8c0.6,1,1.3,2.4,1.7,3.2
			c0.3-0.7,1.1-2.2,1.7-3.2h1.6l-2.5,4.2c0,0-0.1,0.1-0.1,0.2v2.5H112.6z M117.4,8.9h3c1.5,0,2.6,0.8,2.6,2.1c0,1.5-1.2,2.2-2.6,2.2
			h-1.4v2.6h-1.6V8.9z M118.9,12.1h1.2c0.7,0,1.2-0.3,1.2-1c0-0.7-0.5-1-1.2-1h-1.2V12.1z M124.9,14.2l-0.6,1.6h-1.5l2.5-6.9h2
			l2.6,6.9h-1.6l-0.6-1.6H124.9z M127.2,13c-0.5-1.5-0.8-2.4-1-3h0c-0.2,0.7-0.5,1.8-1,3H127.2z M131.9,13.8c0.2,0.7,0.7,1,1.5,1
			c0.8,0,1.2-0.3,1.2-0.8c0-0.6-0.3-0.8-1.6-1.1c-2-0.4-2.5-1.1-2.5-2.1c0-1.2,0.9-2,2.7-2c1.9,0,2.7,1,2.8,2h-1.6
			c-0.1-0.4-0.3-0.9-1.3-0.9c-0.6,0-1,0.2-1,0.7c0,0.5,0.3,0.7,1.5,0.9c2.1,0.5,2.6,1.2,2.6,2.2c0,1.3-1,2.1-2.9,2.1
			c-1.8,0-2.8-0.9-3-2.1H131.9z M138.7,13.8c0.2,0.7,0.7,1,1.5,1c0.8,0,1.2-0.3,1.2-0.8c0-0.6-0.3-0.8-1.6-1.1
			c-2-0.4-2.5-1.1-2.5-2.1c0-1.2,0.9-2,2.7-2c1.9,0,2.7,1,2.8,2h-1.6c-0.1-0.4-0.3-0.9-1.3-0.9c-0.6,0-1,0.2-1,0.7
			c0,0.5,0.3,0.7,1.5,0.9c2.1,0.5,2.6,1.2,2.6,2.2c0,1.3-1,2.1-2.9,2.1c-1.8,0-2.8-0.9-3-2.1H138.7z"/>
	</g>
</g>
<g>
	<g>
		<defs>
			<rect id="SVGID_5_" x="148" width="74" height="24"/>
		</defs>
		<clipPath id="SVGID_6_">
			<use xlink:href="#SVGID_5_"  style="overflow:visible;"/>
		</clipPath>
		<rect x="148" class="st7" width="74" height="24"/>
		<rect x="172.1" class="st8" width="0.9" height="24"/>
		<rect x="154" y="15" class="st9" width="3" height="3"/>
		<rect x="161" y="7" class="st9" width="3" height="3"/>
		<rect x="154.4" y="12" transform="matrix(0.6162 -0.7876 0.7876 0.6162 51.1137 129.9643)" class="st9" width="9" height="1.1"/>
		<path class="st9" d="M178,8.9h3.2c1.8,0,2.4,0.9,2.4,1.8c0,0.8-0.4,1.3-0.9,1.5c0.5,0.2,1.1,0.7,1.1,1.6c0,1.2-1,2.1-2.5,2.1H178
			V8.9z M181,11.6c0.7,0,1.1-0.3,1.1-0.8c0-0.5-0.4-0.8-1-0.8h-1.5v1.6H181z M179.5,14.7h1.4c0.8,0,1.2-0.3,1.2-1
			c0-0.6-0.4-0.9-1.2-0.9h-1.4V14.7z M186.6,15.8v-2.4c0-0.1,0-0.1-0.1-0.2l-2.5-4.2h1.8c0.6,1,1.3,2.4,1.7,3.2
			c0.3-0.7,1.1-2.2,1.7-3.2h1.6l-2.5,4.2c0,0-0.1,0.1-0.1,0.2v2.5H186.6z M191.4,8.9h3c1.5,0,2.6,0.8,2.6,2.1c0,1.5-1.2,2.2-2.6,2.2
			h-1.4v2.6h-1.6V8.9z M192.9,12.1h1.2c0.7,0,1.2-0.3,1.2-1c0-0.7-0.5-1-1.2-1h-1.2V12.1z M198.9,14.2l-0.6,1.6h-1.5l2.5-6.9h2
			l2.6,6.9h-1.6l-0.6-1.6H198.9z M201.2,13c-0.5-1.5-0.8-2.4-1-3h0c-0.2,0.7-0.5,1.8-1,3H201.2z M205.9,13.8c0.2,0.7,0.7,1,1.5,1
			c0.8,0,1.2-0.3,1.2-0.8c0-0.6-0.3-0.8-1.6-1.1c-2-0.4-2.5-1.1-2.5-2.1c0-1.2,0.9-2,2.7-2c1.9,0,2.7,1,2.8,2h-1.6
			c-0.1-0.4-0.3-0.9-1.3-0.9c-0.6,0-1,0.2-1,0.7c0,0.5,0.3,0.7,1.5,0.9c2.1,0.5,2.6,1.2,2.6,2.2c0,1.3-1,2.1-2.9,2.1
			c-1.8,0-2.8-0.9-3-2.1H205.9z M212.7,13.8c0.2,0.7,0.7,1,1.5,1c0.8,0,1.2-0.3,1.2-0.8c0-0.6-0.3-0.8-1.6-1.1
			c-2-0.4-2.5-1.1-2.5-2.1c0-1.2,0.9-2,2.7-2c1.9,0,2.7,1,2.8,2h-1.6c-0.1-0.4-0.3-0.9-1.3-0.9c-0.6,0-1,0.2-1,0.7
			c0,0.5,0.3,0.7,1.5,0.9c2.1,0.5,2.6,1.2,2.6,2.2c0,1.3-1,2.1-2.9,2.1c-1.8,0-2.8-0.9-3-2.1H212.7z"/>
	</g>
</g>
</svg>
