<?xml version="1.0" encoding="utf-8"?>
<!-- Generator: Adobe Illustrator 24.0.0, SVG Export Plug-In . SVG Version: 6.00 Build 0)  -->
<svg version="1.1" id="Layer_1" xmlns="http://www.w3.org/2000/svg" xmlns:xlink="http://www.w3.org/1999/xlink" x="0px" y="0px"
	 viewBox="0 0 216 15" style="enable-background:new 0 0 216 15;" xml:space="preserve">
<style type="text/css">
	.st0{clip-path:url(#SVGID_2_);fill:#DAD9D9;}
	.st1{clip-path:url(#SVGID_2_);fill:#404040;}
	.st2{clip-path:url(#SVGID_2_);}
	.st3{clip-path:url(#SVGID_4_);}
	.st4{font-family:'AbletonSansMedium-Regular';}
	.st5{font-size:12px;}
	.st6{clip-path:url(#SVGID_6_);fill:#DAD9D9;}
	.st7{clip-path:url(#SVGID_6_);fill:#404040;}
	.st8{clip-path:url(#SVGID_6_);}
	.st9{clip-path:url(#SVGID_8_);}
	.st10{clip-path:url(#SVGID_10_);fill:#DAD9D9;}
	.st11{clip-path:url(#SVGID_10_);fill:#404040;}
	.st12{clip-path:url(#SVGID_10_);}
	.st13{clip-path:url(#SVGID_12_);}
</style>
<g>
	<g>
		<defs>
			<rect id="SVGID_1_" width="72" height="15"/>
		</defs>
		<clipPath id="SVGID_2_">
			<use xlink:href="#SVGID_1_"  style="overflow:visible;"/>
		</clipPath>
		<rect class="st0" width="72" height="15"/>
		<path class="st1" d="M1,1h70v13H1V1z M0,15h72V0H0V15z"/>
		<polygon class="st2" points="64.5,10.5 69,4.5 60,4.5 		"/>
		<g class="st2">
			<defs>
				<rect id="SVGID_3_" width="72" height="15"/>
			</defs>
			<clipPath id="SVGID_4_">
				<use xlink:href="#SVGID_3_"  style="overflow:visible;"/>
			</clipPath>
			<g class="st3">
				<text transform="matrix(1 0 0 1 3 11.6426)" class="st4 st5">Sends</text>
			</g>
		</g>
		<rect x="60.5" y="10" class="st2" width="8" height="1"/>
	</g>
</g>
<g>
	<g>
		<defs>
			<rect id="SVGID_5_" x="72" width="72" height="15"/>
		</defs>
		<clipPath id="SVGID_6_">
			<use xlink:href="#SVGID_5_"  style="overflow:visible;"/>
		</clipPath>
		<rect x="72" class="st6" width="72" height="15"/>
		<path class="st7" d="M73,1h70v13H73V1z M72,15h72V0H72V15z"/>
		<polygon class="st8" points="136.5,10.5 141,4.5 132,4.5 		"/>
		<g class="st8">
			<defs>
				<rect id="SVGID_7_" x="72" width="72" height="15"/>
			</defs>
			<clipPath id="SVGID_8_">
				<use xlink:href="#SVGID_7_"  style="overflow:visible;"/>
			</clipPath>
			<g class="st9">
				<text transform="matrix(1 0 0 1 75 11.6426)" class="st4 st5">Sends</text>
			</g>
		</g>
		<rect x="132.5" y="10" class="st8" width="8" height="1"/>
	</g>
</g>
<g>
	<g>
		<defs>
			<rect id="SVGID_9_" x="144" width="72" height="15"/>
		</defs>
		<clipPath id="SVGID_10_">
			<use xlink:href="#SVGID_9_"  style="overflow:visible;"/>
		</clipPath>
		<rect x="144" class="st10" width="72" height="15"/>
		<path class="st11" d="M145,1h70v13h-70V1z M144,15h72V0h-72V15z"/>
		<polygon class="st12" points="208.5,10.5 213,4.5 204,4.5 		"/>
		<g class="st12">
			<defs>
				<rect id="SVGID_11_" x="144" width="72" height="15"/>
			</defs>
			<clipPath id="SVGID_12_">
				<use xlink:href="#SVGID_11_"  style="overflow:visible;"/>
			</clipPath>
			<g class="st13">
				<text transform="matrix(1 0 0 1 147 11.6426)" class="st4 st5">Sends</text>
			</g>
		</g>
		<rect x="204.5" y="10" class="st12" width="8" height="1"/>
	</g>
</g>
</svg>
