<?xml version="1.0" encoding="utf-8"?>
<!-- Generator: Adobe Illustrator 24.0.0, SVG Export Plug-In . SVG Version: 6.00 Build 0)  -->
<svg version="1.1" id="Layer_1" xmlns="http://www.w3.org/2000/svg" xmlns:xlink="http://www.w3.org/1999/xlink" x="0px" y="0px"
	 viewBox="0 0 48 15" style="enable-background:new 0 0 48 15;" xml:space="preserve">
<style type="text/css">
	.st0{fill:#FFFFFF;}
	.st1{clip-path:url(#SVGID_2_);fill:#B7B7B7;}
	.st2{clip-path:url(#SVGID_2_);fill:#404040;}
	.st3{clip-path:url(#SVGID_2_);}
	.st4{clip-path:url(#SVGID_4_);}
	.st5{opacity:0.9;}
	.st6{clip-path:url(#SVGID_6_);fill:#B7B7B7;}
	.st7{clip-path:url(#SVGID_6_);fill:#404040;}
	.st8{clip-path:url(#SVGID_6_);}
	.st9{clip-path:url(#SVGID_8_);}
	.st10{clip-path:url(#SVGID_10_);fill:#B7B7B7;}
	.st11{clip-path:url(#SVGID_10_);fill:#404040;}
	.st12{clip-path:url(#SVGID_10_);}
	.st13{clip-path:url(#SVGID_12_);}
</style>
<rect x="16" class="st0" width="16" height="15"/>
<g>
	<g>
		<defs>
			<rect id="SVGID_1_" width="16" height="15"/>
		</defs>
		<clipPath id="SVGID_2_">
			<use xlink:href="#SVGID_1_"  style="overflow:visible;"/>
		</clipPath>
		<rect class="st1" width="16" height="15"/>
		<path class="st2" d="M1,1h14v13H1V1z M0,15h16V0H0V15z"/>
		<g class="st3">
			<defs>
				<rect id="SVGID_3_" width="16" height="15"/>
			</defs>
			<clipPath id="SVGID_4_">
				<use xlink:href="#SVGID_3_"  style="overflow:visible;"/>
			</clipPath>
			<path class="st4" d="M11.7,6.3c-0.6-0.1-1-0.6-0.9-1.3c0-0.1,0-0.2,0.1-0.2c0.1-0.2,0-0.4-0.2-0.6c-0.4-0.3-0.8-0.6-1.2-0.7
				C9.2,3.5,9,3.5,8.9,3.7C8.5,4.2,7.8,4.3,7.3,3.9C7.3,3.8,7.2,3.8,7.1,3.7C7,3.5,6.8,3.5,6.5,3.5C6.1,3.7,5.7,3.9,5.4,4.2
				C5.2,4.3,5.1,4.6,5.2,4.8c0.2,0.6,0,1.2-0.6,1.4c-0.1,0-0.2,0.1-0.3,0.1c-0.2,0-0.4,0.2-0.5,0.4C3.8,7,3.8,7.2,3.8,7.5
				c0,0.2,0,0.4,0.1,0.7c0,0.2,0.2,0.4,0.5,0.4c0.6,0.1,1,0.6,1,1.2c0,0.1,0,0.2-0.1,0.4c-0.1,0.2,0,0.5,0.1,0.6
				c0.4,0.3,0.8,0.5,1.2,0.7c0.1,0,0.1,0,0.2,0c0.2,0,0.3-0.1,0.4-0.2c0.2-0.3,0.5-0.5,0.9-0.5c0.3,0,0.7,0.2,0.9,0.4
				c0.1,0.2,0.4,0.3,0.6,0.2c0.4-0.2,0.8-0.4,1.1-0.7c0.2-0.1,0.2-0.4,0.2-0.6c-0.2-0.6,0-1.2,0.6-1.4c0.1,0,0.2-0.1,0.3-0.1
				c0.2,0,0.4-0.2,0.4-0.4c0-0.2,0.1-0.5,0.1-0.7c0-0.3,0-0.5-0.1-0.8C12.1,6.5,11.9,6.4,11.7,6.3 M9.4,7.5c0,0.8-0.6,1.4-1.4,1.4
				S6.6,8.3,6.6,7.5c0-0.8,0.6-1.4,1.4-1.4S9.4,6.7,9.4,7.5"/>
		</g>
	</g>
</g>
<g class="st5">
	<g>
		<defs>
			<rect id="SVGID_5_" x="16" width="16" height="15"/>
		</defs>
		<clipPath id="SVGID_6_">
			<use xlink:href="#SVGID_5_"  style="overflow:visible;"/>
		</clipPath>
		<rect x="16" class="st6" width="16" height="15"/>
		<path class="st7" d="M17,1h14v13H17V1z M16,15h16V0H16V15z"/>
		<g class="st8">
			<defs>
				<rect id="SVGID_7_" x="16" width="16" height="15"/>
			</defs>
			<clipPath id="SVGID_8_">
				<use xlink:href="#SVGID_7_"  style="overflow:visible;"/>
			</clipPath>
			<path class="st9" d="M27.7,6.3c-0.6-0.1-1-0.6-0.9-1.3c0-0.1,0-0.2,0.1-0.2c0.1-0.2,0-0.4-0.2-0.6c-0.4-0.3-0.8-0.6-1.2-0.7
				c-0.2-0.1-0.4,0-0.6,0.2c-0.4,0.5-1.1,0.6-1.5,0.2c-0.1-0.1-0.1-0.1-0.2-0.2c-0.1-0.2-0.4-0.2-0.6-0.2c-0.4,0.2-0.8,0.4-1.2,0.6
				c-0.2,0.1-0.2,0.4-0.2,0.6c0.2,0.6,0,1.2-0.6,1.4c-0.1,0-0.2,0.1-0.3,0.1c-0.2,0-0.4,0.2-0.5,0.4c-0.1,0.3-0.1,0.5-0.1,0.8
				c0,0.2,0,0.4,0.1,0.7c0,0.2,0.2,0.4,0.5,0.4c0.6,0.1,1,0.6,1,1.2c0,0.1,0,0.2-0.1,0.4c-0.1,0.2,0,0.5,0.1,0.6
				c0.4,0.3,0.8,0.5,1.2,0.7c0.1,0,0.1,0,0.2,0c0.2,0,0.3-0.1,0.4-0.2c0.2-0.3,0.5-0.5,0.9-0.5c0.3,0,0.7,0.2,0.9,0.4
				c0.1,0.2,0.4,0.3,0.6,0.2c0.4-0.2,0.8-0.4,1.1-0.7c0.2-0.1,0.2-0.4,0.2-0.6c-0.2-0.6,0-1.2,0.6-1.4c0.1,0,0.2-0.1,0.3-0.1
				c0.2,0,0.4-0.2,0.4-0.4c0-0.2,0.1-0.5,0.1-0.7c0-0.3,0-0.5-0.1-0.8C28.1,6.5,27.9,6.4,27.7,6.3 M25.4,7.5c0,0.8-0.6,1.4-1.4,1.4
				s-1.4-0.6-1.4-1.4c0-0.8,0.6-1.4,1.4-1.4S25.4,6.7,25.4,7.5"/>
		</g>
	</g>
</g>
<g>
	<g>
		<defs>
			<rect id="SVGID_9_" x="32" width="16" height="15"/>
		</defs>
		<clipPath id="SVGID_10_">
			<use xlink:href="#SVGID_9_"  style="overflow:visible;"/>
		</clipPath>
		<rect x="32" class="st10" width="16" height="15"/>
		<path class="st11" d="M33,1h14v13H33V1z M32,15h16V0H32V15z"/>
		<g class="st12">
			<defs>
				<rect id="SVGID_11_" x="32" width="16" height="15"/>
			</defs>
			<clipPath id="SVGID_12_">
				<use xlink:href="#SVGID_11_"  style="overflow:visible;"/>
			</clipPath>
			<path class="st13" d="M43.7,6.3c-0.6-0.1-1-0.6-0.9-1.3c0-0.1,0-0.2,0.1-0.2c0.1-0.2,0-0.4-0.2-0.6c-0.4-0.3-0.8-0.6-1.2-0.7
				c-0.2-0.1-0.4,0-0.6,0.2c-0.4,0.5-1.1,0.6-1.5,0.2c-0.1-0.1-0.1-0.1-0.2-0.2c-0.1-0.2-0.4-0.2-0.6-0.2c-0.4,0.2-0.8,0.4-1.2,0.6
				c-0.2,0.1-0.2,0.4-0.2,0.6c0.2,0.6,0,1.2-0.6,1.4c-0.1,0-0.2,0.1-0.3,0.1c-0.2,0-0.4,0.2-0.5,0.4c-0.1,0.3-0.1,0.5-0.1,0.8
				c0,0.2,0,0.4,0.1,0.7c0,0.2,0.2,0.4,0.5,0.4c0.6,0.1,1,0.6,1,1.2c0,0.1,0,0.2-0.1,0.4c-0.1,0.2,0,0.5,0.1,0.6
				c0.4,0.3,0.8,0.5,1.2,0.7c0.1,0,0.1,0,0.2,0c0.2,0,0.3-0.1,0.4-0.2c0.2-0.3,0.5-0.5,0.9-0.5c0.3,0,0.7,0.2,0.9,0.4
				c0.1,0.2,0.4,0.3,0.6,0.2c0.4-0.2,0.8-0.4,1.1-0.7c0.2-0.1,0.2-0.4,0.2-0.6c-0.2-0.6,0-1.2,0.6-1.4c0.1,0,0.2-0.1,0.3-0.1
				c0.2,0,0.4-0.2,0.4-0.4c0-0.2,0.1-0.5,0.1-0.7c0-0.3,0-0.5-0.1-0.8C44.1,6.5,43.9,6.4,43.7,6.3 M41.4,7.5c0,0.8-0.6,1.4-1.4,1.4
				s-1.4-0.6-1.4-1.4c0-0.8,0.6-1.4,1.4-1.4S41.4,6.7,41.4,7.5"/>
		</g>
	</g>
</g>
</svg>
