<?xml version="1.0" encoding="utf-8"?>
<!-- Generator: Adobe Illustrator 24.0.0, SVG Export Plug-In . SVG Version: 6.00 Build 0)  -->
<svg version="1.1" id="Layer_1" xmlns="http://www.w3.org/2000/svg" xmlns:xlink="http://www.w3.org/1999/xlink" x="0px" y="0px"
	 viewBox="0 0 48 16" style="enable-background:new 0 0 48 16;" xml:space="preserve">
<style type="text/css">
	.st0{clip-path:url(#SVGID_2_);fill:#B7B7B7;}
	.st1{clip-path:url(#SVGID_2_);}
	.st2{clip-path:url(#SVGID_4_);}
	.st3{clip-path:url(#SVGID_6_);fill:#B7B7B7;}
	.st4{clip-path:url(#SVGID_6_);}
	.st5{clip-path:url(#SVGID_8_);}
	.st6{clip-path:url(#SVGID_10_);fill:#B7B7B7;}
	.st7{clip-path:url(#SVGID_10_);}
	.st8{clip-path:url(#SVGID_12_);}
</style>
<g>
	<g>
		<defs>
			<rect id="SVGID_1_" width="16" height="16"/>
		</defs>
		<clipPath id="SVGID_2_">
			<use xlink:href="#SVGID_1_"  style="overflow:visible;"/>
		</clipPath>
		<rect class="st0" width="16" height="16"/>
		<g class="st1">
			<defs>
				<rect id="SVGID_3_" width="16" height="16"/>
			</defs>
			<clipPath id="SVGID_4_">
				<use xlink:href="#SVGID_3_"  style="overflow:visible;"/>
			</clipPath>
			<path class="st2" d="M10.2,4.9c-0.3,0.3-0.3,0.7,0,1c1.2,1.2,1.2,3.1,0,4.3c-1.2,1.2-3.1,1.2-4.3,0C4.6,9,4.6,7,5.8,5.8
				c0.3-0.3,0.3-0.7,0-1c-0.3-0.3-0.7-0.3-0.9,0c-1.7,1.7-1.7,4.5,0,6.3c1.7,1.7,4.5,1.7,6.3,0c1.7-1.7,1.7-4.5,0-6.3
				C10.9,4.6,10.4,4.6,10.2,4.9"/>
			<path class="st2" d="M8,7.9c0.4,0,0.7-0.3,0.7-0.7v-3c0-0.4-0.3-0.7-0.7-0.7c-0.4,0-0.7,0.3-0.7,0.7v3C7.3,7.6,7.6,7.9,8,7.9"/>
		</g>
	</g>
</g>
<g>
	<g>
		<defs>
			<rect id="SVGID_5_" x="16" width="16" height="16"/>
		</defs>
		<clipPath id="SVGID_6_">
			<use xlink:href="#SVGID_5_"  style="overflow:visible;"/>
		</clipPath>
		<rect x="16" class="st3" width="16" height="16"/>
		<g class="st4">
			<defs>
				<rect id="SVGID_7_" x="16" width="16" height="16"/>
			</defs>
			<clipPath id="SVGID_8_">
				<use xlink:href="#SVGID_7_"  style="overflow:visible;"/>
			</clipPath>
			<path class="st5" d="M26.2,4.9c-0.3,0.3-0.3,0.7,0,1c1.2,1.2,1.2,3.1,0,4.3c-1.2,1.2-3.1,1.2-4.3,0c-1.2-1.2-1.2-3.1,0-4.3
				c0.3-0.3,0.3-0.7,0-1c-0.3-0.3-0.7-0.3-0.9,0c-1.7,1.7-1.7,4.5,0,6.3c1.7,1.7,4.5,1.7,6.3,0c1.7-1.7,1.7-4.5,0-6.3
				C26.9,4.6,26.4,4.6,26.2,4.9"/>
			<path class="st5" d="M24,7.9c0.4,0,0.7-0.3,0.7-0.7v-3c0-0.4-0.3-0.7-0.7-0.7c-0.4,0-0.7,0.3-0.7,0.7v3C23.3,7.6,23.6,7.9,24,7.9
				"/>
		</g>
	</g>
</g>
<g>
	<g>
		<defs>
			<rect id="SVGID_9_" x="32" width="16" height="16"/>
		</defs>
		<clipPath id="SVGID_10_">
			<use xlink:href="#SVGID_9_"  style="overflow:visible;"/>
		</clipPath>
		<rect x="32" class="st6" width="16" height="16"/>
		<g class="st7">
			<defs>
				<rect id="SVGID_11_" x="32" width="16" height="16"/>
			</defs>
			<clipPath id="SVGID_12_">
				<use xlink:href="#SVGID_11_"  style="overflow:visible;"/>
			</clipPath>
			<path class="st8" d="M42.2,4.9c-0.3,0.3-0.3,0.7,0,1c1.2,1.2,1.2,3.1,0,4.3c-1.2,1.2-3.1,1.2-4.3,0c-1.2-1.2-1.2-3.1,0-4.3
				c0.3-0.3,0.3-0.7,0-1c-0.3-0.3-0.7-0.3-0.9,0c-1.7,1.7-1.7,4.5,0,6.3c1.7,1.7,4.5,1.7,6.3,0c1.7-1.7,1.7-4.5,0-6.3
				C42.9,4.6,42.4,4.6,42.2,4.9"/>
			<path class="st8" d="M40,7.9c0.4,0,0.7-0.3,0.7-0.7v-3c0-0.4-0.3-0.7-0.7-0.7s-0.7,0.3-0.7,0.7v3C39.3,7.6,39.6,7.9,40,7.9"/>
		</g>
	</g>
</g>
</svg>
