<?xml version="1.0" encoding="utf-8"?>
<!-- Generator: Adobe Illustrator 24.0.0, SVG Export Plug-In . SVG Version: 6.00 Build 0)  -->
<svg version="1.1" id="Layer_1" xmlns="http://www.w3.org/2000/svg" xmlns:xlink="http://www.w3.org/1999/xlink" x="0px" y="0px"
	 viewBox="0 0 48 16" style="enable-background:new 0 0 48 16;" xml:space="preserve">
<style type="text/css">
	.st0{clip-path:url(#SVGID_2_);fill:#B7B7B7;}
	.st1{clip-path:url(#SVGID_2_);}
	.st2{clip-path:url(#SVGID_4_);}
	.st3{opacity:0.9;}
	.st4{clip-path:url(#SVGID_6_);fill:#B7B7B7;}
	.st5{clip-path:url(#SVGID_6_);}
	.st6{clip-path:url(#SVGID_8_);}
	.st7{clip-path:url(#SVGID_10_);fill:#B7B7B7;}
	.st8{clip-path:url(#SVGID_10_);}
	.st9{clip-path:url(#SVGID_12_);}
</style>
<g>
	<g>
		<defs>
			<rect id="SVGID_1_" width="16" height="16"/>
		</defs>
		<clipPath id="SVGID_2_">
			<use xlink:href="#SVGID_1_"  style="overflow:visible;"/>
		</clipPath>
		<rect class="st0" width="16" height="16"/>
		<g class="st1">
			<defs>
				<rect id="SVGID_3_" width="16" height="16"/>
			</defs>
			<clipPath id="SVGID_4_">
				<use xlink:href="#SVGID_3_"  style="overflow:visible;"/>
			</clipPath>
			<path class="st2" d="M6.7,5.1l0.8-1.3c0.5-0.8,1.6-1,2.4-0.3C10.3,4,10.4,4.8,10,5.4L9.3,7.1h1.3L11.1,6c0.6-1,0.5-2.3-0.3-3.2
				C9.5,1.4,7.3,1.7,6.4,3.3L5.7,4.6L6.7,5.1z"/>
			<path class="st2" d="M10.7,7.1L10.7,7.1H9.5h-3H5.3H5.3c-0.4,0-0.7,0.3-0.7,0.7v3.9c0,0.4,0.3,0.7,0.7,0.7h5.5
				c0.4,0,0.7-0.3,0.7-0.7V7.9C11.5,7.5,11.1,7.1,10.7,7.1"/>
		</g>
	</g>
</g>
<g class="st3">
	<g>
		<defs>
			<rect id="SVGID_5_" x="16" width="16" height="16"/>
		</defs>
		<clipPath id="SVGID_6_">
			<use xlink:href="#SVGID_5_"  style="overflow:visible;"/>
		</clipPath>
		<rect x="16" class="st4" width="16" height="16"/>
		<g class="st5">
			<defs>
				<rect id="SVGID_7_" x="16" width="16" height="16"/>
			</defs>
			<clipPath id="SVGID_8_">
				<use xlink:href="#SVGID_7_"  style="overflow:visible;"/>
			</clipPath>
			<path class="st6" d="M22.7,5.1l0.8-1.3c0.5-0.8,1.6-1,2.4-0.3C26.3,4,26.4,4.8,26,5.4l-0.8,1.7h1.3L27.1,6c0.6-1,0.5-2.3-0.3-3.2
				c-1.3-1.4-3.5-1.1-4.4,0.4l-0.8,1.3L22.7,5.1z"/>
			<path class="st6" d="M26.7,7.1L26.7,7.1h-1.2h-3h-1.2h-0.1c-0.4,0-0.7,0.3-0.7,0.7v3.9c0,0.4,0.3,0.7,0.7,0.7h5.5
				c0.4,0,0.7-0.3,0.7-0.7V7.9C27.5,7.5,27.1,7.1,26.7,7.1"/>
		</g>
	</g>
</g>
<g>
	<g>
		<defs>
			<rect id="SVGID_9_" x="32" width="16" height="16"/>
		</defs>
		<clipPath id="SVGID_10_">
			<use xlink:href="#SVGID_9_"  style="overflow:visible;"/>
		</clipPath>
		<rect x="32" class="st7" width="16" height="16"/>
		<g class="st8">
			<defs>
				<rect id="SVGID_11_" x="32" width="16" height="16"/>
			</defs>
			<clipPath id="SVGID_12_">
				<use xlink:href="#SVGID_11_"  style="overflow:visible;"/>
			</clipPath>
			<path class="st9" d="M38.7,5.1l0.8-1.3c0.5-0.8,1.6-1,2.4-0.3C42.3,4,42.4,4.8,42,5.4l-0.8,1.7h1.3L43.1,6c0.6-1,0.5-2.3-0.3-3.2
				c-1.3-1.4-3.5-1.1-4.4,0.4l-0.8,1.3L38.7,5.1z"/>
			<path class="st9" d="M42.7,7.1L42.7,7.1h-1.2h-3h-1.2h-0.1c-0.4,0-0.7,0.3-0.7,0.7v3.9c0,0.4,0.3,0.7,0.7,0.7h5.5
				c0.4,0,0.7-0.3,0.7-0.7V7.9C43.5,7.5,43.1,7.1,42.7,7.1"/>
		</g>
	</g>
</g>
</svg>
