<?xml version="1.0" encoding="utf-8"?>
<!-- Generator: Adobe Illustrator 24.0.0, SVG Export Plug-In . SVG Version: 6.00 Build 0)  -->
<svg version="1.1" id="Layer_1" xmlns="http://www.w3.org/2000/svg" xmlns:xlink="http://www.w3.org/1999/xlink" x="0px" y="0px"
	 viewBox="0 0 48 16" style="enable-background:new 0 0 48 16;" xml:space="preserve">
<style type="text/css">
	.st0{clip-path:url(#SVGID_2_);}
	.st1{clip-path:url(#SVGID_4_);fill:#B7B7B7;}
	.st2{clip-path:url(#SVGID_4_);}
	.st3{clip-path:url(#SVGID_6_);}
	.st4{opacity:0.6;clip-path:url(#SVGID_6_);}
	.st5{clip-path:url(#SVGID_8_);fill:#FFFFFF;}
	.st6{opacity:0.9;}
	.st7{clip-path:url(#SVGID_10_);}
	.st8{clip-path:url(#SVGID_12_);fill:#B7B7B7;}
	.st9{clip-path:url(#SVGID_12_);}
	.st10{clip-path:url(#SVGID_14_);}
	.st11{opacity:0.6;clip-path:url(#SVGID_14_);}
	.st12{clip-path:url(#SVGID_16_);fill:#FFFFFF;}
	.st13{clip-path:url(#SVGID_18_);}
	.st14{clip-path:url(#SVGID_20_);fill:#B7B7B7;}
	.st15{clip-path:url(#SVGID_20_);}
	.st16{clip-path:url(#SVGID_22_);}
	.st17{opacity:0.6;clip-path:url(#SVGID_22_);}
	.st18{clip-path:url(#SVGID_24_);fill:#FFFFFF;}
</style>
<g>
	<g>
		<defs>
			<rect id="SVGID_1_" width="16" height="16"/>
		</defs>
		<clipPath id="SVGID_2_">
			<use xlink:href="#SVGID_1_"  style="overflow:visible;"/>
		</clipPath>
		<g class="st0">
			<defs>
				<rect id="SVGID_3_" width="16" height="16"/>
			</defs>
			<clipPath id="SVGID_4_">
				<use xlink:href="#SVGID_3_"  style="overflow:visible;"/>
			</clipPath>
			<rect class="st1" width="16" height="16"/>
			<g class="st2">
				<defs>
					<rect id="SVGID_5_" width="16" height="16"/>
				</defs>
				<clipPath id="SVGID_6_">
					<use xlink:href="#SVGID_5_"  style="overflow:visible;"/>
				</clipPath>
				<path class="st3" d="M5.3,12.5h5.5c0.4,0,0.7-0.3,0.7-0.7V7.9c0-0.4-0.3-0.7-0.7-0.7h0V6.2c0-1.5-1.2-2.7-2.7-2.7
					c-1.5,0-2.7,1.2-2.7,2.7v0.9H5.3c-0.4,0-0.7,0.3-0.7,0.7v3.9C4.5,12.2,4.9,12.5,5.3,12.5 M6.5,6.2c0-0.8,0.7-1.5,1.5-1.5
					c0.8,0,1.5,0.7,1.5,1.5v0.9h-3V6.2z"/>
				<g class="st4">
					<g>
						<defs>
							<rect id="SVGID_7_" width="16" height="16"/>
						</defs>
						<clipPath id="SVGID_8_">
							<use xlink:href="#SVGID_7_"  style="overflow:visible;"/>
						</clipPath>
						<polyline class="st5" points="16,0 0,0 0,16 						"/>
					</g>
				</g>
			</g>
		</g>
	</g>
</g>
<g class="st6">
	<g>
		<defs>
			<rect id="SVGID_9_" x="16" width="16" height="16"/>
		</defs>
		<clipPath id="SVGID_10_">
			<use xlink:href="#SVGID_9_"  style="overflow:visible;"/>
		</clipPath>
		<g class="st7">
			<defs>
				<rect id="SVGID_11_" x="16" width="16" height="16"/>
			</defs>
			<clipPath id="SVGID_12_">
				<use xlink:href="#SVGID_11_"  style="overflow:visible;"/>
			</clipPath>
			<rect x="16" class="st8" width="16" height="16"/>
			<g class="st9">
				<defs>
					<rect id="SVGID_13_" x="16" width="16" height="16"/>
				</defs>
				<clipPath id="SVGID_14_">
					<use xlink:href="#SVGID_13_"  style="overflow:visible;"/>
				</clipPath>
				<path class="st10" d="M21.3,12.5h5.5c0.4,0,0.7-0.3,0.7-0.7V7.9c0-0.4-0.3-0.7-0.7-0.7h0V6.2c0-1.5-1.2-2.7-2.7-2.7
					c-1.5,0-2.7,1.2-2.7,2.7v0.9h-0.1c-0.4,0-0.7,0.3-0.7,0.7v3.9C20.5,12.2,20.9,12.5,21.3,12.5 M22.5,6.2c0-0.8,0.7-1.5,1.5-1.5
					c0.8,0,1.5,0.7,1.5,1.5v0.9h-3V6.2z"/>
				<g class="st11">
					<g>
						<defs>
							<rect id="SVGID_15_" x="16" width="16" height="16"/>
						</defs>
						<clipPath id="SVGID_16_">
							<use xlink:href="#SVGID_15_"  style="overflow:visible;"/>
						</clipPath>
						<polyline class="st12" points="32,0 16,0 16,16 						"/>
					</g>
				</g>
			</g>
		</g>
	</g>
</g>
<g>
	<g>
		<defs>
			<rect id="SVGID_17_" x="32" width="16" height="16"/>
		</defs>
		<clipPath id="SVGID_18_">
			<use xlink:href="#SVGID_17_"  style="overflow:visible;"/>
		</clipPath>
		<g class="st13">
			<defs>
				<rect id="SVGID_19_" x="32" width="16" height="16"/>
			</defs>
			<clipPath id="SVGID_20_">
				<use xlink:href="#SVGID_19_"  style="overflow:visible;"/>
			</clipPath>
			<rect x="32" class="st14" width="16" height="16"/>
			<g class="st15">
				<defs>
					<rect id="SVGID_21_" x="32" width="16" height="16"/>
				</defs>
				<clipPath id="SVGID_22_">
					<use xlink:href="#SVGID_21_"  style="overflow:visible;"/>
				</clipPath>
				<path class="st16" d="M37.3,12.5h5.5c0.4,0,0.7-0.3,0.7-0.7V7.9c0-0.4-0.3-0.7-0.7-0.7h0V6.2c0-1.5-1.2-2.7-2.7-2.7
					c-1.5,0-2.7,1.2-2.7,2.7v0.9h-0.1c-0.4,0-0.7,0.3-0.7,0.7v3.9C36.5,12.2,36.9,12.5,37.3,12.5 M38.5,6.2c0-0.8,0.7-1.5,1.5-1.5
					c0.8,0,1.5,0.7,1.5,1.5v0.9h-3V6.2z"/>
				<g class="st17">
					<g>
						<defs>
							<rect id="SVGID_23_" x="32" width="16" height="16"/>
						</defs>
						<clipPath id="SVGID_24_">
							<use xlink:href="#SVGID_23_"  style="overflow:visible;"/>
						</clipPath>
						<polyline class="st18" points="48,0 32,0 32,16 						"/>
					</g>
				</g>
			</g>
		</g>
	</g>
</g>
</svg>
