<?xml version="1.0" encoding="utf-8"?>
<!-- Generator: Adobe Illustrator 24.0.0, SVG Export Plug-In . SVG Version: 6.00 Build 0)  -->
<svg version="1.1" id="Layer_1" xmlns="http://www.w3.org/2000/svg" xmlns:xlink="http://www.w3.org/1999/xlink" x="0px" y="0px"
	 viewBox="0 0 90 30" style="enable-background:new 0 0 90 30;" xml:space="preserve">
<style type="text/css">
	.st0{display:none;}
	.st1{display:inline;fill:#B5B5B5;}
	.st2{display:inline;fill:#A1A1A1;}
	.st3{display:inline;fill:#D7D7D7;}
	.st4{fill:#D7D7D7;}
	.st5{clip-path:url(#SVGID_2_);}
	.st6{opacity:0.6;}
	.st7{clip-path:url(#SVGID_4_);}
	.st8{clip-path:url(#SVGID_6_);}
</style>
<g class="st0">
	<rect y="3" class="st1" width="30" height="24"/>
	<rect x="30" y="3" class="st2" width="30" height="24"/>
	<rect x="60" y="3" class="st3" width="30" height="24"/>
</g>
<g>
	<rect y="3" class="st4" width="30" height="24"/>
	<rect x="30" y="3" class="st4" width="30" height="24"/>
	<rect x="60" y="3" class="st4" width="30" height="24"/>
</g>
<g>
	<g>
		<defs>
			<rect id="SVGID_1_" width="30" height="30"/>
		</defs>
		<clipPath id="SVGID_2_">
			<use xlink:href="#SVGID_1_"  style="overflow:visible;"/>
		</clipPath>
		<rect x="14" y="7.5" class="st5" width="2" height="15"/>
		<rect x="20" y="7.5" class="st5" width="2" height="15"/>
		<rect x="8" y="7.5" class="st5" width="2" height="15"/>
	</g>
</g>
<g class="st6">
	<g>
		<defs>
			<rect id="SVGID_3_" x="30" width="30" height="30"/>
		</defs>
		<clipPath id="SVGID_4_">
			<use xlink:href="#SVGID_3_"  style="overflow:visible;"/>
		</clipPath>
		<rect x="44" y="7.5" class="st7" width="2" height="15"/>
		<rect x="50" y="7.5" class="st7" width="2" height="15"/>
		<rect x="38" y="7.5" class="st7" width="2" height="15"/>
	</g>
</g>
<g>
	<g>
		<defs>
			<rect id="SVGID_5_" x="60" width="30" height="30"/>
		</defs>
		<clipPath id="SVGID_6_">
			<use xlink:href="#SVGID_5_"  style="overflow:visible;"/>
		</clipPath>
		<rect x="74" y="7.5" class="st8" width="2" height="15"/>
		<rect x="80" y="7.5" class="st8" width="2" height="15"/>
		<rect x="68" y="7.5" class="st8" width="2" height="15"/>
	</g>
</g>
</svg>
