<?xml version="1.0" encoding="utf-8"?>
<!-- Generator: Adobe Illustrator 24.0.0, SVG Export Plug-In . SVG Version: 6.00 Build 0)  -->
<svg version="1.1" id="Layer_1" xmlns="http://www.w3.org/2000/svg" xmlns:xlink="http://www.w3.org/1999/xlink" x="0px" y="0px"
	 viewBox="0 0 90 30" style="enable-background:new 0 0 90 30;" xml:space="preserve">
<style type="text/css">
	.st0{fill:#B5B5B5;}
	.st1{fill:#A1A1A1;}
	.st2{fill:#D7D7D7;}
	.st3{clip-path:url(#SVGID_2_);}
	.st4{clip-path:url(#SVGID_4_);}
	.st5{opacity:0.6;}
	.st6{clip-path:url(#SVGID_6_);}
	.st7{clip-path:url(#SVGID_8_);}
	.st8{clip-path:url(#SVGID_10_);}
	.st9{clip-path:url(#SVGID_12_);}
</style>
<rect y="3" class="st0" width="30" height="24"/>
<rect x="30" y="3" class="st1" width="30" height="24"/>
<rect x="60" y="3" class="st2" width="30" height="24"/>
<g>
	<g>
		<defs>
			<rect id="SVGID_1_" width="30" height="30"/>
		</defs>
		<clipPath id="SVGID_2_">
			<use xlink:href="#SVGID_1_"  style="overflow:visible;"/>
		</clipPath>
		<g class="st3">
			<defs>
				<rect id="SVGID_3_" width="30" height="30"/>
			</defs>
			<clipPath id="SVGID_4_">
				<use xlink:href="#SVGID_3_"  style="overflow:visible;"/>
			</clipPath>
			<path class="st4" d="M21,8h-8h-2v2v7c-0.7-0.1-1.4,0-2.2,0.3C7,18,5.9,19.6,6.4,20.8c0.5,1.2,2.3,1.6,4.1,0.9
				c1.4-0.6,2.4-1.7,2.5-2.7h0v-7h8v5.1c-0.7-0.1-1.4,0-2.2,0.3c-1.8,0.7-2.9,2.2-2.4,3.4c0.5,1.2,2.3,1.6,4.1,0.9
				C22,21.2,23,20.1,23,19h0v-9V8H21z M21,11h-8v-1h8V11z"/>
		</g>
	</g>
</g>
<g class="st5">
	<g>
		<defs>
			<rect id="SVGID_5_" x="30" width="30" height="30"/>
		</defs>
		<clipPath id="SVGID_6_">
			<use xlink:href="#SVGID_5_"  style="overflow:visible;"/>
		</clipPath>
		<g class="st6">
			<defs>
				<rect id="SVGID_7_" x="30" width="30" height="30"/>
			</defs>
			<clipPath id="SVGID_8_">
				<use xlink:href="#SVGID_7_"  style="overflow:visible;"/>
			</clipPath>
			<path class="st7" d="M51,8h-8h-2v2v7c-0.7-0.1-1.4,0-2.2,0.3c-1.8,0.7-2.9,2.2-2.4,3.4c0.5,1.2,2.3,1.6,4.1,0.9
				c1.4-0.6,2.4-1.7,2.5-2.7h0v-7h8v5.1c-0.7-0.1-1.4,0-2.2,0.3c-1.8,0.7-2.9,2.2-2.4,3.4c0.5,1.2,2.3,1.6,4.1,0.9
				C52,21.2,53,20.1,53,19h0v-9V8H51z M51,11h-8v-1h8V11z"/>
		</g>
	</g>
</g>
<g>
	<g>
		<defs>
			<rect id="SVGID_9_" x="60" width="30" height="30"/>
		</defs>
		<clipPath id="SVGID_10_">
			<use xlink:href="#SVGID_9_"  style="overflow:visible;"/>
		</clipPath>
		<g class="st8">
			<defs>
				<rect id="SVGID_11_" x="60" width="30" height="30"/>
			</defs>
			<clipPath id="SVGID_12_">
				<use xlink:href="#SVGID_11_"  style="overflow:visible;"/>
			</clipPath>
			<path class="st9" d="M81,8h-8h-2v2v7c-0.7-0.1-1.4,0-2.2,0.3c-1.8,0.7-2.9,2.2-2.4,3.4c0.5,1.2,2.3,1.6,4.1,0.9
				c1.4-0.6,2.4-1.7,2.5-2.7h0v-7h8v5.1c-0.7-0.1-1.4,0-2.2,0.3c-1.8,0.7-2.9,2.2-2.4,3.4c0.5,1.2,2.3,1.6,4.1,0.9
				C82,21.2,83,20.1,83,19h0v-9V8H81z M81,11h-8v-1h8V11z"/>
		</g>
	</g>
</g>
</svg>
