<?xml version="1.0" encoding="utf-8"?>
<!-- Generator: Adobe Illustrator 24.0.0, SVG Export Plug-In . SVG Version: 6.00 Build 0)  -->
<svg version="1.1" id="Layer_1" xmlns="http://www.w3.org/2000/svg" xmlns:xlink="http://www.w3.org/1999/xlink" x="0px" y="0px"
	 viewBox="0 0 90 30" style="enable-background:new 0 0 90 30;" xml:space="preserve">
<style type="text/css">
	.st0{display:none;fill:#B5B5B5;}
	.st1{display:none;fill:#A1A1A1;}
	.st2{display:none;fill:#D7D7D7;}
	.st3{clip-path:url(#SVGID_2_);}
	.st4{clip-path:url(#SVGID_4_);}
	.st5{clip-path:url(#SVGID_4_);fill:none;stroke:#000000;stroke-width:0.75;stroke-miterlimit:10;}
	.st6{opacity:0.6;}
	.st7{clip-path:url(#SVGID_6_);}
	.st8{clip-path:url(#SVGID_8_);}
	.st9{clip-path:url(#SVGID_8_);fill:none;stroke:#000000;stroke-width:0.75;stroke-miterlimit:10;}
	.st10{clip-path:url(#SVGID_10_);}
	.st11{clip-path:url(#SVGID_12_);}
	.st12{clip-path:url(#SVGID_12_);fill:none;stroke:#000000;stroke-width:0.75;stroke-miterlimit:10;}
</style>
<rect y="3" class="st0" width="30" height="24"/>
<rect x="30" y="3" class="st1" width="30" height="24"/>
<rect x="60" y="3" class="st2" width="30" height="24"/>
<g>
	<g>
		<defs>
			<rect id="SVGID_1_" width="30" height="30"/>
		</defs>
		<clipPath id="SVGID_2_">
			<use xlink:href="#SVGID_1_"  style="overflow:visible;"/>
		</clipPath>
		<g class="st3">
			<defs>
				<rect id="SVGID_3_" width="30" height="30"/>
			</defs>
			<clipPath id="SVGID_4_">
				<use xlink:href="#SVGID_3_"  style="overflow:visible;"/>
			</clipPath>
			<path class="st4" d="M22.1,15c0-3.9-3.2-7.1-7.1-7.1S7.9,11.1,7.9,15c0,3.9,3.2,7.1,7.1,7.1c1.5,0,3-0.5,4.1-1.3l0.9,0.9l1.6-1.7
				l-0.9-0.8C21.6,18,22.1,16.5,22.1,15 M15,20.4c-3,0-5.4-2.4-5.4-5.4S12,9.6,15,9.6s5.4,2.4,5.4,5.4c0,1.1-0.3,2.1-0.9,2.9
				l-2.4-2.3l-1.6,1.7l2.3,2.2C17,20.1,16,20.4,15,20.4"/>
			<path class="st5" d="M22.1,15c0-3.9-3.2-7.1-7.1-7.1S7.9,11.1,7.9,15c0,3.9,3.2,7.1,7.1,7.1c1.5,0,3-0.5,4.1-1.3l0.9,0.9l1.6-1.7
				l-0.9-0.8C21.6,18,22.1,16.5,22.1,15z M15,20.4c-3,0-5.4-2.4-5.4-5.4S12,9.6,15,9.6s5.4,2.4,5.4,5.4c0,1.1-0.3,2.1-0.9,2.9
				l-2.4-2.3l-1.6,1.7l2.3,2.2C17,20.1,16,20.4,15,20.4z"/>
		</g>
	</g>
</g>
<g class="st6">
	<g>
		<defs>
			<rect id="SVGID_5_" x="30" width="30" height="30"/>
		</defs>
		<clipPath id="SVGID_6_">
			<use xlink:href="#SVGID_5_"  style="overflow:visible;"/>
		</clipPath>
		<g class="st7">
			<defs>
				<rect id="SVGID_7_" x="30" width="30" height="30"/>
			</defs>
			<clipPath id="SVGID_8_">
				<use xlink:href="#SVGID_7_"  style="overflow:visible;"/>
			</clipPath>
			<path class="st8" d="M52.1,15c0-3.9-3.2-7.1-7.1-7.1s-7.1,3.2-7.1,7.1c0,3.9,3.2,7.1,7.1,7.1c1.5,0,3-0.5,4.1-1.3l0.9,0.9
				l1.6-1.7l-0.9-0.8C51.6,18,52.1,16.5,52.1,15 M45,20.4c-3,0-5.4-2.4-5.4-5.4S42,9.6,45,9.6s5.4,2.4,5.4,5.4
				c0,1.1-0.3,2.1-0.9,2.9l-2.4-2.3l-1.6,1.7l2.3,2.2C47,20.1,46,20.4,45,20.4"/>
			<path class="st9" d="M52.1,15c0-3.9-3.2-7.1-7.1-7.1s-7.1,3.2-7.1,7.1c0,3.9,3.2,7.1,7.1,7.1c1.5,0,3-0.5,4.1-1.3l0.9,0.9
				l1.6-1.7l-0.9-0.8C51.6,18,52.1,16.5,52.1,15z M45,20.4c-3,0-5.4-2.4-5.4-5.4S42,9.6,45,9.6s5.4,2.4,5.4,5.4
				c0,1.1-0.3,2.1-0.9,2.9l-2.4-2.3l-1.6,1.7l2.3,2.2C47,20.1,46,20.4,45,20.4z"/>
		</g>
	</g>
</g>
<g>
	<g>
		<defs>
			<rect id="SVGID_9_" x="60" width="30" height="30"/>
		</defs>
		<clipPath id="SVGID_10_">
			<use xlink:href="#SVGID_9_"  style="overflow:visible;"/>
		</clipPath>
		<g class="st10">
			<defs>
				<rect id="SVGID_11_" x="60" width="30" height="30"/>
			</defs>
			<clipPath id="SVGID_12_">
				<use xlink:href="#SVGID_11_"  style="overflow:visible;"/>
			</clipPath>
			<path class="st11" d="M82.1,15c0-3.9-3.2-7.1-7.1-7.1s-7.1,3.2-7.1,7.1c0,3.9,3.2,7.1,7.1,7.1c1.5,0,3-0.5,4.1-1.3l0.9,0.9
				l1.6-1.7l-0.9-0.8C81.6,18,82.1,16.5,82.1,15 M75,20.4c-3,0-5.4-2.4-5.4-5.4S72,9.6,75,9.6s5.4,2.4,5.4,5.4
				c0,1.1-0.3,2.1-0.9,2.9l-2.4-2.3l-1.6,1.7l2.3,2.2C77,20.1,76,20.4,75,20.4"/>
			<path class="st12" d="M82.1,15c0-3.9-3.2-7.1-7.1-7.1s-7.1,3.2-7.1,7.1c0,3.9,3.2,7.1,7.1,7.1c1.5,0,3-0.5,4.1-1.3l0.9,0.9
				l1.6-1.7l-0.9-0.8C81.6,18,82.1,16.5,82.1,15z M75,20.4c-3,0-5.4-2.4-5.4-5.4S72,9.6,75,9.6s5.4,2.4,5.4,5.4
				c0,1.1-0.3,2.1-0.9,2.9l-2.4-2.3l-1.6,1.7l2.3,2.2C77,20.1,76,20.4,75,20.4z"/>
		</g>
	</g>
</g>
</svg>
