<?xml version="1.0" encoding="utf-8"?>
<!-- Generator: Adobe Illustrator 24.0.0, SVG Export Plug-In . SVG Version: 6.00 Build 0)  -->
<svg version="1.1" id="Layer_1" xmlns="http://www.w3.org/2000/svg" xmlns:xlink="http://www.w3.org/1999/xlink" x="0px" y="0px"
	 viewBox="0 0 90 30" style="enable-background:new 0 0 90 30;" xml:space="preserve">
<style type="text/css">
	.st0{clip-path:url(#SVGID_2_);}
	.st1{clip-path:url(#SVGID_4_);}
	.st2{clip-path:url(#SVGID_4_);fill-rule:evenodd;clip-rule:evenodd;}
	.st3{clip-path:url(#SVGID_6_);fill-rule:evenodd;clip-rule:evenodd;}
	.st4{opacity:0.58;clip-path:url(#SVGID_6_);}
	.st5{clip-path:url(#SVGID_8_);fill-rule:evenodd;clip-rule:evenodd;}
	.st6{opacity:0.6;}
	.st7{clip-path:url(#SVGID_10_);}
	.st8{clip-path:url(#SVGID_12_);}
	.st9{clip-path:url(#SVGID_12_);fill-rule:evenodd;clip-rule:evenodd;}
	.st10{clip-path:url(#SVGID_14_);fill-rule:evenodd;clip-rule:evenodd;}
	.st11{opacity:0.58;clip-path:url(#SVGID_14_);}
	.st12{clip-path:url(#SVGID_16_);fill-rule:evenodd;clip-rule:evenodd;}
	.st13{clip-path:url(#SVGID_18_);}
	.st14{clip-path:url(#SVGID_20_);}
	.st15{clip-path:url(#SVGID_20_);fill-rule:evenodd;clip-rule:evenodd;}
	.st16{clip-path:url(#SVGID_22_);fill-rule:evenodd;clip-rule:evenodd;}
	.st17{opacity:0.58;clip-path:url(#SVGID_22_);}
	.st18{clip-path:url(#SVGID_24_);fill-rule:evenodd;clip-rule:evenodd;}
</style>
<g>
	<g>
		<defs>
			<rect id="SVGID_1_" width="30" height="30"/>
		</defs>
		<clipPath id="SVGID_2_">
			<use xlink:href="#SVGID_1_"  style="overflow:visible;"/>
		</clipPath>
		<g class="st0">
			<defs>
				<rect id="SVGID_3_" width="30" height="30"/>
			</defs>
			<clipPath id="SVGID_4_">
				<use xlink:href="#SVGID_3_"  style="overflow:visible;"/>
			</clipPath>
			<polygon class="st1" points="3.2,2.2 3.4,2.2 3.3,2.1 			"/>
			<polygon class="st2" points="23,15 16.5,11.2 16.5,18.8 			"/>
			<g class="st1">
				<defs>
					<rect id="SVGID_5_" width="30" height="30"/>
				</defs>
				<clipPath id="SVGID_6_">
					<use xlink:href="#SVGID_5_"  style="overflow:visible;"/>
				</clipPath>
				<path class="st3" d="M14.9,15c0,1-0.8,1.8-1.8,1.8c-1,0-1.8-0.8-1.8-1.8s0.8-1.8,1.8-1.8C14.1,13.3,14.9,14,14.9,15"/>
				<g class="st4">
					<g>
						<defs>
							<rect id="SVGID_7_" x="6.9" y="13.3" width="3.5" height="3.5"/>
						</defs>
						<clipPath id="SVGID_8_">
							<use xlink:href="#SVGID_7_"  style="overflow:visible;"/>
						</clipPath>
						<path class="st5" d="M10.4,15c0,1-0.8,1.8-1.8,1.8c-1,0-1.8-0.8-1.8-1.8s0.8-1.8,1.8-1.8C9.6,13.3,10.4,14,10.4,15"/>
					</g>
				</g>
			</g>
		</g>
	</g>
</g>
<g class="st6">
	<g>
		<defs>
			<rect id="SVGID_9_" x="30" width="30" height="30"/>
		</defs>
		<clipPath id="SVGID_10_">
			<use xlink:href="#SVGID_9_"  style="overflow:visible;"/>
		</clipPath>
		<g class="st7">
			<defs>
				<rect id="SVGID_11_" x="30" width="30" height="30"/>
			</defs>
			<clipPath id="SVGID_12_">
				<use xlink:href="#SVGID_11_"  style="overflow:visible;"/>
			</clipPath>
			<polygon class="st8" points="33.2,2.2 33.4,2.2 33.3,2.1 			"/>
			<polygon class="st9" points="53,15 46.5,11.2 46.5,18.8 			"/>
			<g class="st8">
				<defs>
					<rect id="SVGID_13_" x="30" width="30" height="30"/>
				</defs>
				<clipPath id="SVGID_14_">
					<use xlink:href="#SVGID_13_"  style="overflow:visible;"/>
				</clipPath>
				<path class="st10" d="M44.9,15c0,1-0.8,1.8-1.8,1.8c-1,0-1.8-0.8-1.8-1.8s0.8-1.8,1.8-1.8C44.1,13.3,44.9,14,44.9,15"/>
				<g class="st11">
					<g>
						<defs>
							<rect id="SVGID_15_" x="36.9" y="13.3" width="3.5" height="3.5"/>
						</defs>
						<clipPath id="SVGID_16_">
							<use xlink:href="#SVGID_15_"  style="overflow:visible;"/>
						</clipPath>
						<path class="st12" d="M40.4,15c0,1-0.8,1.8-1.8,1.8c-1,0-1.8-0.8-1.8-1.8s0.8-1.8,1.8-1.8C39.6,13.3,40.4,14,40.4,15"/>
					</g>
				</g>
			</g>
		</g>
	</g>
</g>
<g>
	<g>
		<defs>
			<rect id="SVGID_17_" x="60" width="30" height="30"/>
		</defs>
		<clipPath id="SVGID_18_">
			<use xlink:href="#SVGID_17_"  style="overflow:visible;"/>
		</clipPath>
		<g class="st13">
			<defs>
				<rect id="SVGID_19_" x="60" width="30" height="30"/>
			</defs>
			<clipPath id="SVGID_20_">
				<use xlink:href="#SVGID_19_"  style="overflow:visible;"/>
			</clipPath>
			<polygon class="st14" points="63.2,2.2 63.4,2.2 63.3,2.1 			"/>
			<polygon class="st15" points="83,15 76.5,11.2 76.5,18.8 			"/>
			<g class="st14">
				<defs>
					<rect id="SVGID_21_" x="60" width="30" height="30"/>
				</defs>
				<clipPath id="SVGID_22_">
					<use xlink:href="#SVGID_21_"  style="overflow:visible;"/>
				</clipPath>
				<path class="st16" d="M74.9,15c0,1-0.8,1.8-1.8,1.8c-1,0-1.8-0.8-1.8-1.8s0.8-1.8,1.8-1.8C74.1,13.3,74.9,14,74.9,15"/>
				<g class="st17">
					<g>
						<defs>
							<rect id="SVGID_23_" x="66.9" y="13.3" width="3.5" height="3.5"/>
						</defs>
						<clipPath id="SVGID_24_">
							<use xlink:href="#SVGID_23_"  style="overflow:visible;"/>
						</clipPath>
						<path class="st18" d="M70.4,15c0,1-0.8,1.8-1.8,1.8c-1,0-1.8-0.8-1.8-1.8s0.8-1.8,1.8-1.8C69.6,13.3,70.4,14,70.4,15"/>
					</g>
				</g>
			</g>
		</g>
	</g>
</g>
</svg>
