<?xml version="1.0" encoding="utf-8"?>
<!-- Generator: Adobe Illustrator 24.0.0, SVG Export Plug-In . SVG Version: 6.00 Build 0)  -->
<svg version="1.1" id="Layer_1" xmlns="http://www.w3.org/2000/svg" xmlns:xlink="http://www.w3.org/1999/xlink" x="0px" y="0px"
	 viewBox="0 0 90 30" style="enable-background:new 0 0 90 30;" xml:space="preserve">
<style type="text/css">
	.st0{fill:#7F7F7F;}
	.st1{clip-path:url(#SVGID_2_);}
	.st2{clip-path:url(#SVGID_4_);fill:#B5B5B5;}
	.st3{opacity:0.6;}
	.st4{clip-path:url(#SVGID_6_);}
	.st5{clip-path:url(#SVGID_8_);fill:#B5B5B5;}
	.st6{clip-path:url(#SVGID_10_);}
	.st7{clip-path:url(#SVGID_12_);fill:#B5B5B5;}
</style>
<rect x="30" class="st0" width="30" height="30"/>
<rect class="st0" width="30" height="30"/>
<rect x="60" class="st0" width="30" height="30"/>
<g>
	<g>
		<defs>
			<rect id="SVGID_1_" width="30" height="30"/>
		</defs>
		<clipPath id="SVGID_2_">
			<use xlink:href="#SVGID_1_"  style="overflow:visible;"/>
		</clipPath>
		<g class="st1">
			<defs>
				<rect id="SVGID_3_" width="30" height="30"/>
			</defs>
			<clipPath id="SVGID_4_">
				<use xlink:href="#SVGID_3_"  style="overflow:visible;"/>
			</clipPath>
			<path class="st2" d="M15,7c4.1,0,7.5,3.6,7.5,8s-3.4,8-7.5,8c-4.1,0-7.5-3.6-7.5-8S10.9,7,15,7"/>
		</g>
		<path class="st1" d="M17.9,15.5c0-1.5,0-3.1,0.1-4h0c-0.4,1.4-1.6,4.8-2.5,7.5h-1.1c-0.7-2.2-2-6-2.4-7.5h0c0.1,1,0.1,2.8,0.1,4.2
			V19h-1.2v-8.3h1.8c0.9,2.5,2,5.7,2.2,6.8h0c0.2-0.9,1.5-4.4,2.4-6.8h1.8V19h-1.2V15.5z"/>
	</g>
</g>
<g class="st3">
	<g>
		<defs>
			<rect id="SVGID_5_" x="30" width="30" height="30"/>
		</defs>
		<clipPath id="SVGID_6_">
			<use xlink:href="#SVGID_5_"  style="overflow:visible;"/>
		</clipPath>
		<g class="st4">
			<defs>
				<rect id="SVGID_7_" x="30" width="30" height="30"/>
			</defs>
			<clipPath id="SVGID_8_">
				<use xlink:href="#SVGID_7_"  style="overflow:visible;"/>
			</clipPath>
			<path class="st5" d="M45,7c4.1,0,7.5,3.6,7.5,8s-3.4,8-7.5,8c-4.1,0-7.5-3.6-7.5-8S40.9,7,45,7"/>
		</g>
		<path class="st4" d="M47.9,15.5c0-1.5,0-3.1,0.1-4h0c-0.4,1.4-1.6,4.8-2.5,7.5h-1.1c-0.7-2.2-2-6-2.4-7.5h0c0.1,1,0.1,2.8,0.1,4.2
			V19h-1.2v-8.3h1.8c0.9,2.5,2,5.7,2.2,6.8h0c0.2-0.9,1.5-4.4,2.4-6.8h1.8V19h-1.2V15.5z"/>
	</g>
</g>
<g>
	<g>
		<defs>
			<rect id="SVGID_9_" x="60" width="30" height="30"/>
		</defs>
		<clipPath id="SVGID_10_">
			<use xlink:href="#SVGID_9_"  style="overflow:visible;"/>
		</clipPath>
		<g class="st6">
			<defs>
				<rect id="SVGID_11_" x="60" width="30" height="30"/>
			</defs>
			<clipPath id="SVGID_12_">
				<use xlink:href="#SVGID_11_"  style="overflow:visible;"/>
			</clipPath>
			<path class="st7" d="M75,7c4.1,0,7.5,3.6,7.5,8s-3.4,8-7.5,8c-4.1,0-7.5-3.6-7.5-8S70.9,7,75,7"/>
		</g>
		<path class="st6" d="M77.9,15.5c0-1.5,0-3.1,0.1-4h0c-0.4,1.4-1.6,4.8-2.5,7.5h-1.1c-0.7-2.2-2-6-2.4-7.5h0c0.1,1,0.1,2.8,0.1,4.2
			V19h-1.2v-8.3h1.8c0.9,2.5,2,5.7,2.2,6.8h0c0.2-0.9,1.5-4.4,2.4-6.8h1.8V19h-1.2V15.5z"/>
	</g>
</g>
</svg>
