<?xml version="1.0" encoding="utf-8"?>
<!-- Generator: Adobe Illustrator 24.0.0, SVG Export Plug-In . SVG Version: 6.00 Build 0)  -->
<svg version="1.1" id="Layer_1" xmlns="http://www.w3.org/2000/svg" xmlns:xlink="http://www.w3.org/1999/xlink" x="0px" y="0px"
	 viewBox="0 0 90 30" style="enable-background:new 0 0 90 30;" xml:space="preserve">
<style type="text/css">
	.st0{fill:#B5B5B5;}
	.st1{fill:#A1A1A1;}
	.st2{fill:#D7D7D7;}
	.st3{clip-path:url(#SVGID_2_);}
	.st4{opacity:0.6;}
	.st5{clip-path:url(#SVGID_4_);}
	.st6{clip-path:url(#SVGID_6_);}
</style>
<rect y="3" class="st0" width="30" height="24"/>
<rect x="30" y="3" class="st1" width="30" height="24"/>
<rect x="60" y="3" class="st2" width="30" height="24"/>
<g>
	<g>
		<defs>
			<rect id="SVGID_1_" width="30" height="30"/>
		</defs>
		<clipPath id="SVGID_2_">
			<use xlink:href="#SVGID_1_"  style="overflow:visible;"/>
		</clipPath>
		<path class="st3" d="M6,23h18V8H6V23z M22,21H8V10h14V21z"/>
		<rect x="13" y="10" class="st3" width="4" height="4"/>
		<polygon class="st3" points="15,18 19,14 10.9,14 		"/>
	</g>
</g>
<g class="st4">
	<g>
		<defs>
			<rect id="SVGID_3_" x="30" width="30" height="30"/>
		</defs>
		<clipPath id="SVGID_4_">
			<use xlink:href="#SVGID_3_"  style="overflow:visible;"/>
		</clipPath>
		<path class="st5" d="M36,23h18V8H36V23z M52,21H38V10h14V21z"/>
		<rect x="43" y="10" class="st5" width="4" height="4"/>
		<polygon class="st5" points="45,18 49,14 40.9,14 		"/>
	</g>
</g>
<g>
	<g>
		<defs>
			<rect id="SVGID_5_" x="60" width="30" height="30"/>
		</defs>
		<clipPath id="SVGID_6_">
			<use xlink:href="#SVGID_5_"  style="overflow:visible;"/>
		</clipPath>
		<path class="st6" d="M66,23h18V8H66V23z M82,21H68V10h14V21z"/>
		<rect x="73" y="10" class="st6" width="4" height="4"/>
		<polygon class="st6" points="75,18 79,14 70.9,14 		"/>
	</g>
</g>
</svg>
