<?xml version="1.0" encoding="utf-8"?>
<!-- Generator: Adobe Illustrator 24.0.0, SVG Export Plug-In . SVG Version: 6.00 Build 0)  -->
<svg version="1.1" id="Layer_1" xmlns="http://www.w3.org/2000/svg" xmlns:xlink="http://www.w3.org/1999/xlink" x="0px" y="0px"
	 viewBox="0 0 90 30" style="enable-background:new 0 0 90 30;" xml:space="preserve">
<style type="text/css">
	.st0{display:none;}
	.st1{display:inline;fill:#B5B5B5;}
	.st2{display:inline;fill:#A1A1A1;}
	.st3{display:inline;fill:#D7D7D7;}
	.st4{clip-path:url(#SVGID_2_);}
	.st5{clip-path:url(#SVGID_4_);fill:#7F7E7C;}
	.st6{clip-path:url(#SVGID_4_);fill:none;stroke:#000000;stroke-width:0.5;stroke-miterlimit:10;}
	.st7{clip-path:url(#SVGID_4_);}
	.st8{opacity:0.6;}
	.st9{clip-path:url(#SVGID_6_);}
	.st10{clip-path:url(#SVGID_8_);fill:#7F7E7C;}
	.st11{clip-path:url(#SVGID_8_);fill:none;stroke:#000000;stroke-width:0.5;stroke-miterlimit:10;}
	.st12{clip-path:url(#SVGID_8_);}
	.st13{clip-path:url(#SVGID_10_);}
	.st14{clip-path:url(#SVGID_12_);fill:#7F7E7C;}
	.st15{clip-path:url(#SVGID_12_);fill:none;stroke:#000000;stroke-width:0.5;stroke-miterlimit:10;}
	.st16{clip-path:url(#SVGID_12_);}
</style>
<g class="st0">
	<rect y="3" class="st1" width="30" height="24"/>
	<rect x="30" y="3" class="st2" width="30" height="24"/>
	<rect x="60" y="3" class="st3" width="30" height="24"/>
</g>
<g class="st0">
	<rect y="3" class="st3" width="30" height="24"/>
	<rect x="30" y="3" class="st3" width="30" height="24"/>
	<rect x="60" y="3" class="st3" width="30" height="24"/>
</g>
<g>
	<g>
		<defs>
			<rect id="SVGID_1_" width="30" height="30"/>
		</defs>
		<clipPath id="SVGID_2_">
			<use xlink:href="#SVGID_1_"  style="overflow:visible;"/>
		</clipPath>
		<g class="st4">
			<defs>
				<rect id="SVGID_3_" width="30" height="30"/>
			</defs>
			<clipPath id="SVGID_4_">
				<use xlink:href="#SVGID_3_"  style="overflow:visible;"/>
			</clipPath>
			<path class="st5" d="M4,20h7.5v-1.4C10.6,17.7,10,16.4,10,15c0-2.8,2.2-5,5-5H4V20z"/>
			<path class="st6" d="M4,20h7.5v-1.4C10.6,17.7,10,16.4,10,15c0-2.8,2.2-5,5-5H4V20z"/>
			<path class="st5" d="M15,10c2.8,0,5,2.2,5,5c0,1.4-0.6,2.7-1.5,3.6V20H26V10H15z"/>
			<path class="st6" d="M15,10c2.8,0,5,2.2,5,5c0,1.4-0.6,2.7-1.5,3.6V20H26V10H15z"/>
			<path class="st7" d="M15,8.8c-3.5,0-6.4,2.8-6.4,6.3c0,3,2,5.5,4.8,6.2V19h3.1v2.3c2.8-0.7,4.8-3.2,4.8-6.2
				C21.4,11.6,18.5,8.8,15,8.8 M11.9,15.9h-1.6v-1.6h1.6V15.9z M13.4,13.5h-1.6V12h1.6V13.5z M15.8,12h-1.6v-1.5h1.6V12z M16.6,12
				h1.6v1.6h-1.6V12z M18.1,14.3h1.5v1.6h-1.5V14.3z"/>
		</g>
	</g>
</g>
<g class="st8">
	<g>
		<defs>
			<rect id="SVGID_5_" x="30" width="30" height="30"/>
		</defs>
		<clipPath id="SVGID_6_">
			<use xlink:href="#SVGID_5_"  style="overflow:visible;"/>
		</clipPath>
		<g class="st9">
			<defs>
				<rect id="SVGID_7_" x="30" width="30" height="30"/>
			</defs>
			<clipPath id="SVGID_8_">
				<use xlink:href="#SVGID_7_"  style="overflow:visible;"/>
			</clipPath>
			<path class="st10" d="M34,20h7.5v-1.4C40.6,17.7,40,16.4,40,15c0-2.8,2.2-5,5-5H34V20z"/>
			<path class="st11" d="M34,20h7.5v-1.4C40.6,17.7,40,16.4,40,15c0-2.8,2.2-5,5-5H34V20z"/>
			<path class="st10" d="M45,10c2.8,0,5,2.2,5,5c0,1.4-0.6,2.7-1.5,3.6V20H56V10H45z"/>
			<path class="st11" d="M45,10c2.8,0,5,2.2,5,5c0,1.4-0.6,2.7-1.5,3.6V20H56V10H45z"/>
			<path class="st12" d="M45,8.8c-3.5,0-6.3,2.8-6.3,6.3c0,3,2,5.5,4.8,6.2V19h3.1v2.3c2.8-0.7,4.8-3.2,4.8-6.2
				C51.3,11.6,48.5,8.8,45,8.8 M41.9,15.9h-1.6v-1.6h1.6V15.9z M43.4,13.5h-1.5V12h1.5V13.5z M45.8,12h-1.6v-1.5h1.6V12z M46.6,12
				h1.6v1.6h-1.6V12z M48.1,14.3h1.6v1.6h-1.6V14.3z"/>
		</g>
	</g>
</g>
<g>
	<g>
		<defs>
			<rect id="SVGID_9_" x="60" width="30" height="30"/>
		</defs>
		<clipPath id="SVGID_10_">
			<use xlink:href="#SVGID_9_"  style="overflow:visible;"/>
		</clipPath>
		<g class="st13">
			<defs>
				<rect id="SVGID_11_" x="60" width="30" height="30"/>
			</defs>
			<clipPath id="SVGID_12_">
				<use xlink:href="#SVGID_11_"  style="overflow:visible;"/>
			</clipPath>
			<path class="st14" d="M64,20h7.5v-1.4C70.6,17.7,70,16.4,70,15c0-2.8,2.2-5,5-5H64V20z"/>
			<path class="st15" d="M64,20h7.5v-1.4C70.6,17.7,70,16.4,70,15c0-2.8,2.2-5,5-5H64V20z"/>
			<path class="st14" d="M75,10c2.8,0,5,2.2,5,5c0,1.4-0.6,2.7-1.5,3.6V20H86V10H75z"/>
			<path class="st15" d="M75,10c2.8,0,5,2.2,5,5c0,1.4-0.6,2.7-1.5,3.6V20H86V10H75z"/>
			<path class="st16" d="M75,8.8c-3.5,0-6.3,2.8-6.3,6.3c0,3,2,5.5,4.8,6.2V19h3.1v2.3c2.8-0.7,4.8-3.2,4.8-6.2
				C81.3,11.6,78.5,8.8,75,8.8 M71.9,15.9h-1.6v-1.6h1.6V15.9z M73.4,13.5h-1.5V12h1.5V13.5z M75.8,12h-1.6v-1.5h1.6V12z M76.6,12
				h1.6v1.6h-1.6V12z M78.1,14.3h1.6v1.6h-1.6V14.3z"/>
		</g>
	</g>
</g>
</svg>
