<?xml version="1.0" encoding="utf-8"?>
<!-- Generator: Adobe Illustrator 24.0.0, SVG Export Plug-In . SVG Version: 6.00 Build 0)  -->
<svg version="1.1" id="Layer_1" xmlns="http://www.w3.org/2000/svg" xmlns:xlink="http://www.w3.org/1999/xlink" x="0px" y="0px"
	 viewBox="0 0 90 30" style="enable-background:new 0 0 90 30;" xml:space="preserve">
<style type="text/css">
	.st0{fill:#B5B5B5;}
	.st1{fill:#A1A1A1;}
	.st2{fill:#D7D7D7;}
	.st3{display:none;}
	.st4{display:inline;fill:#D7D7D7;}
	.st5{clip-path:url(#SVGID_2_);}
	.st6{clip-path:url(#SVGID_4_);}
	.st7{opacity:0.6;}
	.st8{clip-path:url(#SVGID_6_);}
	.st9{clip-path:url(#SVGID_8_);}
	.st10{clip-path:url(#SVGID_10_);}
	.st11{clip-path:url(#SVGID_12_);}
</style>
<g>
	<rect y="3" class="st0" width="30" height="24"/>
	<rect x="30" y="3" class="st1" width="30" height="24"/>
	<rect x="60" y="3" class="st2" width="30" height="24"/>
</g>
<g class="st3">
	<rect y="3" class="st4" width="30" height="24"/>
	<rect x="30" y="3" class="st4" width="30" height="24"/>
	<rect x="60" y="3" class="st4" width="30" height="24"/>
</g>
<g>
	<g>
		<defs>
			<rect id="SVGID_1_" width="30" height="30"/>
		</defs>
		<clipPath id="SVGID_2_">
			<use xlink:href="#SVGID_1_"  style="overflow:visible;"/>
		</clipPath>
		<g class="st5">
			<defs>
				<rect id="SVGID_3_" width="30" height="30"/>
			</defs>
			<clipPath id="SVGID_4_">
				<use xlink:href="#SVGID_3_"  style="overflow:visible;"/>
			</clipPath>
			<path class="st6" d="M9.8,23h10.4c0.7,0,1.4-0.6,1.4-1.3v-7c0-0.7-0.6-1.3-1.4-1.3h0v-1.7C20.2,9.2,17.9,7,15,7
				c-2.8,0-5.1,2.2-5.1,4.8v1.7H9.8c-0.7,0-1.4,0.6-1.4,1.3v7C8.4,22.4,9,23,9.8,23 M12.1,11.8c0-1.5,1.3-2.7,2.9-2.7
				c1.6,0,2.9,1.2,2.9,2.7v1.7h-5.8V11.8z"/>
		</g>
	</g>
</g>
<g class="st7">
	<g>
		<defs>
			<rect id="SVGID_5_" x="30" width="30" height="30"/>
		</defs>
		<clipPath id="SVGID_6_">
			<use xlink:href="#SVGID_5_"  style="overflow:visible;"/>
		</clipPath>
		<g class="st8">
			<defs>
				<rect id="SVGID_7_" x="30" width="30" height="30"/>
			</defs>
			<clipPath id="SVGID_8_">
				<use xlink:href="#SVGID_7_"  style="overflow:visible;"/>
			</clipPath>
			<path class="st9" d="M39.8,23h10.4c0.7,0,1.4-0.6,1.4-1.3v-7c0-0.7-0.6-1.3-1.4-1.3h0v-1.7C50.2,9.2,47.9,7,45,7
				c-2.8,0-5.1,2.2-5.1,4.8v1.7h-0.1c-0.7,0-1.4,0.6-1.4,1.3v7C38.4,22.4,39,23,39.8,23 M42.1,11.8c0-1.5,1.3-2.7,2.9-2.7
				c1.6,0,2.9,1.2,2.9,2.7v1.7h-5.8V11.8z"/>
		</g>
	</g>
</g>
<g>
	<g>
		<defs>
			<rect id="SVGID_9_" x="60" width="30" height="30"/>
		</defs>
		<clipPath id="SVGID_10_">
			<use xlink:href="#SVGID_9_"  style="overflow:visible;"/>
		</clipPath>
		<g class="st10">
			<defs>
				<rect id="SVGID_11_" x="60" width="30" height="30"/>
			</defs>
			<clipPath id="SVGID_12_">
				<use xlink:href="#SVGID_11_"  style="overflow:visible;"/>
			</clipPath>
			<path class="st11" d="M69.8,23h10.4c0.7,0,1.4-0.6,1.4-1.3v-7c0-0.7-0.6-1.3-1.4-1.3h0v-1.7C80.2,9.2,77.9,7,75,7
				c-2.8,0-5.1,2.2-5.1,4.8v1.7h-0.1c-0.7,0-1.4,0.6-1.4,1.3v7C68.4,22.4,69,23,69.8,23 M72.1,11.8c0-1.5,1.3-2.7,2.9-2.7
				c1.6,0,2.9,1.2,2.9,2.7v1.7h-5.8V11.8z"/>
		</g>
	</g>
</g>
</svg>
