<?xml version="1.0" encoding="utf-8"?>
<!-- Generator: Adobe Illustrator 24.0.0, SVG Export Plug-In . SVG Version: 6.00 Build 0)  -->
<svg version="1.1" id="Layer_1" xmlns="http://www.w3.org/2000/svg" xmlns:xlink="http://www.w3.org/1999/xlink" x="0px" y="0px"
	 viewBox="0 0 90 30" style="enable-background:new 0 0 90 30;" xml:space="preserve">
<style type="text/css">
	.st0{fill:#B5B5B5;}
	.st1{fill:#A1A1A1;}
	.st2{fill:#D7D7D7;}
	.st3{display:none;}
	.st4{display:inline;fill:#D7D7D7;}
	.st5{clip-path:url(#SVGID_2_);}
	.st6{clip-path:url(#SVGID_4_);}
	.st7{opacity:0.6;}
	.st8{clip-path:url(#SVGID_6_);}
	.st9{clip-path:url(#SVGID_8_);}
	.st10{clip-path:url(#SVGID_10_);}
	.st11{clip-path:url(#SVGID_12_);}
</style>
<g>
	<rect y="3" class="st0" width="30" height="24"/>
	<rect x="30" y="3" class="st1" width="30" height="24"/>
	<rect x="60" y="3" class="st2" width="30" height="24"/>
</g>
<g class="st3">
	<rect y="3" class="st4" width="30" height="24"/>
	<rect x="30" y="3" class="st4" width="30" height="24"/>
	<rect x="60" y="3" class="st4" width="30" height="24"/>
</g>
<g>
	<g>
		<defs>
			<rect id="SVGID_1_" width="30" height="30"/>
		</defs>
		<clipPath id="SVGID_2_">
			<use xlink:href="#SVGID_1_"  style="overflow:visible;"/>
		</clipPath>
		<g class="st5">
			<defs>
				<rect id="SVGID_3_" width="30" height="30"/>
			</defs>
			<clipPath id="SVGID_4_">
				<use xlink:href="#SVGID_3_"  style="overflow:visible;"/>
			</clipPath>
			<path class="st6" d="M15,23.2c-2.1,0-4-0.7-5.5-2.1C7.9,19.7,7,18,6.8,15.9h2.3c0.2,1.5,0.9,2.7,2,3.6c1.1,1,2.4,1.4,3.9,1.4
				c1.7,0,3.1-0.6,4.2-1.7c1.2-1.2,1.7-2.6,1.7-4.2s-0.6-3.1-1.7-4.2C18,9.6,16.6,9.1,15,9.1c-0.9,0-1.8,0.2-2.6,0.6
				c-0.8,0.4-1.5,0.9-2.1,1.7h2v1.9H6.9V7.7h1.9v1.9c0.8-0.9,1.7-1.6,2.8-2.1C12.6,7,13.8,6.8,15,6.8c1.1,0,2.2,0.2,3.2,0.6
				c1,0.4,1.9,1,2.6,1.8c0.7,0.7,1.3,1.6,1.8,2.6c0.4,1,0.6,2.1,0.6,3.2s-0.2,2.2-0.6,3.2c-0.4,1-1,1.9-1.8,2.6
				c-0.7,0.7-1.6,1.3-2.6,1.8C17.2,23,16.1,23.2,15,23.2 M17.3,18.7L14,15.4v-4.8H16v4l2.7,2.7L17.3,18.7z"/>
		</g>
	</g>
</g>
<g class="st7">
	<g>
		<defs>
			<rect id="SVGID_5_" x="30" width="30" height="30"/>
		</defs>
		<clipPath id="SVGID_6_">
			<use xlink:href="#SVGID_5_"  style="overflow:visible;"/>
		</clipPath>
		<g class="st8">
			<defs>
				<rect id="SVGID_7_" x="30" width="30" height="30"/>
			</defs>
			<clipPath id="SVGID_8_">
				<use xlink:href="#SVGID_7_"  style="overflow:visible;"/>
			</clipPath>
			<path class="st9" d="M45,23.2c-2.1,0-4-0.7-5.5-2.1c-1.6-1.4-2.5-3.2-2.7-5.3h2.3c0.2,1.5,0.9,2.7,2,3.6c1.1,1,2.4,1.4,3.9,1.4
				c1.7,0,3.1-0.6,4.2-1.7c1.2-1.2,1.7-2.6,1.7-4.2s-0.6-3.1-1.7-4.2C48,9.6,46.6,9.1,45,9.1c-0.9,0-1.8,0.2-2.6,0.6
				c-0.8,0.4-1.5,0.9-2.1,1.7h2v1.9h-5.5V7.7h1.9v1.9c0.8-0.9,1.7-1.6,2.8-2.1C42.6,7,43.8,6.8,45,6.8c1.1,0,2.2,0.2,3.2,0.6
				c1,0.4,1.9,1,2.6,1.8c0.7,0.7,1.3,1.6,1.8,2.6c0.4,1,0.6,2.1,0.6,3.2s-0.2,2.2-0.6,3.2c-0.4,1-1,1.9-1.8,2.6
				c-0.7,0.7-1.6,1.3-2.6,1.8C47.2,23,46.1,23.2,45,23.2 M47.3,18.7L44,15.4v-4.8H46v4l2.7,2.7L47.3,18.7z"/>
		</g>
	</g>
</g>
<g>
	<g>
		<defs>
			<rect id="SVGID_9_" x="60" width="30" height="30"/>
		</defs>
		<clipPath id="SVGID_10_">
			<use xlink:href="#SVGID_9_"  style="overflow:visible;"/>
		</clipPath>
		<g class="st10">
			<defs>
				<rect id="SVGID_11_" x="60" width="30" height="30"/>
			</defs>
			<clipPath id="SVGID_12_">
				<use xlink:href="#SVGID_11_"  style="overflow:visible;"/>
			</clipPath>
			<path class="st11" d="M75,23.2c-2.1,0-4-0.7-5.5-2.1c-1.6-1.4-2.5-3.2-2.7-5.3h2.3c0.2,1.5,0.9,2.7,2,3.6c1.1,1,2.4,1.4,3.9,1.4
				c1.7,0,3.1-0.6,4.2-1.7c1.2-1.2,1.7-2.6,1.7-4.2s-0.6-3.1-1.7-4.2C78,9.6,76.6,9.1,75,9.1c-0.9,0-1.8,0.2-2.6,0.6
				c-0.8,0.4-1.5,0.9-2.1,1.7h2v1.9h-5.5V7.7h1.9v1.9c0.8-0.9,1.7-1.6,2.8-2.1C72.6,7,73.8,6.8,75,6.8c1.1,0,2.2,0.2,3.2,0.6
				s1.9,1,2.6,1.8c0.7,0.7,1.3,1.6,1.8,2.6c0.4,1,0.6,2.1,0.6,3.2s-0.2,2.2-0.6,3.2c-0.4,1-1,1.9-1.8,2.6c-0.7,0.7-1.6,1.3-2.6,1.8
				C77.2,23,76.1,23.2,75,23.2 M77.3,18.7L74,15.4v-4.8H76v4l2.7,2.7L77.3,18.7z"/>
		</g>
	</g>
</g>
</svg>
