<?xml version="1.0" encoding="utf-8"?>
<!-- Generator: Adobe Illustrator 24.0.0, SVG Export Plug-In . SVG Version: 6.00 Build 0)  -->
<svg version="1.1" id="Layer_1" xmlns="http://www.w3.org/2000/svg" xmlns:xlink="http://www.w3.org/1999/xlink" x="0px" y="0px"
	 viewBox="0 0 90 30" style="enable-background:new 0 0 90 30;" xml:space="preserve">
<style type="text/css">
	.st0{fill:#B5B5B5;}
	.st1{fill:#A1A1A1;}
	.st2{fill:#D7D7D7;}
	.st3{display:none;}
	.st4{display:inline;fill:#D7D7D7;}
	.st5{clip-path:url(#SVGID_2_);}
	.st6{clip-path:url(#SVGID_4_);}
	.st7{opacity:0.6;}
	.st8{clip-path:url(#SVGID_6_);}
	.st9{clip-path:url(#SVGID_8_);}
	.st10{clip-path:url(#SVGID_10_);}
	.st11{clip-path:url(#SVGID_12_);}
</style>
<g>
	<rect y="3" class="st0" width="30" height="24"/>
	<rect x="30" y="3" class="st1" width="30" height="24"/>
	<rect x="60" y="3" class="st2" width="30" height="24"/>
</g>
<g class="st3">
	<rect y="3" class="st4" width="30" height="24"/>
	<rect x="30" y="3" class="st4" width="30" height="24"/>
	<rect x="60" y="3" class="st4" width="30" height="24"/>
</g>
<g>
	<g>
		<defs>
			<rect id="SVGID_1_" width="30" height="30"/>
		</defs>
		<clipPath id="SVGID_2_">
			<use xlink:href="#SVGID_1_"  style="overflow:visible;"/>
		</clipPath>
		<g class="st5">
			<defs>
				<rect id="SVGID_3_" width="30" height="30"/>
			</defs>
			<clipPath id="SVGID_4_">
				<use xlink:href="#SVGID_3_"  style="overflow:visible;"/>
			</clipPath>
			<path class="st6" d="M23.5,14.5l-1.1,5.6C22.1,21.2,21.2,22,20,22H8.8c-1.3,0-2.3-1-2.3-2.3v-9.4C6.5,9,7.6,8,8.8,8H12
				c0.2,0,0.3,0,0.4,0.1l2.1,1.4H19c1.3,0,2.3,1,2.3,2.3h-1.6c0-0.4-0.3-0.8-0.8-0.8h-4.7c-0.2,0-0.3,0-0.4-0.1l-2.1-1.4H8.8
				c-0.4,0-0.8,0.3-0.8,0.8v9.4c0,0.4,0.3,0.8,0.8,0.8H9l1.2-5.9c0.2-1.1,1.2-1.9,2.3-1.9h9.5c0.5,0,0.9,0.2,1.2,0.6
				C23.4,13.6,23.6,14.1,23.5,14.5"/>
		</g>
	</g>
</g>
<g class="st7">
	<g>
		<defs>
			<rect id="SVGID_5_" x="30" width="30" height="30"/>
		</defs>
		<clipPath id="SVGID_6_">
			<use xlink:href="#SVGID_5_"  style="overflow:visible;"/>
		</clipPath>
		<g class="st8">
			<defs>
				<rect id="SVGID_7_" x="30" width="30" height="30"/>
			</defs>
			<clipPath id="SVGID_8_">
				<use xlink:href="#SVGID_7_"  style="overflow:visible;"/>
			</clipPath>
			<path class="st9" d="M53.5,14.5l-1.1,5.6C52.1,21.2,51.2,22,50,22H38.8c-1.3,0-2.3-1-2.3-2.3v-9.4c0-1.3,1-2.3,2.3-2.3H42
				c0.2,0,0.3,0,0.4,0.1l2.1,1.4H49c1.3,0,2.3,1,2.3,2.3h-1.6c0-0.4-0.3-0.8-0.8-0.8h-4.7c-0.2,0-0.3,0-0.4-0.1l-2.1-1.4h-2.9
				c-0.4,0-0.8,0.3-0.8,0.8v9.4c0,0.4,0.3,0.8,0.8,0.8H39l1.2-5.9c0.2-1.1,1.2-1.9,2.3-1.9h9.5c0.5,0,0.9,0.2,1.2,0.6
				C53.4,13.6,53.6,14.1,53.5,14.5"/>
		</g>
	</g>
</g>
<g>
	<g>
		<defs>
			<rect id="SVGID_9_" x="60" width="30" height="30"/>
		</defs>
		<clipPath id="SVGID_10_">
			<use xlink:href="#SVGID_9_"  style="overflow:visible;"/>
		</clipPath>
		<g class="st10">
			<defs>
				<rect id="SVGID_11_" x="60" width="30" height="30"/>
			</defs>
			<clipPath id="SVGID_12_">
				<use xlink:href="#SVGID_11_"  style="overflow:visible;"/>
			</clipPath>
			<path class="st11" d="M83.5,14.5l-1.1,5.6C82.1,21.2,81.2,22,80,22H68.8c-1.3,0-2.3-1-2.3-2.3v-9.4c0-1.3,1-2.3,2.3-2.3H72
				c0.2,0,0.3,0,0.4,0.1l2.1,1.4H79c1.3,0,2.3,1,2.3,2.3h-1.6c0-0.4-0.3-0.8-0.8-0.8h-4.7c-0.2,0-0.3,0-0.4-0.1l-2.1-1.4h-2.9
				c-0.4,0-0.8,0.3-0.8,0.8v9.4c0,0.4,0.3,0.8,0.8,0.8H69l1.2-5.9c0.2-1.1,1.2-1.9,2.3-1.9h9.5c0.5,0,0.9,0.2,1.2,0.6
				C83.4,13.6,83.6,14.1,83.5,14.5"/>
		</g>
	</g>
</g>
</svg>
