<?xml version="1.0" encoding="utf-8"?>
<!-- Generator: Adobe Illustrator 24.0.0, SVG Export Plug-In . SVG Version: 6.00 Build 0)  -->
<svg version="1.1" id="Layer_1" xmlns="http://www.w3.org/2000/svg" xmlns:xlink="http://www.w3.org/1999/xlink" x="0px" y="0px"
	 viewBox="0 0 90 30" style="enable-background:new 0 0 90 30;" xml:space="preserve">
<style type="text/css">
	.st0{fill:#B5B5B5;}
	.st1{fill:#A1A1A1;}
	.st2{fill:#D7D7D7;}
	.st3{display:none;}
	.st4{display:inline;fill:#D7D7D7;}
	.st5{clip-path:url(#SVGID_2_);}
	.st6{opacity:0.6;}
	.st7{clip-path:url(#SVGID_4_);}
	.st8{clip-path:url(#SVGID_6_);}
</style>
<g>
	<rect y="3" class="st0" width="30" height="24"/>
	<rect x="30" y="3" class="st1" width="30" height="24"/>
	<rect x="60" y="3" class="st2" width="30" height="24"/>
</g>
<g class="st3">
	<rect y="3" class="st4" width="30" height="24"/>
	<rect x="30" y="3" class="st4" width="30" height="24"/>
	<rect x="60" y="3" class="st4" width="30" height="24"/>
</g>
<g>
	<g>
		<defs>
			<rect id="SVGID_1_" width="30" height="30"/>
		</defs>
		<clipPath id="SVGID_2_">
			<use xlink:href="#SVGID_1_"  style="overflow:visible;"/>
		</clipPath>
		<rect x="12" y="11" class="st5" width="6" height="2"/>
		<rect x="12" y="14" class="st5" width="6" height="2"/>
		<rect x="12" y="17" class="st5" width="6" height="2"/>
		<rect x="19" y="8" class="st5" width="3" height="2"/>
		<rect x="8" y="14" class="st5" width="3" height="2"/>
		<rect x="12" y="20" class="st5" width="6" height="2"/>
		<rect x="12" y="8" class="st5" width="6" height="2"/>
		<rect x="8" y="8" class="st5" width="3" height="2"/>
		<rect x="8" y="20" class="st5" width="3" height="2"/>
		<rect x="19" y="20" class="st5" width="3" height="2"/>
		<rect x="19" y="17" class="st5" width="3" height="2"/>
		<rect x="19" y="14" class="st5" width="3" height="2"/>
		<rect x="19" y="11" class="st5" width="3" height="2"/>
	</g>
</g>
<g class="st6">
	<g>
		<defs>
			<rect id="SVGID_3_" x="30" width="30" height="30"/>
		</defs>
		<clipPath id="SVGID_4_">
			<use xlink:href="#SVGID_3_"  style="overflow:visible;"/>
		</clipPath>
		<rect x="42" y="11" class="st7" width="6" height="2"/>
		<rect x="42" y="14" class="st7" width="6" height="2"/>
		<rect x="42" y="17" class="st7" width="6" height="2"/>
		<rect x="49" y="8" class="st7" width="3" height="2"/>
		<rect x="38" y="14" class="st7" width="3" height="2"/>
		<rect x="42" y="20" class="st7" width="6" height="2"/>
		<rect x="42" y="8" class="st7" width="6" height="2"/>
		<rect x="38" y="8" class="st7" width="3" height="2"/>
		<rect x="38" y="20" class="st7" width="3" height="2"/>
		<rect x="49" y="20" class="st7" width="3" height="2"/>
		<rect x="49" y="17" class="st7" width="3" height="2"/>
		<rect x="49" y="14" class="st7" width="3" height="2"/>
		<rect x="49" y="11" class="st7" width="3" height="2"/>
	</g>
</g>
<g>
	<g>
		<defs>
			<rect id="SVGID_5_" x="60" width="30" height="30"/>
		</defs>
		<clipPath id="SVGID_6_">
			<use xlink:href="#SVGID_5_"  style="overflow:visible;"/>
		</clipPath>
		<rect x="72" y="11" class="st8" width="6" height="2"/>
		<rect x="72" y="14" class="st8" width="6" height="2"/>
		<rect x="72" y="17" class="st8" width="6" height="2"/>
		<rect x="79" y="8" class="st8" width="3" height="2"/>
		<rect x="68" y="14" class="st8" width="3" height="2"/>
		<rect x="72" y="20" class="st8" width="6" height="2"/>
		<rect x="72" y="8" class="st8" width="6" height="2"/>
		<rect x="68" y="8" class="st8" width="3" height="2"/>
		<rect x="68" y="20" class="st8" width="3" height="2"/>
		<rect x="79" y="20" class="st8" width="3" height="2"/>
		<rect x="79" y="17" class="st8" width="3" height="2"/>
		<rect x="79" y="14" class="st8" width="3" height="2"/>
		<rect x="79" y="11" class="st8" width="3" height="2"/>
	</g>
</g>
</svg>
