<?xml version="1.0" encoding="utf-8"?>
<!-- Generator: Adobe Illustrator 24.0.0, SVG Export Plug-In . SVG Version: 6.00 Build 0)  -->
<svg version="1.1" id="Layer_1" xmlns="http://www.w3.org/2000/svg" xmlns:xlink="http://www.w3.org/1999/xlink" x="0px" y="0px"
	 viewBox="0 0 90 30" style="enable-background:new 0 0 90 30;" xml:space="preserve">
<style type="text/css">
	.st0{display:none;}
	.st1{display:inline;fill:#B5B5B5;}
	.st2{display:inline;fill:#A1A1A1;}
	.st3{display:inline;fill:#D7D7D7;}
	.st4{clip-path:url(#SVGID_2_);fill:#B5B5B5;}
	.st5{clip-path:url(#SVGID_2_);fill:none;stroke:#000000;}
	.st6{clip-path:url(#SVGID_2_);fill:#3E3E3E;}
	.st7{opacity:0.6;}
	.st8{clip-path:url(#SVGID_4_);fill:#B5B5B5;}
	.st9{clip-path:url(#SVGID_4_);fill:none;stroke:#000000;}
	.st10{clip-path:url(#SVGID_4_);fill:#3E3E3E;}
	.st11{clip-path:url(#SVGID_6_);fill:#B5B5B5;}
	.st12{clip-path:url(#SVGID_6_);fill:none;stroke:#000000;}
	.st13{clip-path:url(#SVGID_6_);fill:#3E3E3E;}
</style>
<g class="st0">
	<rect y="3" class="st1" width="30" height="24"/>
	<rect x="30" y="3" class="st2" width="30" height="24"/>
	<rect x="60" y="3" class="st3" width="30" height="24"/>
</g>
<g class="st0">
	<rect y="3" class="st3" width="30" height="24"/>
	<rect x="30" y="3" class="st3" width="30" height="24"/>
	<rect x="60" y="3" class="st3" width="30" height="24"/>
</g>
<g>
	<g>
		<defs>
			<rect id="SVGID_1_" width="30" height="30"/>
		</defs>
		<clipPath id="SVGID_2_">
			<use xlink:href="#SVGID_1_"  style="overflow:visible;"/>
		</clipPath>
		<rect x="7" y="9" class="st4" width="16" height="12"/>
		<rect x="7" y="9" class="st5" width="16" height="12"/>
		<rect x="7" y="13" class="st4" width="16" height="4"/>
		<rect x="7" y="13" class="st5" width="16" height="4"/>
		<rect x="17.5" y="9.5" class="st6" width="5" height="3"/>
		<rect x="12.5" y="13.5" class="st6" width="5" height="3"/>
		<rect x="7.5" y="17.5" class="st6" width="5" height="3"/>
	</g>
</g>
<g class="st7">
	<g>
		<defs>
			<rect id="SVGID_3_" x="30" width="30" height="30"/>
		</defs>
		<clipPath id="SVGID_4_">
			<use xlink:href="#SVGID_3_"  style="overflow:visible;"/>
		</clipPath>
		<rect x="37" y="9" class="st8" width="16" height="12"/>
		<rect x="37" y="9" class="st9" width="16" height="12"/>
		<rect x="37" y="13" class="st8" width="16" height="4"/>
		<rect x="37" y="13" class="st9" width="16" height="4"/>
		<rect x="47.5" y="9.5" class="st10" width="5" height="3"/>
		<rect x="42.5" y="13.5" class="st10" width="5" height="3"/>
		<rect x="37.5" y="17.5" class="st10" width="5" height="3"/>
	</g>
</g>
<g>
	<g>
		<defs>
			<rect id="SVGID_5_" x="60" width="30" height="30"/>
		</defs>
		<clipPath id="SVGID_6_">
			<use xlink:href="#SVGID_5_"  style="overflow:visible;"/>
		</clipPath>
		<rect x="67" y="9" class="st11" width="16" height="12"/>
		<rect x="67" y="9" class="st12" width="16" height="12"/>
		<rect x="67" y="13" class="st11" width="16" height="4"/>
		<rect x="67" y="13" class="st12" width="16" height="4"/>
		<rect x="77.5" y="9.5" class="st13" width="5" height="3"/>
		<rect x="72.5" y="13.5" class="st13" width="5" height="3"/>
		<rect x="67.5" y="17.5" class="st13" width="5" height="3"/>
	</g>
</g>
</svg>
