<?xml version="1.0" encoding="utf-8"?>
<!-- Generator: Adobe Illustrator 24.0.0, SVG Export Plug-In . SVG Version: 6.00 Build 0)  -->
<svg version="1.1" id="Layer_1" xmlns="http://www.w3.org/2000/svg" xmlns:xlink="http://www.w3.org/1999/xlink" x="0px" y="0px"
	 viewBox="0 0 90 30" style="enable-background:new 0 0 90 30;" xml:space="preserve">
<style type="text/css">
	.st0{fill:#B5B5B5;}
	.st1{fill:#A1A1A1;}
	.st2{fill:#D7D7D7;}
	.st3{display:none;}
	.st4{display:inline;fill:#D7D7D7;}
	.st5{clip-path:url(#SVGID_2_);}
	.st6{opacity:0.6;}
	.st7{clip-path:url(#SVGID_4_);}
	.st8{clip-path:url(#SVGID_6_);}
</style>
<g>
	<rect y="3" class="st0" width="30" height="24"/>
	<rect x="30" y="3" class="st1" width="30" height="24"/>
	<rect x="60" y="3" class="st2" width="30" height="24"/>
</g>
<g class="st3">
	<rect y="3" class="st4" width="30" height="24"/>
	<rect x="30" y="3" class="st4" width="30" height="24"/>
	<rect x="60" y="3" class="st4" width="30" height="24"/>
</g>
<g>
	<g>
		<defs>
			<rect id="SVGID_1_" width="30" height="30"/>
		</defs>
		<clipPath id="SVGID_2_">
			<use xlink:href="#SVGID_1_"  style="overflow:visible;"/>
		</clipPath>
		<path class="st5" d="M10.1,16.2H7.8v-2.3h2.3V16.2z M11.1,12.8H6.8v4.3h4.3V12.8z"/>
		<path class="st5" d="M16.2,22.3h-2.3v-2.3h2.3V22.3z M17.2,18.9h-4.3v4.3h4.3V18.9z"/>
		<path class="st5" d="M22.3,10.1h-2.3V7.8h2.3V10.1z M23.3,6.8h-4.3v4.3h4.3V6.8z"/>
		<rect x="12.8" y="12.8" class="st5" width="4.3" height="4.3"/>
		<path class="st5" d="M10.1,10.1H7.8V7.8h2.3V10.1z M11.1,6.8H6.8v4.3h4.3V6.8z"/>
		<path class="st5" d="M16.2,10.1h-2.3V7.8h2.3V10.1z M17.2,6.8h-4.3v4.3h4.3V6.8z"/>
		<path class="st5" d="M22.3,22.3h-2.3v-2.3h2.3V22.3z M23.3,18.9h-4.3v4.3h4.3V18.9z"/>
		<path class="st5" d="M10.1,22.3H7.8v-2.3h2.3V22.3z M11.1,18.9H6.8v4.3h4.3V18.9z"/>
		<rect x="18.9" y="12.8" class="st5" width="4.3" height="4.3"/>
	</g>
</g>
<g class="st6">
	<g>
		<defs>
			<rect id="SVGID_3_" x="30" width="30" height="30"/>
		</defs>
		<clipPath id="SVGID_4_">
			<use xlink:href="#SVGID_3_"  style="overflow:visible;"/>
		</clipPath>
		<path class="st7" d="M40.1,16.2h-2.3v-2.3h2.3V16.2z M41.1,12.8h-4.3v4.3h4.3V12.8z"/>
		<path class="st7" d="M46.2,22.3h-2.3v-2.3h2.3V22.3z M47.2,18.9h-4.3v4.3h4.3V18.9z"/>
		<path class="st7" d="M52.3,10.1h-2.3V7.8h2.3V10.1z M53.3,6.8h-4.3v4.3h4.3V6.8z"/>
		<rect x="42.8" y="12.8" class="st7" width="4.3" height="4.3"/>
		<path class="st7" d="M40.1,10.1h-2.3V7.8h2.3V10.1z M41.1,6.8h-4.3v4.3h4.3V6.8z"/>
		<path class="st7" d="M46.2,10.1h-2.3V7.8h2.3V10.1z M47.2,6.8h-4.3v4.3h4.3V6.8z"/>
		<path class="st7" d="M52.3,22.3h-2.3v-2.3h2.3V22.3z M53.3,18.9h-4.3v4.3h4.3V18.9z"/>
		<path class="st7" d="M40.1,22.3h-2.3v-2.3h2.3V22.3z M41.1,18.9h-4.3v4.3h4.3V18.9z"/>
		<rect x="48.9" y="12.8" class="st7" width="4.3" height="4.3"/>
	</g>
</g>
<g>
	<g>
		<defs>
			<rect id="SVGID_5_" x="60" width="30" height="30"/>
		</defs>
		<clipPath id="SVGID_6_">
			<use xlink:href="#SVGID_5_"  style="overflow:visible;"/>
		</clipPath>
		<path class="st8" d="M70.1,16.2h-2.3v-2.3h2.3V16.2z M71.1,12.8h-4.3v4.3h4.3V12.8z"/>
		<path class="st8" d="M76.2,22.3h-2.3v-2.3h2.3V22.3z M77.2,18.9h-4.3v4.3h4.3V18.9z"/>
		<path class="st8" d="M82.3,10.1h-2.3V7.8h2.3V10.1z M83.3,6.8h-4.3v4.3h4.3V6.8z"/>
		<rect x="72.8" y="12.8" class="st8" width="4.3" height="4.3"/>
		<path class="st8" d="M70.1,10.1h-2.3V7.8h2.3V10.1z M71.1,6.8h-4.3v4.3h4.3V6.8z"/>
		<path class="st8" d="M76.2,10.1h-2.3V7.8h2.3V10.1z M77.2,6.8h-4.3v4.3h4.3V6.8z"/>
		<path class="st8" d="M82.3,22.3h-2.3v-2.3h2.3V22.3z M83.3,18.9h-4.3v4.3h4.3V18.9z"/>
		<path class="st8" d="M70.1,22.3h-2.3v-2.3h2.3V22.3z M71.1,18.9h-4.3v4.3h4.3V18.9z"/>
		<rect x="78.9" y="12.8" class="st8" width="4.3" height="4.3"/>
	</g>
</g>
</svg>
