<?xml version="1.0" encoding="utf-8"?>
<!-- Generator: Adobe Illustrator 24.0.0, SVG Export Plug-In . SVG Version: 6.00 Build 0)  -->
<svg version="1.1" id="Layer_1" xmlns="http://www.w3.org/2000/svg" xmlns:xlink="http://www.w3.org/1999/xlink" x="0px" y="0px"
	 viewBox="0 0 90 30" style="enable-background:new 0 0 90 30;" xml:space="preserve">
<style type="text/css">
	.st0{fill:#B5B5B5;}
	.st1{fill:#A1A1A1;}
	.st2{fill:#D7D7D7;}
	.st3{display:none;}
	.st4{display:inline;fill:#D7D7D7;}
	.st5{clip-path:url(#SVGID_2_);}
	.st6{clip-path:url(#SVGID_4_);}
	.st7{clip-path:url(#SVGID_4_);fill:none;stroke:#000000;stroke-width:0.5;stroke-miterlimit:10;}
	.st8{opacity:0.6;}
	.st9{clip-path:url(#SVGID_6_);}
	.st10{clip-path:url(#SVGID_8_);}
	.st11{clip-path:url(#SVGID_8_);fill:none;stroke:#000000;stroke-width:0.5;stroke-miterlimit:10;}
	.st12{clip-path:url(#SVGID_10_);}
	.st13{clip-path:url(#SVGID_12_);}
	.st14{clip-path:url(#SVGID_12_);fill:none;stroke:#000000;stroke-width:0.5;stroke-miterlimit:10;}
</style>
<g>
	<rect y="3" class="st0" width="30" height="24"/>
	<rect x="30" y="3" class="st1" width="30" height="24"/>
	<rect x="60" y="3" class="st2" width="30" height="24"/>
</g>
<g class="st3">
	<rect y="3" class="st4" width="30" height="24"/>
	<rect x="30" y="3" class="st4" width="30" height="24"/>
	<rect x="60" y="3" class="st4" width="30" height="24"/>
</g>
<g>
	<g>
		<defs>
			<rect id="SVGID_1_" width="30" height="30"/>
		</defs>
		<clipPath id="SVGID_2_">
			<use xlink:href="#SVGID_1_"  style="overflow:visible;"/>
		</clipPath>
		<g class="st5">
			<defs>
				<rect id="SVGID_3_" width="30" height="30"/>
			</defs>
			<clipPath id="SVGID_4_">
				<use xlink:href="#SVGID_3_"  style="overflow:visible;"/>
			</clipPath>
			<path class="st6" d="M10,23h10c0.9,0,1.7-0.7,1.7-1.6v-9.2c0-0.4-0.2-0.8-0.5-1.1l-3.8-3.6C17.1,7.2,16.6,7,16.2,7H10
				C9.1,7,8.4,7.7,8.4,8.6v12.8C8.4,22.3,9.1,23,10,23 M19.8,11.3h-2c-0.3,0-0.6-0.2-0.6-0.5V8.8L19.8,11.3z M9.5,8.6
				c0-0.3,0.2-0.5,0.6-0.5h6.1v2.7c0,0.9,0.7,1.6,1.7,1.6h2.8v9.1c0,0.3-0.2,0.5-0.6,0.5H10c-0.3,0-0.6-0.2-0.6-0.5V8.6z"/>
			<path class="st7" d="M10,23h10c0.9,0,1.7-0.7,1.7-1.6v-9.2c0-0.4-0.2-0.8-0.5-1.1l-3.8-3.6C17.1,7.2,16.6,7,16.2,7H10
				C9.1,7,8.4,7.7,8.4,8.6v12.8C8.4,22.3,9.1,23,10,23z M19.8,11.3h-2c-0.3,0-0.6-0.2-0.6-0.5V8.8L19.8,11.3z M9.5,8.6
				c0-0.3,0.2-0.5,0.6-0.5h6.1v2.7c0,0.9,0.7,1.6,1.7,1.6h2.8v9.1c0,0.3-0.2,0.5-0.6,0.5H10c-0.3,0-0.6-0.2-0.6-0.5V8.6z"/>
		</g>
	</g>
</g>
<g class="st8">
	<g>
		<defs>
			<rect id="SVGID_5_" x="30" width="30" height="30"/>
		</defs>
		<clipPath id="SVGID_6_">
			<use xlink:href="#SVGID_5_"  style="overflow:visible;"/>
		</clipPath>
		<g class="st9">
			<defs>
				<rect id="SVGID_7_" x="30" width="30" height="30"/>
			</defs>
			<clipPath id="SVGID_8_">
				<use xlink:href="#SVGID_7_"  style="overflow:visible;"/>
			</clipPath>
			<path class="st10" d="M40,23h10c0.9,0,1.7-0.7,1.7-1.6v-9.2c0-0.4-0.2-0.8-0.5-1.1l-3.8-3.6C47.1,7.2,46.6,7,46.2,7H40
				c-0.9,0-1.7,0.7-1.7,1.6v12.8C38.4,22.3,39.1,23,40,23 M49.8,11.3h-2c-0.3,0-0.6-0.2-0.6-0.5V8.8L49.8,11.3z M39.5,8.6
				c0-0.3,0.2-0.5,0.6-0.5h6.1v2.7c0,0.9,0.7,1.6,1.7,1.6h2.8v9.1c0,0.3-0.2,0.5-0.6,0.5H40c-0.3,0-0.6-0.2-0.6-0.5V8.6z"/>
			<path class="st11" d="M40,23h10c0.9,0,1.7-0.7,1.7-1.6v-9.2c0-0.4-0.2-0.8-0.5-1.1l-3.8-3.6C47.1,7.2,46.6,7,46.2,7H40
				c-0.9,0-1.7,0.7-1.7,1.6v12.8C38.4,22.3,39.1,23,40,23z M49.8,11.3h-2c-0.3,0-0.6-0.2-0.6-0.5V8.8L49.8,11.3z M39.5,8.6
				c0-0.3,0.2-0.5,0.6-0.5h6.1v2.7c0,0.9,0.7,1.6,1.7,1.6h2.8v9.1c0,0.3-0.2,0.5-0.6,0.5H40c-0.3,0-0.6-0.2-0.6-0.5V8.6z"/>
		</g>
	</g>
</g>
<g>
	<g>
		<defs>
			<rect id="SVGID_9_" x="60" width="30" height="30"/>
		</defs>
		<clipPath id="SVGID_10_">
			<use xlink:href="#SVGID_9_"  style="overflow:visible;"/>
		</clipPath>
		<g class="st12">
			<defs>
				<rect id="SVGID_11_" x="60" width="30" height="30"/>
			</defs>
			<clipPath id="SVGID_12_">
				<use xlink:href="#SVGID_11_"  style="overflow:visible;"/>
			</clipPath>
			<path class="st13" d="M70,23h10c0.9,0,1.7-0.7,1.7-1.6v-9.2c0-0.4-0.2-0.8-0.5-1.1l-3.8-3.6C77.1,7.2,76.6,7,76.2,7H70
				c-0.9,0-1.7,0.7-1.7,1.6v12.8C68.4,22.3,69.1,23,70,23 M79.8,11.3h-2c-0.3,0-0.6-0.2-0.6-0.5V8.8L79.8,11.3z M69.5,8.6
				c0-0.3,0.2-0.5,0.6-0.5h6.1v2.7c0,0.9,0.7,1.6,1.7,1.6h2.8v9.1c0,0.3-0.2,0.5-0.6,0.5H70c-0.3,0-0.6-0.2-0.6-0.5V8.6z"/>
			<path class="st14" d="M70,23h10c0.9,0,1.7-0.7,1.7-1.6v-9.2c0-0.4-0.2-0.8-0.5-1.1l-3.8-3.6C77.1,7.2,76.6,7,76.2,7H70
				c-0.9,0-1.7,0.7-1.7,1.6v12.8C68.4,22.3,69.1,23,70,23z M79.8,11.3h-2c-0.3,0-0.6-0.2-0.6-0.5V8.8L79.8,11.3z M69.5,8.6
				c0-0.3,0.2-0.5,0.6-0.5h6.1v2.7c0,0.9,0.7,1.6,1.7,1.6h2.8v9.1c0,0.3-0.2,0.5-0.6,0.5H70c-0.3,0-0.6-0.2-0.6-0.5V8.6z"/>
		</g>
	</g>
</g>
</svg>
