<?xml version="1.0" encoding="utf-8"?>
<!-- Generator: Adobe Illustrator 24.0.0, SVG Export Plug-In . SVG Version: 6.00 Build 0)  -->
<svg version="1.1" id="Layer_1" xmlns="http://www.w3.org/2000/svg" xmlns:xlink="http://www.w3.org/1999/xlink" x="0px" y="0px"
	 viewBox="0 0 90 30" style="enable-background:new 0 0 90 30;" xml:space="preserve">
<style type="text/css">
	.st0{fill:#A1A1A1;}
	.st1{fill:#B5B5B5;}
	.st2{clip-path:url(#SVGID_2_);}
	.st3{clip-path:url(#SVGID_4_);fill-rule:evenodd;clip-rule:evenodd;}
	.st4{clip-path:url(#SVGID_4_);fill:none;stroke:#000000;}
	.st5{clip-path:url(#SVGID_6_);}
	.st6{clip-path:url(#SVGID_8_);fill-rule:evenodd;clip-rule:evenodd;}
	.st7{clip-path:url(#SVGID_8_);fill:none;stroke:#000000;}
	.st8{clip-path:url(#SVGID_10_);}
	.st9{clip-path:url(#SVGID_12_);fill-rule:evenodd;clip-rule:evenodd;}
	.st10{clip-path:url(#SVGID_12_);fill:none;stroke:#000000;}
</style>
<rect y="3" class="st0" width="30" height="24"/>
<rect x="30" y="3" class="st1" width="30" height="24"/>
<rect x="60" y="3" class="st0" width="30" height="24"/>
<g>
	<g>
		<defs>
			<rect id="SVGID_1_" width="30" height="30"/>
		</defs>
		<clipPath id="SVGID_2_">
			<use xlink:href="#SVGID_1_"  style="overflow:visible;"/>
		</clipPath>
		<g class="st2">
			<defs>
				<rect id="SVGID_3_" width="30" height="30"/>
			</defs>
			<clipPath id="SVGID_4_">
				<use xlink:href="#SVGID_3_"  style="overflow:visible;"/>
			</clipPath>
			<path class="st3" d="M20,10.5c2.1,0.2,3.8,1.9,4,4c0.2,2.6-1.8,4.8-4.4,5c-0.2,0-0.4,0-0.6,0c-2.5-0.2-4.3-2.5-4.1-5
				c0.2-2.5,2.5-4.3,5-4.1C19.9,10.5,20,10.5,20,10.5"/>
			<path class="st4" d="M20,10.5c2.1,0.2,3.8,1.9,4,4c0.2,2.6-1.8,4.8-4.4,5c-0.2,0-0.4,0-0.6,0c-2.5-0.2-4.3-2.5-4.1-5
				c0.2-2.5,2.5-4.3,5-4.1C19.9,10.5,20,10.5,20,10.5z"/>
			<path class="st4" d="M10,10.5c2.1,0.2,3.8,1.9,4,4c0.2,2.6-1.8,4.8-4.4,5c-0.2,0-0.4,0-0.6,0c-2.5-0.2-4.3-2.5-4.1-5
				c0.2-2.5,2.5-4.3,5-4.1C9.9,10.5,10,10.5,10,10.5z"/>
		</g>
	</g>
</g>
<g>
	<g>
		<defs>
			<rect id="SVGID_5_" x="30" width="30" height="30"/>
		</defs>
		<clipPath id="SVGID_6_">
			<use xlink:href="#SVGID_5_"  style="overflow:visible;"/>
		</clipPath>
		<g class="st5">
			<defs>
				<rect id="SVGID_7_" x="30" width="30" height="30"/>
			</defs>
			<clipPath id="SVGID_8_">
				<use xlink:href="#SVGID_7_"  style="overflow:visible;"/>
			</clipPath>
			<path class="st6" d="M50,10.5c2.1,0.2,3.8,1.9,4,4c0.2,2.6-1.8,4.8-4.4,5c-0.2,0-0.4,0-0.6,0c-2.5-0.2-4.3-2.5-4.1-5
				c0.2-2.5,2.5-4.3,5-4.1C49.9,10.5,50,10.5,50,10.5"/>
			<path class="st7" d="M50,10.5c2.1,0.2,3.8,1.9,4,4c0.2,2.6-1.8,4.8-4.4,5c-0.2,0-0.4,0-0.6,0c-2.5-0.2-4.3-2.5-4.1-5
				c0.2-2.5,2.5-4.3,5-4.1C49.9,10.5,50,10.5,50,10.5z"/>
			<path class="st7" d="M40,10.5c2.1,0.2,3.8,1.9,4,4c0.2,2.6-1.8,4.8-4.4,5c-0.2,0-0.4,0-0.6,0c-2.5-0.2-4.3-2.5-4.1-5
				c0.2-2.5,2.5-4.3,5-4.1C39.9,10.5,40,10.5,40,10.5z"/>
		</g>
	</g>
</g>
<g>
	<g>
		<defs>
			<rect id="SVGID_9_" x="60" width="30" height="30"/>
		</defs>
		<clipPath id="SVGID_10_">
			<use xlink:href="#SVGID_9_"  style="overflow:visible;"/>
		</clipPath>
		<g class="st8">
			<defs>
				<rect id="SVGID_11_" x="60" width="30" height="30"/>
			</defs>
			<clipPath id="SVGID_12_">
				<use xlink:href="#SVGID_11_"  style="overflow:visible;"/>
			</clipPath>
			<path class="st9" d="M80,10.5c2.1,0.2,3.8,1.9,4,4c0.2,2.6-1.8,4.8-4.4,5c-0.2,0-0.4,0-0.6,0c-2.5-0.2-4.3-2.5-4.1-5
				c0.2-2.5,2.5-4.3,5-4.1C79.9,10.5,80,10.5,80,10.5"/>
			<path class="st10" d="M80,10.5c2.1,0.2,3.8,1.9,4,4c0.2,2.6-1.8,4.8-4.4,5c-0.2,0-0.4,0-0.6,0c-2.5-0.2-4.3-2.5-4.1-5
				c0.2-2.5,2.5-4.3,5-4.1C79.9,10.5,80,10.5,80,10.5z"/>
			<path class="st10" d="M70,10.5c2.1,0.2,3.8,1.9,4,4c0.2,2.6-1.8,4.8-4.4,5c-0.2,0-0.4,0-0.6,0c-2.5-0.2-4.3-2.5-4.1-5
				c0.2-2.5,2.5-4.3,5-4.1C69.9,10.5,70,10.5,70,10.5z"/>
		</g>
	</g>
</g>
</svg>
