<?xml version="1.0" encoding="utf-8"?>
<!-- Generator: Adobe Illustrator 24.0.0, SVG Export Plug-In . SVG Version: 6.00 Build 0)  -->
<svg version="1.1" id="Layer_1" xmlns="http://www.w3.org/2000/svg" xmlns:xlink="http://www.w3.org/1999/xlink" x="0px" y="0px"
	 viewBox="0 0 75 15" style="enable-background:new 0 0 75 15;" xml:space="preserve">
<style type="text/css">
	.st0{fill:#FFFFFF;}
	.st1{clip-path:url(#SVGID_2_);}
	.st2{clip-path:url(#SVGID_4_);fill:#B7B7B7;}
	.st3{clip-path:url(#SVGID_4_);fill:#404040;}
	.st4{clip-path:url(#SVGID_4_);}
	.st5{opacity:0.5;clip-path:url(#SVGID_6_);}
	.st6{clip-path:url(#SVGID_8_);}
	.st7{opacity:0.9;}
	.st8{clip-path:url(#SVGID_10_);}
	.st9{clip-path:url(#SVGID_12_);fill:#B7B7B7;}
	.st10{clip-path:url(#SVGID_12_);fill:#404040;}
	.st11{clip-path:url(#SVGID_12_);}
	.st12{opacity:0.5;clip-path:url(#SVGID_14_);}
	.st13{clip-path:url(#SVGID_16_);}
	.st14{clip-path:url(#SVGID_18_);}
	.st15{clip-path:url(#SVGID_20_);fill:#B7B7B7;}
	.st16{clip-path:url(#SVGID_20_);fill:#404040;}
	.st17{clip-path:url(#SVGID_20_);}
	.st18{opacity:0.5;clip-path:url(#SVGID_22_);}
	.st19{clip-path:url(#SVGID_24_);}
</style>
<rect x="25" class="st0" width="25" height="15"/>
<g>
	<g>
		<defs>
			<rect id="SVGID_1_" width="25" height="15"/>
		</defs>
		<clipPath id="SVGID_2_">
			<use xlink:href="#SVGID_1_"  style="overflow:visible;"/>
		</clipPath>
		<g class="st1">
			<defs>
				<rect id="SVGID_3_" width="25" height="15"/>
			</defs>
			<clipPath id="SVGID_4_">
				<use xlink:href="#SVGID_3_"  style="overflow:visible;"/>
			</clipPath>
			<rect class="st2" width="25" height="15"/>
			<path class="st3" d="M1,1h23v13H1V1z M0,15h25V0H0V15z"/>
			<g class="st4">
				<defs>
					<rect id="SVGID_5_" width="25" height="15"/>
				</defs>
				<clipPath id="SVGID_6_">
					<use xlink:href="#SVGID_5_"  style="overflow:visible;"/>
				</clipPath>
				<g class="st5">
					<g>
						<defs>
							<rect id="SVGID_7_" x="8" y="3" width="9" height="9"/>
						</defs>
						<clipPath id="SVGID_8_">
							<use xlink:href="#SVGID_7_"  style="overflow:visible;"/>
						</clipPath>
						<path class="st6" d="M14.7,4.3c-0.3,0.3-0.3,0.7,0,1c1.2,1.2,1.2,3.2,0,4.4c-1.2,1.2-3.2,1.2-4.4,0c-1.2-1.2-1.2-3.2,0-4.4
							c0.3-0.3,0.3-0.7,0-1c-0.3-0.3-0.7-0.3-1,0c-1.8,1.8-1.8,4.6,0,6.4c1.8,1.8,4.6,1.8,6.4,0c1.8-1.8,1.8-4.6,0-6.4
							C15.4,4,15,4,14.7,4.3"/>
						<path class="st6" d="M12.5,7.4c0.4,0,0.7-0.3,0.7-0.7v-3c0-0.4-0.3-0.7-0.7-0.7c-0.4,0-0.7,0.3-0.7,0.7v3
							C11.8,7.1,12.1,7.4,12.5,7.4"/>
					</g>
				</g>
			</g>
		</g>
	</g>
</g>
<g class="st7">
	<g>
		<defs>
			<rect id="SVGID_9_" x="25" width="25" height="15"/>
		</defs>
		<clipPath id="SVGID_10_">
			<use xlink:href="#SVGID_9_"  style="overflow:visible;"/>
		</clipPath>
		<g class="st8">
			<defs>
				<rect id="SVGID_11_" x="25" width="25" height="15"/>
			</defs>
			<clipPath id="SVGID_12_">
				<use xlink:href="#SVGID_11_"  style="overflow:visible;"/>
			</clipPath>
			<rect x="25" class="st9" width="25" height="15"/>
			<path class="st10" d="M26,1h23v13H26V1z M25,15h25V0H25V15z"/>
			<g class="st11">
				<defs>
					<rect id="SVGID_13_" x="25" width="25" height="15"/>
				</defs>
				<clipPath id="SVGID_14_">
					<use xlink:href="#SVGID_13_"  style="overflow:visible;"/>
				</clipPath>
				<g class="st12">
					<g>
						<defs>
							<rect id="SVGID_15_" x="33" y="3" width="9" height="9"/>
						</defs>
						<clipPath id="SVGID_16_">
							<use xlink:href="#SVGID_15_"  style="overflow:visible;"/>
						</clipPath>
						<path class="st13" d="M39.7,4.3c-0.3,0.3-0.3,0.7,0,1c1.2,1.2,1.2,3.2,0,4.4c-1.2,1.2-3.2,1.2-4.4,0c-1.2-1.2-1.2-3.2,0-4.4
							c0.3-0.3,0.3-0.7,0-1c-0.3-0.3-0.7-0.3-1,0c-1.8,1.8-1.8,4.6,0,6.4c1.8,1.8,4.6,1.8,6.4,0c1.8-1.8,1.8-4.6,0-6.4
							C40.4,4,40,4,39.7,4.3"/>
						<path class="st13" d="M37.5,7.4c0.4,0,0.7-0.3,0.7-0.7v-3c0-0.4-0.3-0.7-0.7-0.7s-0.7,0.3-0.7,0.7v3
							C36.8,7.1,37.1,7.4,37.5,7.4"/>
					</g>
				</g>
			</g>
		</g>
	</g>
</g>
<g>
	<g>
		<defs>
			<rect id="SVGID_17_" x="50" width="25" height="15"/>
		</defs>
		<clipPath id="SVGID_18_">
			<use xlink:href="#SVGID_17_"  style="overflow:visible;"/>
		</clipPath>
		<g class="st14">
			<defs>
				<rect id="SVGID_19_" x="50" width="25" height="15"/>
			</defs>
			<clipPath id="SVGID_20_">
				<use xlink:href="#SVGID_19_"  style="overflow:visible;"/>
			</clipPath>
			<rect x="50" class="st15" width="25" height="15"/>
			<path class="st16" d="M51,1h23v13H51V1z M50,15h25V0H50V15z"/>
			<g class="st17">
				<defs>
					<rect id="SVGID_21_" x="50" width="25" height="15"/>
				</defs>
				<clipPath id="SVGID_22_">
					<use xlink:href="#SVGID_21_"  style="overflow:visible;"/>
				</clipPath>
				<g class="st18">
					<g>
						<defs>
							<rect id="SVGID_23_" x="58" y="3" width="9" height="9"/>
						</defs>
						<clipPath id="SVGID_24_">
							<use xlink:href="#SVGID_23_"  style="overflow:visible;"/>
						</clipPath>
						<path class="st19" d="M64.7,4.3c-0.3,0.3-0.3,0.7,0,1c1.2,1.2,1.2,3.2,0,4.4c-1.2,1.2-3.2,1.2-4.4,0c-1.2-1.2-1.2-3.2,0-4.4
							c0.3-0.3,0.3-0.7,0-1c-0.3-0.3-0.7-0.3-1,0c-1.8,1.8-1.8,4.6,0,6.4c1.8,1.8,4.6,1.8,6.4,0c1.8-1.8,1.8-4.6,0-6.4
							C65.4,4,65,4,64.7,4.3"/>
						<path class="st19" d="M62.5,7.4c0.4,0,0.7-0.3,0.7-0.7v-3c0-0.4-0.3-0.7-0.7-0.7s-0.7,0.3-0.7,0.7v3
							C61.8,7.1,62.1,7.4,62.5,7.4"/>
					</g>
				</g>
			</g>
		</g>
	</g>
</g>
</svg>
