<?xml version="1.0" encoding="utf-8"?>
<!-- Generator: Adobe Illustrator 24.0.0, SVG Export Plug-In . SVG Version: 6.00 Build 0)  -->
<svg version="1.1" id="Layer_1" xmlns="http://www.w3.org/2000/svg" xmlns:xlink="http://www.w3.org/1999/xlink" x="0px" y="0px"
	 viewBox="0 0 75 15" style="enable-background:new 0 0 75 15;" xml:space="preserve">
<style type="text/css">
	.st0{fill:#FFFFFF;}
	.st1{clip-path:url(#SVGID_2_);}
	.st2{clip-path:url(#SVGID_2_);fill:#3873FF;}
	.st3{clip-path:url(#SVGID_2_);fill:#404040;}
	.st4{clip-path:url(#SVGID_6_);}
	.st5{font-family:'AbletonSansMedium-Regular';}
	.st6{font-size:14px;}
	.st7{opacity:0.9;}
	.st8{clip-path:url(#SVGID_8_);}
	.st9{clip-path:url(#SVGID_8_);fill:#3873FF;}
	.st10{clip-path:url(#SVGID_8_);fill:#404040;}
	.st11{clip-path:url(#SVGID_12_);}
	.st12{clip-path:url(#SVGID_14_);}
	.st13{clip-path:url(#SVGID_14_);fill:#3873FF;}
	.st14{clip-path:url(#SVGID_14_);fill:#404040;}
	.st15{clip-path:url(#SVGID_18_);}
</style>
<rect x="25" class="st0" width="25" height="15"/>
<g>
	<g>
		<defs>
			<rect id="SVGID_1_" width="25" height="15"/>
		</defs>
		<clipPath id="SVGID_2_">
			<use xlink:href="#SVGID_1_"  style="overflow:visible;"/>
		</clipPath>
		<g class="st1">
			<defs>
				<rect id="SVGID_3_" width="25" height="15"/>
			</defs>
			<clipPath id="SVGID_4_">
				<use xlink:href="#SVGID_3_"  style="overflow:visible;"/>
			</clipPath>
			<g style="clip-path:url(#SVGID_4_);">
				
					<image style="overflow:visible;" width="25" height="15" xlink:href="1A44D92F.jpg"  transform="matrix(0.9999 0 0 0.9999 0 0)">
				</image>
			</g>
		</g>
		<rect class="st2" width="25" height="15"/>
		<path class="st3" d="M1,1h23v13H1V1z M0,15h25V0H0V15z"/>
		<g class="st1">
			<defs>
				<rect id="SVGID_5_" width="25" height="15"/>
			</defs>
			<clipPath id="SVGID_6_">
				<use xlink:href="#SVGID_5_"  style="overflow:visible;"/>
			</clipPath>
			<g class="st4">
				<text transform="matrix(1 0 0 1 9.4048 10.501)" class="st5 st6">s</text>
			</g>
		</g>
	</g>
</g>
<g class="st7">
	<g>
		<defs>
			<rect id="SVGID_7_" x="25" width="25" height="15"/>
		</defs>
		<clipPath id="SVGID_8_">
			<use xlink:href="#SVGID_7_"  style="overflow:visible;"/>
		</clipPath>
		<g class="st8">
			<defs>
				<rect id="SVGID_9_" x="25" width="25" height="15"/>
			</defs>
			<clipPath id="SVGID_10_">
				<use xlink:href="#SVGID_9_"  style="overflow:visible;"/>
			</clipPath>
			<g style="clip-path:url(#SVGID_10_);">
				
					<image style="overflow:visible;" width="25" height="15" xlink:href="1A44D92D.jpg"  transform="matrix(0.9999 0 0 0.9999 25 0)">
				</image>
			</g>
		</g>
		<rect x="25" class="st9" width="25" height="15"/>
		<path class="st10" d="M26,1h23v13H26V1z M25,15h25V0H25V15z"/>
		<g class="st8">
			<defs>
				<rect id="SVGID_11_" x="25" width="25" height="15"/>
			</defs>
			<clipPath id="SVGID_12_">
				<use xlink:href="#SVGID_11_"  style="overflow:visible;"/>
			</clipPath>
			<g class="st11">
				<text transform="matrix(1 0 0 1 34.4048 10.501)" class="st5 st6">s</text>
			</g>
		</g>
	</g>
</g>
<g>
	<g>
		<defs>
			<rect id="SVGID_13_" x="50" width="25" height="15"/>
		</defs>
		<clipPath id="SVGID_14_">
			<use xlink:href="#SVGID_13_"  style="overflow:visible;"/>
		</clipPath>
		<g class="st12">
			<defs>
				<rect id="SVGID_15_" x="50" width="25" height="15"/>
			</defs>
			<clipPath id="SVGID_16_">
				<use xlink:href="#SVGID_15_"  style="overflow:visible;"/>
			</clipPath>
			<g style="clip-path:url(#SVGID_16_);">
				
					<image style="overflow:visible;" width="25" height="15" xlink:href="1A44D933.jpg"  transform="matrix(0.9999 0 0 0.9999 50 0)">
				</image>
			</g>
		</g>
		<rect x="50" class="st13" width="25" height="15"/>
		<path class="st14" d="M51,1h23v13H51V1z M50,15h25V0H50V15z"/>
		<g class="st12">
			<defs>
				<rect id="SVGID_17_" x="50" width="25" height="15"/>
			</defs>
			<clipPath id="SVGID_18_">
				<use xlink:href="#SVGID_17_"  style="overflow:visible;"/>
			</clipPath>
			<g class="st15">
				<text transform="matrix(1 0 0 1 59.4048 10.501)" class="st5 st6">s</text>
			</g>
		</g>
	</g>
</g>
</svg>
