<?xml version="1.0" encoding="utf-8"?>
<!-- Generator: Adobe Illustrator 24.0.0, SVG Export Plug-In . SVG Version: 6.00 Build 0)  -->
<svg version="1.1" id="Layer_1" xmlns="http://www.w3.org/2000/svg" xmlns:xlink="http://www.w3.org/1999/xlink" x="0px" y="0px"
	 viewBox="0 0 45 15" style="enable-background:new 0 0 45 15;" xml:space="preserve">
<style type="text/css">
	.st0{fill:#FFFFFF;}
	.st1{clip-path:url(#SVGID_2_);fill:#B7B7B7;}
	.st2{clip-path:url(#SVGID_2_);fill:#404040;}
	.st3{clip-path:url(#SVGID_2_);}
	.st4{opacity:0.9;}
	.st5{clip-path:url(#SVGID_4_);fill:#B7B7B7;}
	.st6{clip-path:url(#SVGID_4_);fill:#404040;}
	.st7{clip-path:url(#SVGID_4_);}
	.st8{clip-path:url(#SVGID_6_);fill:#B7B7B7;}
	.st9{clip-path:url(#SVGID_6_);fill:#404040;}
	.st10{clip-path:url(#SVGID_6_);}
</style>
<rect x="15.1" class="st0" width="14.9" height="15"/>
<g>
	<g>
		<defs>
			<rect id="SVGID_1_" width="15" height="15"/>
		</defs>
		<clipPath id="SVGID_2_">
			<use xlink:href="#SVGID_1_"  style="overflow:visible;"/>
		</clipPath>
		<rect class="st1" width="15" height="15"/>
		<path class="st2" d="M1,1h13v13H1V1z M0,15h15V0H0V15z"/>
		<polygon class="st3" points="8,4 8,3 4,3 4,4 4,11 4,12 8,12 8,11 5,11 5,4 		"/>
		<polygon class="st3" points="7,7.5 11,10.8 11,4.2 		"/>
	</g>
</g>
<g class="st4">
	<g>
		<defs>
			<rect id="SVGID_3_" x="15" width="15" height="15"/>
		</defs>
		<clipPath id="SVGID_4_">
			<use xlink:href="#SVGID_3_"  style="overflow:visible;"/>
		</clipPath>
		<rect x="15" class="st5" width="15" height="15"/>
		<path class="st6" d="M16,1h13v13H16V1z M15,15h15V0H15V15z"/>
		<polygon class="st7" points="23,4 23,3 19,3 19,4 19,11 19,12 23,12 23,11 20,11 20,4 		"/>
		<polygon class="st7" points="22,7.5 26,10.8 26,4.2 		"/>
	</g>
</g>
<g>
	<g>
		<defs>
			<rect id="SVGID_5_" x="30" width="15" height="15"/>
		</defs>
		<clipPath id="SVGID_6_">
			<use xlink:href="#SVGID_5_"  style="overflow:visible;"/>
		</clipPath>
		<rect x="30" class="st8" width="15" height="15"/>
		<path class="st9" d="M31,1h13v13H31V1z M30,15h15V0H30V15z"/>
		<polygon class="st10" points="38,4 38,3 34,3 34,4 34,11 34,12 38,12 38,11 35,11 35,4 		"/>
		<polygon class="st10" points="37,7.5 41,10.8 41,4.2 		"/>
	</g>
</g>
</svg>
