<?xml version="1.0" encoding="utf-8"?>
<!-- Generator: Adobe Illustrator 24.0.0, SVG Export Plug-In . SVG Version: 6.00 Build 0)  -->
<svg version="1.1" id="Layer_1" xmlns="http://www.w3.org/2000/svg" xmlns:xlink="http://www.w3.org/1999/xlink" x="0px" y="0px"
	 viewBox="0 0 75 15" style="enable-background:new 0 0 75 15;" xml:space="preserve">
<style type="text/css">
	.st0{fill:#FFFFFF;}
	.st1{clip-path:url(#SVGID_2_);fill:#B7B7B7;}
	.st2{clip-path:url(#SVGID_2_);fill:#404040;}
	.st3{clip-path:url(#SVGID_2_);}
	.st4{opacity:0.9;}
	.st5{clip-path:url(#SVGID_4_);fill:#B7B7B7;}
	.st6{clip-path:url(#SVGID_4_);fill:#404040;}
	.st7{clip-path:url(#SVGID_4_);}
	.st8{clip-path:url(#SVGID_6_);fill:#B7B7B7;}
	.st9{clip-path:url(#SVGID_6_);fill:#404040;}
	.st10{clip-path:url(#SVGID_6_);}
</style>
<rect x="25" class="st0" width="25" height="15"/>
<g>
	<g>
		<defs>
			<rect id="SVGID_1_" width="25" height="15"/>
		</defs>
		<clipPath id="SVGID_2_">
			<use xlink:href="#SVGID_1_"  style="overflow:visible;"/>
		</clipPath>
		<rect class="st1" width="25" height="15"/>
		<path class="st2" d="M1,1h23v13H1V1z M0,15h25V0H0V15z"/>
		<polygon class="st3" points="11,6.1 7,4.1 7,11 11,9 		"/>
		<polygon class="st3" points="13,6.1 13,9 17,11 17,4.1 		"/>
	</g>
</g>
<g class="st4">
	<g>
		<defs>
			<rect id="SVGID_3_" x="25" width="25" height="15"/>
		</defs>
		<clipPath id="SVGID_4_">
			<use xlink:href="#SVGID_3_"  style="overflow:visible;"/>
		</clipPath>
		<rect x="25" class="st5" width="25" height="15"/>
		<path class="st6" d="M26,1h23v13H26V1z M25,15h25V0H25V15z"/>
		<polygon class="st7" points="36,6.1 32,4.1 32,11 36,9 		"/>
		<polygon class="st7" points="38,6.1 38,9 42,11 42,4.1 		"/>
	</g>
</g>
<g>
	<g>
		<defs>
			<rect id="SVGID_5_" x="50" width="25" height="15"/>
		</defs>
		<clipPath id="SVGID_6_">
			<use xlink:href="#SVGID_5_"  style="overflow:visible;"/>
		</clipPath>
		<rect x="50" class="st8" width="25" height="15"/>
		<path class="st9" d="M51,1h23v13H51V1z M50,15h25V0H50V15z"/>
		<polygon class="st10" points="61,6.1 57,4.1 57,11 61,9 		"/>
		<polygon class="st10" points="63,6.1 63,9 67,11 67,4.1 		"/>
	</g>
</g>
</svg>
