<?xml version="1.0" encoding="utf-8"?>
<!-- Generator: Adobe Illustrator 24.0.0, SVG Export Plug-In . SVG Version: 6.00 Build 0)  -->
<svg version="1.1" id="Layer_1" xmlns="http://www.w3.org/2000/svg" xmlns:xlink="http://www.w3.org/1999/xlink" x="0px" y="0px"
	 viewBox="0 0 75 15" style="enable-background:new 0 0 75 15;" xml:space="preserve">
<style type="text/css">
	.st0{fill:#FFFFFF;}
	.st1{clip-path:url(#SVGID_2_);}
	.st2{clip-path:url(#SVGID_4_);fill:#B7B7B7;}
	.st3{clip-path:url(#SVGID_4_);fill:#404040;}
	.st4{clip-path:url(#SVGID_4_);}
	.st5{opacity:0.5;clip-path:url(#SVGID_6_);}
	.st6{clip-path:url(#SVGID_8_);}
	.st7{clip-path:url(#SVGID_8_);fill:none;stroke:#000000;stroke-width:0.3;stroke-miterlimit:10;}
	.st8{clip-path:url(#SVGID_10_);}
	.st9{clip-path:url(#SVGID_10_);fill:none;stroke:#000000;stroke-width:0.3;stroke-miterlimit:10;}
	.st10{opacity:0.9;}
	.st11{clip-path:url(#SVGID_12_);}
	.st12{clip-path:url(#SVGID_14_);fill:#B7B7B7;}
	.st13{clip-path:url(#SVGID_14_);fill:#404040;}
	.st14{clip-path:url(#SVGID_14_);}
	.st15{opacity:0.5;clip-path:url(#SVGID_16_);}
	.st16{clip-path:url(#SVGID_18_);}
	.st17{clip-path:url(#SVGID_18_);fill:none;stroke:#000000;stroke-width:0.3;stroke-miterlimit:10;}
	.st18{clip-path:url(#SVGID_20_);}
	.st19{clip-path:url(#SVGID_20_);fill:none;stroke:#000000;stroke-width:0.3;stroke-miterlimit:10;}
	.st20{clip-path:url(#SVGID_22_);}
	.st21{clip-path:url(#SVGID_24_);fill:#B7B7B7;}
	.st22{clip-path:url(#SVGID_24_);fill:#404040;}
	.st23{clip-path:url(#SVGID_24_);}
	.st24{opacity:0.5;clip-path:url(#SVGID_26_);}
	.st25{clip-path:url(#SVGID_28_);}
	.st26{clip-path:url(#SVGID_28_);fill:none;stroke:#000000;stroke-width:0.3;stroke-miterlimit:10;}
	.st27{clip-path:url(#SVGID_30_);}
	.st28{clip-path:url(#SVGID_30_);fill:none;stroke:#000000;stroke-width:0.3;stroke-miterlimit:10;}
</style>
<rect x="25" class="st0" width="25" height="15"/>
<g>
	<g>
		<defs>
			<rect id="SVGID_1_" width="25" height="15"/>
		</defs>
		<clipPath id="SVGID_2_">
			<use xlink:href="#SVGID_1_"  style="overflow:visible;"/>
		</clipPath>
		<g class="st1">
			<defs>
				<rect id="SVGID_3_" width="25" height="15"/>
			</defs>
			<clipPath id="SVGID_4_">
				<use xlink:href="#SVGID_3_"  style="overflow:visible;"/>
			</clipPath>
			<rect class="st2" width="25" height="15"/>
			<path class="st3" d="M1,1h23v13H1V1z M0,15h25V0H0V15z"/>
			<g class="st4">
				<defs>
					<rect id="SVGID_5_" width="25" height="15"/>
				</defs>
				<clipPath id="SVGID_6_">
					<use xlink:href="#SVGID_5_"  style="overflow:visible;"/>
				</clipPath>
				<g class="st5">
					<g>
						<defs>
							<rect id="SVGID_7_" x="6.9" y="3.9" width="4.3" height="7.3"/>
						</defs>
						<clipPath id="SVGID_8_">
							<use xlink:href="#SVGID_7_"  style="overflow:visible;"/>
						</clipPath>
						<polygon class="st6" points="7,11 7,4 11,4 11,5 8,5 8,7 11,7 11,8 8,8 8,11 						"/>
						<polygon class="st7" points="7,11 7,4 11,4 11,5 8,5 8,7 11,7 11,8 8,8 8,11 						"/>
					</g>
				</g>
				<g class="st5">
					<g>
						<defs>
							<rect id="SVGID_9_" x="11.8" y="5.1" width="5.4" height="5.9"/>
						</defs>
						<clipPath id="SVGID_10_">
							<use xlink:href="#SVGID_9_"  style="overflow:visible;"/>
						</clipPath>
						<polygon class="st8" points="16.9,5.3 15.7,5.3 14.6,7.2 13.4,5.3 12.2,5.3 13.9,8 12.1,10.9 13.3,10.9 14.6,8.8 15.8,10.9 
							17,10.9 15.2,8 						"/>
						<polygon class="st9" points="16.9,5.3 15.7,5.3 14.6,7.2 13.4,5.3 12.2,5.3 13.9,8 12.1,10.9 13.3,10.9 14.6,8.8 15.8,10.9 
							17,10.9 15.2,8 						"/>
					</g>
				</g>
			</g>
		</g>
	</g>
</g>
<g class="st10">
	<g>
		<defs>
			<rect id="SVGID_11_" x="25" width="25" height="15"/>
		</defs>
		<clipPath id="SVGID_12_">
			<use xlink:href="#SVGID_11_"  style="overflow:visible;"/>
		</clipPath>
		<g class="st11">
			<defs>
				<rect id="SVGID_13_" x="25" width="25" height="15"/>
			</defs>
			<clipPath id="SVGID_14_">
				<use xlink:href="#SVGID_13_"  style="overflow:visible;"/>
			</clipPath>
			<rect x="25" class="st12" width="25" height="15"/>
			<path class="st13" d="M26,1h23v13H26V1z M25,15h25V0H25V15z"/>
			<g class="st14">
				<defs>
					<rect id="SVGID_15_" x="25" width="25" height="15"/>
				</defs>
				<clipPath id="SVGID_16_">
					<use xlink:href="#SVGID_15_"  style="overflow:visible;"/>
				</clipPath>
				<g class="st15">
					<g>
						<defs>
							<rect id="SVGID_17_" x="31.9" y="3.9" width="4.3" height="7.3"/>
						</defs>
						<clipPath id="SVGID_18_">
							<use xlink:href="#SVGID_17_"  style="overflow:visible;"/>
						</clipPath>
						<polygon class="st16" points="32,11 32,4 36,4 36,5 33,5 33,7 36,7 36,8 33,8 33,11 						"/>
						<polygon class="st17" points="32,11 32,4 36,4 36,5 33,5 33,7 36,7 36,8 33,8 33,11 						"/>
					</g>
				</g>
				<g class="st15">
					<g>
						<defs>
							<rect id="SVGID_19_" x="36.8" y="5.1" width="5.4" height="5.9"/>
						</defs>
						<clipPath id="SVGID_20_">
							<use xlink:href="#SVGID_19_"  style="overflow:visible;"/>
						</clipPath>
						<polygon class="st18" points="41.9,5.3 40.7,5.3 39.6,7.2 38.4,5.3 37.2,5.3 38.9,8 37.1,10.9 38.3,10.9 39.6,8.8 40.8,10.9 
							42,10.9 40.2,8 						"/>
						<polygon class="st19" points="41.9,5.3 40.7,5.3 39.6,7.2 38.4,5.3 37.2,5.3 38.9,8 37.1,10.9 38.3,10.9 39.6,8.8 40.8,10.9 
							42,10.9 40.2,8 						"/>
					</g>
				</g>
			</g>
		</g>
	</g>
</g>
<g>
	<g>
		<defs>
			<rect id="SVGID_21_" x="50" width="25" height="15"/>
		</defs>
		<clipPath id="SVGID_22_">
			<use xlink:href="#SVGID_21_"  style="overflow:visible;"/>
		</clipPath>
		<g class="st20">
			<defs>
				<rect id="SVGID_23_" x="50" width="25" height="15"/>
			</defs>
			<clipPath id="SVGID_24_">
				<use xlink:href="#SVGID_23_"  style="overflow:visible;"/>
			</clipPath>
			<rect x="50" class="st21" width="25" height="15"/>
			<path class="st22" d="M51,1h23v13H51V1z M50,15h25V0H50V15z"/>
			<g class="st23">
				<defs>
					<rect id="SVGID_25_" x="50" width="25" height="15"/>
				</defs>
				<clipPath id="SVGID_26_">
					<use xlink:href="#SVGID_25_"  style="overflow:visible;"/>
				</clipPath>
				<g class="st24">
					<g>
						<defs>
							<rect id="SVGID_27_" x="56.9" y="3.9" width="4.3" height="7.3"/>
						</defs>
						<clipPath id="SVGID_28_">
							<use xlink:href="#SVGID_27_"  style="overflow:visible;"/>
						</clipPath>
						<polygon class="st25" points="57,11 57,4 61,4 61,5 58,5 58,7 61,7 61,8 58,8 58,11 						"/>
						<polygon class="st26" points="57,11 57,4 61,4 61,5 58,5 58,7 61,7 61,8 58,8 58,11 						"/>
					</g>
				</g>
				<g class="st24">
					<g>
						<defs>
							<rect id="SVGID_29_" x="61.8" y="5.1" width="5.4" height="5.9"/>
						</defs>
						<clipPath id="SVGID_30_">
							<use xlink:href="#SVGID_29_"  style="overflow:visible;"/>
						</clipPath>
						<polygon class="st27" points="66.9,5.3 65.7,5.3 64.6,7.2 63.4,5.3 62.2,5.3 63.9,8 62.1,10.9 63.3,10.9 64.6,8.8 65.8,10.9 
							67,10.9 65.2,8 						"/>
						<polygon class="st28" points="66.9,5.3 65.7,5.3 64.6,7.2 63.4,5.3 62.2,5.3 63.9,8 62.1,10.9 63.3,10.9 64.6,8.8 65.8,10.9 
							67,10.9 65.2,8 						"/>
					</g>
				</g>
			</g>
		</g>
	</g>
</g>
</svg>
