<?xml version="1.0" encoding="utf-8"?>
<!-- Generator: Adobe Illustrator 24.0.0, SVG Export Plug-In . SVG Version: 6.00 Build 0)  -->
<svg version="1.1" id="Layer_1" xmlns="http://www.w3.org/2000/svg" xmlns:xlink="http://www.w3.org/1999/xlink" x="0px" y="0px"
	 viewBox="0 0 75 15" style="enable-background:new 0 0 75 15;" xml:space="preserve">
<style type="text/css">
	.st0{fill:#FFFFFF;}
	.st1{clip-path:url(#SVGID_2_);fill:#B7B7B7;}
	.st2{clip-path:url(#SVGID_2_);fill:#404040;}
	.st3{clip-path:url(#SVGID_2_);fill:#FF0000;}
	.st4{clip-path:url(#SVGID_2_);fill:none;stroke:#FF0000;stroke-width:0.3;stroke-miterlimit:10;}
	.st5{opacity:0.9;}
	.st6{clip-path:url(#SVGID_4_);fill:#B7B7B7;}
	.st7{clip-path:url(#SVGID_4_);fill:#404040;}
	.st8{clip-path:url(#SVGID_4_);fill:#FF0000;}
	.st9{clip-path:url(#SVGID_4_);fill:none;stroke:#FF0000;stroke-width:0.3;stroke-miterlimit:10;}
	.st10{clip-path:url(#SVGID_6_);fill:#B7B7B7;}
	.st11{clip-path:url(#SVGID_6_);fill:#404040;}
	.st12{clip-path:url(#SVGID_6_);fill:#FF0000;}
	.st13{clip-path:url(#SVGID_6_);fill:none;stroke:#FF0000;stroke-width:0.3;stroke-miterlimit:10;}
</style>
<rect x="25" class="st0" width="25" height="15"/>
<g>
	<g>
		<defs>
			<rect id="SVGID_1_" width="25" height="15"/>
		</defs>
		<clipPath id="SVGID_2_">
			<use xlink:href="#SVGID_1_"  style="overflow:visible;"/>
		</clipPath>
		<rect class="st1" width="25" height="15"/>
		<path class="st2" d="M1,1h23v13H1V1z M0,15h25V0H0V15z"/>
		<polygon class="st3" points="7,11 7,4 11,4 11,5 8,5 8,7 11,7 11,8 8,8 8,11 		"/>
		<polygon class="st4" points="7,11 7,4 11,4 11,5 8,5 8,7 11,7 11,8 8,8 8,11 		"/>
		<polygon class="st3" points="16.9,5.3 15.7,5.3 14.6,7.2 13.4,5.3 12.2,5.3 13.9,8 12.1,10.9 13.3,10.9 14.6,8.8 15.8,10.9 
			17,10.9 15.2,8 		"/>
		<polygon class="st4" points="16.9,5.3 15.7,5.3 14.6,7.2 13.4,5.3 12.2,5.3 13.9,8 12.1,10.9 13.3,10.9 14.6,8.8 15.8,10.9 
			17,10.9 15.2,8 		"/>
	</g>
</g>
<g class="st5">
	<g>
		<defs>
			<rect id="SVGID_3_" x="25" width="25" height="15"/>
		</defs>
		<clipPath id="SVGID_4_">
			<use xlink:href="#SVGID_3_"  style="overflow:visible;"/>
		</clipPath>
		<rect x="25" class="st6" width="25" height="15"/>
		<path class="st7" d="M26,1h23v13H26V1z M25,15h25V0H25V15z"/>
		<polygon class="st8" points="32,11 32,4 36,4 36,5 33,5 33,7 36,7 36,8 33,8 33,11 		"/>
		<polygon class="st9" points="32,11 32,4 36,4 36,5 33,5 33,7 36,7 36,8 33,8 33,11 		"/>
		<polygon class="st8" points="41.9,5.3 40.7,5.3 39.6,7.2 38.4,5.3 37.2,5.3 38.9,8 37.1,10.9 38.3,10.9 39.6,8.8 40.8,10.9 
			42,10.9 40.2,8 		"/>
		<polygon class="st9" points="41.9,5.3 40.7,5.3 39.6,7.2 38.4,5.3 37.2,5.3 38.9,8 37.1,10.9 38.3,10.9 39.6,8.8 40.8,10.9 
			42,10.9 40.2,8 		"/>
	</g>
</g>
<g>
	<g>
		<defs>
			<rect id="SVGID_5_" x="50" width="25" height="15"/>
		</defs>
		<clipPath id="SVGID_6_">
			<use xlink:href="#SVGID_5_"  style="overflow:visible;"/>
		</clipPath>
		<rect x="50" class="st10" width="25" height="15"/>
		<path class="st11" d="M51,1h23v13H51V1z M50,15h25V0H50V15z"/>
		<polygon class="st12" points="57,11 57,4 61,4 61,5 58,5 58,7 61,7 61,8 58,8 58,11 		"/>
		<polygon class="st13" points="57,11 57,4 61,4 61,5 58,5 58,7 61,7 61,8 58,8 58,11 		"/>
		<polygon class="st12" points="66.9,5.3 65.7,5.3 64.6,7.2 63.4,5.3 62.2,5.3 63.9,8 62.1,10.9 63.3,10.9 64.6,8.8 65.8,10.9 
			67,10.9 65.2,8 		"/>
		<polygon class="st13" points="66.9,5.3 65.7,5.3 64.6,7.2 63.4,5.3 62.2,5.3 63.9,8 62.1,10.9 63.3,10.9 64.6,8.8 65.8,10.9 
			67,10.9 65.2,8 		"/>
	</g>
</g>
</svg>
