<?xml version="1.0" encoding="utf-8"?>
<!-- Generator: Adobe Illustrator 24.0.0, SVG Export Plug-In . SVG Version: 6.00 Build 0)  -->
<svg version="1.1" id="Layer_1" xmlns="http://www.w3.org/2000/svg" xmlns:xlink="http://www.w3.org/1999/xlink" x="0px" y="0px"
	 viewBox="0 0 75 15" style="enable-background:new 0 0 75 15;" xml:space="preserve">
<style type="text/css">
	.st0{fill:#FFFFFF;}
	.st1{clip-path:url(#SVGID_2_);fill:#1376F8;}
	.st2{clip-path:url(#SVGID_2_);fill:#404040;}
	.st3{clip-path:url(#SVGID_2_);}
	.st4{clip-path:url(#SVGID_4_);fill:none;stroke:#000000;stroke-miterlimit:10;}
	.st5{clip-path:url(#SVGID_4_);}
	.st6{opacity:0.9;}
	.st7{clip-path:url(#SVGID_6_);fill:#1376F8;}
	.st8{clip-path:url(#SVGID_6_);fill:#404040;}
	.st9{clip-path:url(#SVGID_6_);}
	.st10{clip-path:url(#SVGID_8_);fill:none;stroke:#000000;stroke-miterlimit:10;}
	.st11{clip-path:url(#SVGID_8_);}
	.st12{clip-path:url(#SVGID_10_);fill:#1376F8;}
	.st13{clip-path:url(#SVGID_10_);fill:#404040;}
	.st14{clip-path:url(#SVGID_10_);}
	.st15{clip-path:url(#SVGID_12_);fill:none;stroke:#000000;stroke-miterlimit:10;}
	.st16{clip-path:url(#SVGID_12_);}
</style>
<rect x="25" class="st0" width="25" height="15"/>
<g>
	<g>
		<defs>
			<rect id="SVGID_1_" width="25" height="15"/>
		</defs>
		<clipPath id="SVGID_2_">
			<use xlink:href="#SVGID_1_"  style="overflow:visible;"/>
		</clipPath>
		<rect class="st1" width="25" height="15"/>
		<path class="st2" d="M1,1h23v13H1V1z M0,15h25V0H0V15z"/>
		<g class="st3">
			<defs>
				<rect id="SVGID_3_" width="25" height="15"/>
			</defs>
			<clipPath id="SVGID_4_">
				<use xlink:href="#SVGID_3_"  style="overflow:visible;"/>
			</clipPath>
			<circle class="st4" cx="12.6" cy="7.5" r="3.5"/>
			<path class="st5" d="M16,11L16,11c0.2-0.2,0.2-0.5,0-0.7L9.7,4C9.5,3.8,9.2,3.8,9,4C8.8,4.2,8.8,4.5,9,4.7l6.3,6.3
				C15.5,11.2,15.8,11.2,16,11"/>
		</g>
	</g>
</g>
<g class="st6">
	<g>
		<defs>
			<rect id="SVGID_5_" x="25" width="25" height="15"/>
		</defs>
		<clipPath id="SVGID_6_">
			<use xlink:href="#SVGID_5_"  style="overflow:visible;"/>
		</clipPath>
		<rect x="25" class="st7" width="25" height="15"/>
		<path class="st8" d="M26,1h23v13H26V1z M25,15h25V0H25V15z"/>
		<g class="st9">
			<defs>
				<rect id="SVGID_7_" x="25" width="25" height="15"/>
			</defs>
			<clipPath id="SVGID_8_">
				<use xlink:href="#SVGID_7_"  style="overflow:visible;"/>
			</clipPath>
			<circle class="st10" cx="37.6" cy="7.5" r="3.5"/>
			<path class="st11" d="M41,11L41,11c0.2-0.2,0.2-0.5,0-0.7L34.7,4c-0.2-0.2-0.5-0.2-0.7,0c-0.2,0.2-0.2,0.5,0,0.7l6.3,6.3
				C40.5,11.2,40.8,11.2,41,11"/>
		</g>
	</g>
</g>
<g>
	<g>
		<defs>
			<rect id="SVGID_9_" x="50" width="25" height="15"/>
		</defs>
		<clipPath id="SVGID_10_">
			<use xlink:href="#SVGID_9_"  style="overflow:visible;"/>
		</clipPath>
		<rect x="50" class="st12" width="25" height="15"/>
		<path class="st13" d="M51,1h23v13H51V1z M50,15h25V0H50V15z"/>
		<g class="st14">
			<defs>
				<rect id="SVGID_11_" x="50" width="25" height="15"/>
			</defs>
			<clipPath id="SVGID_12_">
				<use xlink:href="#SVGID_11_"  style="overflow:visible;"/>
			</clipPath>
			<circle class="st15" cx="62.6" cy="7.5" r="3.5"/>
			<path class="st16" d="M66,11L66,11c0.2-0.2,0.2-0.5,0-0.7L59.7,4c-0.2-0.2-0.5-0.2-0.7,0c-0.2,0.2-0.2,0.5,0,0.7l6.3,6.3
				C65.5,11.2,65.8,11.2,66,11"/>
		</g>
	</g>
</g>
</svg>
