<?xml version="1.0" encoding="utf-8"?>
<!-- Generator: Adobe Illustrator 24.0.0, SVG Export Plug-In . SVG Version: 6.00 Build 0)  -->
<svg version="1.1" id="Layer_1" xmlns="http://www.w3.org/2000/svg" xmlns:xlink="http://www.w3.org/1999/xlink" x="0px" y="0px"
	 viewBox="0 0 63 15" style="enable-background:new 0 0 63 15;" xml:space="preserve">
<style type="text/css">
	.st0{fill:#FFFFFF;}
	.st1{clip-path:url(#SVGID_2_);fill:#FDAF00;}
	.st2{clip-path:url(#SVGID_2_);fill:#404040;}
	.st3{clip-path:url(#SVGID_2_);}
	.st4{clip-path:url(#SVGID_4_);}
	.st5{opacity:0.9;}
	.st6{clip-path:url(#SVGID_6_);fill:#FDAF00;}
	.st7{clip-path:url(#SVGID_6_);fill:#404040;}
	.st8{clip-path:url(#SVGID_6_);}
	.st9{clip-path:url(#SVGID_8_);}
	.st10{clip-path:url(#SVGID_10_);fill:#FDAF00;}
	.st11{clip-path:url(#SVGID_10_);fill:#404040;}
	.st12{clip-path:url(#SVGID_10_);}
	.st13{clip-path:url(#SVGID_12_);}
</style>
<rect x="21" y="0" class="st0" width="21" height="15"/>
<g>
	<g>
		<defs>
			<rect id="SVGID_1_" width="21" height="15"/>
		</defs>
		<clipPath id="SVGID_2_">
			<use xlink:href="#SVGID_1_"  style="overflow:visible;"/>
		</clipPath>
		<rect class="st1" width="21" height="15"/>
		<path class="st2" d="M1,1h19v13H1V1z M0,15h21V0H0V15z"/>
		<g class="st3">
			<defs>
				<rect id="SVGID_3_" width="21" height="15"/>
			</defs>
			<clipPath id="SVGID_4_">
				<use xlink:href="#SVGID_3_"  style="overflow:visible;"/>
			</clipPath>
			<path class="st4" d="M8.4,11c-0.6,0.8-1.4,1.2-2.4,1.2c-1,0-1.8-0.4-2.4-1.2c-0.6-0.8-0.9-1.9-0.9-3.2s0.3-2.3,0.9-3.2
				c0.6-0.8,1.4-1.2,2.4-1.2c1,0,1.7,0.4,2.4,1.2C9,5.5,9.3,6.5,9.3,7.8S9,10.1,8.4,11 M4.4,10.2c0.4,0.6,1,1,1.6,1s1.2-0.3,1.6-1
				c0.4-0.6,0.6-1.4,0.6-2.4c0-1-0.2-1.8-0.6-2.4c-0.4-0.6-1-0.9-1.6-0.9S4.8,4.8,4.4,5.4S3.8,6.8,3.8,7.8C3.8,8.8,4,9.5,4.4,10.2"
				/>
			<path class="st4" d="M12.7,4.4c-0.6,0-0.9,0.4-0.9,1.3V6h1.3v0.9h-1.3v5.1h-1V6.9H9.9V6h0.9V5.6c0-0.7,0.2-1.2,0.5-1.6
				c0.3-0.4,0.8-0.6,1.4-0.6c0.6,0,1.1,0.2,1.4,0.6l-0.5,0.8C13.4,4.5,13.1,4.4,12.7,4.4"/>
			<path class="st4" d="M16.9,4.4c-0.6,0-0.9,0.4-0.9,1.3V6h1.3v0.9H16v5.1h-1V6.9h-0.9V6H15V5.6c0-0.7,0.2-1.2,0.5-1.6
				c0.3-0.4,0.8-0.6,1.4-0.6c0.6,0,1.1,0.2,1.4,0.6l-0.5,0.8C17.6,4.5,17.3,4.4,16.9,4.4"/>
		</g>
	</g>
</g>
<g class="st5">
	<g>
		<defs>
			<rect id="SVGID_5_" x="21" width="21" height="15"/>
		</defs>
		<clipPath id="SVGID_6_">
			<use xlink:href="#SVGID_5_"  style="overflow:visible;"/>
		</clipPath>
		<rect x="21" class="st6" width="21" height="15"/>
		<path class="st7" d="M22,1h19v13H22V1z M21,15h21V0H21V15z"/>
		<g class="st8">
			<defs>
				<rect id="SVGID_7_" x="21" width="21" height="15"/>
			</defs>
			<clipPath id="SVGID_8_">
				<use xlink:href="#SVGID_7_"  style="overflow:visible;"/>
			</clipPath>
			<path class="st9" d="M29.4,11c-0.6,0.8-1.4,1.2-2.4,1.2c-1,0-1.8-0.4-2.4-1.2c-0.6-0.8-0.9-1.9-0.9-3.2s0.3-2.3,0.9-3.2
				c0.6-0.8,1.4-1.2,2.4-1.2c1,0,1.7,0.4,2.4,1.2c0.6,0.8,0.9,1.9,0.9,3.2S30,10.1,29.4,11 M25.4,10.2c0.4,0.6,1,1,1.6,1
				c0.7,0,1.2-0.3,1.6-1c0.4-0.6,0.6-1.4,0.6-2.4c0-1-0.2-1.8-0.6-2.4c-0.4-0.6-1-0.9-1.6-0.9c-0.7,0-1.2,0.3-1.6,0.9
				C25,6,24.8,6.8,24.8,7.8C24.8,8.8,25,9.5,25.4,10.2"/>
			<path class="st9" d="M33.7,4.4c-0.6,0-0.9,0.4-0.9,1.3V6h1.3v0.9h-1.3v5.1h-1V6.9h-0.9V6h0.9V5.6c0-0.7,0.2-1.2,0.5-1.6
				c0.3-0.4,0.8-0.6,1.4-0.6c0.6,0,1.1,0.2,1.4,0.6l-0.5,0.8C34.4,4.5,34.1,4.4,33.7,4.4"/>
			<path class="st9" d="M37.9,4.4c-0.6,0-0.9,0.4-0.9,1.3V6h1.3v0.9H37v5.1h-1V6.9h-0.9V6H36V5.6c0-0.7,0.2-1.2,0.5-1.6
				c0.3-0.4,0.8-0.6,1.4-0.6c0.6,0,1.1,0.2,1.4,0.6l-0.5,0.8C38.6,4.5,38.3,4.4,37.9,4.4"/>
		</g>
	</g>
</g>
<g>
	<g>
		<defs>
			<rect id="SVGID_9_" x="42" width="21" height="15"/>
		</defs>
		<clipPath id="SVGID_10_">
			<use xlink:href="#SVGID_9_"  style="overflow:visible;"/>
		</clipPath>
		<rect x="42" class="st10" width="21" height="15"/>
		<path class="st11" d="M43,1h19v13H43V1z M42,15h21V0H42V15z"/>
		<g class="st12">
			<defs>
				<rect id="SVGID_11_" x="42" width="21" height="15"/>
			</defs>
			<clipPath id="SVGID_12_">
				<use xlink:href="#SVGID_11_"  style="overflow:visible;"/>
			</clipPath>
			<path class="st13" d="M50.4,11c-0.6,0.8-1.4,1.2-2.4,1.2c-1,0-1.8-0.4-2.4-1.2c-0.6-0.8-0.9-1.9-0.9-3.2s0.3-2.3,0.9-3.2
				c0.6-0.8,1.4-1.2,2.4-1.2c1,0,1.7,0.4,2.4,1.2c0.6,0.8,0.9,1.9,0.9,3.2S51,10.1,50.4,11 M46.4,10.2c0.4,0.6,1,1,1.6,1
				s1.2-0.3,1.6-1c0.4-0.6,0.6-1.4,0.6-2.4c0-1-0.2-1.8-0.6-2.4c-0.4-0.6-1-0.9-1.6-0.9s-1.2,0.3-1.6,0.9s-0.6,1.4-0.6,2.4
				C45.8,8.8,46,9.5,46.4,10.2"/>
			<path class="st13" d="M54.7,4.4c-0.6,0-0.9,0.4-0.9,1.3V6h1.3v0.9h-1.3v5.1h-1V6.9h-0.9V6h0.9V5.6c0-0.7,0.2-1.2,0.5-1.6
				c0.3-0.4,0.8-0.6,1.4-0.6c0.6,0,1.1,0.2,1.4,0.6l-0.5,0.8C55.4,4.5,55.1,4.4,54.7,4.4"/>
			<path class="st13" d="M58.9,4.4c-0.6,0-0.9,0.4-0.9,1.3V6h1.3v0.9H58v5.1h-1V6.9h-0.9V6H57V5.6c0-0.7,0.2-1.2,0.5-1.6
				c0.3-0.4,0.8-0.6,1.4-0.6c0.6,0,1.1,0.2,1.4,0.6l-0.5,0.8C59.6,4.5,59.3,4.4,58.9,4.4"/>
		</g>
	</g>
</g>
</svg>
