<?xml version="1.0" encoding="utf-8"?>
<!-- Generator: Adobe Illustrator 24.0.0, SVG Export Plug-In . SVG Version: 6.00 Build 0)  -->
<svg version="1.1" id="Layer_1" xmlns="http://www.w3.org/2000/svg" xmlns:xlink="http://www.w3.org/1999/xlink" x="0px" y="0px"
	 viewBox="0 0 45 15" style="enable-background:new 0 0 45 15;" xml:space="preserve">
<style type="text/css">
	.st0{fill:#FFFFFF;}
	.st1{clip-path:url(#SVGID_2_);}
	.st2{clip-path:url(#SVGID_2_);fill:#53DCF4;}
	.st3{clip-path:url(#SVGID_2_);fill:#404040;}
	.st4{opacity:0.9;}
	.st5{clip-path:url(#SVGID_6_);}
	.st6{clip-path:url(#SVGID_6_);fill:#53DCF4;}
	.st7{clip-path:url(#SVGID_6_);fill:#404040;}
	.st8{clip-path:url(#SVGID_10_);}
	.st9{clip-path:url(#SVGID_10_);fill:#53DCF4;}
	.st10{clip-path:url(#SVGID_10_);fill:#404040;}
</style>
<rect x="15.1" class="st0" width="14.9" height="15"/>
<g>
	<g>
		<defs>
			<rect id="SVGID_1_" width="15" height="15"/>
		</defs>
		<clipPath id="SVGID_2_">
			<use xlink:href="#SVGID_1_"  style="overflow:visible;"/>
		</clipPath>
		<g class="st1">
			<defs>
				<rect id="SVGID_3_" x="0" y="0" width="15" height="15"/>
			</defs>
			<clipPath id="SVGID_4_">
				<use xlink:href="#SVGID_3_"  style="overflow:visible;"/>
			</clipPath>
			<g style="clip-path:url(#SVGID_4_);">
				
					<image style="overflow:visible;" width="15" height="15" xlink:href="F2D4368F.jpg"  transform="matrix(0.9999 0 0 0.9999 1.875300e-03 1.874924e-03)">
				</image>
			</g>
		</g>
		<rect class="st2" width="15" height="15"/>
		<path class="st3" d="M1,1h13v13H1V1z M0,15h15V0H0V15z"/>
		<polygon class="st1" points="8,4 8,3 4,3 4,4 4,11 4,12 8,12 8,11 5,11 5,4 		"/>
		<rect x="9" y="7" class="st1" width="2" height="1"/>
		<polygon class="st1" points="6,7.5 9,10.3 9,4.7 		"/>
	</g>
</g>
<g class="st4">
	<g>
		<defs>
			<rect id="SVGID_5_" x="15" width="15" height="15"/>
		</defs>
		<clipPath id="SVGID_6_">
			<use xlink:href="#SVGID_5_"  style="overflow:visible;"/>
		</clipPath>
		<g class="st5">
			<defs>
				<rect id="SVGID_7_" x="15" y="0" width="15" height="15"/>
			</defs>
			<clipPath id="SVGID_8_">
				<use xlink:href="#SVGID_7_"  style="overflow:visible;"/>
			</clipPath>
			<g style="clip-path:url(#SVGID_8_);">
				
					<image style="overflow:visible;" width="15" height="15" xlink:href="F2D4368D.jpg"  transform="matrix(0.9999 0 0 0.9999 15.0019 1.874924e-03)">
				</image>
			</g>
		</g>
		<rect x="15" class="st6" width="15" height="15"/>
		<path class="st7" d="M16,1h13v13H16V1z M15,15h15V0H15V15z"/>
		<polygon class="st5" points="23,4 23,3 19,3 19,4 19,11 19,12 23,12 23,11 20,11 20,4 		"/>
		<rect x="24" y="7" class="st5" width="2" height="1"/>
		<polygon class="st5" points="21,7.5 24,10.3 24,4.7 		"/>
	</g>
</g>
<g>
	<g>
		<defs>
			<rect id="SVGID_9_" x="30" width="15" height="15"/>
		</defs>
		<clipPath id="SVGID_10_">
			<use xlink:href="#SVGID_9_"  style="overflow:visible;"/>
		</clipPath>
		<g class="st8">
			<defs>
				<rect id="SVGID_11_" x="30" y="0" width="15" height="15"/>
			</defs>
			<clipPath id="SVGID_12_">
				<use xlink:href="#SVGID_11_"  style="overflow:visible;"/>
			</clipPath>
			<g style="clip-path:url(#SVGID_12_);">
				
					<image style="overflow:visible;" width="15" height="15" xlink:href="F2D43693.jpg"  transform="matrix(0.9999 0 0 0.9999 30.0019 1.874924e-03)">
				</image>
			</g>
		</g>
		<rect x="30" class="st9" width="15" height="15"/>
		<path class="st10" d="M31,1h13v13H31V1z M30,15h15V0H30V15z"/>
		<polygon class="st8" points="38,4 38,3 34,3 34,4 34,11 34,12 38,12 38,11 35,11 35,4 		"/>
		<rect x="39" y="7" class="st8" width="2" height="1"/>
		<polygon class="st8" points="36,7.5 39,10.3 39,4.7 		"/>
	</g>
</g>
</svg>
