<?xml version="1.0" encoding="utf-8"?>
<!-- Generator: Adobe Illustrator 24.0.0, SVG Export Plug-In . SVG Version: 6.00 Build 0)  -->
<svg version="1.1" id="Layer_1" xmlns="http://www.w3.org/2000/svg" xmlns:xlink="http://www.w3.org/1999/xlink" x="0px" y="0px"
	 viewBox="0 0 72 24" style="enable-background:new 0 0 72 24;" xml:space="preserve">
<style type="text/css">
	.st0{fill:#FFFFFF;}
	.st1{clip-path:url(#SVGID_2_);}
	.st2{clip-path:url(#SVGID_2_);fill:#B6B6B6;}
	.st3{opacity:0.9;}
	.st4{clip-path:url(#SVGID_6_);}
	.st5{clip-path:url(#SVGID_6_);fill:#B6B6B6;}
	.st6{clip-path:url(#SVGID_10_);}
	.st7{clip-path:url(#SVGID_10_);fill:#B6B6B6;}
</style>
<rect x="24" y="0" class="st0" width="24" height="24"/>
<g>
	<g>
		<defs>
			<rect id="SVGID_1_" width="24" height="24"/>
		</defs>
		<clipPath id="SVGID_2_">
			<use xlink:href="#SVGID_1_"  style="overflow:visible;"/>
		</clipPath>
		<g class="st1">
			<defs>
				<rect id="SVGID_3_" width="24" height="24"/>
			</defs>
			<clipPath id="SVGID_4_">
				<use xlink:href="#SVGID_3_"  style="overflow:visible;"/>
			</clipPath>
			<g style="clip-path:url(#SVGID_4_);">
				
					<image style="overflow:visible;" width="52" height="52" xlink:href="5A6307B0.jpg"  transform="matrix(0.4615 0 0 0.4615 0 0)">
				</image>
			</g>
		</g>
		<rect class="st2" width="24" height="24"/>
		<rect x="14" y="6.5" class="st1" width="3.5" height="11"/>
		<polygon class="st1" points="14.7,12 6.5,17.5 6.5,6.5 		"/>
	</g>
</g>
<g class="st3">
	<g>
		<defs>
			<rect id="SVGID_5_" x="24" width="24" height="24"/>
		</defs>
		<clipPath id="SVGID_6_">
			<use xlink:href="#SVGID_5_"  style="overflow:visible;"/>
		</clipPath>
		<g class="st4">
			<defs>
				<rect id="SVGID_7_" x="24" width="24" height="24"/>
			</defs>
			<clipPath id="SVGID_8_">
				<use xlink:href="#SVGID_7_"  style="overflow:visible;"/>
			</clipPath>
			<g style="clip-path:url(#SVGID_8_);">
				
					<image style="overflow:visible;" width="52" height="52" xlink:href="5A6307B1.jpg"  transform="matrix(0.4615 0 0 0.4615 24 0)">
				</image>
			</g>
		</g>
		<rect x="24" class="st5" width="24" height="24"/>
		<rect x="38" y="6.5" class="st4" width="3.5" height="11"/>
		<polygon class="st4" points="38.7,12 30.5,17.5 30.5,6.5 		"/>
	</g>
</g>
<g>
	<g>
		<defs>
			<rect id="SVGID_9_" x="48" width="24" height="24"/>
		</defs>
		<clipPath id="SVGID_10_">
			<use xlink:href="#SVGID_9_"  style="overflow:visible;"/>
		</clipPath>
		<g class="st6">
			<defs>
				<rect id="SVGID_11_" x="48" width="24" height="24"/>
			</defs>
			<clipPath id="SVGID_12_">
				<use xlink:href="#SVGID_11_"  style="overflow:visible;"/>
			</clipPath>
			<g style="clip-path:url(#SVGID_12_);">
				
					<image style="overflow:visible;" width="52" height="52" xlink:href="5A6307B6.jpg"  transform="matrix(0.4615 0 0 0.4615 48 0)">
				</image>
			</g>
		</g>
		<rect x="48" class="st7" width="24" height="24"/>
		<rect x="62" y="6.5" class="st6" width="3.5" height="11"/>
		<polygon class="st6" points="62.7,12 54.5,17.5 54.5,6.5 		"/>
	</g>
</g>
</svg>
