<?xml version="1.0" encoding="utf-8"?>
<!-- Generator: Adobe Illustrator 24.0.0, SVG Export Plug-In . SVG Version: 6.00 Build 0)  -->
<svg version="1.1" id="Layer_1" xmlns="http://www.w3.org/2000/svg" xmlns:xlink="http://www.w3.org/1999/xlink" x="0px" y="0px"
	 viewBox="0 0 72 24" style="enable-background:new 0 0 72 24;" xml:space="preserve">
<style type="text/css">
	.st0{fill:#FFFFFF;}
	.st1{clip-path:url(#SVGID_2_);}
	.st2{clip-path:url(#SVGID_2_);fill:#B6B6B6;}
	.st3{clip-path:url(#SVGID_2_);fill:#035AF4;}
	.st4{opacity:0.9;}
	.st5{clip-path:url(#SVGID_8_);}
	.st6{clip-path:url(#SVGID_8_);fill:#B6B6B6;}
	.st7{clip-path:url(#SVGID_8_);fill:#035AF4;}
	.st8{clip-path:url(#SVGID_14_);}
	.st9{clip-path:url(#SVGID_14_);fill:#B6B6B6;}
	.st10{clip-path:url(#SVGID_14_);fill:#035AF4;}
</style>
<rect x="24" y="0" class="st0" width="24" height="24"/>
<g>
	<g>
		<defs>
			<rect id="SVGID_1_" width="24" height="24"/>
		</defs>
		<clipPath id="SVGID_2_">
			<use xlink:href="#SVGID_1_"  style="overflow:visible;"/>
		</clipPath>
		<g class="st1">
			<defs>
				<rect id="SVGID_3_" width="24" height="24"/>
			</defs>
			<clipPath id="SVGID_4_">
				<use xlink:href="#SVGID_3_"  style="overflow:visible;"/>
			</clipPath>
			<g style="clip-path:url(#SVGID_4_);">
				
					<image style="overflow:visible;" width="52" height="52" xlink:href="2357F4CE.jpg"  transform="matrix(0.4615 0 0 0.4615 0 0)">
				</image>
			</g>
		</g>
		<g class="st1">
			<defs>
				<rect id="SVGID_5_" x="0.2" width="23.8" height="23.8"/>
			</defs>
			<clipPath id="SVGID_6_">
				<use xlink:href="#SVGID_5_"  style="overflow:visible;"/>
			</clipPath>
			<g transform="matrix(1 0 0 1 0 0)" style="clip-path:url(#SVGID_6_);">
				
					<image style="overflow:visible;" width="52" height="52" xlink:href="2357F4D2.jpg"  transform="matrix(0.4575 0 0 0.4575 0.2096 0)">
				</image>
			</g>
		</g>
		<rect class="st2" width="24" height="24"/>
		<rect x="6.5" y="6.5" class="st3" width="3.5" height="11"/>
		<rect x="14" y="6.5" class="st3" width="3.5" height="11"/>
	</g>
</g>
<g class="st4">
	<g>
		<defs>
			<rect id="SVGID_7_" x="24" width="24" height="24"/>
		</defs>
		<clipPath id="SVGID_8_">
			<use xlink:href="#SVGID_7_"  style="overflow:visible;"/>
		</clipPath>
		<g class="st5">
			<defs>
				<rect id="SVGID_9_" x="24" width="24" height="24"/>
			</defs>
			<clipPath id="SVGID_10_">
				<use xlink:href="#SVGID_9_"  style="overflow:visible;"/>
			</clipPath>
			<g style="clip-path:url(#SVGID_10_);">
				
					<image style="overflow:visible;" width="52" height="52" xlink:href="2357F4D5.jpg"  transform="matrix(0.4615 0 0 0.4615 24 0)">
				</image>
			</g>
		</g>
		<g class="st5">
			<defs>
				<rect id="SVGID_11_" x="24.2" width="23.8" height="23.8"/>
			</defs>
			<clipPath id="SVGID_12_">
				<use xlink:href="#SVGID_11_"  style="overflow:visible;"/>
			</clipPath>
			<g transform="matrix(1 0 0 1 0 0)" style="clip-path:url(#SVGID_12_);">
				
					<image style="overflow:visible;" width="52" height="52" xlink:href="2357F4D6.jpg"  transform="matrix(0.4575 0 0 0.4575 24.2096 0)">
				</image>
			</g>
		</g>
		<rect x="24" class="st6" width="24" height="24"/>
		<rect x="30.5" y="6.5" class="st7" width="3.5" height="11"/>
		<rect x="38" y="6.5" class="st7" width="3.5" height="11"/>
	</g>
</g>
<g>
	<g>
		<defs>
			<rect id="SVGID_13_" x="48" width="24" height="24"/>
		</defs>
		<clipPath id="SVGID_14_">
			<use xlink:href="#SVGID_13_"  style="overflow:visible;"/>
		</clipPath>
		<g class="st8">
			<defs>
				<rect id="SVGID_15_" x="48" width="24" height="24"/>
			</defs>
			<clipPath id="SVGID_16_">
				<use xlink:href="#SVGID_15_"  style="overflow:visible;"/>
			</clipPath>
			<g style="clip-path:url(#SVGID_16_);">
				
					<image style="overflow:visible;" width="52" height="52" xlink:href="2357F4D4.jpg"  transform="matrix(0.4615 0 0 0.4615 48 0)">
				</image>
			</g>
		</g>
		<g class="st8">
			<defs>
				<rect id="SVGID_17_" x="48.2" width="23.8" height="23.8"/>
			</defs>
			<clipPath id="SVGID_18_">
				<use xlink:href="#SVGID_17_"  style="overflow:visible;"/>
			</clipPath>
			<g transform="matrix(1 0 0 1 0 0)" style="clip-path:url(#SVGID_18_);">
				
					<image style="overflow:visible;" width="52" height="52" xlink:href="2357F4D3.jpg"  transform="matrix(0.4575 0 0 0.4575 48.2096 0)">
				</image>
			</g>
		</g>
		<rect x="48" class="st9" width="24" height="24"/>
		<rect x="54.5" y="6.5" class="st10" width="3.5" height="11"/>
		<rect x="62" y="6.5" class="st10" width="3.5" height="11"/>
	</g>
</g>
</svg>
