<?xml version="1.0" encoding="utf-8"?>
<!-- Generator: Adobe Illustrator 24.0.0, SVG Export Plug-In . SVG Version: 6.00 Build 0)  -->
<svg version="1.1" id="Layer_1" xmlns="http://www.w3.org/2000/svg" xmlns:xlink="http://www.w3.org/1999/xlink" x="0px" y="0px"
	 viewBox="0 0 60 20" style="enable-background:new 0 0 60 20;" xml:space="preserve">
<style type="text/css">
	.st0{clip-path:url(#SVGID_2_);fill:#B7B7B7;}
	.st1{clip-path:url(#SVGID_2_);fill:#404040;}
	.st2{clip-path:url(#SVGID_2_);fill:#201600;}
	.st3{clip-path:url(#SVGID_2_);fill:none;stroke:#201600;stroke-miterlimit:10;}
	.st4{opacity:0.9;}
	.st5{clip-path:url(#SVGID_4_);fill:#B7B7B7;}
	.st6{clip-path:url(#SVGID_4_);fill:#404040;}
	.st7{clip-path:url(#SVGID_4_);fill:#201600;}
	.st8{clip-path:url(#SVGID_4_);fill:none;stroke:#201600;stroke-miterlimit:10;}
	.st9{clip-path:url(#SVGID_6_);fill:#B7B7B7;}
	.st10{clip-path:url(#SVGID_6_);fill:#404040;}
	.st11{clip-path:url(#SVGID_6_);fill:#201600;}
	.st12{clip-path:url(#SVGID_6_);fill:none;stroke:#201600;stroke-miterlimit:10;}
</style>
<g>
	<g>
		<defs>
			<rect id="SVGID_1_" width="20" height="20"/>
		</defs>
		<clipPath id="SVGID_2_">
			<use xlink:href="#SVGID_1_"  style="overflow:visible;"/>
		</clipPath>
		<rect class="st0" width="20" height="18"/>
		<path class="st1" d="M1,1h18v16H1V1z M0,18h20V0H0V18z"/>
		<rect x="5.3" y="10.4" class="st2" width="2" height="2"/>
		<rect x="5.3" y="10.4" class="st3" width="2" height="2"/>
		<rect x="5.2" y="8.6" transform="matrix(0.6342 -0.7732 0.7732 0.6342 -3.9925 9.6855)" class="st2" width="6.1" height="1"/>
		<rect x="5.2" y="8.6" transform="matrix(0.6342 -0.7732 0.7732 0.6342 -3.9925 9.6855)" class="st3" width="6.1" height="1"/>
		<rect x="9.4" y="5.4" class="st2" width="2" height="2"/>
		<rect x="9.4" y="5.4" class="st3" width="2" height="2"/>
		<rect x="13.5" y="10.6" class="st2" width="2" height="2"/>
		<rect x="13.5" y="10.6" class="st3" width="2" height="2"/>
		<rect x="12" y="6.1" transform="matrix(0.7732 -0.6342 0.6342 0.7732 -2.9833 10.0292)" class="st2" width="1" height="6.1"/>
		<rect x="12" y="6.1" transform="matrix(0.7732 -0.6342 0.6342 0.7732 -2.9833 10.0292)" class="st3" width="1" height="6.1"/>
		<rect x="9.4" y="5.6" class="st2" width="2" height="2"/>
		<rect x="9.4" y="5.6" class="st3" width="2" height="2"/>
	</g>
</g>
<g class="st4">
	<g>
		<defs>
			<rect id="SVGID_3_" x="20" width="20" height="20"/>
		</defs>
		<clipPath id="SVGID_4_">
			<use xlink:href="#SVGID_3_"  style="overflow:visible;"/>
		</clipPath>
		<rect x="20" class="st5" width="20" height="18"/>
		<path class="st6" d="M21,1h18v16H21V1z M20,18h20V0H20V18z"/>
		<rect x="25.3" y="10.4" class="st7" width="2" height="2"/>
		<rect x="25.3" y="10.4" class="st8" width="2" height="2"/>
		<rect x="25.2" y="8.6" transform="matrix(0.6342 -0.7732 0.7732 0.6342 3.3242 25.1495)" class="st7" width="6.1" height="1"/>
		<rect x="25.2" y="8.6" transform="matrix(0.6342 -0.7732 0.7732 0.6342 3.3242 25.1495)" class="st8" width="6.1" height="1"/>
		<rect x="29.4" y="5.4" class="st7" width="2" height="2"/>
		<rect x="29.4" y="5.4" class="st8" width="2" height="2"/>
		<rect x="33.5" y="10.6" class="st7" width="2" height="2"/>
		<rect x="33.5" y="10.6" class="st8" width="2" height="2"/>
		<rect x="32" y="6.1" transform="matrix(0.7732 -0.6342 0.6342 0.7732 1.5527 22.7125)" class="st7" width="1" height="6.1"/>
		<rect x="32" y="6.1" transform="matrix(0.7732 -0.6342 0.6342 0.7732 1.5527 22.7125)" class="st8" width="1" height="6.1"/>
		<rect x="29.4" y="5.6" class="st7" width="2" height="2"/>
		<rect x="29.4" y="5.6" class="st8" width="2" height="2"/>
	</g>
</g>
<g>
	<g>
		<defs>
			<rect id="SVGID_5_" x="40" width="20" height="20"/>
		</defs>
		<clipPath id="SVGID_6_">
			<use xlink:href="#SVGID_5_"  style="overflow:visible;"/>
		</clipPath>
		<rect x="40" class="st9" width="20" height="18"/>
		<path class="st10" d="M41,1h18v16H41V1z M40,18h20V0H40V18z"/>
		<rect x="45.3" y="10.4" class="st11" width="2" height="2"/>
		<rect x="45.3" y="10.4" class="st12" width="2" height="2"/>
		<rect x="45.2" y="8.6" transform="matrix(0.6342 -0.7732 0.7732 0.6342 10.6409 40.6135)" class="st11" width="6.1" height="1"/>
		<rect x="45.2" y="8.6" transform="matrix(0.6342 -0.7732 0.7732 0.6342 10.6409 40.6135)" class="st12" width="6.1" height="1"/>
		<rect x="49.4" y="5.4" class="st11" width="2" height="2"/>
		<rect x="49.4" y="5.4" class="st12" width="2" height="2"/>
		<rect x="53.5" y="10.6" class="st11" width="2" height="2"/>
		<rect x="53.5" y="10.6" class="st12" width="2" height="2"/>
		<rect x="52" y="6.1" transform="matrix(0.7732 -0.6342 0.6342 0.7732 6.0888 35.3957)" class="st11" width="1" height="6.1"/>
		<rect x="52" y="6.1" transform="matrix(0.7732 -0.6342 0.6342 0.7732 6.0888 35.3957)" class="st12" width="1" height="6.1"/>
		<rect x="49.4" y="5.6" class="st11" width="2" height="2"/>
		<rect x="49.4" y="5.6" class="st12" width="2" height="2"/>
	</g>
</g>
</svg>
