<?xml version="1.0" encoding="utf-8"?>
<!-- Generator: Adobe Illustrator 24.0.0, SVG Export Plug-In . SVG Version: 6.00 Build 0)  -->
<svg version="1.1" id="Layer_1" xmlns="http://www.w3.org/2000/svg" xmlns:xlink="http://www.w3.org/1999/xlink" x="0px" y="0px"
	 viewBox="0 0 222 24" style="enable-background:new 0 0 222 24;" xml:space="preserve">
<style type="text/css">
	.st0{clip-path:url(#SVGID_2_);fill:#B7B7B7;}
	.st1{clip-path:url(#SVGID_2_);fill:#404040;}
	.st2{clip-path:url(#SVGID_2_);fill:#D3D3D3;}
	.st3{clip-path:url(#SVGID_2_);fill:none;stroke:#404040;stroke-miterlimit:10;}
	.st4{clip-path:url(#SVGID_2_);fill:#3E3E3E;}
	.st5{clip-path:url(#SVGID_2_);}
	.st6{opacity:0.9;}
	.st7{clip-path:url(#SVGID_4_);fill:#B7B7B7;}
	.st8{clip-path:url(#SVGID_4_);fill:#404040;}
	.st9{clip-path:url(#SVGID_4_);fill:#D3D3D3;}
	.st10{clip-path:url(#SVGID_4_);fill:none;stroke:#404040;stroke-miterlimit:10;}
	.st11{clip-path:url(#SVGID_4_);fill:#3E3E3E;}
	.st12{clip-path:url(#SVGID_4_);}
	.st13{clip-path:url(#SVGID_6_);fill:#B7B7B7;}
	.st14{clip-path:url(#SVGID_6_);fill:#404040;}
	.st15{clip-path:url(#SVGID_6_);fill:#D3D3D3;}
	.st16{clip-path:url(#SVGID_6_);fill:none;stroke:#404040;stroke-miterlimit:10;}
	.st17{clip-path:url(#SVGID_6_);fill:#3E3E3E;}
	.st18{clip-path:url(#SVGID_6_);}
</style>
<g>
	<g>
		<defs>
			<rect id="SVGID_1_" width="74" height="24"/>
		</defs>
		<clipPath id="SVGID_2_">
			<use xlink:href="#SVGID_1_"  style="overflow:visible;"/>
		</clipPath>
		<rect class="st0" width="74" height="24"/>
		<rect x="24.1" class="st1" width="0.9" height="24"/>
		<rect x="25" class="st2" width="49" height="24"/>
		<rect x="6" y="15" class="st3" width="3" height="3"/>
		<rect x="13" y="7" class="st3" width="3" height="3"/>
		<rect x="7.4" y="11.9" transform="matrix(0.6159 -0.7878 0.7878 0.6159 -5.4909 13.4487)" class="st4" width="7.3" height="1"/>
		<path class="st5" d="M40.4,10.4h-2.2V9.2h5.9v1.2h-2.2v5.7h-1.6V10.4z M46.3,13.3v2.8h-1.5V9.2H48c1.6,0,2.4,0.8,2.4,1.9
			c0,0.9-0.5,1.4-1,1.6c0.4,0.1,0.9,0.5,0.9,1.7v0.3c0,0.5,0,1,0.1,1.3h-1.5c-0.1-0.3-0.1-0.8-0.1-1.5v-0.1c0-0.8-0.2-1.1-1.4-1.1
			H46.3z M46.3,12.2h1.3c0.8,0,1.2-0.3,1.2-0.9c0-0.6-0.4-0.9-1.1-0.9h-1.3V12.2z M53,9.2v6.9h-1.6V9.2H53z M60.5,13.5
			c0-1.2,0-2.5,0.1-3.3h0c-0.3,1.4-1.1,3.7-1.7,5.9h-1.3c-0.5-1.9-1.3-4.5-1.6-5.9h0c0.1,0.8,0.1,2.2,0.1,3.4v2.5h-1.4V9.2h2.3
			c0.6,1.8,1.2,4.1,1.4,5.1h0c0.2-0.9,1-3.3,1.6-5.1H62v6.9h-1.5V13.5z"/>
	</g>
</g>
<g class="st6">
	<g>
		<defs>
			<rect id="SVGID_3_" x="74" width="74" height="24"/>
		</defs>
		<clipPath id="SVGID_4_">
			<use xlink:href="#SVGID_3_"  style="overflow:visible;"/>
		</clipPath>
		<rect x="74" class="st7" width="74" height="24"/>
		<rect x="98.1" class="st8" width="0.9" height="24"/>
		<rect x="99" class="st9" width="49" height="24"/>
		<rect x="80" y="15" class="st10" width="3" height="3"/>
		<rect x="87" y="7" class="st10" width="3" height="3"/>
		<rect x="81.4" y="11.9" transform="matrix(0.6159 -0.7878 0.7878 0.6159 22.9343 71.749)" class="st11" width="7.3" height="1"/>
		<path class="st12" d="M114.4,10.4h-2.2V9.2h5.9v1.2h-2.2v5.7h-1.6V10.4z M120.3,13.3v2.8h-1.5V9.2h3.2c1.6,0,2.4,0.8,2.4,1.9
			c0,0.9-0.5,1.4-1,1.6c0.4,0.1,0.9,0.5,0.9,1.7v0.3c0,0.5,0,1,0.1,1.3h-1.5c-0.1-0.3-0.1-0.8-0.1-1.5v-0.1c0-0.8-0.2-1.1-1.4-1.1
			H120.3z M120.3,12.2h1.3c0.8,0,1.2-0.3,1.2-0.9c0-0.6-0.4-0.9-1.1-0.9h-1.3V12.2z M127,9.2v6.9h-1.6V9.2H127z M134.5,13.5
			c0-1.2,0-2.5,0.1-3.3h0c-0.3,1.4-1.1,3.7-1.7,5.9h-1.3c-0.5-1.9-1.3-4.5-1.6-5.9h0c0.1,0.8,0.1,2.2,0.1,3.4v2.5h-1.4V9.2h2.3
			c0.6,1.8,1.2,4.1,1.4,5.1h0c0.2-0.9,1-3.3,1.6-5.1h2.2v6.9h-1.5V13.5z"/>
	</g>
</g>
<g>
	<g>
		<defs>
			<rect id="SVGID_5_" x="148" width="74" height="24"/>
		</defs>
		<clipPath id="SVGID_6_">
			<use xlink:href="#SVGID_5_"  style="overflow:visible;"/>
		</clipPath>
		<rect x="148" class="st13" width="74" height="24"/>
		<rect x="172.1" class="st14" width="0.9" height="24"/>
		<rect x="173" class="st15" width="49" height="24"/>
		<rect x="154" y="15" class="st16" width="3" height="3"/>
		<rect x="161" y="7" class="st16" width="3" height="3"/>
		
			<rect x="155.4" y="11.9" transform="matrix(0.6159 -0.7878 0.7878 0.6159 51.3594 130.0494)" class="st17" width="7.3" height="1"/>
		<path class="st18" d="M188.4,10.4h-2.2V9.2h5.9v1.2h-2.2v5.7h-1.6V10.4z M194.3,13.3v2.8h-1.5V9.2h3.2c1.6,0,2.4,0.8,2.4,1.9
			c0,0.9-0.5,1.4-1,1.6c0.4,0.1,0.9,0.5,0.9,1.7v0.3c0,0.5,0,1,0.1,1.3h-1.5c-0.1-0.3-0.1-0.8-0.1-1.5v-0.1c0-0.8-0.2-1.1-1.4-1.1
			H194.3z M194.3,12.2h1.3c0.8,0,1.2-0.3,1.2-0.9c0-0.6-0.4-0.9-1.1-0.9h-1.3V12.2z M201,9.2v6.9h-1.6V9.2H201z M208.5,13.5
			c0-1.2,0-2.5,0.1-3.3h0c-0.3,1.4-1.1,3.7-1.7,5.9h-1.3c-0.5-1.9-1.3-4.5-1.6-5.9h0c0.1,0.8,0.1,2.2,0.1,3.4v2.5h-1.4V9.2h2.3
			c0.6,1.8,1.2,4.1,1.4,5.1h0c0.2-0.9,1-3.3,1.6-5.1h2.2v6.9h-1.5V13.5z"/>
	</g>
</g>
</svg>
