<?xml version="1.0" encoding="utf-8"?>
<!-- Generator: Adobe Illustrator 24.0.0, SVG Export Plug-In . SVG Version: 6.00 Build 0)  -->
<svg version="1.1" id="Layer_1" xmlns="http://www.w3.org/2000/svg" xmlns:xlink="http://www.w3.org/1999/xlink" x="0px" y="0px"
	 viewBox="0 0 222 24" style="enable-background:new 0 0 222 24;" xml:space="preserve">
<style type="text/css">
	.st0{clip-path:url(#SVGID_2_);fill:#B7B7B7;}
	.st1{clip-path:url(#SVGID_2_);fill:#404040;}
	.st2{clip-path:url(#SVGID_2_);fill:#BDBD3F;}
	.st3{clip-path:url(#SVGID_2_);fill:none;stroke:#404040;stroke-miterlimit:10;}
	.st4{clip-path:url(#SVGID_2_);fill:#3E3E3E;}
	.st5{clip-path:url(#SVGID_2_);}
	.st6{opacity:0.9;}
	.st7{clip-path:url(#SVGID_4_);fill:#B7B7B7;}
	.st8{clip-path:url(#SVGID_4_);fill:#404040;}
	.st9{clip-path:url(#SVGID_4_);fill:#BDBD3F;}
	.st10{clip-path:url(#SVGID_4_);fill:none;stroke:#404040;stroke-miterlimit:10;}
	.st11{clip-path:url(#SVGID_4_);fill:#3E3E3E;}
	.st12{clip-path:url(#SVGID_4_);}
	.st13{clip-path:url(#SVGID_6_);fill:#B7B7B7;}
	.st14{clip-path:url(#SVGID_6_);fill:#404040;}
	.st15{clip-path:url(#SVGID_6_);fill:#BDBD3F;}
	.st16{clip-path:url(#SVGID_6_);fill:none;stroke:#404040;stroke-miterlimit:10;}
	.st17{clip-path:url(#SVGID_6_);fill:#3E3E3E;}
	.st18{clip-path:url(#SVGID_6_);}
</style>
<g>
	<g>
		<defs>
			<rect id="SVGID_1_" width="74" height="24"/>
		</defs>
		<clipPath id="SVGID_2_">
			<use xlink:href="#SVGID_1_"  style="overflow:visible;"/>
		</clipPath>
		<rect class="st0" width="74" height="24"/>
		<rect x="24.1" class="st1" width="0.9" height="24"/>
		<rect x="25" class="st2" width="49" height="24"/>
		<rect x="6" y="15" class="st3" width="3" height="3"/>
		<rect x="13" y="7" class="st3" width="3" height="3"/>
		<rect x="7.4" y="11.9" transform="matrix(0.6159 -0.7878 0.7878 0.6159 -5.4909 13.4487)" class="st4" width="7.3" height="1"/>
		<path class="st5" d="M34.5,10.3h-2.2V9.1h5.9v1.2h-2.2V16h-1.6V10.3z M45.3,12.5c0,1.9-1.2,3.6-3.5,3.6c-2.3,0-3.4-1.6-3.4-3.5
			c0-2,1.3-3.5,3.5-3.5C44,9,45.3,10.4,45.3,12.5z M40,12.5c0,1.3,0.6,2.4,1.9,2.4c1.4,0,1.9-1.1,1.9-2.3c0-1.3-0.6-2.3-1.9-2.3
			C40.5,10.2,40,11.2,40,12.5z M47.9,9.1v4.1c0,1.3,0.7,1.7,1.5,1.7c0.9,0,1.4-0.5,1.4-1.7V9.1h1.6v4c0,2.4-1.4,3-3,3
			c-1.6,0-3-0.6-3-2.9V9.1H47.9z M59.8,13.9c-0.3,1.3-1.3,2.2-3.1,2.2c-2.3,0-3.4-1.5-3.4-3.5c0-1.9,1.1-3.6,3.4-3.6
			c1.9,0,2.8,1.1,3,2.2h-1.6c-0.1-0.5-0.5-1.1-1.5-1.1c-1.3,0-1.8,1.1-1.8,2.4c0,1.2,0.4,2.4,1.8,2.4c1,0,1.3-0.7,1.5-1.1H59.8z
			 M60.7,9.1h1.6v2.7h2.9V9.1h1.6V16h-1.6v-3h-2.9v3h-1.6V9.1z"/>
	</g>
</g>
<g class="st6">
	<g>
		<defs>
			<rect id="SVGID_3_" x="74" width="74" height="24"/>
		</defs>
		<clipPath id="SVGID_4_">
			<use xlink:href="#SVGID_3_"  style="overflow:visible;"/>
		</clipPath>
		<rect x="74" class="st7" width="74" height="24"/>
		<rect x="98.1" class="st8" width="0.9" height="24"/>
		<rect x="99" class="st9" width="49" height="24"/>
		<rect x="80" y="15" class="st10" width="3" height="3"/>
		<rect x="87" y="7" class="st10" width="3" height="3"/>
		<rect x="81.4" y="11.9" transform="matrix(0.6159 -0.7878 0.7878 0.6159 22.9343 71.749)" class="st11" width="7.3" height="1"/>
		<path class="st12" d="M108.5,10.3h-2.2V9.1h5.9v1.2h-2.2V16h-1.6V10.3z M119.3,12.5c0,1.9-1.2,3.6-3.5,3.6c-2.3,0-3.4-1.6-3.4-3.5
			c0-2,1.3-3.5,3.5-3.5C118,9,119.3,10.4,119.3,12.5z M114,12.5c0,1.3,0.6,2.4,1.9,2.4c1.4,0,1.9-1.1,1.9-2.3c0-1.3-0.6-2.3-1.9-2.3
			C114.5,10.2,114,11.2,114,12.5z M121.9,9.1v4.1c0,1.3,0.7,1.7,1.5,1.7c0.9,0,1.4-0.5,1.4-1.7V9.1h1.6v4c0,2.4-1.4,3-3,3
			c-1.6,0-3-0.6-3-2.9V9.1H121.9z M133.8,13.9c-0.3,1.3-1.3,2.2-3.1,2.2c-2.3,0-3.4-1.5-3.4-3.5c0-1.9,1.1-3.6,3.4-3.6
			c1.9,0,2.8,1.1,3,2.2h-1.6c-0.1-0.5-0.5-1.1-1.5-1.1c-1.3,0-1.8,1.1-1.8,2.4c0,1.2,0.4,2.4,1.8,2.4c1,0,1.3-0.7,1.5-1.1H133.8z
			 M134.7,9.1h1.6v2.7h2.9V9.1h1.6V16h-1.6v-3h-2.9v3h-1.6V9.1z"/>
	</g>
</g>
<g>
	<g>
		<defs>
			<rect id="SVGID_5_" x="148" width="74" height="24"/>
		</defs>
		<clipPath id="SVGID_6_">
			<use xlink:href="#SVGID_5_"  style="overflow:visible;"/>
		</clipPath>
		<rect x="148" class="st13" width="74" height="24"/>
		<rect x="172.1" class="st14" width="0.9" height="24"/>
		<rect x="173" class="st15" width="49" height="24"/>
		<rect x="154" y="15" class="st16" width="3" height="3"/>
		<rect x="161" y="7" class="st16" width="3" height="3"/>
		
			<rect x="155.4" y="11.9" transform="matrix(0.6159 -0.7878 0.7878 0.6159 51.3594 130.0494)" class="st17" width="7.3" height="1"/>
		<path class="st18" d="M182.5,10.3h-2.2V9.1h5.9v1.2h-2.2V16h-1.6V10.3z M193.3,12.5c0,1.9-1.2,3.6-3.5,3.6c-2.3,0-3.4-1.6-3.4-3.5
			c0-2,1.3-3.5,3.5-3.5C192,9,193.3,10.4,193.3,12.5z M188,12.5c0,1.3,0.6,2.4,1.9,2.4c1.4,0,1.9-1.1,1.9-2.3c0-1.3-0.6-2.3-1.9-2.3
			C188.5,10.2,188,11.2,188,12.5z M195.9,9.1v4.1c0,1.3,0.7,1.7,1.5,1.7c0.9,0,1.4-0.5,1.4-1.7V9.1h1.6v4c0,2.4-1.4,3-3,3
			c-1.6,0-3-0.6-3-2.9V9.1H195.9z M207.8,13.9c-0.3,1.3-1.3,2.2-3.1,2.2c-2.3,0-3.4-1.5-3.4-3.5c0-1.9,1.1-3.6,3.4-3.6
			c1.9,0,2.8,1.1,3,2.2h-1.6c-0.1-0.5-0.5-1.1-1.5-1.1c-1.3,0-1.8,1.1-1.8,2.4c0,1.2,0.4,2.4,1.8,2.4c1,0,1.3-0.7,1.5-1.1H207.8z
			 M208.7,9.1h1.6v2.7h2.9V9.1h1.6V16h-1.6v-3h-2.9v3h-1.6V9.1z"/>
	</g>
</g>
</svg>
