<?xml version="1.0" encoding="utf-8"?>
<!-- Generator: Adobe Illustrator 24.0.0, SVG Export Plug-In . SVG Version: 6.00 Build 0)  -->
<svg version="1.1" id="Layer_1" xmlns="http://www.w3.org/2000/svg" xmlns:xlink="http://www.w3.org/1999/xlink" x="0px" y="0px"
	 viewBox="0 0 48 16" style="enable-background:new 0 0 48 16;" xml:space="preserve">
<style type="text/css">
	.st0{clip-path:url(#SVGID_2_);fill:#B7B7B7;}
	.st1{clip-path:url(#SVGID_2_);fill:#1F1F1F;}
	.st2{clip-path:url(#SVGID_2_);}
	.st3{clip-path:url(#SVGID_4_);fill:#1F1F1F;}
	.st4{opacity:0.9;}
	.st5{clip-path:url(#SVGID_6_);fill:#B7B7B7;}
	.st6{clip-path:url(#SVGID_6_);fill:#1F1F1F;}
	.st7{clip-path:url(#SVGID_6_);}
	.st8{clip-path:url(#SVGID_8_);fill:#1F1F1F;}
	.st9{clip-path:url(#SVGID_10_);fill:#B7B7B7;}
	.st10{clip-path:url(#SVGID_10_);fill:#1F1F1F;}
	.st11{clip-path:url(#SVGID_10_);}
	.st12{clip-path:url(#SVGID_12_);fill:#1F1F1F;}
</style>
<g>
	<g>
		<defs>
			<rect id="SVGID_1_" width="16" height="16"/>
		</defs>
		<clipPath id="SVGID_2_">
			<use xlink:href="#SVGID_1_"  style="overflow:visible;"/>
		</clipPath>
		<rect class="st0" width="16" height="16"/>
		<rect x="4" y="10.1" class="st1" width="8" height="1.9"/>
		<g class="st2">
			<defs>
				<rect id="SVGID_3_" width="16" height="16"/>
			</defs>
			<clipPath id="SVGID_4_">
				<use xlink:href="#SVGID_3_"  style="overflow:visible;"/>
			</clipPath>
			<path class="st3" d="M8.5,6.6V4c0-0.3-0.1-0.5-0.3-0.7C8,3.1,7.8,3,7.5,3H4v1h3.1c0.3,0,0.3,0,0.4,0c0,0.1,0,0.1,0,0.4v2.1H4.6
				L8,9.9l3.4-3.3H8.5z"/>
		</g>
	</g>
</g>
<g class="st4">
	<g>
		<defs>
			<rect id="SVGID_5_" x="16" width="16" height="16"/>
		</defs>
		<clipPath id="SVGID_6_">
			<use xlink:href="#SVGID_5_"  style="overflow:visible;"/>
		</clipPath>
		<rect x="16" class="st5" width="16" height="16"/>
		<rect x="20" y="10.1" class="st6" width="8" height="1.9"/>
		<g class="st7">
			<defs>
				<rect id="SVGID_7_" x="16" width="16" height="16"/>
			</defs>
			<clipPath id="SVGID_8_">
				<use xlink:href="#SVGID_7_"  style="overflow:visible;"/>
			</clipPath>
			<path class="st8" d="M24.5,6.6V4c0-0.3-0.1-0.5-0.3-0.7C24,3.1,23.8,3,23.5,3H20v1h3.1c0.3,0,0.3,0,0.4,0c0,0.1,0,0.1,0,0.4v2.1
				h-2.9L24,9.9l3.4-3.3H24.5z"/>
		</g>
	</g>
</g>
<g>
	<g>
		<defs>
			<rect id="SVGID_9_" x="32" width="16" height="16"/>
		</defs>
		<clipPath id="SVGID_10_">
			<use xlink:href="#SVGID_9_"  style="overflow:visible;"/>
		</clipPath>
		<rect x="32" class="st9" width="16" height="16"/>
		<rect x="36" y="10.1" class="st10" width="8" height="1.9"/>
		<g class="st11">
			<defs>
				<rect id="SVGID_11_" x="32" width="16" height="16"/>
			</defs>
			<clipPath id="SVGID_12_">
				<use xlink:href="#SVGID_11_"  style="overflow:visible;"/>
			</clipPath>
			<path class="st12" d="M40.5,6.6V4c0-0.3-0.1-0.5-0.3-0.7C40,3.1,39.8,3,39.5,3H36v1h3.1c0.3,0,0.3,0,0.4,0c0,0.1,0,0.1,0,0.4v2.1
				h-2.9L40,9.9l3.4-3.3H40.5z"/>
		</g>
	</g>
</g>
</svg>
