<?xml version="1.0" encoding="utf-8"?>
<!-- Generator: Adobe Illustrator 24.0.0, SVG Export Plug-In . SVG Version: 6.00 Build 0)  -->
<svg version="1.1" id="Layer_1" xmlns="http://www.w3.org/2000/svg" xmlns:xlink="http://www.w3.org/1999/xlink" x="0px" y="0px"
	 viewBox="0 0 48 16" style="enable-background:new 0 0 48 16;" xml:space="preserve">
<style type="text/css">
	.st0{clip-path:url(#SVGID_2_);}
	.st1{clip-path:url(#SVGID_4_);fill:#B7B7B7;}
	.st2{clip-path:url(#SVGID_4_);}
	.st3{opacity:0.5;clip-path:url(#SVGID_6_);}
	.st4{clip-path:url(#SVGID_8_);fill:#1F1F1F;}
	.st5{clip-path:url(#SVGID_10_);fill:#1F1F1F;}
	.st6{opacity:0.9;}
	.st7{clip-path:url(#SVGID_12_);}
	.st8{clip-path:url(#SVGID_14_);fill:#B7B7B7;}
	.st9{clip-path:url(#SVGID_14_);}
	.st10{opacity:0.5;clip-path:url(#SVGID_16_);}
	.st11{clip-path:url(#SVGID_18_);fill:#1F1F1F;}
	.st12{clip-path:url(#SVGID_20_);fill:#1F1F1F;}
	.st13{clip-path:url(#SVGID_22_);}
	.st14{clip-path:url(#SVGID_24_);fill:#B7B7B7;}
	.st15{clip-path:url(#SVGID_24_);}
	.st16{opacity:0.5;clip-path:url(#SVGID_26_);}
	.st17{clip-path:url(#SVGID_28_);fill:#1F1F1F;}
	.st18{clip-path:url(#SVGID_30_);fill:#1F1F1F;}
</style>
<g>
	<g>
		<defs>
			<rect id="SVGID_1_" width="16" height="16"/>
		</defs>
		<clipPath id="SVGID_2_">
			<use xlink:href="#SVGID_1_"  style="overflow:visible;"/>
		</clipPath>
		<g class="st0">
			<defs>
				<rect id="SVGID_3_" width="16" height="16"/>
			</defs>
			<clipPath id="SVGID_4_">
				<use xlink:href="#SVGID_3_"  style="overflow:visible;"/>
			</clipPath>
			<rect class="st1" width="16" height="16"/>
			<g class="st2">
				<defs>
					<rect id="SVGID_5_" width="16" height="16"/>
				</defs>
				<clipPath id="SVGID_6_">
					<use xlink:href="#SVGID_5_"  style="overflow:visible;"/>
				</clipPath>
				<g class="st3">
					<g>
						<defs>
							<rect id="SVGID_7_" x="4" y="10.1" width="8" height="1.9"/>
						</defs>
						<clipPath id="SVGID_8_">
							<use xlink:href="#SVGID_7_"  style="overflow:visible;"/>
						</clipPath>
						<rect x="4" y="10.1" class="st4" width="8" height="1.9"/>
					</g>
				</g>
				<g class="st3">
					<g>
						<defs>
							<rect id="SVGID_9_" x="4" y="3" width="7.4" height="6.9"/>
						</defs>
						<clipPath id="SVGID_10_">
							<use xlink:href="#SVGID_9_"  style="overflow:visible;"/>
						</clipPath>
						<path class="st5" d="M8.5,6.6V4c0-0.3-0.1-0.5-0.3-0.7C8,3.1,7.8,3,7.5,3H4v1h3.1c0.3,0,0.3,0,0.4,0c0,0.1,0,0.1,0,0.4v2.1
							H4.6L8,9.9l3.4-3.3H8.5z"/>
					</g>
				</g>
			</g>
		</g>
	</g>
</g>
<g class="st6">
	<g>
		<defs>
			<rect id="SVGID_11_" x="16" width="16" height="16"/>
		</defs>
		<clipPath id="SVGID_12_">
			<use xlink:href="#SVGID_11_"  style="overflow:visible;"/>
		</clipPath>
		<g class="st7">
			<defs>
				<rect id="SVGID_13_" x="16" width="16" height="16"/>
			</defs>
			<clipPath id="SVGID_14_">
				<use xlink:href="#SVGID_13_"  style="overflow:visible;"/>
			</clipPath>
			<rect x="16" class="st8" width="16" height="16"/>
			<g class="st9">
				<defs>
					<rect id="SVGID_15_" x="16" width="16" height="16"/>
				</defs>
				<clipPath id="SVGID_16_">
					<use xlink:href="#SVGID_15_"  style="overflow:visible;"/>
				</clipPath>
				<g class="st10">
					<g>
						<defs>
							<rect id="SVGID_17_" x="20" y="10.1" width="8" height="1.9"/>
						</defs>
						<clipPath id="SVGID_18_">
							<use xlink:href="#SVGID_17_"  style="overflow:visible;"/>
						</clipPath>
						<rect x="20" y="10.1" class="st11" width="8" height="1.9"/>
					</g>
				</g>
				<g class="st10">
					<g>
						<defs>
							<rect id="SVGID_19_" x="20" y="3" width="7.4" height="6.9"/>
						</defs>
						<clipPath id="SVGID_20_">
							<use xlink:href="#SVGID_19_"  style="overflow:visible;"/>
						</clipPath>
						<path class="st12" d="M24.5,6.6V4c0-0.3-0.1-0.5-0.3-0.7C24,3.1,23.8,3,23.5,3H20v1h3.1c0.3,0,0.3,0,0.4,0c0,0.1,0,0.1,0,0.4
							v2.1h-2.9L24,9.9l3.4-3.3H24.5z"/>
					</g>
				</g>
			</g>
		</g>
	</g>
</g>
<g>
	<g>
		<defs>
			<rect id="SVGID_21_" x="32" width="16" height="16"/>
		</defs>
		<clipPath id="SVGID_22_">
			<use xlink:href="#SVGID_21_"  style="overflow:visible;"/>
		</clipPath>
		<g class="st13">
			<defs>
				<rect id="SVGID_23_" x="32" width="16" height="16"/>
			</defs>
			<clipPath id="SVGID_24_">
				<use xlink:href="#SVGID_23_"  style="overflow:visible;"/>
			</clipPath>
			<rect x="32" class="st14" width="16" height="16"/>
			<g class="st15">
				<defs>
					<rect id="SVGID_25_" x="32" width="16" height="16"/>
				</defs>
				<clipPath id="SVGID_26_">
					<use xlink:href="#SVGID_25_"  style="overflow:visible;"/>
				</clipPath>
				<g class="st16">
					<g>
						<defs>
							<rect id="SVGID_27_" x="36" y="10.1" width="8" height="1.9"/>
						</defs>
						<clipPath id="SVGID_28_">
							<use xlink:href="#SVGID_27_"  style="overflow:visible;"/>
						</clipPath>
						<rect x="36" y="10.1" class="st17" width="8" height="1.9"/>
					</g>
				</g>
				<g class="st16">
					<g>
						<defs>
							<rect id="SVGID_29_" x="36" y="3" width="7.4" height="6.9"/>
						</defs>
						<clipPath id="SVGID_30_">
							<use xlink:href="#SVGID_29_"  style="overflow:visible;"/>
						</clipPath>
						<path class="st18" d="M40.5,6.6V4c0-0.3-0.1-0.5-0.3-0.7C40,3.1,39.8,3,39.5,3H36v1h3.1c0.3,0,0.3,0,0.4,0c0,0.1,0,0.1,0,0.4
							v2.1h-2.9L40,9.9l3.4-3.3H40.5z"/>
					</g>
				</g>
			</g>
		</g>
	</g>
</g>
</svg>
