<?xml version="1.0" encoding="utf-8"?>
<!-- Generator: Adobe Illustrator 24.0.0, SVG Export Plug-In . SVG Version: 6.00 Build 0)  -->
<svg version="1.1" id="Layer_1" xmlns="http://www.w3.org/2000/svg" xmlns:xlink="http://www.w3.org/1999/xlink" x="0px" y="0px"
	 viewBox="0 0 48 16" style="enable-background:new 0 0 48 16;" xml:space="preserve">
<style type="text/css">
	.st0{clip-path:url(#SVGID_2_);fill:#B7B7B7;}
	.st1{clip-path:url(#SVGID_2_);fill:#1F1F1F;}
	.st2{opacity:0.9;}
	.st3{clip-path:url(#SVGID_4_);fill:#B7B7B7;}
	.st4{clip-path:url(#SVGID_4_);fill:#1F1F1F;}
	.st5{clip-path:url(#SVGID_6_);fill:#B7B7B7;}
	.st6{clip-path:url(#SVGID_6_);fill:#1F1F1F;}
</style>
<g>
	<g>
		<defs>
			<rect id="SVGID_1_" width="16" height="16"/>
		</defs>
		<clipPath id="SVGID_2_">
			<use xlink:href="#SVGID_1_"  style="overflow:visible;"/>
		</clipPath>
		<rect class="st0" width="16" height="16"/>
		<polygon class="st1" points="8.1,7.3 4.6,4 4,4.7 7.4,8 4.2,11.4 4.8,12 8.1,8.7 11.4,11.8 12,11.2 8.8,8 12,4.6 11.3,4 		"/>
	</g>
</g>
<g class="st2">
	<g>
		<defs>
			<rect id="SVGID_3_" x="16" width="16" height="16"/>
		</defs>
		<clipPath id="SVGID_4_">
			<use xlink:href="#SVGID_3_"  style="overflow:visible;"/>
		</clipPath>
		<rect x="16" class="st3" width="16" height="16"/>
		<polygon class="st4" points="24.1,7.3 20.6,4 20,4.7 23.4,8 20.2,11.4 20.8,12 24.1,8.7 27.4,11.8 28,11.2 24.8,8 28,4.6 27.3,4 
					"/>
	</g>
</g>
<g>
	<g>
		<defs>
			<rect id="SVGID_5_" x="32" width="16" height="16"/>
		</defs>
		<clipPath id="SVGID_6_">
			<use xlink:href="#SVGID_5_"  style="overflow:visible;"/>
		</clipPath>
		<rect x="32" class="st5" width="16" height="16"/>
		<polygon class="st6" points="40.1,7.3 36.6,4 36,4.7 39.4,8 36.2,11.4 36.8,12 40.1,8.7 43.4,11.8 44,11.2 40.8,8 44,4.6 43.3,4 
					"/>
	</g>
</g>
</svg>
