<?xml version="1.0" encoding="utf-8"?>
<!-- Generator: Adobe Illustrator 24.0.0, SVG Export Plug-In . SVG Version: 6.00 Build 0)  -->
<svg version="1.1" id="Layer_1" xmlns="http://www.w3.org/2000/svg" xmlns:xlink="http://www.w3.org/1999/xlink" x="0px" y="0px"
	 viewBox="0 0 48 16" style="enable-background:new 0 0 48 16;" xml:space="preserve">
<style type="text/css">
	.st0{clip-path:url(#SVGID_2_);}
	.st1{clip-path:url(#SVGID_4_);fill:#B7B7B7;}
	.st2{clip-path:url(#SVGID_4_);}
	.st3{opacity:0.5;clip-path:url(#SVGID_6_);}
	.st4{clip-path:url(#SVGID_8_);fill:#1F1F1F;}
	.st5{opacity:0.9;}
	.st6{clip-path:url(#SVGID_10_);}
	.st7{clip-path:url(#SVGID_12_);fill:#B7B7B7;}
	.st8{clip-path:url(#SVGID_12_);}
	.st9{opacity:0.5;clip-path:url(#SVGID_14_);}
	.st10{clip-path:url(#SVGID_16_);fill:#1F1F1F;}
	.st11{clip-path:url(#SVGID_18_);}
	.st12{clip-path:url(#SVGID_20_);fill:#B7B7B7;}
	.st13{clip-path:url(#SVGID_20_);}
	.st14{opacity:0.5;clip-path:url(#SVGID_22_);}
	.st15{clip-path:url(#SVGID_24_);fill:#1F1F1F;}
</style>
<g>
	<g>
		<defs>
			<rect id="SVGID_1_" width="16" height="16"/>
		</defs>
		<clipPath id="SVGID_2_">
			<use xlink:href="#SVGID_1_"  style="overflow:visible;"/>
		</clipPath>
		<g class="st0">
			<defs>
				<rect id="SVGID_3_" width="16" height="16"/>
			</defs>
			<clipPath id="SVGID_4_">
				<use xlink:href="#SVGID_3_"  style="overflow:visible;"/>
			</clipPath>
			<rect class="st1" width="16" height="16"/>
			<g class="st2">
				<defs>
					<rect id="SVGID_5_" width="16" height="16"/>
				</defs>
				<clipPath id="SVGID_6_">
					<use xlink:href="#SVGID_5_"  style="overflow:visible;"/>
				</clipPath>
				<g class="st3">
					<g>
						<defs>
							<rect id="SVGID_7_" x="2.1" y="4" width="11.8" height="8.1"/>
						</defs>
						<clipPath id="SVGID_8_">
							<use xlink:href="#SVGID_7_"  style="overflow:visible;"/>
						</clipPath>
						<path class="st4" d="M8,5c2,0,3.9,1.1,4.7,3C11.9,9.8,10,11,8,11S4.1,9.8,3.3,8C4.1,6.2,6,5,8,5 M8,4C5.3,4,3,5.6,2.1,8
							C3,10.4,5.3,12,8,12s5-1.7,5.9-4C13,5.6,10.7,4,8,4 M8,6.7c0.7,0,1.3,0.6,1.3,1.3S8.7,9.3,8,9.3S6.7,8.7,6.7,8S7.3,6.7,8,6.7
							 M8,5.6C6.7,5.6,5.6,6.7,5.6,8s1.1,2.4,2.4,2.4c1.3,0,2.4-1.1,2.4-2.4S9.3,5.6,8,5.6"/>
					</g>
				</g>
			</g>
		</g>
	</g>
</g>
<g class="st5">
	<g>
		<defs>
			<rect id="SVGID_9_" x="16" width="16" height="16"/>
		</defs>
		<clipPath id="SVGID_10_">
			<use xlink:href="#SVGID_9_"  style="overflow:visible;"/>
		</clipPath>
		<g class="st6">
			<defs>
				<rect id="SVGID_11_" x="16" width="16" height="16"/>
			</defs>
			<clipPath id="SVGID_12_">
				<use xlink:href="#SVGID_11_"  style="overflow:visible;"/>
			</clipPath>
			<rect x="16" class="st7" width="16" height="16"/>
			<g class="st8">
				<defs>
					<rect id="SVGID_13_" x="16" width="16" height="16"/>
				</defs>
				<clipPath id="SVGID_14_">
					<use xlink:href="#SVGID_13_"  style="overflow:visible;"/>
				</clipPath>
				<g class="st9">
					<g>
						<defs>
							<rect id="SVGID_15_" x="18.1" y="4" width="11.8" height="8.1"/>
						</defs>
						<clipPath id="SVGID_16_">
							<use xlink:href="#SVGID_15_"  style="overflow:visible;"/>
						</clipPath>
						<path class="st10" d="M24,5c2,0,3.9,1.1,4.7,3c-0.9,1.8-2.7,3-4.7,3s-3.9-1.1-4.7-3C20.1,6.2,22,5,24,5 M24,4
							c-2.7,0-5,1.7-5.9,4c0.9,2.4,3.2,4,5.9,4s5-1.7,5.9-4C29,5.6,26.7,4,24,4 M24,6.7c0.7,0,1.3,0.6,1.3,1.3S24.7,9.3,24,9.3
							S22.7,8.7,22.7,8S23.3,6.7,24,6.7 M24,5.6c-1.3,0-2.4,1.1-2.4,2.4s1.1,2.4,2.4,2.4c1.3,0,2.4-1.1,2.4-2.4S25.3,5.6,24,5.6"/>
					</g>
				</g>
			</g>
		</g>
	</g>
</g>
<g>
	<g>
		<defs>
			<rect id="SVGID_17_" x="32" width="16" height="16"/>
		</defs>
		<clipPath id="SVGID_18_">
			<use xlink:href="#SVGID_17_"  style="overflow:visible;"/>
		</clipPath>
		<g class="st11">
			<defs>
				<rect id="SVGID_19_" x="32" width="16" height="16"/>
			</defs>
			<clipPath id="SVGID_20_">
				<use xlink:href="#SVGID_19_"  style="overflow:visible;"/>
			</clipPath>
			<rect x="32" class="st12" width="16" height="16"/>
			<g class="st13">
				<defs>
					<rect id="SVGID_21_" x="32" width="16" height="16"/>
				</defs>
				<clipPath id="SVGID_22_">
					<use xlink:href="#SVGID_21_"  style="overflow:visible;"/>
				</clipPath>
				<g class="st14">
					<g>
						<defs>
							<rect id="SVGID_23_" x="34.1" y="4" width="11.8" height="8.1"/>
						</defs>
						<clipPath id="SVGID_24_">
							<use xlink:href="#SVGID_23_"  style="overflow:visible;"/>
						</clipPath>
						<path class="st15" d="M40,5c2,0,3.9,1.1,4.7,3c-0.9,1.8-2.7,3-4.7,3s-3.9-1.1-4.7-3C36.1,6.2,38,5,40,5 M40,4
							c-2.7,0-5,1.7-5.9,4c0.9,2.4,3.2,4,5.9,4s5-1.7,5.9-4C45,5.6,42.7,4,40,4 M40,6.7c0.7,0,1.3,0.6,1.3,1.3S40.7,9.3,40,9.3
							S38.7,8.7,38.7,8S39.3,6.7,40,6.7 M40,5.6c-1.3,0-2.4,1.1-2.4,2.4s1.1,2.4,2.4,2.4c1.3,0,2.4-1.1,2.4-2.4S41.3,5.6,40,5.6"/>
					</g>
				</g>
			</g>
		</g>
	</g>
</g>
</svg>
