<?xml version="1.0" encoding="utf-8"?>
<!-- Generator: Adobe Illustrator 24.0.0, SVG Export Plug-In . SVG Version: 6.00 Build 0)  -->
<svg version="1.1" id="Layer_1" xmlns="http://www.w3.org/2000/svg" xmlns:xlink="http://www.w3.org/1999/xlink" x="0px" y="0px"
	 viewBox="0 0 90 30" style="enable-background:new 0 0 90 30;" xml:space="preserve">
<style type="text/css">
	.st0{fill:#B5B5B5;}
	.st1{fill:#A1A1A1;}
	.st2{fill:#D7D7D7;}
	.st3{display:none;}
	.st4{display:inline;fill:#D7D7D7;}
	.st5{clip-path:url(#SVGID_2_);fill:none;stroke:#000000;stroke-miterlimit:10;}
	.st6{clip-path:url(#SVGID_2_);}
	.st7{opacity:0.6;}
	.st8{clip-path:url(#SVGID_4_);fill:none;stroke:#000000;stroke-miterlimit:10;}
	.st9{clip-path:url(#SVGID_4_);}
	.st10{clip-path:url(#SVGID_6_);fill:none;stroke:#000000;stroke-miterlimit:10;}
	.st11{clip-path:url(#SVGID_6_);}
</style>
<g>
	<rect y="3" class="st0" width="30" height="24"/>
	<rect x="30" y="3" class="st1" width="30" height="24"/>
	<rect x="60" y="3" class="st2" width="30" height="24"/>
</g>
<g class="st3">
	<rect y="3" class="st4" width="30" height="24"/>
	<rect x="30" y="3" class="st4" width="30" height="24"/>
	<rect x="60" y="3" class="st4" width="30" height="24"/>
</g>
<g>
	<g>
		<defs>
			<rect id="SVGID_1_" width="30" height="30"/>
		</defs>
		<clipPath id="SVGID_2_">
			<use xlink:href="#SVGID_1_"  style="overflow:visible;"/>
		</clipPath>
		<rect x="10" y="12" class="st5" width="13" height="10"/>
		<rect x="5.5" y="7.5" class="st5" width="14" height="10"/>
		<rect x="12" y="8" class="st6" width="8" height="2"/>
	</g>
</g>
<g class="st7">
	<g>
		<defs>
			<rect id="SVGID_3_" x="30" width="30" height="30"/>
		</defs>
		<clipPath id="SVGID_4_">
			<use xlink:href="#SVGID_3_"  style="overflow:visible;"/>
		</clipPath>
		<rect x="40" y="12" class="st8" width="13" height="10"/>
		<rect x="35.5" y="7.5" class="st8" width="14" height="10"/>
		<rect x="42" y="8" class="st9" width="8" height="2"/>
	</g>
</g>
<g>
	<g>
		<defs>
			<rect id="SVGID_5_" x="60" width="30" height="30"/>
		</defs>
		<clipPath id="SVGID_6_">
			<use xlink:href="#SVGID_5_"  style="overflow:visible;"/>
		</clipPath>
		<rect x="70" y="12" class="st10" width="13" height="10"/>
		<rect x="65.5" y="7.5" class="st10" width="14" height="10"/>
		<rect x="72" y="8" class="st11" width="8" height="2"/>
	</g>
</g>
</svg>
