<?xml version="1.0" encoding="utf-8"?>
<!-- Generator: Adobe Illustrator 24.0.0, SVG Export Plug-In . SVG Version: 6.00 Build 0)  -->
<svg version="1.1" id="Layer_1" xmlns="http://www.w3.org/2000/svg" xmlns:xlink="http://www.w3.org/1999/xlink" x="0px" y="0px"
	 viewBox="0 0 90 30" style="enable-background:new 0 0 90 30;" xml:space="preserve">
<style type="text/css">
	.st0{fill:#7F7F7F;}
	.st1{clip-path:url(#SVGID_2_);}
	.st2{clip-path:url(#SVGID_4_);fill:#B5B5B5;}
	.st3{opacity:0.6;}
	.st4{clip-path:url(#SVGID_6_);}
	.st5{clip-path:url(#SVGID_8_);fill:#B5B5B5;}
	.st6{clip-path:url(#SVGID_10_);}
	.st7{clip-path:url(#SVGID_12_);fill:#B5B5B5;}
</style>
<rect x="30" class="st0" width="30" height="30"/>
<rect class="st0" width="30" height="30"/>
<rect x="60" class="st0" width="30" height="30"/>
<g>
	<g>
		<defs>
			<rect id="SVGID_1_" width="30" height="30"/>
		</defs>
		<clipPath id="SVGID_2_">
			<use xlink:href="#SVGID_1_"  style="overflow:visible;"/>
		</clipPath>
		<g class="st1">
			<defs>
				<rect id="SVGID_3_" width="30" height="30"/>
			</defs>
			<clipPath id="SVGID_4_">
				<use xlink:href="#SVGID_3_"  style="overflow:visible;"/>
			</clipPath>
			<path class="st2" d="M8.5,7.5h13c4.1,0,7.5,3.4,7.5,7.5c0,4.1-3.4,7.5-7.5,7.5h-13C4.4,22.5,1,19.1,1,15C1,10.9,4.4,7.5,8.5,7.5"
				/>
		</g>
		<path class="st1" d="M7.7,16.2c0.2,1,0.9,1.5,2,1.5c1.2,0,1.7-0.6,1.7-1.3c0-0.8-0.4-1.2-2-1.6c-2-0.5-2.7-1.2-2.7-2.4
			c0-1.3,0.9-2.3,2.8-2.3c2,0,2.9,1.2,3,2.3h-1.3c-0.1-0.7-0.6-1.3-1.8-1.3c-1,0-1.5,0.4-1.5,1.2c0,0.7,0.4,1,1.9,1.4
			c2.4,0.6,2.8,1.5,2.8,2.6c0,1.4-1,2.4-3.1,2.4c-2.1,0-3-1.1-3.2-2.4H7.7z M15,15.7c0,1.1,0.6,2,1.6,2c0.9,0,1.2-0.5,1.4-0.9h1.2
			c-0.2,0.8-0.9,1.9-2.6,1.9c-1.9,0-2.7-1.5-2.7-3.1c0-1.8,0.9-3.3,2.8-3.3c2,0,2.7,1.6,2.7,2.9c0,0.2,0,0.3,0,0.5H15z M18.1,14.9
			L18.1,14.9c0-0.9-0.5-1.7-1.5-1.7c-1,0-1.5,0.7-1.6,1.7H18.1z M19.9,12.4h1v-1.8h1.2v1.8h1.3v0.9h-1.3v3.5c0,0.6,0.1,0.8,0.7,0.8
			c0.1,0,0.3,0,0.5,0v0.9c-0.3,0.1-0.7,0.1-1,0.1c-1,0-1.4-0.5-1.4-1.5v-3.7h-1V12.4z"/>
	</g>
</g>
<g class="st3">
	<g>
		<defs>
			<rect id="SVGID_5_" x="30" width="30" height="30"/>
		</defs>
		<clipPath id="SVGID_6_">
			<use xlink:href="#SVGID_5_"  style="overflow:visible;"/>
		</clipPath>
		<g class="st4">
			<defs>
				<rect id="SVGID_7_" x="30" width="30" height="30"/>
			</defs>
			<clipPath id="SVGID_8_">
				<use xlink:href="#SVGID_7_"  style="overflow:visible;"/>
			</clipPath>
			<path class="st5" d="M38.5,7.5h13c4.1,0,7.5,3.4,7.5,7.5c0,4.1-3.4,7.5-7.5,7.5h-13c-4.1,0-7.5-3.4-7.5-7.5
				C31,10.9,34.4,7.5,38.5,7.5"/>
		</g>
		<path class="st4" d="M37.7,16.2c0.2,1,0.9,1.5,2,1.5c1.2,0,1.7-0.6,1.7-1.3c0-0.8-0.4-1.2-2-1.6c-2-0.5-2.7-1.2-2.7-2.4
			c0-1.3,0.9-2.3,2.8-2.3c2,0,2.9,1.2,3,2.3h-1.3c-0.1-0.7-0.6-1.3-1.8-1.3c-1,0-1.5,0.4-1.5,1.2c0,0.7,0.4,1,1.9,1.4
			c2.4,0.6,2.8,1.5,2.8,2.6c0,1.4-1,2.4-3.1,2.4c-2.1,0-3-1.1-3.2-2.4H37.7z M45,15.7c0,1.1,0.6,2,1.6,2c0.9,0,1.2-0.5,1.4-0.9h1.2
			c-0.2,0.8-0.9,1.9-2.6,1.9c-1.9,0-2.7-1.5-2.7-3.1c0-1.8,0.9-3.3,2.8-3.3c2,0,2.7,1.6,2.7,2.9c0,0.2,0,0.3,0,0.5H45z M48.1,14.9
			L48.1,14.9c0-0.9-0.5-1.7-1.5-1.7c-1,0-1.5,0.7-1.6,1.7H48.1z M49.9,12.4h1v-1.8h1.2v1.8h1.3v0.9h-1.3v3.5c0,0.6,0.1,0.8,0.7,0.8
			c0.1,0,0.3,0,0.5,0v0.9c-0.3,0.1-0.7,0.1-1,0.1c-1,0-1.4-0.5-1.4-1.5v-3.7h-1V12.4z"/>
	</g>
</g>
<g>
	<g>
		<defs>
			<rect id="SVGID_9_" x="60" width="30" height="30"/>
		</defs>
		<clipPath id="SVGID_10_">
			<use xlink:href="#SVGID_9_"  style="overflow:visible;"/>
		</clipPath>
		<g class="st6">
			<defs>
				<rect id="SVGID_11_" x="60" width="30" height="30"/>
			</defs>
			<clipPath id="SVGID_12_">
				<use xlink:href="#SVGID_11_"  style="overflow:visible;"/>
			</clipPath>
			<path class="st7" d="M68.5,7.5h13c4.1,0,7.5,3.4,7.5,7.5c0,4.1-3.4,7.5-7.5,7.5h-13c-4.1,0-7.5-3.4-7.5-7.5
				C61,10.9,64.4,7.5,68.5,7.5"/>
		</g>
		<path class="st6" d="M67.7,16.2c0.2,1,0.9,1.5,2,1.5c1.2,0,1.7-0.6,1.7-1.3c0-0.8-0.4-1.2-2-1.6c-2-0.5-2.7-1.2-2.7-2.4
			c0-1.3,0.9-2.3,2.8-2.3c2,0,2.9,1.2,3,2.3h-1.3c-0.1-0.7-0.6-1.3-1.8-1.3c-1,0-1.5,0.4-1.5,1.2c0,0.7,0.4,1,1.9,1.4
			c2.4,0.6,2.8,1.5,2.8,2.6c0,1.4-1,2.4-3.1,2.4c-2.1,0-3-1.1-3.2-2.4H67.7z M75,15.7c0,1.1,0.6,2,1.6,2c0.9,0,1.2-0.5,1.4-0.9h1.2
			c-0.2,0.8-0.9,1.9-2.6,1.9c-1.9,0-2.7-1.5-2.7-3.1c0-1.8,0.9-3.3,2.8-3.3c2,0,2.7,1.6,2.7,2.9c0,0.2,0,0.3,0,0.5H75z M78.1,14.9
			L78.1,14.9c0-0.9-0.5-1.7-1.5-1.7c-1,0-1.5,0.7-1.6,1.7H78.1z M79.9,12.4h1v-1.8h1.2v1.8h1.3v0.9h-1.3v3.5c0,0.6,0.1,0.8,0.7,0.8
			c0.1,0,0.3,0,0.5,0v0.9c-0.3,0.1-0.7,0.1-1,0.1c-1,0-1.4-0.5-1.4-1.5v-3.7h-1V12.4z"/>
	</g>
</g>
</svg>
