<?xml version="1.0" encoding="utf-8"?>
<!-- Generator: Adobe Illustrator 24.0.0, SVG Export Plug-In . SVG Version: 6.00 Build 0)  -->
<svg version="1.1" id="Layer_1" xmlns="http://www.w3.org/2000/svg" xmlns:xlink="http://www.w3.org/1999/xlink" x="0px" y="0px"
	 viewBox="0 0 90 30" style="enable-background:new 0 0 90 30;" xml:space="preserve">
<style type="text/css">
	.st0{fill:#B5B5B5;}
	.st1{fill:#A1A1A1;}
	.st2{fill:#D7D7D7;}
	.st3{display:none;}
	.st4{display:inline;fill:#D7D7D7;}
	.st5{clip-path:url(#SVGID_2_);}
	.st6{clip-path:url(#SVGID_2_);fill:none;stroke:#000000;stroke-miterlimit:10;}
	.st7{opacity:0.6;}
	.st8{clip-path:url(#SVGID_4_);}
	.st9{clip-path:url(#SVGID_4_);fill:none;stroke:#000000;stroke-miterlimit:10;}
	.st10{clip-path:url(#SVGID_6_);}
	.st11{clip-path:url(#SVGID_6_);fill:none;stroke:#000000;stroke-miterlimit:10;}
</style>
<g>
	<rect y="3" class="st0" width="30" height="24"/>
	<rect x="30" y="3" class="st1" width="30" height="24"/>
	<rect x="60" y="3" class="st2" width="30" height="24"/>
</g>
<g class="st3">
	<rect y="3" class="st4" width="30" height="24"/>
	<rect x="30" y="3" class="st4" width="30" height="24"/>
	<rect x="60" y="3" class="st4" width="30" height="24"/>
</g>
<g>
	<g>
		<defs>
			<rect id="SVGID_1_" width="30" height="30"/>
		</defs>
		<clipPath id="SVGID_2_">
			<use xlink:href="#SVGID_1_"  style="overflow:visible;"/>
		</clipPath>
		<polygon class="st5" points="17,13 10,13 8,13 8,15 8,20 10,20 10,15 17,15 		"/>
		<polygon class="st6" points="17,13 10,13 8,13 8,15 8,20 10,20 10,15 17,15 		"/>
		<polygon class="st5" points="23,14 16.6,9.8 16.6,18.3 		"/>
	</g>
</g>
<g class="st7">
	<g>
		<defs>
			<rect id="SVGID_3_" x="30" width="30" height="30"/>
		</defs>
		<clipPath id="SVGID_4_">
			<use xlink:href="#SVGID_3_"  style="overflow:visible;"/>
		</clipPath>
		<polygon class="st8" points="47,13 40,13 38,13 38,15 38,20 40,20 40,15 47,15 		"/>
		<polygon class="st9" points="47,13 40,13 38,13 38,15 38,20 40,20 40,15 47,15 		"/>
		<polygon class="st8" points="53,14 46.6,9.8 46.6,18.3 		"/>
	</g>
</g>
<g>
	<g>
		<defs>
			<rect id="SVGID_5_" x="60" width="30" height="30"/>
		</defs>
		<clipPath id="SVGID_6_">
			<use xlink:href="#SVGID_5_"  style="overflow:visible;"/>
		</clipPath>
		<polygon class="st10" points="77,13 70,13 68,13 68,15 68,20 70,20 70,15 77,15 		"/>
		<polygon class="st11" points="77,13 70,13 68,13 68,15 68,20 70,20 70,15 77,15 		"/>
		<polygon class="st10" points="83,14 76.6,9.8 76.6,18.3 		"/>
	</g>
</g>
</svg>
