<?xml version="1.0" encoding="utf-8"?>
<!-- Generator: Adobe Illustrator 24.0.0, SVG Export Plug-In . SVG Version: 6.00 Build 0)  -->
<svg version="1.1" id="Layer_1" xmlns="http://www.w3.org/2000/svg" xmlns:xlink="http://www.w3.org/1999/xlink" x="0px" y="0px"
	 viewBox="0 0 90 30" style="enable-background:new 0 0 90 30;" xml:space="preserve">
<style type="text/css">
	.st0{fill:#B5B5B5;}
	.st1{fill:#A1A1A1;}
	.st2{fill:#D7D7D7;}
	.st3{clip-path:url(#SVGID_2_);}
	.st4{opacity:0.6;}
	.st5{clip-path:url(#SVGID_4_);}
	.st6{clip-path:url(#SVGID_6_);}
</style>
<rect y="3" class="st0" width="30" height="24"/>
<rect x="30" y="3" class="st1" width="30" height="24"/>
<rect x="60" y="3" class="st2" width="30" height="24"/>
<g>
	<g>
		<defs>
			<rect id="SVGID_1_" width="30" height="30"/>
		</defs>
		<clipPath id="SVGID_2_">
			<use xlink:href="#SVGID_1_"  style="overflow:visible;"/>
		</clipPath>
		<rect x="5.9" y="13" class="st3" width="6.1" height="4"/>
		<rect x="13" y="13" class="st3" width="10" height="4"/>
		<rect x="13" y="8" class="st3" width="10" height="4"/>
		<rect x="13" y="18" class="st3" width="10" height="4.1"/>
		<rect x="5.9" y="8" class="st3" width="6.1" height="4"/>
		<rect x="5.9" y="18" class="st3" width="6.1" height="4.1"/>
	</g>
</g>
<g class="st4">
	<g>
		<defs>
			<rect id="SVGID_3_" x="30" width="30" height="30"/>
		</defs>
		<clipPath id="SVGID_4_">
			<use xlink:href="#SVGID_3_"  style="overflow:visible;"/>
		</clipPath>
		<rect x="35.9" y="13" class="st5" width="6.1" height="4"/>
		<rect x="43" y="13" class="st5" width="10" height="4"/>
		<rect x="43" y="8" class="st5" width="10" height="4"/>
		<rect x="43" y="18" class="st5" width="10" height="4.1"/>
		<rect x="35.9" y="8" class="st5" width="6.1" height="4"/>
		<rect x="35.9" y="18" class="st5" width="6.1" height="4.1"/>
	</g>
</g>
<g>
	<g>
		<defs>
			<rect id="SVGID_5_" x="60" width="30" height="30"/>
		</defs>
		<clipPath id="SVGID_6_">
			<use xlink:href="#SVGID_5_"  style="overflow:visible;"/>
		</clipPath>
		<rect x="65.9" y="13" class="st6" width="6.1" height="4"/>
		<rect x="73" y="13" class="st6" width="10" height="4"/>
		<rect x="73" y="8" class="st6" width="10" height="4"/>
		<rect x="73" y="18" class="st6" width="10" height="4.1"/>
		<rect x="65.9" y="8" class="st6" width="6.1" height="4"/>
		<rect x="65.9" y="18" class="st6" width="6.1" height="4.1"/>
	</g>
</g>
</svg>
