<?xml version="1.0" encoding="utf-8"?>
<!-- Generator: Adobe Illustrator 24.0.0, SVG Export Plug-In . SVG Version: 6.00 Build 0)  -->
<svg version="1.1" id="Layer_1" xmlns="http://www.w3.org/2000/svg" xmlns:xlink="http://www.w3.org/1999/xlink" x="0px" y="0px"
	 viewBox="0 0 60 20" style="enable-background:new 0 0 60 20;" xml:space="preserve">
<style type="text/css">
	.st0{clip-path:url(#SVGID_2_);fill:#1376F8;}
	.st1{clip-path:url(#SVGID_2_);fill:#404040;}
	.st2{clip-path:url(#SVGID_2_);}
	.st3{clip-path:url(#SVGID_4_);}
	.st4{clip-path:url(#SVGID_4_);fill:none;stroke:#000000;stroke-miterlimit:10;}
	.st5{opacity:0.9;}
	.st6{clip-path:url(#SVGID_6_);fill:#1376F8;}
	.st7{clip-path:url(#SVGID_6_);fill:#404040;}
	.st8{clip-path:url(#SVGID_6_);}
	.st9{clip-path:url(#SVGID_8_);}
	.st10{clip-path:url(#SVGID_8_);fill:none;stroke:#000000;stroke-miterlimit:10;}
	.st11{clip-path:url(#SVGID_10_);fill:#1376F8;}
	.st12{clip-path:url(#SVGID_10_);fill:#404040;}
	.st13{clip-path:url(#SVGID_10_);}
	.st14{clip-path:url(#SVGID_12_);}
	.st15{clip-path:url(#SVGID_12_);fill:none;stroke:#000000;stroke-miterlimit:10;}
</style>
<g>
	<g>
		<defs>
			<rect id="SVGID_1_" width="20" height="19"/>
		</defs>
		<clipPath id="SVGID_2_">
			<use xlink:href="#SVGID_1_"  style="overflow:visible;"/>
		</clipPath>
		<rect class="st0" width="20" height="19"/>
		<path class="st1" d="M1,1h18v17H1V1z M0,19h20V0H0V19z"/>
		<g class="st2">
			<defs>
				<rect id="SVGID_3_" width="20" height="19"/>
			</defs>
			<clipPath id="SVGID_4_">
				<use xlink:href="#SVGID_3_"  style="overflow:visible;"/>
			</clipPath>
			<path class="st3" d="M10,4.9C7.5,4.9,5.4,7,5.4,9.5c0,1.9,1.2,3.6,2.9,4.3v-3.5h3.5v3.5c1.7-0.7,2.9-2.3,2.9-4.3
				C14.6,7,12.5,4.9,10,4.9"/>
			<path class="st4" d="M10,4.9C7.5,4.9,5.4,7,5.4,9.5c0,1.9,1.2,3.6,2.9,4.3v-3.5h3.5v3.5c1.7-0.7,2.9-2.3,2.9-4.3
				C14.6,7,12.5,4.9,10,4.9z"/>
		</g>
	</g>
</g>
<g class="st5">
	<g>
		<defs>
			<rect id="SVGID_5_" x="20" width="20" height="19"/>
		</defs>
		<clipPath id="SVGID_6_">
			<use xlink:href="#SVGID_5_"  style="overflow:visible;"/>
		</clipPath>
		<rect x="20" class="st6" width="20" height="19"/>
		<path class="st7" d="M21,1h18v17H21V1z M20,19h20V0H20V19z"/>
		<g class="st8">
			<defs>
				<rect id="SVGID_7_" x="20" width="20" height="19"/>
			</defs>
			<clipPath id="SVGID_8_">
				<use xlink:href="#SVGID_7_"  style="overflow:visible;"/>
			</clipPath>
			<path class="st9" d="M30,4.9c-2.5,0-4.6,2.1-4.6,4.6c0,1.9,1.2,3.6,2.9,4.3v-3.5h3.5v3.5c1.7-0.7,2.9-2.3,2.9-4.3
				C34.6,7,32.5,4.9,30,4.9"/>
			<path class="st10" d="M30,4.9c-2.5,0-4.6,2.1-4.6,4.6c0,1.9,1.2,3.6,2.9,4.3v-3.5h3.5v3.5c1.7-0.7,2.9-2.3,2.9-4.3
				C34.6,7,32.5,4.9,30,4.9z"/>
		</g>
	</g>
</g>
<g>
	<g>
		<defs>
			<rect id="SVGID_9_" x="40" width="20" height="19"/>
		</defs>
		<clipPath id="SVGID_10_">
			<use xlink:href="#SVGID_9_"  style="overflow:visible;"/>
		</clipPath>
		<rect x="40" class="st11" width="20" height="19"/>
		<path class="st12" d="M41,1h18v17H41V1z M40,19h20V0H40V19z"/>
		<g class="st13">
			<defs>
				<rect id="SVGID_11_" x="40" width="20" height="19"/>
			</defs>
			<clipPath id="SVGID_12_">
				<use xlink:href="#SVGID_11_"  style="overflow:visible;"/>
			</clipPath>
			<path class="st14" d="M50,4.9c-2.5,0-4.6,2.1-4.6,4.6c0,1.9,1.2,3.6,2.9,4.3v-3.5h3.5v3.5c1.7-0.7,2.9-2.3,2.9-4.3
				C54.6,7,52.5,4.9,50,4.9"/>
			<path class="st15" d="M50,4.9c-2.5,0-4.6,2.1-4.6,4.6c0,1.9,1.2,3.6,2.9,4.3v-3.5h3.5v3.5c1.7-0.7,2.9-2.3,2.9-4.3
				C54.6,7,52.5,4.9,50,4.9z"/>
		</g>
	</g>
</g>
</svg>
