<?xml version="1.0" encoding="utf-8"?>
<!-- Generator: Adobe Illustrator 24.0.0, SVG Export Plug-In . SVG Version: 6.00 Build 0)  -->
<svg version="1.1" id="Layer_1" xmlns="http://www.w3.org/2000/svg" xmlns:xlink="http://www.w3.org/1999/xlink" x="0px" y="0px"
	 viewBox="0 0 60 20" style="enable-background:new 0 0 60 20;" xml:space="preserve">
<style type="text/css">
	.st0{clip-path:url(#SVGID_2_);fill:#1376F8;}
	.st1{clip-path:url(#SVGID_2_);fill:#404040;}
	.st2{clip-path:url(#SVGID_2_);}
	.st3{clip-path:url(#SVGID_4_);fill:none;stroke:#000000;stroke-width:2;stroke-miterlimit:10;}
	.st4{clip-path:url(#SVGID_4_);}
	.st5{clip-path:url(#SVGID_4_);fill:none;stroke:#000000;stroke-miterlimit:10;}
	.st6{opacity:0.9;}
	.st7{clip-path:url(#SVGID_6_);fill:#1376F8;}
	.st8{clip-path:url(#SVGID_6_);fill:#404040;}
	.st9{clip-path:url(#SVGID_6_);}
	.st10{clip-path:url(#SVGID_8_);fill:none;stroke:#000000;stroke-width:2;stroke-miterlimit:10;}
	.st11{clip-path:url(#SVGID_8_);}
	.st12{clip-path:url(#SVGID_8_);fill:none;stroke:#000000;stroke-miterlimit:10;}
	.st13{clip-path:url(#SVGID_10_);fill:#1376F8;}
	.st14{clip-path:url(#SVGID_10_);fill:#404040;}
	.st15{clip-path:url(#SVGID_10_);}
	.st16{clip-path:url(#SVGID_12_);fill:none;stroke:#000000;stroke-width:2;stroke-miterlimit:10;}
	.st17{clip-path:url(#SVGID_12_);}
	.st18{clip-path:url(#SVGID_12_);fill:none;stroke:#000000;stroke-miterlimit:10;}
</style>
<g>
	<g>
		<defs>
			<rect id="SVGID_1_" width="20" height="19"/>
		</defs>
		<clipPath id="SVGID_2_">
			<use xlink:href="#SVGID_1_"  style="overflow:visible;"/>
		</clipPath>
		<rect class="st0" width="20" height="19"/>
		<path class="st1" d="M1,1h18v17H1V1z M0,19h20V0H0V19z"/>
		<g class="st2">
			<defs>
				<rect id="SVGID_3_" width="20" height="19"/>
			</defs>
			<clipPath id="SVGID_4_">
				<use xlink:href="#SVGID_3_"  style="overflow:visible;"/>
			</clipPath>
			<path class="st3" d="M6.6,9.5c0,1.9,1.5,3.4,3.4,3.4c1.9,0,3.4-1.5,3.4-3.4S11.9,6.1,10,6.1C8.1,6.1,6.6,7.6,6.6,9.5z"/>
			<path class="st4" d="M13.4,12.9L13.4,12.9c0.2-0.2,0.2-0.5,0-0.7L7.3,6.1c-0.2-0.2-0.5-0.2-0.7,0c-0.2,0.2-0.2,0.5,0,0.7l6.2,6.2
				C12.9,13.1,13.3,13.1,13.4,12.9"/>
			<path class="st5" d="M13.4,12.9L13.4,12.9c0.2-0.2,0.2-0.5,0-0.7L7.3,6.1c-0.2-0.2-0.5-0.2-0.7,0c-0.2,0.2-0.2,0.5,0,0.7l6.2,6.2
				C12.9,13.1,13.3,13.1,13.4,12.9z"/>
		</g>
	</g>
</g>
<g class="st6">
	<g>
		<defs>
			<rect id="SVGID_5_" x="20" width="20" height="19"/>
		</defs>
		<clipPath id="SVGID_6_">
			<use xlink:href="#SVGID_5_"  style="overflow:visible;"/>
		</clipPath>
		<rect x="20" class="st7" width="20" height="19"/>
		<path class="st8" d="M21,1h18v17H21V1z M20,19h20V0H20V19z"/>
		<g class="st9">
			<defs>
				<rect id="SVGID_7_" x="20" width="20" height="19"/>
			</defs>
			<clipPath id="SVGID_8_">
				<use xlink:href="#SVGID_7_"  style="overflow:visible;"/>
			</clipPath>
			<path class="st10" d="M26.6,9.5c0,1.9,1.5,3.4,3.4,3.4c1.9,0,3.4-1.5,3.4-3.4S31.9,6.1,30,6.1C28.1,6.1,26.6,7.6,26.6,9.5z"/>
			<path class="st11" d="M33.4,12.9L33.4,12.9c0.2-0.2,0.2-0.5,0-0.7l-6.2-6.2c-0.2-0.2-0.5-0.2-0.7,0c-0.2,0.2-0.2,0.5,0,0.7
				l6.2,6.2C32.9,13.1,33.3,13.1,33.4,12.9"/>
			<path class="st12" d="M33.4,12.9L33.4,12.9c0.2-0.2,0.2-0.5,0-0.7l-6.2-6.2c-0.2-0.2-0.5-0.2-0.7,0c-0.2,0.2-0.2,0.5,0,0.7
				l6.2,6.2C32.9,13.1,33.3,13.1,33.4,12.9z"/>
		</g>
	</g>
</g>
<g>
	<g>
		<defs>
			<rect id="SVGID_9_" x="40" width="20" height="19"/>
		</defs>
		<clipPath id="SVGID_10_">
			<use xlink:href="#SVGID_9_"  style="overflow:visible;"/>
		</clipPath>
		<rect x="40" class="st13" width="20" height="19"/>
		<path class="st14" d="M41,1h18v17H41V1z M40,19h20V0H40V19z"/>
		<g class="st15">
			<defs>
				<rect id="SVGID_11_" x="40" width="20" height="19"/>
			</defs>
			<clipPath id="SVGID_12_">
				<use xlink:href="#SVGID_11_"  style="overflow:visible;"/>
			</clipPath>
			<path class="st16" d="M46.6,9.5c0,1.9,1.5,3.4,3.4,3.4c1.9,0,3.4-1.5,3.4-3.4S51.9,6.1,50,6.1C48.1,6.1,46.6,7.6,46.6,9.5z"/>
			<path class="st17" d="M53.4,12.9L53.4,12.9c0.2-0.2,0.2-0.5,0-0.7l-6.2-6.2c-0.2-0.2-0.5-0.2-0.7,0c-0.2,0.2-0.2,0.5,0,0.7
				l6.2,6.2C52.9,13.1,53.3,13.1,53.4,12.9"/>
			<path class="st18" d="M53.4,12.9L53.4,12.9c0.2-0.2,0.2-0.5,0-0.7l-6.2-6.2c-0.2-0.2-0.5-0.2-0.7,0c-0.2,0.2-0.2,0.5,0,0.7
				l6.2,6.2C52.9,13.1,53.3,13.1,53.4,12.9z"/>
		</g>
	</g>
</g>
</svg>
