<?xml version="1.0" encoding="utf-8"?>
<!-- Generator: Adobe Illustrator 24.0.0, SVG Export Plug-In . SVG Version: 6.00 Build 0)  -->
<svg version="1.1" id="Layer_1" xmlns="http://www.w3.org/2000/svg" xmlns:xlink="http://www.w3.org/1999/xlink" x="0px" y="0px"
	 viewBox="0 0 358 358" style="enable-background:new 0 0 358 358;" xml:space="preserve">
<style type="text/css">
	.st0{fill:#0382D1;}
	.st1{fill:#FFFFFF;}
	.st2{fill:#55D7FF;}
	.st3{fill:#0796DA;}
	.st4{fill:#C5D5D8;}
</style>
<image style="display:none;overflow:visible;" width="300" height="300" xlink:href="../../../../!MYDAW_THEME_2025/NEED_TORESIZE/original.png"  transform="matrix(1.0292 0 0 1.0292 24.625 -48)">
</image>
<image style="display:none;overflow:visible;" width="358" height="358" xlink:href="../../../../!MYDAW_THEME_2025/NEED_TORESIZE/MydawSplash.png" >
</image>
<rect class="st0" width="358" height="358"/>
<g>
	<path class="st1" d="M113.3,200.5h5.7c3.8,0,6.6,0.6,8.4,1.9c2.5,1.7,3.8,4.2,3.8,7.5c0,2.3-0.6,4.2-1.9,5.8
		c-1.3,1.6-3,2.6-5.2,3.1l10,13.7h-5.9l-9.2-13.1h-0.9v13.1h-4.9V200.5z M118.2,205v10.2h1.5c0.4,0,0.8,0,1.2,0c0.4,0,1-0.1,1.7-0.3
		c0.7-0.2,1.3-0.5,1.9-0.8c0.5-0.3,1-0.9,1.4-1.6c0.4-0.7,0.6-1.5,0.6-2.5c0-3.3-2.2-4.9-6.7-4.9H118.2z"/>
	<path class="st1" d="M152.3,225.7l3.9,2.2c-0.9,1.6-2,2.8-3.4,3.7c-1.6,1-3.6,1.5-6,1.5c-2.8,0-5.1-0.9-6.8-2.6c-2-2-3-4.6-3-7.7
		c0-3.3,1.1-6.1,3.2-8.3c1.8-1.8,4.1-2.7,6.8-2.7c2.6,0,4.8,0.9,6.5,2.6c1.9,2,2.8,4.8,2.8,8.5v0.6h-14.5c0.1,1.7,0.7,3.1,1.7,4.1
		c0.9,0.9,2.1,1.3,3.6,1.3c1.2,0,2.3-0.3,3.2-1C151.1,227.3,151.8,226.6,152.3,225.7z M142.2,219.7h9.4c-0.2-1.1-0.7-2-1.4-2.7
		c-0.8-0.8-1.9-1.2-3.2-1.2c-1.3,0-2.4,0.4-3.3,1.3C142.9,217.8,142.4,218.6,142.2,219.7z"/>
	<path class="st1" d="M176,214.7v-2.4h4.7v20.2H176v-2.1c-1.6,1.8-3.6,2.7-6,2.7c-3,0-5.4-1.1-7.1-3.2c-1.8-2.1-2.7-4.6-2.7-7.6
		c0-3.2,1-5.8,2.9-7.7c1.9-1.9,4.2-2.9,7-2.9C172.6,211.8,174.6,212.7,176,214.7z M170.6,216c-1.7,0-3,0.6-4.1,1.9
		c-1,1.2-1.6,2.8-1.6,4.6c0,1.8,0.5,3.3,1.6,4.6c1,1.2,2.4,1.9,4.1,1.9c1.6,0,3-0.6,4.1-1.7c1.1-1.1,1.7-2.7,1.7-4.7
		c0-2.1-0.6-3.7-1.7-4.8C173.6,216.6,172.2,216,170.6,216z"/>
	<path class="st1" d="M191.4,230.2v13.3h-4.7v-31.2h4.7v2.2c1.5-1.8,3.5-2.7,6-2.7c2.8,0,5.1,1,7,2.9c1.9,1.9,2.9,4.5,2.9,7.6
		c0,3.2-1,5.8-3,7.8s-4.3,3-6.8,3C195,233.1,193,232.2,191.4,230.2z M196.8,216c-1.6,0-3,0.6-4.1,1.7c-1.1,1.1-1.7,2.7-1.7,4.8
		c0,2,0.6,3.6,1.7,4.7c1.1,1.1,2.5,1.7,4.1,1.7c1.7,0,3-0.6,4.1-1.9c1-1.2,1.6-2.8,1.6-4.6c0-1.8-0.5-3.4-1.6-4.6
		C199.8,216.6,198.5,216,196.8,216z"/>
	<path class="st1" d="M226.3,225.7l3.9,2.2c-0.9,1.6-2,2.8-3.4,3.7c-1.6,1-3.6,1.5-6,1.5c-2.8,0-5.1-0.9-6.8-2.6c-2-2-3-4.6-3-7.7
		c0-3.3,1.1-6.1,3.2-8.3c1.8-1.8,4.1-2.7,6.8-2.7c2.6,0,4.8,0.9,6.5,2.6c1.9,2,2.8,4.8,2.8,8.5v0.6h-14.5c0.1,1.7,0.7,3.1,1.7,4.1
		c0.9,0.9,2.1,1.3,3.6,1.3c1.2,0,2.3-0.3,3.2-1C225.1,227.3,225.8,226.6,226.3,225.7z M216.2,219.7h9.4c-0.2-1.1-0.7-2-1.4-2.7
		c-0.8-0.8-1.9-1.2-3.2-1.2c-1.3,0-2.4,0.4-3.3,1.3C216.9,217.8,216.5,218.6,216.2,219.7z"/>
	<path class="st1" d="M235.3,232.5v-20.2h4.7v1.8c0.6-0.7,1.3-1.3,2-1.7c0.8-0.4,1.7-0.7,2.9-0.7c1.4,0,2.6,0.3,3.7,1l-1.9,4.3
		c-0.8-0.5-1.6-0.7-2.4-0.7c-1.2,0-2.2,0.4-2.9,1.1c-0.9,0.9-1.3,2.5-1.3,4.7v10.5H235.3z"/>
</g>
<g>
	<g>
		<path class="st1" d="M144.6,278.7h-2.5l3.4-17.2L151,274l5.6-12.4l3,17.2h-2.5l-1.6-9.6l-4.7,10.4l-4.6-10.4L144.6,278.7z"/>
		<path class="st1" d="M161.9,284.2l3.7-7.1l-4.3-8.5h2.8l2.9,5.9l2.9-5.9h2.6l-8,15.6H161.9z"/>
		<path class="st1" d="M174.6,262.7h3.4c1.3,0,2.4,0.1,3.3,0.3c0.9,0.2,1.8,0.6,2.6,1.2c1,0.7,1.7,1.7,2.3,2.8
			c0.5,1.1,0.8,2.3,0.8,3.7c0,2.8-1.1,5-3.2,6.5c-0.9,0.6-1.7,1-2.6,1.2s-2,0.3-3.2,0.3h-3.3V262.7z M177.1,265v11.4h1.1
			c1.8,0,3.2-0.4,4.2-1.1c1.5-1.1,2.2-2.6,2.2-4.6c0-1-0.2-1.9-0.6-2.7c-0.4-0.8-0.9-1.4-1.5-1.9c-1-0.7-2.4-1.1-4.3-1.1H177.1z"/>
		<path class="st1" d="M197,269.8v-1.2h2.4v10.1H197v-1.1c-0.8,0.9-1.8,1.4-3,1.4c-1.5,0-2.7-0.5-3.6-1.6c-0.9-1.1-1.3-2.3-1.3-3.8
			c0-1.6,0.5-2.9,1.4-3.9c1-1,2.1-1.5,3.5-1.5C195.3,268.4,196.3,268.8,197,269.8z M194.3,270.5c-0.8,0-1.5,0.3-2,0.9
			c-0.5,0.6-0.8,1.4-0.8,2.3c0,0.9,0.3,1.7,0.8,2.3c0.5,0.6,1.2,0.9,2,0.9c0.8,0,1.5-0.3,2-0.8c0.6-0.6,0.8-1.3,0.8-2.4
			c0-1-0.3-1.8-0.8-2.4C195.8,270.8,195.1,270.5,194.3,270.5z"/>
		<path class="st1" d="M201,268.6h2.6l2.6,5.8l2.8-6.6l2.8,6.6l2.6-5.8h2.6l-5.3,10.8l-2.8-6.5l-2.8,6.5L201,268.6z"/>
	</g>
</g>
<path class="st2" d="M179,27c-13.9,0-25.8,3.8-35.9,7.3c0,0,0,0,0-0.1c-5.9,2.7-8.1,2.3-19.2,10.1c0,0,0,0,0,0c0,0,0,0,0,0
	c-0.1,0.1-0.2,0.1-0.3,0.2c0,0,0,0,0,0c-11.3,8.7-17.9,20.1-19.7,32.3c0,0,0,0,0,0c-1.9,11,1.2,26.5,7.2,40.9c0,0,0,0,0,0
	c11,27,35.1,57.5,55,67.1c0,0,0,0,0,0c3,1.4,8.7,3.7,14.7,3.4c0.3,0,0.6,0,0.8-0.1c0.1,0,0.2,0,0.3,0c29.9-6.9,55.1-45.2,67.2-75.6
	c0,0,0,0,0,0C266.3,69.7,243.9,28,179,27z"/>
<path class="st3" d="M179,27c-13.9,0-25.8,3.8-35.9,7.3c0,0,0,0,0-0.1c-5.9,2.7-8.1,2.3-19.2,10.1c0,0,0,0,0,0c0,0,0,0,0,0
	c-0.1,0.1-0.2,0.1-0.3,0.2c0,0,0,0,0,0c-11.3,8.7-17.9,20.1-19.7,32.3c0,0,0,0,0,0c-1.9,11,1.2,26.5,7.2,40.9c0,0,0,0,0,0
	c11,27,35.1,57.5,55,67.1c0,0,0,0,0,0c3,1.4,8.7,3.7,14.7,3.4c0.3,0,0.6,0,0.8-0.1c0.1,0,0.2,0,0.3,0c29.9-6.9,55.1-45.2,67.2-75.6
	c0,0,0,0,0,0C266.3,69.7,243.9,28,179,27z M129.2,59c1.7-0.7,3.4-1.4,5.1-2c1.7-0.6,3.5-1.2,5.3-1.7c1.8-0.5,3.6-1,5.5-1.4
	c1.9-0.4,3.7-0.8,5.6-1.1c1.9-0.3,3.8-0.6,5.8-0.8c1.9-0.2,3.9-0.4,5.8-0.5c2-0.1,3.9-0.1,5.9-0.1c2,0,4,0.1,5.9,0.2
	c2,0.1,3.9,0.3,5.9,0.5c2,0.2,3.9,0.5,5.9,0.9c1.9,0.3,3.9,0.7,5.8,1.2c1.9,0.5,3.8,1,5.7,1.6c1.9,0.6,3.7,1.2,5.5,1.9
	c1.8,0.7,3.6,1.4,5.3,2.3c1.7,0.8,3.4,1.7,5.1,2.6c1.7,0.9,3.3,1.9,4.9,3c1.6,1.1,3.1,2.2,4.6,3.4c1.5,1.2,2.9,2.4,4.3,3.7
	c1.4,1.3,2.7,2.7,3.9,4.1c1.3,1.4,2.4,2.9,3.5,4.5c0.5,0.7,1.1,1.5,1.6,2.3c-1.6-1-3-2.2-4.5-3.4c-1.4-1.1-2.9-2.1-4.3-3.1
	c-1.5-1-3-2-4.5-2.9c-1.5-0.9-3.1-1.9-4.6-2.7c-1.6-0.9-3.2-1.7-4.8-2.5c-1.6-0.8-3.3-1.5-4.9-2.2c-1.7-0.7-3.4-1.3-5.1-1.8
	c-1.7-0.6-3.5-1-5.2-1.5c-1.8-0.4-3.6-0.8-5.4-1.1c-1.8-0.3-3.7-0.5-5.5-0.6c-1.9-0.1-3.8-0.2-5.7-0.1c-1.9,0-3.9,0.2-5.8,0.4
	c-2,0.2-4,0.5-5.9,0.9c-0.4,0.1-0.7,0.1-1,0.3c-0.1,0-0.2,0.1-0.4,0.1c-0.3,0.1-0.5,0.1-0.8,0.2c-0.5,0.1-0.9,0.3-1.4,0.4
	c-0.8,0.3-1.5,0.5-2.3,0.8c-1.1,0.4-2.3,0.8-3.4,1.3c-1.6,0.6-3.2,1.3-4.8,1.9c-0.9,0.4-1.9,0.7-2.8,1.2c0.3,0.6,0.9,1.2,1.3,1.8
	c0.5,0.6,0.9,1.2,1.4,1.8c1,1.3,1.9,2.6,2.9,3.9c1,1.4,2,2.8,3,4.2c1,1.5,2,2.9,3.1,4.4c1,1.5,2.1,3.1,3.1,4.6c1,1.6,2,3.2,3,4.8
	c1,1.6,2,3.3,2.9,4.9c1,1.7,1.9,3.4,2.8,5.1c0.9,1.7,1.7,3.4,2.5,5.2c0.8,1.7,1.6,3.5,2.3,5.3c0.7,1.8,1.4,3.5,1.9,5.3
	c0.6,1.8,1.1,3.6,1.6,5.4c0.4,1.8,0.8,3.6,1.1,5.4c0.3,1.8,0.5,3.5,0.6,5.3c0.1,1.8,0.2,3.5,0.1,5.3c-0.1,1.7-0.2,3.5-0.5,5.2
	c-0.3,1.7-0.7,3.4-1.2,5.1c-0.5,1.7-1.1,3.4-1.9,5c-0.8,1.7-1.7,3.3-2.7,4.8c-1.1,1.6-2.2,3.2-3.5,4.6c-0.6,0.7-1.3,1.5-2,2.2
	c1.9-1.9,3.1-4.4,3.8-6.9c0.8-2.7,1.1-5.4,1.2-8.2c0.1-2.8,0-5.7-0.2-8.5c-0.3-3.5-0.9-7-1.7-10.5c-0.8-3.5-1.8-6.9-3-10.2
	c-1.2-3.3-2.6-6.4-4.2-9.5c-1.6-3.1-3.4-6-5.4-8.8c-2.1-2.9-4.4-5.7-6.8-8.4c-2.4-2.8-4.8-5.6-7.1-8.4c-2.4-2.9-4.7-5.8-7-8.7
	c-2.4-3-4.8-6.1-7.2-9.2c-0.8-1-3.4-5.2-4.1-6.2"/>
<path class="st4" d="M179,27c-13.9,0-25.8,3.8-35.9,7.3c0,0,0,0,0-0.1c-5.9,2.7-8.1,2.3-19.2,10.1c0,0,0,0,0,0c0,0,0,0,0,0
	c-0.1,0.1-0.2,0.1-0.3,0.2c0,0,0,0,0,0c-11.3,8.7-17.9,20.1-19.7,32.3c0,0,0,0,0,0c-1.9,11,1.2,26.5,7.2,40.9c0,0,0,0,0,0
	c11,27,35.1,57.5,55,67.1c0,0,0,0,0,0c3,1.4,8.7,3.7,14.7,3.4c0.3,0,0.6,0,0.8-0.1c0.1,0,0.2,0,0.3,0c29.9-6.9,55.1-45.2,67.2-75.6
	c0,0,0,0,0,0C266.3,69.7,243.9,28,179,27z M243,114.9C243,114.9,243,114.9,243,114.9c-11.1,27.8-34,62.7-61.4,69c-0.1,0-0.2,0-0.3,0
	c-0.3,0-0.5,0.1-0.8,0.1c-5.5,0.3-10.6-1.8-13.4-3.1c0,0,0,0,0,0C149,172,127,144.2,117,119.6c0,0,0,0,0,0
	c-5.4-13.1-8.3-27.3-6.6-37.3c0,0,0,0,0,0c1.7-11.2,7.7-21.6,18-29.5c0,0,0,0,0,0c0.1-0.1,0.2-0.1,0.3-0.2c0,0,0,0,0,0c0,0,0,0,0,0
	c10.1-7.1,12.1-6.8,17.5-9.2c0,0,0,0,0,0.1c9.2-3.2,20-6.7,32.7-6.7C238.2,37.6,258.7,75.6,243,114.9z"/>
</svg>
