<?xml version="1.0" encoding="utf-8"?>
<!-- Generator: Adobe Illustrator 24.0.0, SVG Export Plug-In . SVG Version: 6.00 Build 0)  -->
<svg version="1.1" id="Layer_1" xmlns="http://www.w3.org/2000/svg" xmlns:xlink="http://www.w3.org/1999/xlink" x="0px" y="0px"
	 viewBox="0 0 48 16" style="enable-background:new 0 0 48 16;" xml:space="preserve">
<style type="text/css">
	.st0{clip-path:url(#SVGID_2_);fill:#B7B7B7;}
	.st1{clip-path:url(#SVGID_2_);}
	.st2{clip-path:url(#SVGID_4_);}
	.st3{opacity:0.9;}
	.st4{clip-path:url(#SVGID_6_);fill:#B7B7B7;}
	.st5{clip-path:url(#SVGID_6_);}
	.st6{clip-path:url(#SVGID_8_);}
	.st7{clip-path:url(#SVGID_10_);fill:#B7B7B7;}
	.st8{clip-path:url(#SVGID_10_);}
	.st9{clip-path:url(#SVGID_12_);}
</style>
<g>
	<g>
		<defs>
			<rect id="SVGID_1_" width="16" height="16"/>
		</defs>
		<clipPath id="SVGID_2_">
			<use xlink:href="#SVGID_1_"  style="overflow:visible;"/>
		</clipPath>
		<rect class="st0" width="16" height="16"/>
		<g class="st1">
			<defs>
				<rect id="SVGID_3_" width="16" height="16"/>
			</defs>
			<clipPath id="SVGID_4_">
				<use xlink:href="#SVGID_3_"  style="overflow:visible;"/>
			</clipPath>
			<path class="st2" d="M5.3,12.5h5.5c0.4,0,0.7-0.3,0.7-0.7V7.9c0-0.4-0.3-0.7-0.7-0.7h0V6.2c0-1.5-1.2-2.7-2.7-2.7
				c-1.5,0-2.7,1.2-2.7,2.7v0.9H5.3c-0.4,0-0.7,0.3-0.7,0.7v3.9C4.5,12.2,4.9,12.5,5.3,12.5 M6.5,6.2c0-0.8,0.7-1.5,1.5-1.5
				c0.8,0,1.5,0.7,1.5,1.5v0.9h-3V6.2z"/>
		</g>
	</g>
</g>
<g class="st3">
	<g>
		<defs>
			<rect id="SVGID_5_" x="16" width="16" height="16"/>
		</defs>
		<clipPath id="SVGID_6_">
			<use xlink:href="#SVGID_5_"  style="overflow:visible;"/>
		</clipPath>
		<rect x="16" class="st4" width="16" height="16"/>
		<g class="st5">
			<defs>
				<rect id="SVGID_7_" x="16" width="16" height="16"/>
			</defs>
			<clipPath id="SVGID_8_">
				<use xlink:href="#SVGID_7_"  style="overflow:visible;"/>
			</clipPath>
			<path class="st6" d="M21.3,12.5h5.5c0.4,0,0.7-0.3,0.7-0.7V7.9c0-0.4-0.3-0.7-0.7-0.7h0V6.2c0-1.5-1.2-2.7-2.7-2.7
				c-1.5,0-2.7,1.2-2.7,2.7v0.9h-0.1c-0.4,0-0.7,0.3-0.7,0.7v3.9C20.5,12.2,20.9,12.5,21.3,12.5 M22.5,6.2c0-0.8,0.7-1.5,1.5-1.5
				c0.8,0,1.5,0.7,1.5,1.5v0.9h-3V6.2z"/>
		</g>
	</g>
</g>
<g>
	<g>
		<defs>
			<rect id="SVGID_9_" x="32" width="16" height="16"/>
		</defs>
		<clipPath id="SVGID_10_">
			<use xlink:href="#SVGID_9_"  style="overflow:visible;"/>
		</clipPath>
		<rect x="32" class="st7" width="16" height="16"/>
		<g class="st8">
			<defs>
				<rect id="SVGID_11_" x="32" width="16" height="16"/>
			</defs>
			<clipPath id="SVGID_12_">
				<use xlink:href="#SVGID_11_"  style="overflow:visible;"/>
			</clipPath>
			<path class="st9" d="M37.3,12.5h5.5c0.4,0,0.7-0.3,0.7-0.7V7.9c0-0.4-0.3-0.7-0.7-0.7h0V6.2c0-1.5-1.2-2.7-2.7-2.7
				c-1.5,0-2.7,1.2-2.7,2.7v0.9h-0.1c-0.4,0-0.7,0.3-0.7,0.7v3.9C36.5,12.2,36.9,12.5,37.3,12.5 M38.5,6.2c0-0.8,0.7-1.5,1.5-1.5
				c0.8,0,1.5,0.7,1.5,1.5v0.9h-3V6.2z"/>
		</g>
	</g>
</g>
</svg>
