<?xml version="1.0" encoding="utf-8"?>
<!-- Generator: Adobe Illustrator 24.0.0, SVG Export Plug-In . SVG Version: 6.00 Build 0)  -->
<svg version="1.1" id="Layer_1" xmlns="http://www.w3.org/2000/svg" xmlns:xlink="http://www.w3.org/1999/xlink" x="0px" y="0px"
	 viewBox="0 0 48 16" style="enable-background:new 0 0 48 16;" xml:space="preserve">
<style type="text/css">
	.st0{clip-path:url(#SVGID_2_);fill:#B7B7B7;}
	.st1{clip-path:url(#SVGID_2_);}
	.st2{clip-path:url(#SVGID_4_);fill:none;stroke:#201600;stroke-miterlimit:10;}
	.st3{clip-path:url(#SVGID_2_);fill:#201600;}
	.st4{opacity:0.9;}
	.st5{clip-path:url(#SVGID_6_);fill:#B7B7B7;}
	.st6{clip-path:url(#SVGID_6_);}
	.st7{clip-path:url(#SVGID_8_);fill:none;stroke:#201600;stroke-miterlimit:10;}
	.st8{clip-path:url(#SVGID_6_);fill:#201600;}
	.st9{clip-path:url(#SVGID_10_);fill:#B7B7B7;}
	.st10{clip-path:url(#SVGID_10_);}
	.st11{clip-path:url(#SVGID_12_);fill:none;stroke:#201600;stroke-miterlimit:10;}
	.st12{clip-path:url(#SVGID_10_);fill:#201600;}
</style>
<g>
	<g>
		<defs>
			<rect id="SVGID_1_" width="16" height="16"/>
		</defs>
		<clipPath id="SVGID_2_">
			<use xlink:href="#SVGID_1_"  style="overflow:visible;"/>
		</clipPath>
		<rect x="3" y="3" transform="matrix(0.7071 -0.7071 0.7071 0.7071 -3.3136 8)" class="st0" width="10" height="10"/>
		<g class="st1">
			<defs>
				<rect id="SVGID_3_" width="16" height="16"/>
			</defs>
			<clipPath id="SVGID_4_">
				<use xlink:href="#SVGID_3_"  style="overflow:visible;"/>
			</clipPath>
			<rect x="3.5" y="3.5" transform="matrix(0.7071 -0.7071 0.7071 0.7071 -3.3136 8.0002)" class="st2" width="9" height="9"/>
		</g>
		<rect x="7.5" y="5" class="st3" width="1" height="6"/>
		<rect x="5" y="7.5" class="st3" width="6" height="1"/>
	</g>
</g>
<g class="st4">
	<g>
		<defs>
			<rect id="SVGID_5_" x="16" width="16" height="16"/>
		</defs>
		<clipPath id="SVGID_6_">
			<use xlink:href="#SVGID_5_"  style="overflow:visible;"/>
		</clipPath>
		<rect x="19" y="3" transform="matrix(0.7071 -0.7071 0.7071 0.7071 1.3727 19.3137)" class="st5" width="10" height="10"/>
		<g class="st6">
			<defs>
				<rect id="SVGID_7_" x="16" width="16" height="16"/>
			</defs>
			<clipPath id="SVGID_8_">
				<use xlink:href="#SVGID_7_"  style="overflow:visible;"/>
			</clipPath>
			<rect x="19.5" y="3.5" transform="matrix(0.7071 -0.7071 0.7071 0.7071 1.3727 19.3139)" class="st7" width="9" height="9"/>
		</g>
		<rect x="23.5" y="5" class="st8" width="1" height="6"/>
		<rect x="21" y="7.5" class="st8" width="6" height="1"/>
	</g>
</g>
<g>
	<g>
		<defs>
			<rect id="SVGID_9_" x="32" width="16" height="16"/>
		</defs>
		<clipPath id="SVGID_10_">
			<use xlink:href="#SVGID_9_"  style="overflow:visible;"/>
		</clipPath>
		<rect x="35" y="3" transform="matrix(0.7071 -0.7071 0.7071 0.7071 6.059 30.6274)" class="st9" width="10" height="10"/>
		<g class="st10">
			<defs>
				<rect id="SVGID_11_" x="32" width="16" height="16"/>
			</defs>
			<clipPath id="SVGID_12_">
				<use xlink:href="#SVGID_11_"  style="overflow:visible;"/>
			</clipPath>
			<rect x="35.5" y="3.5" transform="matrix(0.7071 -0.7071 0.7071 0.7071 6.059 30.6276)" class="st11" width="9" height="9"/>
		</g>
		<rect x="39.5" y="5" class="st12" width="1" height="6"/>
		<rect x="37" y="7.5" class="st12" width="6" height="1"/>
	</g>
</g>
</svg>
