<?xml version="1.0" encoding="utf-8"?>
<!-- Generator: Adobe Illustrator 24.0.0, SVG Export Plug-In . SVG Version: 6.00 Build 0)  -->
<svg version="1.1" id="Layer_1" xmlns="http://www.w3.org/2000/svg" xmlns:xlink="http://www.w3.org/1999/xlink" x="0px" y="0px"
	 viewBox="0 0 90 30" style="enable-background:new 0 0 90 30;" xml:space="preserve">
<style type="text/css">
	.st0{fill:#B5B5B5;}
	.st1{fill:#A1A1A1;}
	.st2{fill:#D7D7D7;}
	.st3{clip-path:url(#SVGID_2_);}
	.st4{clip-path:url(#SVGID_4_);}
	.st5{opacity:0.6;}
	.st6{clip-path:url(#SVGID_6_);}
	.st7{clip-path:url(#SVGID_8_);}
	.st8{clip-path:url(#SVGID_10_);}
	.st9{clip-path:url(#SVGID_12_);}
</style>
<g>
	<rect y="3" class="st0" width="30" height="24"/>
	<rect x="30" y="3" class="st1" width="30" height="24"/>
	<rect x="60" y="3" class="st2" width="30" height="24"/>
</g>
<g>
	<rect y="3" class="st2" width="30" height="24"/>
	<rect x="30" y="3" class="st2" width="30" height="24"/>
	<rect x="60" y="3" class="st2" width="30" height="24"/>
</g>
<g>
	<g>
		<defs>
			<rect id="SVGID_1_" width="30" height="30"/>
		</defs>
		<clipPath id="SVGID_2_">
			<use xlink:href="#SVGID_1_"  style="overflow:visible;"/>
		</clipPath>
		<g class="st3">
			<defs>
				<rect id="SVGID_3_" width="30" height="30"/>
			</defs>
			<clipPath id="SVGID_4_">
				<use xlink:href="#SVGID_3_"  style="overflow:visible;"/>
			</clipPath>
			<path class="st4" d="M13.3,20.1c-0.1-0.3-0.3-0.6-0.6-0.8c-0.3-0.2-0.7-0.2-1-0.1l-2.3,0.8C9,20,8.7,20.3,8.6,20.6
				c-0.1,0.3-0.2,0.7,0,1c0.1,0.3,0.2,0.6,0.4,0.8c0.4,0.9,1.3,1.5,2.2,1.5c0.3,0,0.5,0,0.8-0.1c1.2-0.4,1.9-1.7,1.6-3
				C13.4,20.6,13.3,20.3,13.3,20.1 M12.4,16.3c0-0.4,0-0.7,0-1c0-0.8,0-1.6-0.2-2.8c-0.3-1.8-1.2-3.3-2.4-3.9C9,8.2,8.2,8.1,7.5,8.3
				c-1,0.3-1.8,1.1-2.1,2.2c-0.3,1.1-0.3,2.5,0.3,4.1c0.3,0.8,0.7,1.9,1.2,3.2C7,18.4,7.5,18.7,8,18.7c0.1,0,0.3,0,0.4-0.1l3.1-1
				C12,17.4,12.4,16.9,12.4,16.3 M19.8,17.8L19.8,17.8L17.5,17c-0.3-0.1-0.7-0.1-1,0.1c-0.3,0.2-0.5,0.5-0.6,0.8
				c-0.1,0.3-0.1,0.5-0.2,0.8c-0.4,1.2,0.3,2.5,1.6,3c0.3,0.1,0.5,0.1,0.8,0.1c0.9,0,1.9-0.6,2.2-1.5c0.1-0.3,0.2-0.5,0.4-0.8
				c0.1-0.3,0.1-0.7,0-1C20.4,18.2,20.1,17.9,19.8,17.8 M23.8,8.4c-0.3-1.1-1.1-1.9-2.1-2.2C20.9,6,20.1,6,19.4,6.5
				c-1.2,0.7-2,2.1-2.4,3.9c-0.2,1.2-0.2,2-0.2,2.8c0,0.3,0,0.7,0,1c0,0.6,0.3,1.1,0.9,1.3l3.1,1c0.1,0,0.3,0.1,0.4,0.1
				c0.5,0,1-0.3,1.2-0.8c0.5-1.3,0.9-2.4,1.2-3.2C24,11,24.1,9.6,23.8,8.4"/>
		</g>
	</g>
</g>
<g class="st5">
	<g>
		<defs>
			<rect id="SVGID_5_" x="30" width="30" height="30"/>
		</defs>
		<clipPath id="SVGID_6_">
			<use xlink:href="#SVGID_5_"  style="overflow:visible;"/>
		</clipPath>
		<g class="st6">
			<defs>
				<rect id="SVGID_7_" x="30" width="30" height="30"/>
			</defs>
			<clipPath id="SVGID_8_">
				<use xlink:href="#SVGID_7_"  style="overflow:visible;"/>
			</clipPath>
			<path class="st7" d="M43.3,20.1c-0.1-0.3-0.3-0.6-0.6-0.8c-0.3-0.2-0.7-0.2-1-0.1l-2.3,0.8c-0.3,0.1-0.6,0.4-0.8,0.7
				c-0.1,0.3-0.2,0.7,0,1c0.1,0.3,0.2,0.6,0.3,0.8c0.4,0.9,1.3,1.5,2.2,1.5c0.3,0,0.5,0,0.8-0.1c1.2-0.4,1.9-1.7,1.6-3
				C43.4,20.6,43.3,20.3,43.3,20.1 M42.4,16.3c0-0.4,0-0.7,0-1c0-0.8,0-1.6-0.2-2.8c-0.3-1.8-1.2-3.3-2.4-3.9
				c-0.7-0.4-1.5-0.5-2.3-0.3c-1,0.3-1.8,1.1-2.1,2.2c-0.3,1.1-0.3,2.5,0.3,4.1c0.3,0.8,0.7,1.9,1.2,3.2c0.2,0.5,0.7,0.8,1.2,0.8
				c0.1,0,0.3,0,0.4-0.1l3.1-1C42,17.4,42.4,16.9,42.4,16.3 M49.8,17.8L49.8,17.8L47.5,17c-0.3-0.1-0.7-0.1-1,0.1
				c-0.3,0.2-0.5,0.5-0.6,0.8c-0.1,0.3-0.1,0.5-0.2,0.8c-0.4,1.2,0.3,2.5,1.6,3c0.3,0.1,0.5,0.1,0.8,0.1c1,0,1.9-0.6,2.2-1.5
				c0.1-0.3,0.2-0.5,0.4-0.8c0.1-0.3,0.1-0.7,0-1C50.4,18.2,50.1,17.9,49.8,17.8 M53.8,8.4c-0.3-1.1-1.1-1.9-2.1-2.2
				C50.9,6,50.1,6,49.4,6.5c-1.2,0.7-2,2.1-2.4,3.9c-0.2,1.2-0.2,2-0.2,2.8c0,0.3,0,0.7,0,1c0,0.6,0.3,1.1,0.9,1.3l3.1,1
				c0.1,0,0.3,0.1,0.4,0.1c0.5,0,1-0.3,1.2-0.8c0.5-1.3,0.9-2.4,1.2-3.2C54,11,54.1,9.6,53.8,8.4"/>
		</g>
	</g>
</g>
<g>
	<g>
		<defs>
			<rect id="SVGID_9_" x="60" width="30" height="30"/>
		</defs>
		<clipPath id="SVGID_10_">
			<use xlink:href="#SVGID_9_"  style="overflow:visible;"/>
		</clipPath>
		<g class="st8">
			<defs>
				<rect id="SVGID_11_" x="60" width="30" height="30"/>
			</defs>
			<clipPath id="SVGID_12_">
				<use xlink:href="#SVGID_11_"  style="overflow:visible;"/>
			</clipPath>
			<path class="st9" d="M73.3,20.1c-0.1-0.3-0.3-0.6-0.6-0.8c-0.3-0.2-0.7-0.2-1-0.1l-2.3,0.8c-0.3,0.1-0.6,0.4-0.8,0.7
				c-0.1,0.3-0.2,0.7,0,1c0.1,0.3,0.2,0.6,0.3,0.8c0.4,0.9,1.3,1.5,2.2,1.5c0.3,0,0.5,0,0.8-0.1c1.2-0.4,1.9-1.7,1.6-3
				C73.4,20.6,73.3,20.3,73.3,20.1 M72.4,16.3c0-0.4,0-0.7,0-1c0-0.8,0-1.6-0.2-2.8c-0.3-1.8-1.2-3.3-2.4-3.9
				c-0.7-0.4-1.5-0.5-2.3-0.3c-1,0.3-1.8,1.1-2.1,2.2c-0.3,1.1-0.3,2.5,0.3,4.1c0.3,0.8,0.7,1.9,1.2,3.2c0.2,0.5,0.7,0.8,1.2,0.8
				c0.1,0,0.3,0,0.4-0.1l3.1-1C72,17.4,72.4,16.9,72.4,16.3 M79.8,17.8L79.8,17.8L77.5,17c-0.3-0.1-0.7-0.1-1,0.1
				c-0.3,0.2-0.5,0.5-0.6,0.8c-0.1,0.3-0.1,0.5-0.2,0.8c-0.4,1.2,0.3,2.5,1.6,3c0.3,0.1,0.5,0.1,0.8,0.1c1,0,1.9-0.6,2.2-1.5
				c0.1-0.3,0.2-0.5,0.3-0.8c0.1-0.3,0.1-0.7,0-1C80.4,18.2,80.1,17.9,79.8,17.8 M83.8,8.4c-0.3-1.1-1.1-1.9-2.1-2.2
				C80.9,6,80.1,6,79.4,6.5c-1.2,0.7-2,2.1-2.4,3.9c-0.2,1.2-0.2,2-0.2,2.8c0,0.3,0,0.7,0,1c0,0.6,0.3,1.1,0.9,1.3l3.1,1
				c0.1,0,0.3,0.1,0.4,0.1c0.5,0,1-0.3,1.2-0.8c0.5-1.3,0.9-2.4,1.2-3.2C84.1,11,84.1,9.6,83.8,8.4"/>
		</g>
	</g>
</g>
</svg>
