<?xml version="1.0" encoding="utf-8"?>
<!-- Generator: Adobe Illustrator 24.0.0, SVG Export Plug-In . SVG Version: 6.00 Build 0)  -->
<svg version="1.1" id="Layer_1" xmlns="http://www.w3.org/2000/svg" xmlns:xlink="http://www.w3.org/1999/xlink" x="0px" y="0px"
	 viewBox="0 0 90 30" style="enable-background:new 0 0 90 30;" xml:space="preserve">
<style type="text/css">
	.st0{fill:#B5B5B5;}
	.st1{fill:#A1A1A1;}
	.st2{fill:#D7D7D7;}
	.st3{display:none;}
	.st4{display:inline;fill:#D7D7D7;}
	.st5{clip-path:url(#SVGID_2_);}
	.st6{clip-path:url(#SVGID_2_);fill:none;stroke:#000000;stroke-miterlimit:10;}
	.st7{opacity:0.6;}
	.st8{clip-path:url(#SVGID_4_);}
	.st9{clip-path:url(#SVGID_4_);fill:none;stroke:#000000;stroke-miterlimit:10;}
	.st10{clip-path:url(#SVGID_6_);}
	.st11{clip-path:url(#SVGID_6_);fill:none;stroke:#000000;stroke-miterlimit:10;}
</style>
<g>
	<rect y="3" class="st0" width="30" height="24"/>
	<rect x="30" y="3" class="st1" width="30" height="24"/>
	<rect x="60" y="3" class="st2" width="30" height="24"/>
</g>
<g class="st3">
	<rect y="3" class="st4" width="30" height="24"/>
	<rect x="30" y="3" class="st4" width="30" height="24"/>
	<rect x="60" y="3" class="st4" width="30" height="24"/>
</g>
<g>
	<g>
		<defs>
			<rect id="SVGID_1_" width="30" height="30"/>
		</defs>
		<clipPath id="SVGID_2_">
			<use xlink:href="#SVGID_1_"  style="overflow:visible;"/>
		</clipPath>
		<polygon class="st5" points="14,13 21,13 23,13 23,15 23,20 21,20 21,15 14,15 		"/>
		<polygon class="st6" points="14,13 21,13 23,13 23,15 23,20 21,20 21,15 14,15 		"/>
		<polygon class="st5" points="8,14 14.4,9.8 14.4,18.3 		"/>
	</g>
</g>
<g class="st7">
	<g>
		<defs>
			<rect id="SVGID_3_" x="30" width="30" height="30"/>
		</defs>
		<clipPath id="SVGID_4_">
			<use xlink:href="#SVGID_3_"  style="overflow:visible;"/>
		</clipPath>
		<polygon class="st8" points="44,13 51,13 53,13 53,15 53,20 51,20 51,15 44,15 		"/>
		<polygon class="st9" points="44,13 51,13 53,13 53,15 53,20 51,20 51,15 44,15 		"/>
		<polygon class="st8" points="38,14 44.4,9.8 44.4,18.3 		"/>
	</g>
</g>
<g>
	<g>
		<defs>
			<rect id="SVGID_5_" x="60" width="30" height="30"/>
		</defs>
		<clipPath id="SVGID_6_">
			<use xlink:href="#SVGID_5_"  style="overflow:visible;"/>
		</clipPath>
		<polygon class="st10" points="74,13 81,13 83,13 83,15 83,20 81,20 81,15 74,15 		"/>
		<polygon class="st11" points="74,13 81,13 83,13 83,15 83,20 81,20 81,15 74,15 		"/>
		<polygon class="st10" points="68,14 74.4,9.8 74.4,18.3 		"/>
	</g>
</g>
</svg>
