<?xml version="1.0" encoding="utf-8"?>
<!-- Generator: Adobe Illustrator 24.0.0, SVG Export Plug-In . SVG Version: 6.00 Build 0)  -->
<svg version="1.1" id="Layer_1" xmlns="http://www.w3.org/2000/svg" xmlns:xlink="http://www.w3.org/1999/xlink" x="0px" y="0px"
	 viewBox="0 0 90 30" style="enable-background:new 0 0 90 30;" xml:space="preserve">
<style type="text/css">
	.st0{fill:#B5B5B5;}
	.st1{fill:#A1A1A1;}
	.st2{fill:#D7D7D7;}
	.st3{clip-path:url(#SVGID_2_);}
	.st4{clip-path:url(#SVGID_4_);}
	.st5{opacity:0.6;}
	.st6{clip-path:url(#SVGID_6_);}
	.st7{clip-path:url(#SVGID_8_);}
	.st8{clip-path:url(#SVGID_10_);}
	.st9{clip-path:url(#SVGID_12_);}
</style>
<g>
	<rect y="3" class="st0" width="30" height="24"/>
	<rect x="30" y="3" class="st1" width="30" height="24"/>
	<rect x="60" y="3" class="st2" width="30" height="24"/>
</g>
<g>
	<g>
		<defs>
			<rect id="SVGID_1_" width="30" height="30"/>
		</defs>
		<clipPath id="SVGID_2_">
			<use xlink:href="#SVGID_1_"  style="overflow:visible;"/>
		</clipPath>
		<g class="st3">
			<defs>
				<rect id="SVGID_3_" width="30" height="30"/>
			</defs>
			<clipPath id="SVGID_4_">
				<use xlink:href="#SVGID_3_"  style="overflow:visible;"/>
			</clipPath>
			<path class="st4" d="M15,6.8c-4.5,0-8.2,3.7-8.2,8.2c0,3.8,2.6,7,6.2,7.9V20h4v2.9c3.6-0.9,6.2-4.1,6.2-7.9
				C23.2,10.5,19.5,6.8,15,6.8 M11,16H9v-2h2V16z M13,13h-2v-2h2V13z M16,11h-2V9h2V11z M17,11h2v2h-2V11z M19,14h2v2h-2V14z"/>
		</g>
	</g>
</g>
<g class="st5">
	<g>
		<defs>
			<rect id="SVGID_5_" x="30" width="30" height="30"/>
		</defs>
		<clipPath id="SVGID_6_">
			<use xlink:href="#SVGID_5_"  style="overflow:visible;"/>
		</clipPath>
		<g class="st6">
			<defs>
				<rect id="SVGID_7_" x="30" width="30" height="30"/>
			</defs>
			<clipPath id="SVGID_8_">
				<use xlink:href="#SVGID_7_"  style="overflow:visible;"/>
			</clipPath>
			<path class="st7" d="M45,6.8c-4.5,0-8.2,3.7-8.2,8.2c0,3.8,2.6,7,6.2,7.9V20h4v2.9c3.6-0.9,6.2-4.1,6.2-7.9
				C53.2,10.5,49.5,6.8,45,6.8 M41,16h-2v-2h2V16z M43,13h-2v-2h2V13z M46,11h-2V9h2V11z M47,11h2v2h-2V11z M49,14h2v2h-2V14z"/>
		</g>
	</g>
</g>
<g>
	<g>
		<defs>
			<rect id="SVGID_9_" x="60" width="30" height="30"/>
		</defs>
		<clipPath id="SVGID_10_">
			<use xlink:href="#SVGID_9_"  style="overflow:visible;"/>
		</clipPath>
		<g class="st8">
			<defs>
				<rect id="SVGID_11_" x="60" width="30" height="30"/>
			</defs>
			<clipPath id="SVGID_12_">
				<use xlink:href="#SVGID_11_"  style="overflow:visible;"/>
			</clipPath>
			<path class="st9" d="M75,6.8c-4.5,0-8.2,3.7-8.2,8.2c0,3.8,2.6,7,6.2,7.9V20h4v2.9c3.6-0.9,6.2-4.1,6.2-7.9
				C83.2,10.5,79.5,6.8,75,6.8 M71,16h-2v-2h2V16z M73,13h-2v-2h2V13z M76,11h-2V9h2V11z M77,11h2v2h-2V11z M79,14h2v2h-2V14z"/>
		</g>
	</g>
</g>
</svg>
