<?xml version="1.0" encoding="utf-8"?>
<!-- Generator: Adobe Illustrator 24.0.0, SVG Export Plug-In . SVG Version: 6.00 Build 0)  -->
<svg version="1.1" id="Layer_1" xmlns="http://www.w3.org/2000/svg" xmlns:xlink="http://www.w3.org/1999/xlink" x="0px" y="0px"
	 viewBox="0 0 90 30" style="enable-background:new 0 0 90 30;" xml:space="preserve">
<style type="text/css">
	.st0{display:none;fill:#A1A1A1;}
	.st1{display:none;fill:#B5B5B5;}
	.st2{display:none;fill:#D7D7D7;}
	.st3{clip-path:url(#SVGID_2_);}
	.st4{clip-path:url(#SVGID_4_);}
	.st5{clip-path:url(#SVGID_4_);fill:none;stroke:#000000;}
	.st6{clip-path:url(#SVGID_4_);fill:#FFFFFF;}
	.st7{opacity:0.6;}
	.st8{clip-path:url(#SVGID_6_);}
	.st9{clip-path:url(#SVGID_8_);}
	.st10{clip-path:url(#SVGID_8_);fill:none;stroke:#000000;}
	.st11{clip-path:url(#SVGID_8_);fill:#FFFFFF;}
	.st12{clip-path:url(#SVGID_10_);}
	.st13{clip-path:url(#SVGID_12_);}
	.st14{clip-path:url(#SVGID_12_);fill:none;stroke:#000000;}
	.st15{clip-path:url(#SVGID_12_);fill:#FFFFFF;}
</style>
<rect x="30" y="3" class="st0" width="30" height="24"/>
<rect y="3" class="st1" width="30" height="24"/>
<rect x="60" y="3" class="st2" width="30" height="24"/>
<g>
	<g>
		<defs>
			<rect id="SVGID_1_" width="30" height="30"/>
		</defs>
		<clipPath id="SVGID_2_">
			<use xlink:href="#SVGID_1_"  style="overflow:visible;"/>
		</clipPath>
		<g class="st3">
			<defs>
				<rect id="SVGID_3_" width="30" height="30"/>
			</defs>
			<clipPath id="SVGID_4_">
				<use xlink:href="#SVGID_3_"  style="overflow:visible;"/>
			</clipPath>
			<path class="st4" d="M15,7c4.4,0,8,3.6,8,8s-3.6,8-8,8s-8-3.6-8-8S10.6,7,15,7"/>
			<circle class="st5" cx="15" cy="15" r="8"/>
			<path class="st6" d="M10.1,20.7c1.3,1.1,3,1.8,4.9,1.8c4.1,0,7.5-3.4,7.5-7.5c0-1.9-0.7-3.5-1.8-4.8L10.1,20.7z"/>
		</g>
	</g>
</g>
<g class="st7">
	<g>
		<defs>
			<rect id="SVGID_5_" x="30" width="30" height="30"/>
		</defs>
		<clipPath id="SVGID_6_">
			<use xlink:href="#SVGID_5_"  style="overflow:visible;"/>
		</clipPath>
		<g class="st8">
			<defs>
				<rect id="SVGID_7_" x="30" width="30" height="30"/>
			</defs>
			<clipPath id="SVGID_8_">
				<use xlink:href="#SVGID_7_"  style="overflow:visible;"/>
			</clipPath>
			<path class="st9" d="M45,7c4.4,0,8,3.6,8,8s-3.6,8-8,8s-8-3.6-8-8S40.6,7,45,7"/>
			<circle class="st10" cx="45" cy="15" r="8"/>
			<path class="st11" d="M40.1,20.7c1.3,1.1,3,1.8,4.9,1.8c4.1,0,7.5-3.4,7.5-7.5c0-1.9-0.7-3.5-1.8-4.8L40.1,20.7z"/>
		</g>
	</g>
</g>
<g>
	<g>
		<defs>
			<rect id="SVGID_9_" x="60" width="30" height="30"/>
		</defs>
		<clipPath id="SVGID_10_">
			<use xlink:href="#SVGID_9_"  style="overflow:visible;"/>
		</clipPath>
		<g class="st12">
			<defs>
				<rect id="SVGID_11_" x="60" width="30" height="30"/>
			</defs>
			<clipPath id="SVGID_12_">
				<use xlink:href="#SVGID_11_"  style="overflow:visible;"/>
			</clipPath>
			<path class="st13" d="M75,7c4.4,0,8,3.6,8,8s-3.6,8-8,8s-8-3.6-8-8S70.6,7,75,7"/>
			<circle class="st14" cx="75" cy="15" r="8"/>
			<path class="st15" d="M70.1,20.7c1.3,1.1,3,1.8,4.9,1.8c4.1,0,7.5-3.4,7.5-7.5c0-1.9-0.7-3.5-1.8-4.8L70.1,20.7z"/>
		</g>
	</g>
</g>
</svg>
