<?xml version="1.0" encoding="utf-8"?>
<!-- Generator: Adobe Illustrator 24.0.0, SVG Export Plug-In . SVG Version: 6.00 Build 0)  -->
<svg version="1.1" id="Layer_1" xmlns="http://www.w3.org/2000/svg" xmlns:xlink="http://www.w3.org/1999/xlink" x="0px" y="0px"
	 viewBox="0 0 90 30" style="enable-background:new 0 0 90 30;" xml:space="preserve">
<style type="text/css">
	.st0{fill:#B5B5B5;}
	.st1{fill:#A1A1A1;}
	.st2{fill:#D7D7D7;}
	.st3{clip-path:url(#SVGID_2_);}
	.st4{opacity:0.6;}
	.st5{clip-path:url(#SVGID_4_);}
	.st6{clip-path:url(#SVGID_6_);}
</style>
<rect y="3" class="st0" width="30" height="24"/>
<rect x="30" y="3" class="st1" width="30" height="24"/>
<rect x="60" y="3" class="st2" width="30" height="24"/>
<g>
	<g>
		<defs>
			<rect id="SVGID_1_" width="30" height="30"/>
		</defs>
		<clipPath id="SVGID_2_">
			<use xlink:href="#SVGID_1_"  style="overflow:visible;"/>
		</clipPath>
		<path class="st3" d="M6,22h18V8H6V22z M8,9.9h6V12H8V9.9z M8,14h6v2H8V14z M8,18h6v2.1H8V18z M22,20.1h-6V18h6V20.1z M22,16h-6v-2
			h6V16z M22,12h-6V9.9h6V12z"/>
	</g>
</g>
<g class="st4">
	<g>
		<defs>
			<rect id="SVGID_3_" x="30" width="30" height="30"/>
		</defs>
		<clipPath id="SVGID_4_">
			<use xlink:href="#SVGID_3_"  style="overflow:visible;"/>
		</clipPath>
		<path class="st5" d="M36,22h18V8H36V22z M38,9.9h6V12h-6V9.9z M38,14h6v2h-6V14z M38,18h6v2.1h-6V18z M52,20.1h-6V18h6V20.1z
			 M52,16h-6v-2h6V16z M52,12h-6V9.9h6V12z"/>
	</g>
</g>
<g>
	<g>
		<defs>
			<rect id="SVGID_5_" x="60" width="30" height="30"/>
		</defs>
		<clipPath id="SVGID_6_">
			<use xlink:href="#SVGID_5_"  style="overflow:visible;"/>
		</clipPath>
		<path class="st6" d="M66,22h18V8H66V22z M68,9.9h6V12h-6V9.9z M68,14h6v2h-6V14z M68,18h6v2.1h-6V18z M82,20.1h-6V18h6V20.1z
			 M82,16h-6v-2h6V16z M82,12h-6V9.9h6V12z"/>
	</g>
</g>
</svg>
