<?xml version="1.0" encoding="utf-8"?>
<!-- Generator: Adobe Illustrator 24.0.0, SVG Export Plug-In . SVG Version: 6.00 Build 0)  -->
<svg version="1.1" id="Layer_1" xmlns="http://www.w3.org/2000/svg" xmlns:xlink="http://www.w3.org/1999/xlink" x="0px" y="0px"
	 viewBox="0 0 90 30" style="enable-background:new 0 0 90 30;" xml:space="preserve">
<style type="text/css">
	.st0{display:none;}
	.st1{display:inline;fill:#B5B5B5;}
	.st2{display:inline;fill:#A1A1A1;}
	.st3{display:inline;fill:#D7D7D7;}
	.st4{fill:#D7D7D7;}
	.st5{clip-path:url(#SVGID_2_);}
	.st6{clip-path:url(#SVGID_4_);}
	.st7{clip-path:url(#SVGID_4_);fill:none;stroke:#000000;stroke-miterlimit:10;}
	.st8{opacity:0.6;}
	.st9{clip-path:url(#SVGID_6_);}
	.st10{clip-path:url(#SVGID_8_);}
	.st11{clip-path:url(#SVGID_8_);fill:none;stroke:#000000;stroke-miterlimit:10;}
	.st12{clip-path:url(#SVGID_10_);}
	.st13{clip-path:url(#SVGID_12_);}
	.st14{clip-path:url(#SVGID_12_);fill:none;stroke:#000000;stroke-miterlimit:10;}
</style>
<g class="st0">
	<rect y="3" class="st1" width="30" height="24"/>
	<rect x="30" y="3" class="st2" width="30" height="24"/>
	<rect x="60" y="3" class="st3" width="30" height="24"/>
</g>
<g>
	<rect y="3" class="st4" width="30" height="24"/>
	<rect x="30" y="3" class="st4" width="30" height="24"/>
	<rect x="60" y="3" class="st4" width="30" height="24"/>
</g>
<g>
	<g>
		<defs>
			<rect id="SVGID_1_" width="30" height="30"/>
		</defs>
		<clipPath id="SVGID_2_">
			<use xlink:href="#SVGID_1_"  style="overflow:visible;"/>
		</clipPath>
		<g class="st5">
			<defs>
				<rect id="SVGID_3_" width="30" height="30"/>
			</defs>
			<clipPath id="SVGID_4_">
				<use xlink:href="#SVGID_3_"  style="overflow:visible;"/>
			</clipPath>
			<path class="st6" d="M25.3,16.6v-2.8c0-1.5-1.2-2.8-2.7-2.7L15.1,11c-0.8,0-1.4,0.3-1.9,0.8c-0.5,0.5-0.8,1.2-0.8,1.9v1.9h1.8
				v-1.9c0-0.3,0.1-0.4,0.3-0.6c0.2-0.2,0.4-0.3,0.6-0.3h7.4c0.5,0,0.9,0.4,0.9,0.9v2.8c0,0.5-0.4,0.9-0.9,0.9l-3.4,0.1v1.8h3.5
				C24,19.3,25.3,18,25.3,16.6"/>
			<path class="st7" d="M25.3,16.6v-2.8c0-1.5-1.2-2.8-2.7-2.7L15.1,11c-0.8,0-1.4,0.3-1.9,0.8c-0.5,0.5-0.8,1.2-0.8,1.9v1.9h1.8
				v-1.9c0-0.3,0.1-0.4,0.3-0.6c0.2-0.2,0.4-0.3,0.6-0.3h7.4c0.5,0,0.9,0.4,0.9,0.9v2.8c0,0.5-0.4,0.9-0.9,0.9l-3.4,0.1v1.8h3.5
				C24,19.3,25.3,18,25.3,16.6z"/>
			<path class="st6" d="M17.7,14.7h-1.8v1.9c0,0.5-0.4,0.9-0.9,0.9l-7.5,0.1c-0.5,0-0.9-0.4-0.9-0.9v-2.8c0-0.3,0.1-0.5,0.3-0.6
				S7.3,13,7.5,13l3.4-0.1v-1.8H7.5c-0.8,0-1.4,0.3-1.9,0.8c-0.5,0.5-0.8,1.2-0.8,1.9v2.8c0,0.8,0.3,1.5,0.8,2
				c0.5,0.5,1.2,0.8,1.9,0.8H15c1.5,0,2.8-1.2,2.7-2.7L17.7,14.7z"/>
			<path class="st7" d="M17.7,14.7h-1.8v1.9c0,0.5-0.4,0.9-0.9,0.9l-7.5,0.1c-0.5,0-0.9-0.4-0.9-0.9v-2.8c0-0.3,0.1-0.5,0.3-0.6
				S7.3,13,7.5,13l3.4-0.1v-1.8H7.5c-0.8,0-1.4,0.3-1.9,0.8c-0.5,0.5-0.8,1.2-0.8,1.9v2.8c0,0.8,0.3,1.5,0.8,2
				c0.5,0.5,1.2,0.8,1.9,0.8H15c1.5,0,2.8-1.2,2.7-2.7L17.7,14.7z"/>
		</g>
	</g>
</g>
<g class="st8">
	<g>
		<defs>
			<rect id="SVGID_5_" x="30" width="30" height="30"/>
		</defs>
		<clipPath id="SVGID_6_">
			<use xlink:href="#SVGID_5_"  style="overflow:visible;"/>
		</clipPath>
		<g class="st9">
			<defs>
				<rect id="SVGID_7_" x="30" width="30" height="30"/>
			</defs>
			<clipPath id="SVGID_8_">
				<use xlink:href="#SVGID_7_"  style="overflow:visible;"/>
			</clipPath>
			<path class="st10" d="M55.3,16.6v-2.8c0-1.5-1.2-2.8-2.7-2.7L45.1,11c-0.8,0-1.4,0.3-1.9,0.8c-0.5,0.5-0.8,1.2-0.8,1.9v1.9h1.8
				v-1.9c0-0.3,0.1-0.4,0.3-0.6c0.2-0.2,0.4-0.3,0.6-0.3h7.4c0.5,0,0.9,0.4,0.9,0.9v2.8c0,0.5-0.4,0.9-0.9,0.9l-3.4,0.1v1.8h3.5
				C54,19.3,55.3,18,55.3,16.6"/>
			<path class="st11" d="M55.3,16.6v-2.8c0-1.5-1.2-2.8-2.7-2.7L45.1,11c-0.8,0-1.4,0.3-1.9,0.8c-0.5,0.5-0.8,1.2-0.8,1.9v1.9h1.8
				v-1.9c0-0.3,0.1-0.4,0.3-0.6c0.2-0.2,0.4-0.3,0.6-0.3h7.4c0.5,0,0.9,0.4,0.9,0.9v2.8c0,0.5-0.4,0.9-0.9,0.9l-3.4,0.1v1.8h3.5
				C54,19.3,55.3,18,55.3,16.6z"/>
			<path class="st10" d="M47.7,14.7h-1.8v1.9c0,0.5-0.4,0.9-0.9,0.9l-7.5,0.1c-0.5,0-0.9-0.4-0.9-0.9v-2.8c0-0.3,0.1-0.5,0.3-0.6
				s0.4-0.3,0.6-0.3l3.4-0.1v-1.8h-3.5c-0.8,0-1.4,0.3-1.9,0.8c-0.5,0.5-0.8,1.2-0.8,1.9v2.8c0,0.8,0.3,1.5,0.8,2
				c0.5,0.5,1.2,0.8,1.9,0.8H45c1.5,0,2.8-1.2,2.7-2.7L47.7,14.7z"/>
			<path class="st11" d="M47.7,14.7h-1.8v1.9c0,0.5-0.4,0.9-0.9,0.9l-7.5,0.1c-0.5,0-0.9-0.4-0.9-0.9v-2.8c0-0.3,0.1-0.5,0.3-0.6
				s0.4-0.3,0.6-0.3l3.4-0.1v-1.8h-3.5c-0.8,0-1.4,0.3-1.9,0.8c-0.5,0.5-0.8,1.2-0.8,1.9v2.8c0,0.8,0.3,1.5,0.8,2
				c0.5,0.5,1.2,0.8,1.9,0.8H45c1.5,0,2.8-1.2,2.7-2.7L47.7,14.7z"/>
		</g>
	</g>
</g>
<g>
	<g>
		<defs>
			<rect id="SVGID_9_" x="60" width="30" height="30"/>
		</defs>
		<clipPath id="SVGID_10_">
			<use xlink:href="#SVGID_9_"  style="overflow:visible;"/>
		</clipPath>
		<g class="st12">
			<defs>
				<rect id="SVGID_11_" x="60" width="30" height="30"/>
			</defs>
			<clipPath id="SVGID_12_">
				<use xlink:href="#SVGID_11_"  style="overflow:visible;"/>
			</clipPath>
			<path class="st13" d="M85.3,16.6v-2.8c0-1.5-1.2-2.8-2.7-2.7L75.1,11c-0.8,0-1.4,0.3-1.9,0.8c-0.5,0.5-0.8,1.2-0.8,1.9v1.9h1.8
				v-1.9c0-0.3,0.1-0.4,0.3-0.6c0.2-0.2,0.4-0.3,0.6-0.3h7.4c0.5,0,0.9,0.4,0.9,0.9v2.8c0,0.5-0.4,0.9-0.9,0.9l-3.4,0.1v1.8h3.5
				C84,19.3,85.3,18,85.3,16.6"/>
			<path class="st14" d="M85.3,16.6v-2.8c0-1.5-1.2-2.8-2.7-2.7L75.1,11c-0.8,0-1.4,0.3-1.9,0.8c-0.5,0.5-0.8,1.2-0.8,1.9v1.9h1.8
				v-1.9c0-0.3,0.1-0.4,0.3-0.6c0.2-0.2,0.4-0.3,0.6-0.3h7.4c0.5,0,0.9,0.4,0.9,0.9v2.8c0,0.5-0.4,0.9-0.9,0.9l-3.4,0.1v1.8h3.5
				C84,19.3,85.3,18,85.3,16.6z"/>
			<path class="st13" d="M77.7,14.7h-1.8v1.9c0,0.5-0.4,0.9-0.9,0.9l-7.5,0.1c-0.5,0-0.9-0.4-0.9-0.9v-2.8c0-0.3,0.1-0.5,0.3-0.6
				s0.4-0.3,0.6-0.3l3.4-0.1v-1.8h-3.5c-0.8,0-1.4,0.3-1.9,0.8c-0.5,0.5-0.8,1.2-0.8,1.9v2.8c0,0.8,0.3,1.5,0.8,2
				c0.5,0.5,1.2,0.8,1.9,0.8H75c1.5,0,2.8-1.2,2.7-2.7L77.7,14.7z"/>
			<path class="st14" d="M77.7,14.7h-1.8v1.9c0,0.5-0.4,0.9-0.9,0.9l-7.5,0.1c-0.5,0-0.9-0.4-0.9-0.9v-2.8c0-0.3,0.1-0.5,0.3-0.6
				s0.4-0.3,0.6-0.3l3.4-0.1v-1.8h-3.5c-0.8,0-1.4,0.3-1.9,0.8c-0.5,0.5-0.8,1.2-0.8,1.9v2.8c0,0.8,0.3,1.5,0.8,2
				c0.5,0.5,1.2,0.8,1.9,0.8H75c1.5,0,2.8-1.2,2.7-2.7L77.7,14.7z"/>
		</g>
	</g>
</g>
</svg>
