<?xml version="1.0" encoding="utf-8"?>
<!-- Generator: Adobe Illustrator 24.0.0, SVG Export Plug-In . SVG Version: 6.00 Build 0)  -->
<svg version="1.1" id="Layer_1" xmlns="http://www.w3.org/2000/svg" xmlns:xlink="http://www.w3.org/1999/xlink" x="0px" y="0px"
	 viewBox="0 0 90 30" style="enable-background:new 0 0 90 30;" xml:space="preserve">
<style type="text/css">
	.st0{fill:#B5B5B5;}
	.st1{fill:#A1A1A1;}
	.st2{fill:#D7D7D7;}
	.st3{display:none;}
	.st4{display:inline;fill:#D7D7D7;}
	.st5{clip-path:url(#SVGID_2_);}
	.st6{clip-path:url(#SVGID_4_);}
	.st7{opacity:0.6;}
	.st8{clip-path:url(#SVGID_6_);}
	.st9{clip-path:url(#SVGID_8_);}
	.st10{clip-path:url(#SVGID_10_);}
	.st11{clip-path:url(#SVGID_12_);}
</style>
<g>
	<rect y="3" class="st0" width="30" height="24"/>
	<rect x="30" y="3" class="st1" width="30" height="24"/>
	<rect x="60" y="3" class="st2" width="30" height="24"/>
</g>
<g class="st3">
	<rect y="3" class="st4" width="30" height="24"/>
	<rect x="30" y="3" class="st4" width="30" height="24"/>
	<rect x="60" y="3" class="st4" width="30" height="24"/>
</g>
<g>
	<g>
		<defs>
			<rect id="SVGID_1_" width="30" height="30"/>
		</defs>
		<clipPath id="SVGID_2_">
			<use xlink:href="#SVGID_1_"  style="overflow:visible;"/>
		</clipPath>
		<g class="st5">
			<defs>
				<rect id="SVGID_3_" width="30" height="30"/>
			</defs>
			<clipPath id="SVGID_4_">
				<use xlink:href="#SVGID_3_"  style="overflow:visible;"/>
			</clipPath>
			<path class="st6" d="M11.8,17h6.4c0.4,0,0.7-0.3,0.7-0.7c0-0.4-0.3-0.7-0.7-0.7h-6.4c-0.4,0-0.7,0.3-0.7,0.7
				C11.1,16.7,11.4,17,11.8,17 M18.2,18.3h-6.4c-0.4,0-0.7,0.3-0.7,0.7c0,0.4,0.3,0.7,0.7,0.7h6.4c0.4,0,0.7-0.3,0.7-0.7
				C18.8,18.6,18.5,18.3,18.2,18.3 M11.4,7.2h4.8v3.3h-4.8V7.2z"/>
			<path class="st6" d="M21.9,10.2c-0.2-0.2-1-1-2.5-2.5C19,7.4,18.5,7.2,18,7.2h-0.6v3.3c0,0.7-0.6,1.3-1.3,1.3h-4.8
				c-0.7,0-1.3-0.6-1.3-1.3V7.2H9.5C8.4,7.2,7.5,8,7.5,9.1v11.8c0,1.1,0.9,1.9,1.9,1.9h11.1c1.1,0,1.9-0.9,1.9-1.9v-9.3
				C22.5,11.1,22.3,10.6,21.9,10.2 M20.5,20.2c0,0.4-0.3,0.7-0.7,0.7h-9.7c-0.4,0-0.7-0.3-0.7-0.7l0-5.2c0-0.4,0.3-0.7,0.7-0.7h9.7
				c0.4,0,0.7,0.3,0.7,0.7L20.5,20.2z"/>
			<path class="st6" d="M18.8,16.3c0,0.4-0.3,0.7-0.7,0.7h-6.4c-0.4,0-0.7-0.3-0.7-0.7c0-0.4,0.3-0.7,0.7-0.7h6.4
				C18.5,15.7,18.8,15.9,18.8,16.3 M18.8,18.9c0,0.4-0.3,0.7-0.7,0.7h-6.4c-0.4,0-0.7-0.3-0.7-0.7c0-0.4,0.3-0.7,0.7-0.7h6.4
				C18.5,18.3,18.8,18.6,18.8,18.9"/>
		</g>
	</g>
</g>
<g class="st7">
	<g>
		<defs>
			<rect id="SVGID_5_" x="30" width="30" height="30"/>
		</defs>
		<clipPath id="SVGID_6_">
			<use xlink:href="#SVGID_5_"  style="overflow:visible;"/>
		</clipPath>
		<g class="st8">
			<defs>
				<rect id="SVGID_7_" x="30" width="30" height="30"/>
			</defs>
			<clipPath id="SVGID_8_">
				<use xlink:href="#SVGID_7_"  style="overflow:visible;"/>
			</clipPath>
			<path class="st9" d="M41.8,17h6.4c0.4,0,0.7-0.3,0.7-0.7c0-0.4-0.3-0.7-0.7-0.7h-6.4c-0.4,0-0.7,0.3-0.7,0.7
				C41.1,16.7,41.4,17,41.8,17 M48.2,18.3h-6.4c-0.4,0-0.7,0.3-0.7,0.7c0,0.4,0.3,0.7,0.7,0.7h6.4c0.4,0,0.7-0.3,0.7-0.7
				C48.8,18.6,48.5,18.3,48.2,18.3 M41.4,7.2h4.8v3.3h-4.8V7.2z"/>
			<path class="st9" d="M51.9,10.2c-0.2-0.2-1-1-2.5-2.5C49,7.4,48.5,7.2,48,7.2h-0.6v3.3c0,0.7-0.6,1.3-1.3,1.3h-4.8
				c-0.7,0-1.3-0.6-1.3-1.3V7.2h-0.6c-1.1,0-1.9,0.9-1.9,1.9v11.8c0,1.1,0.9,1.9,1.9,1.9h11.1c1.1,0,1.9-0.9,1.9-1.9v-9.3
				C52.5,11.1,52.3,10.6,51.9,10.2 M50.5,20.2c0,0.4-0.3,0.7-0.7,0.7h-9.7c-0.4,0-0.7-0.3-0.7-0.7l0-5.2c0-0.4,0.3-0.7,0.7-0.7h9.7
				c0.4,0,0.7,0.3,0.7,0.7L50.5,20.2z"/>
			<path class="st9" d="M48.8,16.3c0,0.4-0.3,0.7-0.7,0.7h-6.4c-0.4,0-0.7-0.3-0.7-0.7c0-0.4,0.3-0.7,0.7-0.7h6.4
				C48.5,15.7,48.8,15.9,48.8,16.3 M48.8,18.9c0,0.4-0.3,0.7-0.7,0.7h-6.4c-0.4,0-0.7-0.3-0.7-0.7c0-0.4,0.3-0.7,0.7-0.7h6.4
				C48.5,18.3,48.8,18.6,48.8,18.9"/>
		</g>
	</g>
</g>
<g>
	<g>
		<defs>
			<rect id="SVGID_9_" x="60" width="30" height="30"/>
		</defs>
		<clipPath id="SVGID_10_">
			<use xlink:href="#SVGID_9_"  style="overflow:visible;"/>
		</clipPath>
		<g class="st10">
			<defs>
				<rect id="SVGID_11_" x="60" width="30" height="30"/>
			</defs>
			<clipPath id="SVGID_12_">
				<use xlink:href="#SVGID_11_"  style="overflow:visible;"/>
			</clipPath>
			<path class="st11" d="M71.8,17h6.4c0.4,0,0.7-0.3,0.7-0.7c0-0.4-0.3-0.7-0.7-0.7h-6.4c-0.4,0-0.7,0.3-0.7,0.7
				C71.1,16.7,71.4,17,71.8,17 M78.2,18.3h-6.4c-0.4,0-0.7,0.3-0.7,0.7c0,0.4,0.3,0.7,0.7,0.7h6.4c0.4,0,0.7-0.3,0.7-0.7
				C78.8,18.6,78.5,18.3,78.2,18.3 M71.4,7.2h4.8v3.3h-4.8V7.2z"/>
			<path class="st11" d="M81.9,10.2c-0.2-0.2-1-1-2.5-2.5C79,7.4,78.5,7.2,78,7.2h-0.6v3.3c0,0.7-0.6,1.3-1.3,1.3h-4.8
				c-0.7,0-1.3-0.6-1.3-1.3V7.2h-0.6c-1.1,0-1.9,0.9-1.9,1.9v11.8c0,1.1,0.9,1.9,1.9,1.9h11.1c1.1,0,1.9-0.9,1.9-1.9v-9.3
				C82.5,11.1,82.3,10.6,81.9,10.2 M80.5,20.2c0,0.4-0.3,0.7-0.7,0.7h-9.7c-0.4,0-0.7-0.3-0.7-0.7l0-5.2c0-0.4,0.3-0.7,0.7-0.7h9.7
				c0.4,0,0.7,0.3,0.7,0.7L80.5,20.2z"/>
			<path class="st11" d="M78.8,16.3c0,0.4-0.3,0.7-0.7,0.7h-6.4c-0.4,0-0.7-0.3-0.7-0.7c0-0.4,0.3-0.7,0.7-0.7h6.4
				C78.5,15.7,78.8,15.9,78.8,16.3 M78.8,18.9c0,0.4-0.3,0.7-0.7,0.7h-6.4c-0.4,0-0.7-0.3-0.7-0.7c0-0.4,0.3-0.7,0.7-0.7h6.4
				C78.5,18.3,78.8,18.6,78.8,18.9"/>
		</g>
	</g>
</g>
</svg>
