<?xml version="1.0" encoding="utf-8"?>
<!-- Generator: Adobe Illustrator 24.0.0, SVG Export Plug-In . SVG Version: 6.00 Build 0)  -->
<svg version="1.1" id="Layer_1" xmlns="http://www.w3.org/2000/svg" xmlns:xlink="http://www.w3.org/1999/xlink" x="0px" y="0px"
	 viewBox="0 0 90 30" style="enable-background:new 0 0 90 30;" xml:space="preserve">
<style type="text/css">
	.st0{display:none;}
	.st1{display:inline;fill:#B5B5B5;}
	.st2{display:inline;fill:#A1A1A1;}
	.st3{display:inline;fill:#D7D7D7;}
	.st4{clip-path:url(#SVGID_2_);}
	.st5{clip-path:url(#SVGID_4_);fill:#B6B6B6;}
	.st6{clip-path:url(#SVGID_4_);}
	.st7{opacity:0.6;}
	.st8{clip-path:url(#SVGID_6_);}
	.st9{clip-path:url(#SVGID_8_);fill:#B6B6B6;}
	.st10{clip-path:url(#SVGID_8_);}
	.st11{clip-path:url(#SVGID_10_);}
	.st12{clip-path:url(#SVGID_12_);fill:#B6B6B6;}
	.st13{clip-path:url(#SVGID_12_);}
</style>
<g class="st0">
	<rect y="3" class="st1" width="30" height="24"/>
	<rect x="30" y="3" class="st2" width="30" height="24"/>
	<rect x="60" y="3" class="st3" width="30" height="24"/>
</g>
<g class="st0">
	<rect y="3" class="st3" width="30" height="24"/>
	<rect x="30" y="3" class="st3" width="30" height="24"/>
	<rect x="60" y="3" class="st3" width="30" height="24"/>
</g>
<g>
	<g>
		<defs>
			<rect id="SVGID_1_" width="30" height="30"/>
		</defs>
		<clipPath id="SVGID_2_">
			<use xlink:href="#SVGID_1_"  style="overflow:visible;"/>
		</clipPath>
		<g class="st4">
			<defs>
				<rect id="SVGID_3_" width="30" height="30"/>
			</defs>
			<clipPath id="SVGID_4_">
				<use xlink:href="#SVGID_3_"  style="overflow:visible;"/>
			</clipPath>
			<path class="st5" d="M8,11.5c-0.8,0-1.5-0.7-1.5-1.5c0-0.8,0.7-1.5,1.5-1.5h14c0.8,0,1.5,0.7,1.5,1.5c0,0.8-0.7,1.5-1.5,1.5H8z"
				/>
			<path class="st6" d="M22,9c0.6,0,1,0.4,1,1c0,0.6-0.4,1-1,1H8c-0.6,0-1-0.4-1-1c0-0.6,0.4-1,1-1H22 M22,8H8c-1.1,0-2,0.9-2,2
				c0,1.1,0.9,2,2,2h14c1.1,0,2-0.9,2-2C24,8.9,23.1,8,22,8"/>
			<path class="st5" d="M8,16.5c-0.8,0-1.5-0.7-1.5-1.5c0-0.8,0.7-1.5,1.5-1.5h14c0.8,0,1.5,0.7,1.5,1.5c0,0.8-0.7,1.5-1.5,1.5H8z"
				/>
			<path class="st6" d="M22,14c0.6,0,1,0.4,1,1c0,0.6-0.4,1-1,1H8c-0.6,0-1-0.4-1-1c0-0.6,0.4-1,1-1H22 M22,13H8c-1.1,0-2,0.9-2,2
				c0,1.1,0.9,2,2,2h14c1.1,0,2-0.9,2-2C24,13.9,23.1,13,22,13"/>
			<path class="st5" d="M8,21.5c-0.8,0-1.5-0.7-1.5-1.5s0.7-1.5,1.5-1.5h14c0.8,0,1.5,0.7,1.5,1.5s-0.7,1.5-1.5,1.5H8z"/>
			<path class="st6" d="M22,19c0.6,0,1,0.4,1,1s-0.4,1-1,1H8c-0.6,0-1-0.4-1-1s0.4-1,1-1H22 M22,18H8c-1.1,0-2,0.9-2,2
				c0,1.1,0.9,2,2,2h14c1.1,0,2-0.9,2-2C24,18.9,23.1,18,22,18"/>
			<rect x="12.5" y="18" class="st6" width="1" height="4"/>
			<rect x="15.5" y="8" class="st6" width="1" height="4"/>
			<rect x="17.5" y="13" class="st6" width="1" height="4"/>
		</g>
	</g>
</g>
<g class="st7">
	<g>
		<defs>
			<rect id="SVGID_5_" x="30" width="30" height="30"/>
		</defs>
		<clipPath id="SVGID_6_">
			<use xlink:href="#SVGID_5_"  style="overflow:visible;"/>
		</clipPath>
		<g class="st8">
			<defs>
				<rect id="SVGID_7_" x="30" width="30" height="30"/>
			</defs>
			<clipPath id="SVGID_8_">
				<use xlink:href="#SVGID_7_"  style="overflow:visible;"/>
			</clipPath>
			<path class="st9" d="M38,11.5c-0.8,0-1.5-0.7-1.5-1.5c0-0.8,0.7-1.5,1.5-1.5h14c0.8,0,1.5,0.7,1.5,1.5c0,0.8-0.7,1.5-1.5,1.5H38z
				"/>
			<path class="st10" d="M52,9c0.6,0,1,0.4,1,1c0,0.6-0.4,1-1,1H38c-0.6,0-1-0.4-1-1c0-0.6,0.4-1,1-1H52 M52,8H38c-1.1,0-2,0.9-2,2
				c0,1.1,0.9,2,2,2h14c1.1,0,2-0.9,2-2C54,8.9,53.1,8,52,8"/>
			<path class="st9" d="M38,16.5c-0.8,0-1.5-0.7-1.5-1.5c0-0.8,0.7-1.5,1.5-1.5h14c0.8,0,1.5,0.7,1.5,1.5c0,0.8-0.7,1.5-1.5,1.5H38z
				"/>
			<path class="st10" d="M52,14c0.6,0,1,0.4,1,1c0,0.6-0.4,1-1,1H38c-0.6,0-1-0.4-1-1c0-0.6,0.4-1,1-1H52 M52,13H38
				c-1.1,0-2,0.9-2,2c0,1.1,0.9,2,2,2h14c1.1,0,2-0.9,2-2C54,13.9,53.1,13,52,13"/>
			<path class="st9" d="M38,21.5c-0.8,0-1.5-0.7-1.5-1.5s0.7-1.5,1.5-1.5h14c0.8,0,1.5,0.7,1.5,1.5s-0.7,1.5-1.5,1.5H38z"/>
			<path class="st10" d="M52,19c0.6,0,1,0.4,1,1s-0.4,1-1,1H38c-0.6,0-1-0.4-1-1s0.4-1,1-1H52 M52,18H38c-1.1,0-2,0.9-2,2
				c0,1.1,0.9,2,2,2h14c1.1,0,2-0.9,2-2C54,18.9,53.1,18,52,18"/>
			<rect x="42.5" y="18" class="st10" width="1" height="4"/>
			<rect x="45.5" y="8" class="st10" width="1" height="4"/>
			<rect x="47.5" y="13" class="st10" width="1" height="4"/>
		</g>
	</g>
</g>
<g>
	<g>
		<defs>
			<rect id="SVGID_9_" x="60" width="30" height="30"/>
		</defs>
		<clipPath id="SVGID_10_">
			<use xlink:href="#SVGID_9_"  style="overflow:visible;"/>
		</clipPath>
		<g class="st11">
			<defs>
				<rect id="SVGID_11_" x="60" width="30" height="30"/>
			</defs>
			<clipPath id="SVGID_12_">
				<use xlink:href="#SVGID_11_"  style="overflow:visible;"/>
			</clipPath>
			<path class="st12" d="M68,11.5c-0.8,0-1.5-0.7-1.5-1.5c0-0.8,0.7-1.5,1.5-1.5h14c0.8,0,1.5,0.7,1.5,1.5c0,0.8-0.7,1.5-1.5,1.5H68
				z"/>
			<path class="st13" d="M82,9c0.6,0,1,0.4,1,1c0,0.6-0.4,1-1,1H68c-0.6,0-1-0.4-1-1c0-0.6,0.4-1,1-1H82 M82,8H68c-1.1,0-2,0.9-2,2
				c0,1.1,0.9,2,2,2h14c1.1,0,2-0.9,2-2C84,8.9,83.1,8,82,8"/>
			<path class="st12" d="M68,16.5c-0.8,0-1.5-0.7-1.5-1.5c0-0.8,0.7-1.5,1.5-1.5h14c0.8,0,1.5,0.7,1.5,1.5c0,0.8-0.7,1.5-1.5,1.5H68
				z"/>
			<path class="st13" d="M82,14c0.6,0,1,0.4,1,1c0,0.6-0.4,1-1,1H68c-0.6,0-1-0.4-1-1c0-0.6,0.4-1,1-1H82 M82,13H68
				c-1.1,0-2,0.9-2,2c0,1.1,0.9,2,2,2h14c1.1,0,2-0.9,2-2C84,13.9,83.1,13,82,13"/>
			<path class="st12" d="M68,21.5c-0.8,0-1.5-0.7-1.5-1.5s0.7-1.5,1.5-1.5h14c0.8,0,1.5,0.7,1.5,1.5s-0.7,1.5-1.5,1.5H68z"/>
			<path class="st13" d="M82,19c0.6,0,1,0.4,1,1s-0.4,1-1,1H68c-0.6,0-1-0.4-1-1s0.4-1,1-1H82 M82,18H68c-1.1,0-2,0.9-2,2
				c0,1.1,0.9,2,2,2h14c1.1,0,2-0.9,2-2C84,18.9,83.1,18,82,18"/>
			<rect x="72.5" y="18" class="st13" width="1" height="4"/>
			<rect x="75.5" y="8" class="st13" width="1" height="4"/>
			<rect x="77.5" y="13" class="st13" width="1" height="4"/>
		</g>
	</g>
</g>
</svg>
