<?xml version="1.0" encoding="utf-8"?>
<!-- Generator: Adobe Illustrator 24.0.0, SVG Export Plug-In . SVG Version: 6.00 Build 0)  -->
<svg version="1.1" id="Layer_1" xmlns="http://www.w3.org/2000/svg" xmlns:xlink="http://www.w3.org/1999/xlink" x="0px" y="0px"
	 viewBox="0 0 90 30" style="enable-background:new 0 0 90 30;" xml:space="preserve">
<style type="text/css">
	.st0{display:none;}
	.st1{display:inline;fill:#B5B5B5;}
	.st2{display:inline;fill:#A1A1A1;}
	.st3{display:inline;fill:#D7D7D7;}
	.st4{clip-path:url(#SVGID_2_);fill:none;stroke:#000000;}
	.st5{clip-path:url(#SVGID_2_);}
	.st6{clip-path:url(#SVGID_2_);fill:none;stroke:#000000;stroke-width:0.25;}
	.st7{opacity:0.6;}
	.st8{clip-path:url(#SVGID_4_);fill:none;stroke:#000000;}
	.st9{clip-path:url(#SVGID_4_);}
	.st10{clip-path:url(#SVGID_4_);fill:none;stroke:#000000;stroke-width:0.25;}
	.st11{clip-path:url(#SVGID_6_);fill:none;stroke:#000000;}
	.st12{clip-path:url(#SVGID_6_);}
	.st13{clip-path:url(#SVGID_6_);fill:none;stroke:#000000;stroke-width:0.25;}
</style>
<g class="st0">
	<rect y="3" class="st1" width="30" height="24"/>
	<rect x="30" y="3" class="st2" width="30" height="24"/>
	<rect x="60" y="3" class="st3" width="30" height="24"/>
</g>
<g class="st0">
	<rect y="3" class="st3" width="30" height="24"/>
	<rect x="30" y="3" class="st3" width="30" height="24"/>
	<rect x="60" y="3" class="st3" width="30" height="24"/>
</g>
<g>
	<g>
		<defs>
			<rect id="SVGID_1_" width="30" height="30"/>
		</defs>
		<clipPath id="SVGID_2_">
			<use xlink:href="#SVGID_1_"  style="overflow:visible;"/>
		</clipPath>
		<rect x="6.5" y="8" class="st4" width="17" height="14"/>
		<rect x="10.5" y="16" class="st5" width="3" height="3"/>
		<rect x="10.5" y="16" class="st6" width="3" height="3"/>
		<rect x="16.5" y="11" class="st5" width="3" height="3"/>
		<rect x="16.5" y="11" class="st6" width="3" height="3"/>
		<rect x="7" y="17" class="st5" width="3.5" height="1"/>
		<rect x="7" y="17" class="st6" width="3.5" height="1"/>
		<rect x="19.5" y="12" class="st5" width="3.5" height="1"/>
		<rect x="19.5" y="12" class="st6" width="3.5" height="1"/>
		<rect x="11" y="14.7" transform="matrix(0.7389 -0.6739 0.6739 0.7389 -6.4574 13.7656)" class="st5" width="7.1" height="1"/>
	</g>
</g>
<g class="st7">
	<g>
		<defs>
			<rect id="SVGID_3_" x="30" width="30" height="30"/>
		</defs>
		<clipPath id="SVGID_4_">
			<use xlink:href="#SVGID_3_"  style="overflow:visible;"/>
		</clipPath>
		<rect x="36.5" y="8" class="st8" width="17" height="14"/>
		<rect x="40.5" y="16" class="st9" width="3" height="3"/>
		<rect x="40.5" y="16" class="st10" width="3" height="3"/>
		<rect x="46.5" y="11" class="st9" width="3" height="3"/>
		<rect x="46.5" y="11" class="st10" width="3" height="3"/>
		<rect x="37" y="17" class="st9" width="3.5" height="1"/>
		<rect x="37" y="17" class="st10" width="3.5" height="1"/>
		<rect x="49.5" y="12" class="st9" width="3.5" height="1"/>
		<rect x="49.5" y="12" class="st10" width="3.5" height="1"/>
		<rect x="41" y="14.7" transform="matrix(0.7389 -0.6739 0.6739 0.7389 1.377 33.9816)" class="st9" width="7.1" height="1"/>
	</g>
</g>
<g>
	<g>
		<defs>
			<rect id="SVGID_5_" x="60" width="30" height="30"/>
		</defs>
		<clipPath id="SVGID_6_">
			<use xlink:href="#SVGID_5_"  style="overflow:visible;"/>
		</clipPath>
		<rect x="66.5" y="8" class="st11" width="17" height="14"/>
		<rect x="70.5" y="16" class="st12" width="3" height="3"/>
		<rect x="70.5" y="16" class="st13" width="3" height="3"/>
		<rect x="76.5" y="11" class="st12" width="3" height="3"/>
		<rect x="76.5" y="11" class="st13" width="3" height="3"/>
		<rect x="67" y="17" class="st12" width="3.5" height="1"/>
		<rect x="67" y="17" class="st13" width="3.5" height="1"/>
		<rect x="79.5" y="12" class="st12" width="3.5" height="1"/>
		<rect x="79.5" y="12" class="st13" width="3.5" height="1"/>
		<rect x="71" y="14.7" transform="matrix(0.7389 -0.6739 0.6739 0.7389 9.2115 54.1977)" class="st12" width="7.1" height="1"/>
	</g>
</g>
</svg>
