<?xml version="1.0" encoding="utf-8"?>
<!-- Generator: Adobe Illustrator 24.0.0, SVG Export Plug-In . SVG Version: 6.00 Build 0)  -->
<svg version="1.1" id="Layer_1" xmlns="http://www.w3.org/2000/svg" xmlns:xlink="http://www.w3.org/1999/xlink" x="0px" y="0px"
	 viewBox="0 0 165 15" style="enable-background:new 0 0 165 15;" xml:space="preserve">
<style type="text/css">
	.st0{clip-path:url(#SVGID_2_);fill:#DAD9D9;}
	.st1{clip-path:url(#SVGID_2_);fill:#404040;}
	.st2{clip-path:url(#SVGID_2_);}
	.st3{clip-path:url(#SVGID_4_);}
	.st4{font-family:'AbletonSansMedium-Regular';}
	.st5{font-size:12px;}
	.st6{clip-path:url(#SVGID_2_);fill:#5ADB31;}
	.st7{clip-path:url(#SVGID_6_);fill:#DAD9D9;}
	.st8{clip-path:url(#SVGID_6_);fill:#404040;}
	.st9{clip-path:url(#SVGID_6_);}
	.st10{clip-path:url(#SVGID_8_);}
	.st11{clip-path:url(#SVGID_6_);fill:#5ADB31;}
	.st12{clip-path:url(#SVGID_10_);fill:#DAD9D9;}
	.st13{clip-path:url(#SVGID_10_);fill:#404040;}
	.st14{clip-path:url(#SVGID_10_);}
	.st15{clip-path:url(#SVGID_12_);}
	.st16{clip-path:url(#SVGID_10_);fill:#5ADB31;}
</style>
<g>
	<g>
		<defs>
			<rect id="SVGID_1_" width="55" height="15"/>
		</defs>
		<clipPath id="SVGID_2_">
			<use xlink:href="#SVGID_1_"  style="overflow:visible;"/>
		</clipPath>
		<rect class="st0" width="55" height="15"/>
		<path class="st1" d="M1,1h53v13H1V1z M0,15h55V0H0V15z"/>
		<polygon class="st2" points="47.5,10.5 52,4.5 43,4.5 		"/>
		<g class="st2">
			<defs>
				<rect id="SVGID_3_" width="55" height="15"/>
			</defs>
			<clipPath id="SVGID_4_">
				<use xlink:href="#SVGID_3_"  style="overflow:visible;"/>
			</clipPath>
			<g class="st3">
				<text transform="matrix(1 0 0 1 3 11.6426)" class="st4 st5">Sd Rv</text>
			</g>
		</g>
		<rect x="43.5" y="10" class="st2" width="8" height="1"/>
		<polygon class="st6" points="47.5,8.7 50.2,5.5 44.8,5.5 		"/>
	</g>
</g>
<g>
	<g>
		<defs>
			<rect id="SVGID_5_" x="55" width="55" height="15"/>
		</defs>
		<clipPath id="SVGID_6_">
			<use xlink:href="#SVGID_5_"  style="overflow:visible;"/>
		</clipPath>
		<rect x="55" class="st7" width="55" height="15"/>
		<path class="st8" d="M56,1h53v13H56V1z M55,15h55V0H55V15z"/>
		<polygon class="st9" points="102.5,10.5 107,4.5 98,4.5 		"/>
		<g class="st9">
			<defs>
				<rect id="SVGID_7_" x="55" width="55" height="15"/>
			</defs>
			<clipPath id="SVGID_8_">
				<use xlink:href="#SVGID_7_"  style="overflow:visible;"/>
			</clipPath>
			<g class="st10">
				<text transform="matrix(1 0 0 1 58 11.6426)" class="st4 st5">Sd Rv</text>
			</g>
		</g>
		<rect x="98.5" y="10" class="st9" width="8" height="1"/>
		<polygon class="st11" points="102.5,8.7 105.2,5.5 99.8,5.5 		"/>
	</g>
</g>
<g>
	<g>
		<defs>
			<rect id="SVGID_9_" x="110" width="55" height="15"/>
		</defs>
		<clipPath id="SVGID_10_">
			<use xlink:href="#SVGID_9_"  style="overflow:visible;"/>
		</clipPath>
		<rect x="110" class="st12" width="55" height="15"/>
		<path class="st13" d="M111,1h53v13h-53V1z M110,15h55V0h-55V15z"/>
		<polygon class="st14" points="157.5,10.5 162,4.5 153,4.5 		"/>
		<g class="st14">
			<defs>
				<rect id="SVGID_11_" x="110" width="55" height="15"/>
			</defs>
			<clipPath id="SVGID_12_">
				<use xlink:href="#SVGID_11_"  style="overflow:visible;"/>
			</clipPath>
			<g class="st15">
				<text transform="matrix(1 0 0 1 113 11.6426)" class="st4 st5">Sd Rv</text>
			</g>
		</g>
		<rect x="153.5" y="10" class="st14" width="8" height="1"/>
		<polygon class="st16" points="157.5,8.7 160.2,5.5 154.8,5.5 		"/>
	</g>
</g>
</svg>
