<?xml version="1.0" encoding="utf-8"?>
<!-- Generator: Adobe Illustrator 24.0.0, SVG Export Plug-In . SVG Version: 6.00 Build 0)  -->
<svg version="1.1" id="Layer_1" xmlns="http://www.w3.org/2000/svg" xmlns:xlink="http://www.w3.org/1999/xlink" x="0px" y="0px"
	 viewBox="0 0 99 15" style="enable-background:new 0 0 99 15;" xml:space="preserve">
<style type="text/css">
	.st0{clip-path:url(#SVGID_2_);}
	.st1{clip-path:url(#SVGID_4_);}
	.st2{font-family:'AbletonSansMedium-Regular';}
	.st3{font-size:12px;}
	.st4{clip-path:url(#SVGID_6_);}
	.st5{clip-path:url(#SVGID_8_);}
	.st6{clip-path:url(#SVGID_10_);}
	.st7{clip-path:url(#SVGID_12_);}
</style>
<g>
	<g>
		<g>
			<defs>
				<rect id="SVGID_1_" width="33" height="15"/>
			</defs>
			<clipPath id="SVGID_2_">
				<use xlink:href="#SVGID_1_"  style="overflow:visible;"/>
			</clipPath>
			<g class="st0">
				<g>
					<defs>
						<rect id="SVGID_3_" width="33" height="15"/>
					</defs>
					<clipPath id="SVGID_4_">
						<use xlink:href="#SVGID_3_"  style="overflow:visible;"/>
					</clipPath>
					<g class="st1">
						<text transform="matrix(1 0 0 1 3.0952 11.7383)" class="st2 st3">E</text>
						<text transform="matrix(1 0 0 1 9.8952 11.7383)" class="st2 st3">n</text>
						<text transform="matrix(1 0 0 1 16.2952 11.7383)" class="st2 st3">v</text>
					</g>
				</g>
			</g>
		</g>
	</g>
</g>
<g>
	<g>
		<g>
			<defs>
				<rect id="SVGID_5_" x="33" width="33" height="15"/>
			</defs>
			<clipPath id="SVGID_6_">
				<use xlink:href="#SVGID_5_"  style="overflow:visible;"/>
			</clipPath>
			<g class="st4">
				<g>
					<defs>
						<rect id="SVGID_7_" x="33" width="33" height="15"/>
					</defs>
					<clipPath id="SVGID_8_">
						<use xlink:href="#SVGID_7_"  style="overflow:visible;"/>
					</clipPath>
					<g class="st5">
						<text transform="matrix(1 0 0 1 36.0952 11.7383)" class="st2 st3">E</text>
						<text transform="matrix(1 0 0 1 42.8952 11.7383)" class="st2 st3">n</text>
						<text transform="matrix(1 0 0 1 49.2952 11.7383)" class="st2 st3">v</text>
					</g>
				</g>
			</g>
		</g>
	</g>
</g>
<g>
	<g>
		<g>
			<defs>
				<rect id="SVGID_9_" x="66" width="33" height="15"/>
			</defs>
			<clipPath id="SVGID_10_">
				<use xlink:href="#SVGID_9_"  style="overflow:visible;"/>
			</clipPath>
			<g class="st6">
				<g>
					<defs>
						<rect id="SVGID_11_" x="66" width="33" height="15"/>
					</defs>
					<clipPath id="SVGID_12_">
						<use xlink:href="#SVGID_11_"  style="overflow:visible;"/>
					</clipPath>
					<g class="st7">
						<text transform="matrix(1 0 0 1 69.0952 11.7383)" class="st2 st3">E</text>
						<text transform="matrix(1 0 0 1 75.8952 11.7383)" class="st2 st3">n</text>
						<text transform="matrix(1 0 0 1 82.2952 11.7383)" class="st2 st3">v</text>
					</g>
				</g>
			</g>
		</g>
	</g>
</g>
</svg>
