<?xml version="1.0" encoding="utf-8"?>
<!-- Generator: Adobe Illustrator 24.0.0, SVG Export Plug-In . SVG Version: 6.00 Build 0)  -->
<svg version="1.1" id="Layer_1" xmlns="http://www.w3.org/2000/svg" xmlns:xlink="http://www.w3.org/1999/xlink" x="0px" y="0px"
	 viewBox="0 0 222 24" style="enable-background:new 0 0 222 24;" xml:space="preserve">
<style type="text/css">
	.st0{clip-path:url(#SVGID_2_);fill:#B7B7B7;}
	.st1{clip-path:url(#SVGID_2_);fill:#404040;}
	.st2{clip-path:url(#SVGID_2_);fill:#4C8CE1;}
	.st3{clip-path:url(#SVGID_2_);fill:none;stroke:#404040;stroke-miterlimit:10;}
	.st4{clip-path:url(#SVGID_2_);fill:#3E3E3E;}
	.st5{clip-path:url(#SVGID_2_);}
	.st6{opacity:0.9;}
	.st7{clip-path:url(#SVGID_4_);fill:#B7B7B7;}
	.st8{clip-path:url(#SVGID_4_);fill:#404040;}
	.st9{clip-path:url(#SVGID_4_);fill:#4C8CE1;}
	.st10{clip-path:url(#SVGID_4_);fill:none;stroke:#404040;stroke-miterlimit:10;}
	.st11{clip-path:url(#SVGID_4_);fill:#3E3E3E;}
	.st12{clip-path:url(#SVGID_4_);}
	.st13{clip-path:url(#SVGID_6_);fill:#B7B7B7;}
	.st14{clip-path:url(#SVGID_6_);fill:#404040;}
	.st15{clip-path:url(#SVGID_6_);fill:#4C8CE1;}
	.st16{clip-path:url(#SVGID_6_);fill:none;stroke:#404040;stroke-miterlimit:10;}
	.st17{clip-path:url(#SVGID_6_);fill:#3E3E3E;}
	.st18{clip-path:url(#SVGID_6_);}
</style>
<g>
	<g>
		<defs>
			<rect id="SVGID_1_" width="74" height="24"/>
		</defs>
		<clipPath id="SVGID_2_">
			<use xlink:href="#SVGID_1_"  style="overflow:visible;"/>
		</clipPath>
		<rect class="st0" width="74" height="24"/>
		<rect x="24.1" class="st1" width="0.9" height="24"/>
		<rect x="25" class="st2" width="49" height="24"/>
		<rect x="6" y="15" class="st3" width="3" height="3"/>
		<rect x="13" y="7" class="st3" width="3" height="3"/>
		<rect x="7.4" y="11.9" transform="matrix(0.6159 -0.7878 0.7878 0.6159 -5.4909 13.4487)" class="st4" width="7.3" height="1"/>
		<path class="st5" d="M30.9,9.3h3c1.5,0,2.6,0.8,2.6,2.1c0,1.5-1.2,2.2-2.6,2.2h-1.4v2.6h-1.6V9.3z M32.5,12.4h1.2
			c0.7,0,1.2-0.3,1.2-1c0-0.7-0.5-1-1.2-1h-1.2V12.4z M39,13.4v2.8h-1.5V9.3h3.2c1.6,0,2.4,0.8,2.4,1.9c0,0.9-0.5,1.4-1.1,1.6
			c0.4,0.1,0.9,0.5,0.9,1.7v0.3c0,0.5,0,1,0.1,1.3h-1.5c-0.1-0.3-0.2-0.8-0.2-1.5v-0.1c0-0.8-0.2-1.1-1.4-1.1H39z M39,12.2h1.3
			c0.9,0,1.2-0.3,1.2-0.9c0-0.6-0.4-0.9-1.2-0.9H39V12.2z M46,16.2l-2.6-6.9h1.7l1.1,3.2c0.3,1,0.6,1.8,0.7,2.5h0
			c0.1-0.6,0.4-1.5,0.8-2.5l1.1-3.2h1.6l-2.6,6.9H46z M52.7,9.3v6.9h-1.6V9.3H52.7z M59.2,13.2h-3.5v1.8h3.8l-0.2,1.2h-5.2V9.3h5.1
			v1.2h-3.6V12h3.5V13.2z M61.8,16.2L60,9.3h1.7c0.7,3.2,1,4.6,1.1,5.3h0c0.3-1.3,1-3.7,1.4-5.3h1.4c0.4,1.3,1.1,4,1.3,5.3h0
			c0.2-1.5,1-4.2,1.2-5.3h1.5l-2,6.9H66c-0.4-1.5-1-3.8-1.3-4.9h0c-0.3,1.2-0.9,3.5-1.3,4.9H61.8z"/>
	</g>
</g>
<g class="st6">
	<g>
		<defs>
			<rect id="SVGID_3_" x="74" width="74" height="24"/>
		</defs>
		<clipPath id="SVGID_4_">
			<use xlink:href="#SVGID_3_"  style="overflow:visible;"/>
		</clipPath>
		<rect x="74" class="st7" width="74" height="24"/>
		<rect x="98.1" class="st8" width="0.9" height="24"/>
		<rect x="99" class="st9" width="49" height="24"/>
		<rect x="80" y="15" class="st10" width="3" height="3"/>
		<rect x="87" y="7" class="st10" width="3" height="3"/>
		<rect x="81.4" y="11.9" transform="matrix(0.6159 -0.7878 0.7878 0.6159 22.9343 71.749)" class="st11" width="7.3" height="1"/>
		<path class="st12" d="M104.9,9.3h3c1.5,0,2.6,0.8,2.6,2.1c0,1.5-1.2,2.2-2.6,2.2h-1.4v2.6h-1.6V9.3z M106.5,12.4h1.2
			c0.7,0,1.2-0.3,1.2-1c0-0.7-0.5-1-1.2-1h-1.2V12.4z M113,13.4v2.8h-1.5V9.3h3.2c1.6,0,2.4,0.8,2.4,1.9c0,0.9-0.5,1.4-1.1,1.6
			c0.4,0.1,0.9,0.5,0.9,1.7v0.3c0,0.5,0,1,0.1,1.3h-1.5c-0.1-0.3-0.2-0.8-0.2-1.5v-0.1c0-0.8-0.2-1.1-1.4-1.1H113z M113,12.2h1.3
			c0.9,0,1.2-0.3,1.2-0.9c0-0.6-0.4-0.9-1.2-0.9H113V12.2z M120,16.2l-2.6-6.9h1.7l1.1,3.2c0.3,1,0.6,1.8,0.7,2.5h0
			c0.1-0.6,0.4-1.5,0.8-2.5l1.1-3.2h1.6l-2.6,6.9H120z M126.7,9.3v6.9h-1.6V9.3H126.7z M133.2,13.2h-3.5v1.8h3.8l-0.2,1.2h-5.2V9.3
			h5.1v1.2h-3.6V12h3.5V13.2z M135.8,16.2L134,9.3h1.7c0.7,3.2,1,4.6,1.1,5.3h0c0.3-1.3,1-3.7,1.4-5.3h1.4c0.4,1.3,1.1,4,1.3,5.3h0
			c0.2-1.5,1-4.2,1.2-5.3h1.5l-2,6.9H140c-0.4-1.5-1-3.8-1.3-4.9h0c-0.3,1.2-0.9,3.5-1.3,4.9H135.8z"/>
	</g>
</g>
<g>
	<g>
		<defs>
			<rect id="SVGID_5_" x="148" width="74" height="24"/>
		</defs>
		<clipPath id="SVGID_6_">
			<use xlink:href="#SVGID_5_"  style="overflow:visible;"/>
		</clipPath>
		<rect x="148" class="st13" width="74" height="24"/>
		<rect x="172.1" class="st14" width="0.9" height="24"/>
		<rect x="173" class="st15" width="49" height="24"/>
		<rect x="154" y="15" class="st16" width="3" height="3"/>
		<rect x="161" y="7" class="st16" width="3" height="3"/>
		
			<rect x="155.4" y="11.9" transform="matrix(0.6159 -0.7878 0.7878 0.6159 51.3594 130.0494)" class="st17" width="7.3" height="1"/>
		<path class="st18" d="M178.9,9.3h3c1.5,0,2.6,0.8,2.6,2.1c0,1.5-1.2,2.2-2.6,2.2h-1.4v2.6h-1.6V9.3z M180.5,12.4h1.2
			c0.7,0,1.2-0.3,1.2-1c0-0.7-0.5-1-1.2-1h-1.2V12.4z M187,13.4v2.8h-1.5V9.3h3.2c1.6,0,2.4,0.8,2.4,1.9c0,0.9-0.5,1.4-1.1,1.6
			c0.4,0.1,0.9,0.5,0.9,1.7v0.3c0,0.5,0,1,0.1,1.3h-1.5c-0.1-0.3-0.2-0.8-0.2-1.5v-0.1c0-0.8-0.2-1.1-1.4-1.1H187z M187,12.2h1.3
			c0.9,0,1.2-0.3,1.2-0.9c0-0.6-0.4-0.9-1.2-0.9H187V12.2z M194,16.2l-2.6-6.9h1.7l1.1,3.2c0.3,1,0.6,1.8,0.7,2.5h0
			c0.1-0.6,0.4-1.5,0.8-2.5l1.1-3.2h1.6l-2.6,6.9H194z M200.7,9.3v6.9h-1.6V9.3H200.7z M207.2,13.2h-3.5v1.8h3.8l-0.2,1.2h-5.2V9.3
			h5.1v1.2h-3.6V12h3.5V13.2z M209.8,16.2L208,9.3h1.7c0.7,3.2,1,4.6,1.1,5.3h0c0.3-1.3,1-3.7,1.4-5.3h1.4c0.4,1.3,1.1,4,1.3,5.3h0
			c0.2-1.5,1-4.2,1.2-5.3h1.5l-2,6.9H214c-0.4-1.5-1-3.8-1.3-4.9h0c-0.3,1.2-0.9,3.5-1.3,4.9H209.8z"/>
	</g>
</g>
</svg>
