<?xml version="1.0" encoding="utf-8"?>
<!-- Generator: Adobe Illustrator 24.0.0, SVG Export Plug-In . SVG Version: 6.00 Build 0)  -->
<svg version="1.1" id="Layer_1" xmlns="http://www.w3.org/2000/svg" xmlns:xlink="http://www.w3.org/1999/xlink" x="0px" y="0px"
	 viewBox="0 0 222 24" style="enable-background:new 0 0 222 24;" xml:space="preserve">
<style type="text/css">
	.st0{clip-path:url(#SVGID_2_);fill:#B7B7B7;}
	.st1{clip-path:url(#SVGID_2_);fill:#404040;}
	.st2{clip-path:url(#SVGID_2_);fill:none;stroke:#404040;stroke-miterlimit:10;}
	.st3{clip-path:url(#SVGID_2_);fill:#3E3E3E;}
	.st4{clip-path:url(#SVGID_2_);fill:#BA60D4;}
	.st5{clip-path:url(#SVGID_2_);}
	.st6{opacity:0.9;}
	.st7{clip-path:url(#SVGID_4_);fill:#B7B7B7;}
	.st8{clip-path:url(#SVGID_4_);fill:#404040;}
	.st9{clip-path:url(#SVGID_4_);fill:none;stroke:#404040;stroke-miterlimit:10;}
	.st10{clip-path:url(#SVGID_4_);fill:#3E3E3E;}
	.st11{clip-path:url(#SVGID_4_);fill:#BA60D4;}
	.st12{clip-path:url(#SVGID_4_);}
	.st13{clip-path:url(#SVGID_6_);fill:#B7B7B7;}
	.st14{clip-path:url(#SVGID_6_);fill:#404040;}
	.st15{clip-path:url(#SVGID_6_);fill:none;stroke:#404040;stroke-miterlimit:10;}
	.st16{clip-path:url(#SVGID_6_);fill:#3E3E3E;}
	.st17{clip-path:url(#SVGID_6_);fill:#BA60D4;}
	.st18{clip-path:url(#SVGID_6_);}
</style>
<g>
	<g>
		<defs>
			<rect id="SVGID_1_" width="74" height="24"/>
		</defs>
		<clipPath id="SVGID_2_">
			<use xlink:href="#SVGID_1_"  style="overflow:visible;"/>
		</clipPath>
		<rect class="st0" width="74" height="24"/>
		<rect x="24.1" class="st1" width="0.9" height="24"/>
		<rect x="6" y="15" class="st2" width="3" height="3"/>
		<rect x="13" y="7" class="st2" width="3" height="3"/>
		<rect x="7.4" y="11.9" transform="matrix(0.6159 -0.7878 0.7878 0.6159 -5.4909 13.4487)" class="st3" width="7.3" height="1"/>
		<rect x="24.8" y="0" class="st4" width="49.2" height="24"/>
		<path class="st5" d="M34.9,9.3h1.6V15h3.6l-0.2,1.2h-5V9.3z M42.5,14.6l-0.6,1.6h-1.5l2.5-6.9h2l2.6,6.9h-1.6l-0.6-1.6H42.5z
			 M44.8,13.4c-0.5-1.5-0.8-2.4-1-3h0c-0.2,0.7-0.5,1.8-1,3H44.8z M48.8,10.5h-2.2V9.3h6v1.2h-2.2v5.7h-1.6V10.5z M59.2,14.1
			c-0.3,1.3-1.3,2.2-3.1,2.2c-2.3,0-3.4-1.5-3.4-3.5c0-1.9,1.1-3.6,3.5-3.6c1.9,0,2.9,1.1,3,2.2h-1.6c-0.2-0.5-0.5-1.1-1.5-1.1
			c-1.3,0-1.8,1.1-1.8,2.4c0,1.2,0.4,2.4,1.8,2.4c1,0,1.3-0.7,1.5-1.1H59.2z M60.1,9.3h1.6V12h2.9V9.3h1.6v6.9h-1.6v-3h-2.9v3h-1.6
			V9.3z"/>
	</g>
</g>
<g class="st6">
	<g>
		<defs>
			<rect id="SVGID_3_" x="74" width="74" height="24"/>
		</defs>
		<clipPath id="SVGID_4_">
			<use xlink:href="#SVGID_3_"  style="overflow:visible;"/>
		</clipPath>
		<rect x="74" class="st7" width="74" height="24"/>
		<rect x="98.1" class="st8" width="0.9" height="24"/>
		<rect x="80" y="15" class="st9" width="3" height="3"/>
		<rect x="87" y="7" class="st9" width="3" height="3"/>
		<rect x="81.4" y="11.9" transform="matrix(0.6159 -0.7878 0.7878 0.6159 22.9343 71.749)" class="st10" width="7.3" height="1"/>
		<rect x="98.8" y="0" class="st11" width="49.2" height="24"/>
		<path class="st12" d="M108.9,9.3h1.6V15h3.6l-0.2,1.2h-5V9.3z M116.5,14.6l-0.6,1.6h-1.5l2.5-6.9h2l2.6,6.9h-1.6l-0.6-1.6H116.5z
			 M118.8,13.4c-0.5-1.5-0.8-2.4-1-3h0c-0.2,0.7-0.5,1.8-1,3H118.8z M122.8,10.5h-2.2V9.3h6v1.2h-2.2v5.7h-1.6V10.5z M133.2,14.1
			c-0.3,1.3-1.3,2.2-3.1,2.2c-2.3,0-3.4-1.5-3.4-3.5c0-1.9,1.1-3.6,3.5-3.6c1.9,0,2.9,1.1,3,2.2h-1.6c-0.2-0.5-0.5-1.1-1.5-1.1
			c-1.3,0-1.8,1.1-1.8,2.4c0,1.2,0.4,2.4,1.8,2.4c1,0,1.3-0.7,1.5-1.1H133.2z M134.1,9.3h1.6V12h2.9V9.3h1.6v6.9h-1.6v-3h-2.9v3
			h-1.6V9.3z"/>
	</g>
</g>
<g>
	<g>
		<defs>
			<rect id="SVGID_5_" x="148" width="74" height="24"/>
		</defs>
		<clipPath id="SVGID_6_">
			<use xlink:href="#SVGID_5_"  style="overflow:visible;"/>
		</clipPath>
		<rect x="148" class="st13" width="74" height="24"/>
		<rect x="172.1" class="st14" width="0.9" height="24"/>
		<rect x="154" y="15" class="st15" width="3" height="3"/>
		<rect x="161" y="7" class="st15" width="3" height="3"/>
		
			<rect x="155.4" y="11.9" transform="matrix(0.6159 -0.7878 0.7878 0.6159 51.3594 130.0494)" class="st16" width="7.3" height="1"/>
		<rect x="172.8" y="0" class="st17" width="49.2" height="24"/>
		<path class="st18" d="M182.9,9.3h1.6V15h3.6l-0.2,1.2h-5V9.3z M190.5,14.6l-0.6,1.6h-1.5l2.5-6.9h2l2.6,6.9h-1.6l-0.6-1.6H190.5z
			 M192.8,13.4c-0.5-1.5-0.8-2.4-1-3h0c-0.2,0.7-0.5,1.8-1,3H192.8z M196.8,10.5h-2.2V9.3h6v1.2h-2.2v5.7h-1.6V10.5z M207.2,14.1
			c-0.3,1.3-1.3,2.2-3.1,2.2c-2.3,0-3.4-1.5-3.4-3.5c0-1.9,1.1-3.6,3.5-3.6c1.9,0,2.9,1.1,3,2.2h-1.6c-0.2-0.5-0.5-1.1-1.5-1.1
			c-1.3,0-1.8,1.1-1.8,2.4c0,1.2,0.4,2.4,1.8,2.4c1,0,1.3-0.7,1.5-1.1H207.2z M208.1,9.3h1.6V12h2.9V9.3h1.6v6.9h-1.6v-3h-2.9v3
			h-1.6V9.3z"/>
	</g>
</g>
</svg>
