<?xml version="1.0" encoding="utf-8"?>
<!-- Generator: Adobe Illustrator 24.0.0, SVG Export Plug-In . SVG Version: 6.00 Build 0)  -->
<svg version="1.1" id="Layer_1" xmlns="http://www.w3.org/2000/svg" xmlns:xlink="http://www.w3.org/1999/xlink" x="0px" y="0px"
	 viewBox="0 0 48 16" style="enable-background:new 0 0 48 16;" xml:space="preserve">
<style type="text/css">
	.st0{clip-path:url(#SVGID_2_);}
	.st1{clip-path:url(#SVGID_4_);fill:#B7B7B7;}
	.st2{clip-path:url(#SVGID_4_);}
	.st3{opacity:0.5;clip-path:url(#SVGID_6_);}
	.st4{clip-path:url(#SVGID_8_);fill:#1F1F1F;}
	.st5{opacity:0.9;}
	.st6{clip-path:url(#SVGID_10_);}
	.st7{clip-path:url(#SVGID_12_);fill:#B7B7B7;}
	.st8{clip-path:url(#SVGID_12_);}
	.st9{opacity:0.5;clip-path:url(#SVGID_14_);}
	.st10{clip-path:url(#SVGID_16_);fill:#1F1F1F;}
	.st11{clip-path:url(#SVGID_18_);}
	.st12{clip-path:url(#SVGID_20_);fill:#B7B7B7;}
	.st13{clip-path:url(#SVGID_20_);}
	.st14{opacity:0.5;clip-path:url(#SVGID_22_);}
	.st15{clip-path:url(#SVGID_24_);fill:#1F1F1F;}
</style>
<g>
	<g>
		<defs>
			<rect id="SVGID_1_" width="16" height="16"/>
		</defs>
		<clipPath id="SVGID_2_">
			<use xlink:href="#SVGID_1_"  style="overflow:visible;"/>
		</clipPath>
		<g class="st0">
			<defs>
				<rect id="SVGID_3_" width="16" height="16"/>
			</defs>
			<clipPath id="SVGID_4_">
				<use xlink:href="#SVGID_3_"  style="overflow:visible;"/>
			</clipPath>
			<rect class="st1" width="16" height="16"/>
			<g class="st2">
				<defs>
					<rect id="SVGID_5_" width="16" height="16"/>
				</defs>
				<clipPath id="SVGID_6_">
					<use xlink:href="#SVGID_5_"  style="overflow:visible;"/>
				</clipPath>
				<g class="st3">
					<g>
						<defs>
							<rect id="SVGID_7_" x="4" y="4" width="8.1" height="8.1"/>
						</defs>
						<clipPath id="SVGID_8_">
							<use xlink:href="#SVGID_7_"  style="overflow:visible;"/>
						</clipPath>
						<polygon class="st4" points="8.1,7.3 4.6,4 4,4.7 7.4,8 4.2,11.4 4.8,12 8.1,8.7 11.4,11.8 12,11.2 8.8,8 12,4.6 11.3,4 
													"/>
					</g>
				</g>
			</g>
		</g>
	</g>
</g>
<g class="st5">
	<g>
		<defs>
			<rect id="SVGID_9_" x="16" width="16" height="16"/>
		</defs>
		<clipPath id="SVGID_10_">
			<use xlink:href="#SVGID_9_"  style="overflow:visible;"/>
		</clipPath>
		<g class="st6">
			<defs>
				<rect id="SVGID_11_" x="16" width="16" height="16"/>
			</defs>
			<clipPath id="SVGID_12_">
				<use xlink:href="#SVGID_11_"  style="overflow:visible;"/>
			</clipPath>
			<rect x="16" class="st7" width="16" height="16"/>
			<g class="st8">
				<defs>
					<rect id="SVGID_13_" x="16" width="16" height="16"/>
				</defs>
				<clipPath id="SVGID_14_">
					<use xlink:href="#SVGID_13_"  style="overflow:visible;"/>
				</clipPath>
				<g class="st9">
					<g>
						<defs>
							<rect id="SVGID_15_" x="20" y="4" width="8.1" height="8.1"/>
						</defs>
						<clipPath id="SVGID_16_">
							<use xlink:href="#SVGID_15_"  style="overflow:visible;"/>
						</clipPath>
						<polygon class="st10" points="24.1,7.3 20.6,4 20,4.7 23.4,8 20.2,11.4 20.8,12 24.1,8.7 27.4,11.8 28,11.2 24.8,8 28,4.6 
							27.3,4 						"/>
					</g>
				</g>
			</g>
		</g>
	</g>
</g>
<g>
	<g>
		<defs>
			<rect id="SVGID_17_" x="32" width="16" height="16"/>
		</defs>
		<clipPath id="SVGID_18_">
			<use xlink:href="#SVGID_17_"  style="overflow:visible;"/>
		</clipPath>
		<g class="st11">
			<defs>
				<rect id="SVGID_19_" x="32" width="16" height="16"/>
			</defs>
			<clipPath id="SVGID_20_">
				<use xlink:href="#SVGID_19_"  style="overflow:visible;"/>
			</clipPath>
			<rect x="32" class="st12" width="16" height="16"/>
			<g class="st13">
				<defs>
					<rect id="SVGID_21_" x="32" width="16" height="16"/>
				</defs>
				<clipPath id="SVGID_22_">
					<use xlink:href="#SVGID_21_"  style="overflow:visible;"/>
				</clipPath>
				<g class="st14">
					<g>
						<defs>
							<rect id="SVGID_23_" x="36" y="4" width="8.1" height="8.1"/>
						</defs>
						<clipPath id="SVGID_24_">
							<use xlink:href="#SVGID_23_"  style="overflow:visible;"/>
						</clipPath>
						<polygon class="st15" points="40.1,7.3 36.6,4 36,4.7 39.4,8 36.2,11.4 36.8,12 40.1,8.7 43.4,11.8 44,11.2 40.8,8 44,4.6 
							43.3,4 						"/>
					</g>
				</g>
			</g>
		</g>
	</g>
</g>
</svg>
