<?xml version="1.0" encoding="utf-8"?>
<!-- Generator: Adobe Illustrator 24.0.0, SVG Export Plug-In . SVG Version: 6.00 Build 0)  -->
<svg version="1.1" id="Layer_1" xmlns="http://www.w3.org/2000/svg" xmlns:xlink="http://www.w3.org/1999/xlink" x="0px" y="0px"
	 viewBox="0 0 90 30" style="enable-background:new 0 0 90 30;" xml:space="preserve">
<style type="text/css">
	.st0{display:none;fill:#B5B5B5;}
	.st1{display:none;fill:#A1A1A1;}
	.st2{display:none;fill:#D7D7D7;}
	.st3{clip-path:url(#SVGID_2_);}
	.st4{opacity:0.6;}
	.st5{clip-path:url(#SVGID_4_);}
	.st6{clip-path:url(#SVGID_6_);}
</style>
<rect y="3" class="st0" width="30" height="24"/>
<rect x="30" y="3" class="st1" width="30" height="24"/>
<rect x="60" y="3" class="st2" width="30" height="24"/>
<g>
	<g>
		<defs>
			<rect id="SVGID_1_" width="30" height="30"/>
		</defs>
		<clipPath id="SVGID_2_">
			<use xlink:href="#SVGID_1_"  style="overflow:visible;"/>
		</clipPath>
		<rect x="4.5" y="11" class="st3" width="17" height="4"/>
		<polygon class="st3" points="22.5,12 22.5,16 6.5,16 6.5,17 22.5,17 23,17 23.5,17 23.5,12 		"/>
		<polygon class="st3" points="24.5,14 24.5,18 8.5,18 8.5,19 24.5,19 25,19 25.5,19 25.5,14 		"/>
		<polygon class="st3" points="14,6 10.5,10 17.5,10 		"/>
		<polygon class="st3" points="14,24.1 10.5,20.1 17.5,20.1 		"/>
	</g>
</g>
<g class="st4">
	<g>
		<defs>
			<rect id="SVGID_3_" x="30" width="30" height="30"/>
		</defs>
		<clipPath id="SVGID_4_">
			<use xlink:href="#SVGID_3_"  style="overflow:visible;"/>
		</clipPath>
		<rect x="34.5" y="11" class="st5" width="17" height="4"/>
		<polygon class="st5" points="52.5,12 52.5,16 36.5,16 36.5,17 52.5,17 53,17 53.5,17 53.5,12 		"/>
		<polygon class="st5" points="54.5,14 54.5,18 38.5,18 38.5,19 54.5,19 55,19 55.5,19 55.5,14 		"/>
		<polygon class="st5" points="44,6 40.5,10 47.5,10 		"/>
		<polygon class="st5" points="44,24.1 40.5,20.1 47.5,20.1 		"/>
	</g>
</g>
<g>
	<g>
		<defs>
			<rect id="SVGID_5_" x="60" width="30" height="30"/>
		</defs>
		<clipPath id="SVGID_6_">
			<use xlink:href="#SVGID_5_"  style="overflow:visible;"/>
		</clipPath>
		<rect x="66" y="11" class="st6" width="18" height="2"/>
		<rect x="66" y="14" class="st6" width="18" height="2"/>
		<rect x="66" y="17" class="st6" width="18" height="2"/>
		<polygon class="st6" points="75,20 71,24 79,24 		"/>
		<polygon class="st6" points="75,10 71,6 79,6 		"/>
	</g>
</g>
</svg>
