<?xml version="1.0" encoding="utf-8"?>
<!-- Generator: Adobe Illustrator 24.0.0, SVG Export Plug-In . SVG Version: 6.00 Build 0)  -->
<svg version="1.1" id="Layer_1" xmlns="http://www.w3.org/2000/svg" xmlns:xlink="http://www.w3.org/1999/xlink" x="0px" y="0px"
	 viewBox="0 0 90 30" style="enable-background:new 0 0 90 30;" xml:space="preserve">
<style type="text/css">
	.st0{fill:#B5B5B5;}
	.st1{fill:#A1A1A1;}
	.st2{fill:#D7D7D7;}
	.st3{clip-path:url(#SVGID_2_);}
	.st4{clip-path:url(#SVGID_4_);fill:#1F1F1F;}
	.st5{opacity:0.6;}
	.st6{clip-path:url(#SVGID_6_);}
	.st7{clip-path:url(#SVGID_8_);fill:#1F1F1F;}
	.st8{clip-path:url(#SVGID_10_);}
	.st9{clip-path:url(#SVGID_12_);fill:#1F1F1F;}
</style>
<rect y="3" class="st0" width="30" height="24"/>
<rect x="30" y="3" class="st1" width="30" height="24"/>
<rect x="60" y="3" class="st2" width="30" height="24"/>
<g>
	<g>
		<defs>
			<rect id="SVGID_1_" width="30" height="30"/>
		</defs>
		<clipPath id="SVGID_2_">
			<use xlink:href="#SVGID_1_"  style="overflow:visible;"/>
		</clipPath>
		<g class="st3">
			<defs>
				<rect id="SVGID_3_" width="30" height="30"/>
			</defs>
			<clipPath id="SVGID_4_">
				<use xlink:href="#SVGID_3_"  style="overflow:visible;"/>
			</clipPath>
			<path class="st4" d="M12.7,23.5l-0.3-2.7c-0.2-0.1-0.4-0.2-0.5-0.3c-0.2-0.1-0.3-0.2-0.5-0.3l-2.5,1.1l-2.3-4l2.2-1.7
				c0-0.1,0-0.2,0-0.3v-0.6c0-0.1,0-0.2,0-0.3l-2.2-1.7l2.3-4l2.5,1.1c0.2-0.1,0.3-0.2,0.5-0.3c0.2-0.1,0.3-0.2,0.5-0.3l0.3-2.7h4.7
				l0.3,2.7c0.2,0.1,0.4,0.2,0.5,0.3c0.2,0.1,0.3,0.2,0.5,0.3l2.5-1.1l2.3,4l-2.2,1.7c0,0.1,0,0.2,0,0.3v0.6c0,0.1,0,0.2,0,0.3
				l2.2,1.7l-2.3,4l-2.5-1.1c-0.2,0.1-0.3,0.2-0.5,0.3c-0.2,0.1-0.3,0.2-0.5,0.3l-0.3,2.7H12.7z M14.1,21.8h1.7l0.3-2.3
				c0.4-0.1,0.8-0.3,1.2-0.5c0.4-0.2,0.7-0.5,1-0.8l2.1,0.9l0.8-1.4l-1.8-1.4c0.1-0.2,0.1-0.4,0.1-0.6c0-0.2,0-0.4,0-0.7
				c0-0.2,0-0.4,0-0.7c0-0.2-0.1-0.4-0.1-0.6l1.8-1.4l-0.8-1.4l-2.1,0.9c-0.3-0.3-0.7-0.6-1-0.8c-0.4-0.2-0.8-0.4-1.2-0.5l-0.3-2.3
				h-1.7l-0.3,2.3c-0.4,0.1-0.8,0.3-1.2,0.5c-0.4,0.2-0.7,0.5-1,0.8l-2.1-0.9l-0.8,1.4l1.8,1.4c-0.1,0.2-0.1,0.4-0.1,0.6
				c0,0.2,0,0.4,0,0.7c0,0.2,0,0.4,0,0.7c0,0.2,0.1,0.4,0.1,0.6l-1.8,1.4l0.8,1.4l2.1-0.9c0.3,0.3,0.7,0.6,1,0.8
				c0.4,0.2,0.8,0.4,1.2,0.5L14.1,21.8z M15,18c0.8,0,1.5-0.3,2.1-0.9c0.6-0.6,0.9-1.3,0.9-2.1c0-0.8-0.3-1.5-0.9-2.1
				C16.6,12.3,15.9,12,15,12c-0.8,0-1.5,0.3-2.1,0.9c-0.6,0.6-0.9,1.3-0.9,2.1c0,0.8,0.3,1.5,0.9,2.1C13.5,17.7,14.2,18,15,18"/>
		</g>
	</g>
</g>
<g class="st5">
	<g>
		<defs>
			<rect id="SVGID_5_" x="30" width="30" height="30"/>
		</defs>
		<clipPath id="SVGID_6_">
			<use xlink:href="#SVGID_5_"  style="overflow:visible;"/>
		</clipPath>
		<g class="st6">
			<defs>
				<rect id="SVGID_7_" x="30" width="30" height="30"/>
			</defs>
			<clipPath id="SVGID_8_">
				<use xlink:href="#SVGID_7_"  style="overflow:visible;"/>
			</clipPath>
			<path class="st7" d="M42.7,23.5l-0.3-2.7c-0.2-0.1-0.4-0.2-0.5-0.3c-0.2-0.1-0.3-0.2-0.5-0.3l-2.5,1.1l-2.3-4l2.2-1.7
				c0-0.1,0-0.2,0-0.3v-0.6c0-0.1,0-0.2,0-0.3l-2.2-1.7l2.3-4l2.5,1.1c0.2-0.1,0.3-0.2,0.5-0.3c0.2-0.1,0.3-0.2,0.5-0.3l0.3-2.7h4.7
				l0.3,2.7c0.2,0.1,0.4,0.2,0.5,0.3c0.2,0.1,0.3,0.2,0.5,0.3l2.5-1.1l2.3,4l-2.2,1.7c0,0.1,0,0.2,0,0.3v0.6c0,0.1,0,0.2,0,0.3
				l2.2,1.7l-2.3,4l-2.5-1.1c-0.2,0.1-0.3,0.2-0.5,0.3c-0.2,0.1-0.3,0.2-0.5,0.3l-0.3,2.7H42.7z M44.1,21.8h1.7l0.3-2.3
				c0.4-0.1,0.8-0.3,1.2-0.5c0.4-0.2,0.7-0.5,1-0.8l2.1,0.9l0.8-1.4l-1.8-1.4c0.1-0.2,0.1-0.4,0.1-0.6c0-0.2,0-0.4,0-0.7
				c0-0.2,0-0.4,0-0.7c0-0.2-0.1-0.4-0.1-0.6l1.8-1.4l-0.8-1.4l-2.1,0.9c-0.3-0.3-0.7-0.6-1-0.8c-0.4-0.2-0.8-0.4-1.2-0.5l-0.3-2.3
				h-1.7l-0.3,2.3c-0.4,0.1-0.8,0.3-1.2,0.5c-0.4,0.2-0.7,0.5-1,0.8l-2.1-0.9l-0.8,1.4l1.8,1.4c-0.1,0.2-0.1,0.4-0.1,0.6
				c0,0.2,0,0.4,0,0.7c0,0.2,0,0.4,0,0.7c0,0.2,0.1,0.4,0.1,0.6l-1.8,1.4l0.8,1.4l2.1-0.9c0.3,0.3,0.7,0.6,1,0.8
				c0.4,0.2,0.8,0.4,1.2,0.5L44.1,21.8z M45,18c0.8,0,1.5-0.3,2.1-0.9c0.6-0.6,0.9-1.3,0.9-2.1c0-0.8-0.3-1.5-0.9-2.1
				C46.6,12.3,45.9,12,45,12c-0.8,0-1.5,0.3-2.1,0.9c-0.6,0.6-0.9,1.3-0.9,2.1c0,0.8,0.3,1.5,0.9,2.1C43.5,17.7,44.2,18,45,18"/>
		</g>
	</g>
</g>
<g>
	<g>
		<defs>
			<rect id="SVGID_9_" x="60" width="30" height="30"/>
		</defs>
		<clipPath id="SVGID_10_">
			<use xlink:href="#SVGID_9_"  style="overflow:visible;"/>
		</clipPath>
		<g class="st8">
			<defs>
				<rect id="SVGID_11_" x="60" width="30" height="30"/>
			</defs>
			<clipPath id="SVGID_12_">
				<use xlink:href="#SVGID_11_"  style="overflow:visible;"/>
			</clipPath>
			<path class="st9" d="M72.7,23.5l-0.3-2.7c-0.2-0.1-0.4-0.2-0.5-0.3c-0.2-0.1-0.3-0.2-0.5-0.3l-2.5,1.1l-2.3-4l2.2-1.7
				c0-0.1,0-0.2,0-0.3v-0.6c0-0.1,0-0.2,0-0.3l-2.2-1.7l2.3-4l2.5,1.1c0.2-0.1,0.3-0.2,0.5-0.3c0.2-0.1,0.3-0.2,0.5-0.3l0.3-2.7h4.7
				l0.3,2.7c0.2,0.1,0.4,0.2,0.5,0.3c0.2,0.1,0.3,0.2,0.5,0.3l2.5-1.1l2.3,4l-2.2,1.7c0,0.1,0,0.2,0,0.3v0.6c0,0.1,0,0.2,0,0.3
				l2.2,1.7l-2.3,4l-2.5-1.1c-0.2,0.1-0.3,0.2-0.5,0.3c-0.2,0.1-0.3,0.2-0.5,0.3l-0.3,2.7H72.7z M74.1,21.8h1.7l0.3-2.3
				c0.4-0.1,0.8-0.3,1.2-0.5c0.4-0.2,0.7-0.5,1-0.8l2.1,0.9l0.8-1.4l-1.8-1.4c0.1-0.2,0.1-0.4,0.1-0.6c0-0.2,0-0.4,0-0.7
				c0-0.2,0-0.4,0-0.7c0-0.2-0.1-0.4-0.1-0.6l1.8-1.4l-0.8-1.4l-2.1,0.9c-0.3-0.3-0.7-0.6-1-0.8c-0.4-0.2-0.8-0.4-1.2-0.5l-0.3-2.3
				h-1.7l-0.3,2.3c-0.4,0.1-0.8,0.3-1.2,0.5c-0.4,0.2-0.7,0.5-1,0.8l-2.1-0.9l-0.8,1.4l1.8,1.4c-0.1,0.2-0.1,0.4-0.1,0.6
				c0,0.2,0,0.4,0,0.7c0,0.2,0,0.4,0,0.7c0,0.2,0.1,0.4,0.1,0.6l-1.8,1.4l0.8,1.4l2.1-0.9c0.3,0.3,0.7,0.6,1,0.8
				c0.4,0.2,0.8,0.4,1.2,0.5L74.1,21.8z M75,18c0.8,0,1.5-0.3,2.1-0.9c0.6-0.6,0.9-1.3,0.9-2.1c0-0.8-0.3-1.5-0.9-2.1
				C76.6,12.3,75.9,12,75,12c-0.8,0-1.5,0.3-2.1,0.9c-0.6,0.6-0.9,1.3-0.9,2.1c0,0.8,0.3,1.5,0.9,2.1C73.5,17.7,74.2,18,75,18"/>
		</g>
	</g>
</g>
</svg>
