<?xml version="1.0" encoding="utf-8"?>
<!-- Generator: Adobe Illustrator 24.0.0, SVG Export Plug-In . SVG Version: 6.00 Build 0)  -->
<svg version="1.1" id="Layer_1" xmlns="http://www.w3.org/2000/svg" xmlns:xlink="http://www.w3.org/1999/xlink" x="0px" y="0px"
	 viewBox="0 0 90 30" style="enable-background:new 0 0 90 30;" xml:space="preserve">
<style type="text/css">
	.st0{fill:#7F7F7F;}
	.st1{clip-path:url(#SVGID_2_);}
	.st2{clip-path:url(#SVGID_4_);fill:#B5B5B5;}
	.st3{opacity:0.6;}
	.st4{clip-path:url(#SVGID_6_);}
	.st5{clip-path:url(#SVGID_8_);fill:#B5B5B5;}
	.st6{clip-path:url(#SVGID_10_);}
	.st7{clip-path:url(#SVGID_12_);fill:#B5B5B5;}
</style>
<rect x="30" class="st0" width="30" height="30"/>
<rect class="st0" width="30" height="30"/>
<rect x="60" class="st0" width="30" height="30"/>
<g>
	<g>
		<defs>
			<rect id="SVGID_1_" width="30" height="30"/>
		</defs>
		<clipPath id="SVGID_2_">
			<use xlink:href="#SVGID_1_"  style="overflow:visible;"/>
		</clipPath>
		<g class="st1">
			<defs>
				<rect id="SVGID_3_" width="30" height="30"/>
			</defs>
			<clipPath id="SVGID_4_">
				<use xlink:href="#SVGID_3_"  style="overflow:visible;"/>
			</clipPath>
			<path class="st2" d="M15,7c4.1,0,7.5,3.6,7.5,8s-3.4,8-7.5,8c-4.1,0-7.5-3.6-7.5-8S10.9,7,15,7"/>
		</g>
		<path class="st1" d="M13.4,15.4V19h-1.2v-8.3h3.3c1.7,0,2.7,0.9,2.7,2.2c0,1.1-0.6,1.7-1.4,2C17.4,15,18,15.5,18,17v0.4
			c0,0.6,0,1.3,0.1,1.6H17c-0.2-0.4-0.1-1-0.1-1.8V17c0-1.1-0.3-1.6-1.8-1.6H13.4z M13.4,14.4h1.8c1.2,0,1.7-0.5,1.7-1.3
			c0-0.8-0.6-1.3-1.6-1.3h-1.9V14.4z"/>
	</g>
</g>
<g class="st3">
	<g>
		<defs>
			<rect id="SVGID_5_" x="30" width="30" height="30"/>
		</defs>
		<clipPath id="SVGID_6_">
			<use xlink:href="#SVGID_5_"  style="overflow:visible;"/>
		</clipPath>
		<g class="st4">
			<defs>
				<rect id="SVGID_7_" x="30" width="30" height="30"/>
			</defs>
			<clipPath id="SVGID_8_">
				<use xlink:href="#SVGID_7_"  style="overflow:visible;"/>
			</clipPath>
			<path class="st5" d="M45,7c4.1,0,7.5,3.6,7.5,8s-3.4,8-7.5,8c-4.1,0-7.5-3.6-7.5-8S40.9,7,45,7"/>
		</g>
		<path class="st4" d="M43.4,15.4V19h-1.2v-8.3h3.3c1.7,0,2.7,0.9,2.7,2.2c0,1.1-0.6,1.7-1.4,2C47.4,15,48,15.5,48,17v0.4
			c0,0.6,0,1.3,0.1,1.6H47c-0.2-0.4-0.1-1-0.1-1.8V17c0-1.1-0.3-1.6-1.8-1.6H43.4z M43.4,14.4h1.8c1.2,0,1.7-0.5,1.7-1.3
			c0-0.8-0.6-1.3-1.6-1.3h-1.9V14.4z"/>
	</g>
</g>
<g>
	<g>
		<defs>
			<rect id="SVGID_9_" x="60" width="30" height="30"/>
		</defs>
		<clipPath id="SVGID_10_">
			<use xlink:href="#SVGID_9_"  style="overflow:visible;"/>
		</clipPath>
		<g class="st6">
			<defs>
				<rect id="SVGID_11_" x="60" width="30" height="30"/>
			</defs>
			<clipPath id="SVGID_12_">
				<use xlink:href="#SVGID_11_"  style="overflow:visible;"/>
			</clipPath>
			<path class="st7" d="M75,7c4.1,0,7.5,3.6,7.5,8s-3.4,8-7.5,8c-4.1,0-7.5-3.6-7.5-8S70.9,7,75,7"/>
		</g>
		<path class="st6" d="M73.4,15.4V19h-1.2v-8.3h3.3c1.7,0,2.7,0.9,2.7,2.2c0,1.1-0.6,1.7-1.4,2C77.4,15,78,15.5,78,17v0.4
			c0,0.6,0,1.3,0.1,1.6H77c-0.2-0.4-0.1-1-0.1-1.8V17c0-1.1-0.3-1.6-1.8-1.6H73.4z M73.4,14.4h1.8c1.2,0,1.7-0.5,1.7-1.3
			c0-0.8-0.6-1.3-1.6-1.3h-1.9V14.4z"/>
	</g>
</g>
</svg>
