<?xml version="1.0" encoding="utf-8"?>
<!-- Generator: Adobe Illustrator 24.0.0, SVG Export Plug-In . SVG Version: 6.00 Build 0)  -->
<svg version="1.1" id="Layer_1" xmlns="http://www.w3.org/2000/svg" xmlns:xlink="http://www.w3.org/1999/xlink" x="0px" y="0px"
	 viewBox="0 0 90 30" style="enable-background:new 0 0 90 30;" xml:space="preserve">
<style type="text/css">
	.st0{clip-path:url(#SVGID_2_);fill:#7F7F7F;}
	.st1{clip-path:url(#SVGID_2_);}
	.st2{clip-path:url(#SVGID_4_);fill:#A1A1A1;}
	.st3{clip-path:url(#SVGID_4_);fill-rule:evenodd;clip-rule:evenodd;}
	.st4{clip-path:url(#SVGID_6_);fill:#7F7F7F;}
	.st5{clip-path:url(#SVGID_6_);}
	.st6{clip-path:url(#SVGID_8_);fill:#A1A1A1;}
	.st7{clip-path:url(#SVGID_8_);fill-rule:evenodd;clip-rule:evenodd;}
	.st8{clip-path:url(#SVGID_10_);fill:#7F7F7F;}
	.st9{clip-path:url(#SVGID_10_);}
	.st10{clip-path:url(#SVGID_12_);fill:#A1A1A1;}
	.st11{clip-path:url(#SVGID_12_);fill-rule:evenodd;clip-rule:evenodd;}
	.st12{fill:#B5B5B5;}
	.st13{fill-rule:evenodd;clip-rule:evenodd;}
</style>
<g>
	<g>
		<defs>
			<rect id="SVGID_1_" width="30" height="30"/>
		</defs>
		<clipPath id="SVGID_2_">
			<use xlink:href="#SVGID_1_"  style="overflow:visible;"/>
		</clipPath>
		<rect class="st0" width="30" height="30"/>
		<g class="st1">
			<defs>
				<rect id="SVGID_3_" width="30" height="30"/>
			</defs>
			<clipPath id="SVGID_4_">
				<use xlink:href="#SVGID_3_"  style="overflow:visible;"/>
			</clipPath>
			<path class="st2" d="M15,4.5c5.5,0,10,4.7,10,10.5s-4.5,10.5-10,10.5C9.5,25.5,5,20.8,5,15S9.5,4.5,15,4.5"/>
			<polygon class="st3" points="22.6,15.5 10.6,22.6 10.5,8.5 			"/>
		</g>
	</g>
</g>
<g>
	<g>
		<defs>
			<rect id="SVGID_5_" x="30" width="30" height="30"/>
		</defs>
		<clipPath id="SVGID_6_">
			<use xlink:href="#SVGID_5_"  style="overflow:visible;"/>
		</clipPath>
		<rect x="30" class="st4" width="30" height="30"/>
		<g class="st5">
			<defs>
				<rect id="SVGID_7_" x="30" width="30" height="30"/>
			</defs>
			<clipPath id="SVGID_8_">
				<use xlink:href="#SVGID_7_"  style="overflow:visible;"/>
			</clipPath>
			<path class="st6" d="M45,4.5c5.5,0,10,4.7,10,10.5s-4.5,10.5-10,10.5c-5.5,0-10-4.7-10-10.5S39.5,4.5,45,4.5"/>
			<polygon class="st7" points="52.6,15.5 40.6,22.6 40.5,8.5 			"/>
		</g>
	</g>
</g>
<g>
	<g>
		<defs>
			<rect id="SVGID_9_" x="60" width="30" height="30"/>
		</defs>
		<clipPath id="SVGID_10_">
			<use xlink:href="#SVGID_9_"  style="overflow:visible;"/>
		</clipPath>
		<rect x="60" class="st8" width="30" height="30"/>
		<g class="st9">
			<defs>
				<rect id="SVGID_11_" x="60" width="30" height="30"/>
			</defs>
			<clipPath id="SVGID_12_">
				<use xlink:href="#SVGID_11_"  style="overflow:visible;"/>
			</clipPath>
			<path class="st10" d="M75,4.5c5.5,0,10,4.7,10,10.5s-4.5,10.5-10,10.5c-5.5,0-10-4.7-10-10.5S69.5,4.5,75,4.5"/>
			<polygon class="st11" points="82.6,15.5 70.6,22.6 70.5,8.5 			"/>
		</g>
	</g>
</g>
<ellipse class="st12" cx="45" cy="15" rx="10" ry="10.5"/>
<path id="Polygon_1" class="st13" d="M52.7,15.5l-12.1,7.1l-0.1-14L52.7,15.5z"/>
</svg>
