<?xml version="1.0" encoding="utf-8"?>
<!-- Generator: Adobe Illustrator 24.0.0, SVG Export Plug-In . SVG Version: 6.00 Build 0)  -->
<svg version="1.1" id="Layer_1" xmlns="http://www.w3.org/2000/svg" xmlns:xlink="http://www.w3.org/1999/xlink" x="0px" y="0px"
	 viewBox="0 0 72 24" style="enable-background:new 0 0 72 24;" xml:space="preserve">
<style type="text/css">
	.st0{fill:#FFFFFF;}
	.st1{clip-path:url(#SVGID_2_);fill:#B6B6B6;}
	.st2{clip-path:url(#SVGID_2_);}
	.st3{clip-path:url(#SVGID_4_);fill:#FF382A;}
	.st4{opacity:0.9;}
	.st5{clip-path:url(#SVGID_6_);fill:#B6B6B6;}
	.st6{clip-path:url(#SVGID_6_);}
	.st7{clip-path:url(#SVGID_8_);fill:#FF382A;}
	.st8{clip-path:url(#SVGID_10_);fill:#B6B6B6;}
	.st9{clip-path:url(#SVGID_10_);}
	.st10{clip-path:url(#SVGID_12_);fill:#FF382A;}
</style>
<rect x="24" y="0" class="st0" width="24" height="24"/>
<g>
	<g>
		<defs>
			<rect id="SVGID_1_" width="24" height="24"/>
		</defs>
		<clipPath id="SVGID_2_">
			<use xlink:href="#SVGID_1_"  style="overflow:visible;"/>
		</clipPath>
		<rect class="st1" width="24" height="24"/>
		<g class="st2">
			<defs>
				<rect id="SVGID_3_" width="24" height="24"/>
			</defs>
			<clipPath id="SVGID_4_">
				<use xlink:href="#SVGID_3_"  style="overflow:visible;"/>
			</clipPath>
			<path class="st3" d="M12,18L12,18c-3.3,0-6-2.7-6-6s2.7-6,6-6s6,2.7,6,6S15.3,18,12,18"/>
		</g>
	</g>
</g>
<g class="st4">
	<g>
		<defs>
			<rect id="SVGID_5_" x="24" width="24" height="24"/>
		</defs>
		<clipPath id="SVGID_6_">
			<use xlink:href="#SVGID_5_"  style="overflow:visible;"/>
		</clipPath>
		<rect x="24" class="st5" width="24" height="24"/>
		<g class="st6">
			<defs>
				<rect id="SVGID_7_" x="24" width="24" height="24"/>
			</defs>
			<clipPath id="SVGID_8_">
				<use xlink:href="#SVGID_7_"  style="overflow:visible;"/>
			</clipPath>
			<path class="st7" d="M36,18L36,18c-3.3,0-6-2.7-6-6s2.7-6,6-6s6,2.7,6,6S39.3,18,36,18"/>
		</g>
	</g>
</g>
<g>
	<g>
		<defs>
			<rect id="SVGID_9_" x="48" width="24" height="24"/>
		</defs>
		<clipPath id="SVGID_10_">
			<use xlink:href="#SVGID_9_"  style="overflow:visible;"/>
		</clipPath>
		<rect x="48" class="st8" width="24" height="24"/>
		<g class="st9">
			<defs>
				<rect id="SVGID_11_" x="48" width="24" height="24"/>
			</defs>
			<clipPath id="SVGID_12_">
				<use xlink:href="#SVGID_11_"  style="overflow:visible;"/>
			</clipPath>
			<path class="st10" d="M60,18L60,18c-3.3,0-6-2.7-6-6s2.7-6,6-6s6,2.7,6,6S63.3,18,60,18"/>
		</g>
	</g>
</g>
</svg>
