<?xml version="1.0" encoding="utf-8"?>
<!-- Generator: Adobe Illustrator 24.0.0, SVG Export Plug-In . SVG Version: 6.00 Build 0)  -->
<svg version="1.1" id="Layer_1" xmlns="http://www.w3.org/2000/svg" xmlns:xlink="http://www.w3.org/1999/xlink" x="0px" y="0px"
	 viewBox="0 0 72 24" style="enable-background:new 0 0 72 24;" xml:space="preserve">
<style type="text/css">
	.st0{fill:#FFFFFF;}
	.st1{clip-path:url(#SVGID_2_);fill:#B6B6B6;}
	.st2{clip-path:url(#SVGID_2_);fill:#103EFF;}
	.st3{opacity:0.9;}
	.st4{clip-path:url(#SVGID_4_);fill:#B6B6B6;}
	.st5{clip-path:url(#SVGID_4_);fill:#103EFF;}
	.st6{clip-path:url(#SVGID_6_);fill:#B6B6B6;}
	.st7{clip-path:url(#SVGID_6_);fill:#103EFF;}
</style>
<rect x="24" y="0" class="st0" width="24" height="24"/>
<g>
	<g>
		<defs>
			<rect id="SVGID_1_" width="24" height="24"/>
		</defs>
		<clipPath id="SVGID_2_">
			<use xlink:href="#SVGID_1_"  style="overflow:visible;"/>
		</clipPath>
		<rect class="st1" width="24" height="24"/>
		<polygon class="st2" points="17.9,8.8 11,12.8 11,4.8 		"/>
		<polygon class="st2" points="15,12 15,15 9,15 9,10.5 6,10.5 6,17.5 18,17.5 18,12 		"/>
		<rect x="6" y="7.6" class="st2" width="6.9" height="3"/>
	</g>
</g>
<g class="st3">
	<g>
		<defs>
			<rect id="SVGID_3_" x="24" width="24" height="24"/>
		</defs>
		<clipPath id="SVGID_4_">
			<use xlink:href="#SVGID_3_"  style="overflow:visible;"/>
		</clipPath>
		<rect x="24" class="st4" width="24" height="24"/>
		<polygon class="st5" points="41.9,8.8 35,12.8 35,4.8 		"/>
		<polygon class="st5" points="39,12 39,15 33,15 33,10.5 30,10.5 30,17.5 42,17.5 42,12 		"/>
		<rect x="30" y="7.6" class="st5" width="6.9" height="3"/>
	</g>
</g>
<g>
	<g>
		<defs>
			<rect id="SVGID_5_" x="48" width="24" height="24"/>
		</defs>
		<clipPath id="SVGID_6_">
			<use xlink:href="#SVGID_5_"  style="overflow:visible;"/>
		</clipPath>
		<rect x="48" class="st6" width="24" height="24"/>
		<polygon class="st7" points="65.9,8.8 59,12.8 59,4.8 		"/>
		<polygon class="st7" points="63,12 63,15 57,15 57,10.5 54,10.5 54,17.5 66,17.5 66,12 		"/>
		<rect x="54" y="7.6" class="st7" width="6.9" height="3"/>
	</g>
</g>
</svg>
